<?xml version="1.0" encoding="utf-8"?>
<!-- Generator: Adobe Illustrator 16.0.0, SVG Export Plug-In . SVG Version: 6.00 Build 0)  -->
<!DOCTYPE svg PUBLIC "-//W3C//DTD SVG 1.1//EN" "http://www.w3.org/Graphics/SVG/1.1/DTD/svg11.dtd">
<svg version="1.1" id="ArrowPrev" xmlns="http://www.w3.org/2000/svg" xmlns:xlink="http://www.w3.org/1999/xlink" x="0px" y="0px"
	 width="708.7px" height="425.2px" viewBox="0 0 708.7 425.2" enable-background="new 0 0 708.7 425.2" xml:space="preserve">
<path fill-rule="evenodd" clip-rule="evenodd" fill="#851E25" d="M643.7,213.6c-7.2-11.3,10.3-73.4,13.3-85.6
	c8.2-33.1,11.8-70.1,16.5-104.2c-31.2-19.7-112.8,6.4-144.8,10.3c-40,4.9-91,21.6-140.8,34.7c-23.5,6.2-161.5,76.1-146.8,10.6
	c17.5-77.9-109.8,40.1-124.3,49.1c-27.1,16.8-54.4,48.4-74.2,73.5c-32,40.8,1.7,39.5,28.6,71.3c37.5,44.4,106.2,103.1,158.7,127
	c37.1,16.9,33.6-47.1,62-48.7c28.3-1.5,51.6-5.2,79.1,0.5c71.1,14.8,141.4,43,212.7,54.3c61.4,9.7,43.3-40.9,49.2-85.3
	C637,289.1,633.2,243.8,643.7,213.6C642.4,211.6,642.4,217.3,643.7,213.6z"/>
<path fill-rule="evenodd" clip-rule="evenodd" d="M142.4,346.7c6.7,25.8,52.3,35.5,67.6,56.9c22.9,32.1,47.8,18.9,61.1-13.4
	c14.9-36.2,112.4-7.6,140.7-7.8c31.3-0.2,97.5,13.3,126,25.9c32.3,14.2,97.5,33.5,98.8-8.8c2.1-66.2,6.2-138.1,17.5-203.6
	c4.5-25.8,6.6-92.7,24.4-113.8c7.6-9.1,32.7-69.6,29.8-79C702.6-15.8,353.3,59.3,332,80.1c-13.9,13.6-42.8,11-60.2,18.4
	c-37.3,15.8-9.5-59.3-44.2-74.3C215.4,19,105.4,121.6,88,135c-23.2,17.8-43,44.7-67.9,59.1c-40.5,23.3-9,27.5,1.5,48.7
	c3.5,7.1,49.3,48.3,56.6,47C86,288.3,130.6,341.2,142.4,346.7C143,349.3,140.9,346,142.4,346.7z M638.9,213.6
	c-16.4,47.5-8.6,115.1-13.7,165.3c-5.9,57.3-126.4,0-165.9-7.2c-47.5-8.7-98.1-34.2-146.7-33.2c-47.8,1-33.7,12.3-58.2,52.5
	c-23.3,38.3-62.4-37.3-81.9-38.6c-20.3-1.3-147.9-126.6-142.7-131.4c26.8-24.4,46.4-54.2,75.1-76.8c23.6-18.6,59.6-42.8,79.3-65.2
	c10-11.5,45.1-33.7,49.5-14c7.8,35.7,6,57.7,43.7,43.1c18.9-7.3,146.7-21.7,155.3-38.7C441,52.9,617.6,17.6,634,24.3
	c10.8,4.3,23.6-4.2,34.2,2.5c-2.1,15.3-3.6,36.7-7.8,51.5C655.4,96.4,628.7,197.6,638.9,213.6C637.7,217.3,637.7,211.7,638.9,213.6z
	"/>
</svg>
