<?xml version="1.0" encoding="utf-8"?>
<!-- Generator: Adobe Illustrator 16.0.0, SVG Export Plug-In . SVG Version: 6.00 Build 0)  -->
<!DOCTYPE svg PUBLIC "-//W3C//DTD SVG 1.1//EN" "http://www.w3.org/Graphics/SVG/1.1/DTD/svg11.dtd">
<svg version="1.1" id="SeaLevel" xmlns="http://www.w3.org/2000/svg" xmlns:xlink="http://www.w3.org/1999/xlink" x="0px" y="0px"
	 width="751.2px" height="85px" viewBox="0 0 751.2 80" enable-background="new 0 0 751.2 85" xml:space="preserve">
<path fill-rule="evenodd" clip-rule="evenodd" fill="#000000" d="M-9.4,10.2C2.8,7.1,18.9,25.8,33.5,24.8c14.2-1,34.3-20.2,45.8-11.2
	c18.1,14.2,33.2,17.8,55,8.7c28.1-11.9,25-0.4,54.7,6.3c14.5,3.3,35.2-4.7,45.1-14.8c4.3-4.4,39.9,11.8,51.1,8.4
	c9-3.4,17.4-7.9,25.3-13.3c7.6-3.7,17.3,8.2,24.9,9.3C357.2,21.6,368,8.6,385.8,2c0.9,21.3,45.1,14.6,57.5,11.3
	c32.1-8.3,13-14.7,41.5,1.1c20.3,11.2,49.6-10.8,60.3-4.5c20.5,12,25,24,50.9,16.3c23.5-7,22.2-17.8,45.9-7.5
	c25.4,11,43.8-11.7,63.7-9.1c8.5,1.1,41.5,24.3,52.4,11.7c2.4,37.1,6.2,81.5,9.1,118.6c-49.9,6.6-106.2-1.5-156.6-2.4
	c-70.7-1.2-141.4-2.5-212.1-3.8c-138.2-2.6-276.4-5.4-414.6-7.3"/>
<path fill-rule="evenodd" clip-rule="evenodd" fill="#031634" d="M-14.3,123.7c2.6-37.4,2.8-74.8,7.1-112.1
	c18.1,10.6,33.5,17.3,55,14.4c30.1-4,20.5-9.5,45.9,0.6c12.6,5,29.6,2.8,42.3-1.1c25.1-7.7,24.4-1.7,49.7,4.6
	c19.2,4.8,37.9-7,55.6-12.2c13.4-3.9,30.1,12.5,46.4,6.4c22.5-8.4,23.5-10.8,44.8-4.5c22.4,6.6,31-2,51.1-3
	c18.5-0.9,34.1,5.7,55.1,0.9c11.4-0.8,22.4-3.4,32.9-7.9c9.4,5.1,22.1,15.1,33.3,15c8.9-0.1,36.6-11.7,43.2-7.2
	c21.8,15,32,16.2,58.9,8.8c14.3-4,18.4-15.3,32-5.7c21.3,14.9,54.2-12.5,70.3-1.9c22.8,15.1,45-2.7,47.8,29
	c2.6,30,5.2,59.9,7.8,89.9c-132.9-0.1-257.2-4.2-384.3-6.6c-131.4-2.4-262.8-5.1-394.3-6.9"/>
</svg>
