<?xml version="1.0" encoding="utf-8"?>
<!-- Generator: Adobe Illustrator 16.0.0, SVG Export Plug-In . SVG Version: 6.00 Build 0)  -->
<!DOCTYPE svg PUBLIC "-//W3C//DTD SVG 1.1//EN" "http://www.w3.org/Graphics/SVG/1.1/DTD/svg11.dtd">
<svg version="1.1" id="Layer_1" xmlns="http://www.w3.org/2000/svg" xmlns:xlink="http://www.w3.org/1999/xlink" x="0px" y="0px"
	 width="520.1px" height="424.3px" viewBox="109.5 56.8 520.1 424.3" style="enable-background:new 109.5 56.8 520.1 424.3;"
	 xml:space="preserve">
<style type="text/css">
<![CDATA[
	.st0{fill:#FFFFFF;}
]]>
</style>
<g>
	<g>
		<path class="st0" d="M225.1,410c-16.1,1.8-43.3,15.4-45.4-5.4c-0.6-6.3,8.8-4.4,20.4-2.9c7.1,0.9,11.9-0.3,18.4-1.8
			c13.2-3,27.7-6.2,32-6.4c6-0.2,27.1-11.2,37.8-22C300.3,384.3,230.4,407,225.1,410C223.6,409.5,225.9,409.5,225.1,410z"/>
		<path class="st0" d="M343.4,357.2c1.1-2.1,17.5,4,18.8,5.5c-6.1,2.4-21.8-1.6-28.7-2.5c-11.3-1.5-23.7,3-33.3,8.3
			c-3.5,1.9,1.2-3.8,2.2-4.4c4.8-2.7,8.5-5.4,13.8-7.2C323.4,354.5,336.6,352.7,343.4,357.2C343.9,356.3,342.4,356.6,343.4,357.2z"
			/>
		<path class="st0" d="M492,372.5c3.8-0.2,15.7,3.5,19.6,5c7,2.6,13.5,4.2,21.2,3.6c4.7-0.3,10.2,1.8,14.7,0.9
			c7.8-1.5,15.1-4.6,22.8-6.3c3.4,10.7-39.3,9.1-45.1,7.8C519,382,492.9,378.9,492,372.5C492.4,372.5,492.5,375.9,492,372.5z"/>
		<path class="st0" d="M449.4,362.7c1.7-3.6,24.8,2.1,25.3,8.3c-10.4-2.2-20.7-3.9-31.2-5.7c-3-0.5-21.5-1.1-21.9-0.5
			C423.2,362.2,446.2,361.9,449.4,362.7C449.8,361.9,448,362.4,449.4,362.7z"/>
	</g>
	<g>
		<path class="st0" d="M183,395.4c-0.1,0.8-0.1,1.7-0.2,2.5c-1.1-1.6-2.5-1.9-4.2-1c-7.1-11.3-1.2-12.7,12.7-10.8
			c11.2,1.5,21.2,1.5,32.4-0.5c15.4-2.8,37.2-8.9,48.2-21c8-8.8,21-14.6,32.6-18.5c14.7-4.9,38.2-3.6,50.3,7.9
			c-14.3-3.6-27.9-5.5-42.6-1.4c-14.8,4.1-25.8,19.6-41.1,27.5c-13.9,7.2-25.1,10.9-40.1,14.6C217.5,398,196,401.8,183,395.4
			C183,396.1,183.8,395.8,183,395.4z"/>
		<path class="st0" d="M486,355.4c6.2,0.9,10,1.7,15.7,3.9c10.4,3.9,19.8,5.4,30.8,6.4c9,0.9,21.1-2.3,29.7-5
			c8.8-2.8,15.7-4,16.3,4.7c0.7,11-46,11.9-50.1,11.9C516.5,377.1,486,371.2,486,355.4C488.6,355.8,486,355.7,486,355.4z"/>
		<path class="st0" d="M424.9,358.7c5.3-9.4,33.4-12,42.9-7c-3.9,3.3,0.9,4.2-0.4,7.4C468.2,357.2,427.4,360.5,424.9,358.7
			C426,356.8,425.1,358.8,424.9,358.7z"/>
		<path class="st0" d="M408.4,362.2c-1.2,2-3.4,1.9-5.5,1.3c1.3-3.1,7.6-5.8,11.1-6.1C414.3,361,411.4,363.6,408.4,362.2
			C408,362.8,408.9,362.4,408.4,362.2z"/>
	</g>
	<g>
		<path class="st0" d="M586.9,349.5c-25.9,10.2-57.7,16.1-84.2,5.8c-20.9-8.1-49.3-11.9-71.6-7.6c1.1-0.2,0.3-16.2,5.6-17.1
			c4.8-0.8,11,0.1,15.9-0.8c16.6-3,34.3,2.3,50.5,5.9c15.8,3.5,31.4,10.4,48.3,8.5c7.7-0.9,13.9,0.7,21.6-1.4
			C581.5,340.5,584.2,341.1,586.9,349.5C585.6,350,586.2,347.4,586.9,349.5z"/>
		<path class="st0" d="M351.6,344.7c-15.6-6.2-32.3-10.7-49.3-6.6c-15.5,3.7-23.2,14.1-35.8,22.2c-36.9,24-57.8,24-93.7,21.3
			c-10.7-0.8-1.3-16,2.1-14.6c7.7,3.1,19.7,3.9,27.8,1.9c16.4-4.2,32.7-7.1,48.1-14.5c19.8-9.5,34-25,57.9-25.7
			C312.9,328.7,355.9,337.3,351.6,344.7C350,344.1,351.8,344.5,351.6,344.7z"/>
		<path class="st0" d="M414.6,340.2c4.3,12.6-0.1,10-9.1,17.2c-3,2.4-16,8.5-18.5,7.9C389.5,365.9,408.4,342.6,414.6,340.2
			C414.8,340.8,413.5,340.6,414.6,340.2z"/>
	</g>
	<g>
		<path class="st0" d="M239,356.3c-11.8,2.7-25.4,12.2-37.5,11.3c-5.5-0.4-12.6-1.5-18.5-1.9c-7.1-0.6-11.2-7.3-18.1-4.8
			c-2-6.2,5.1-18.8,7.1-25.3c3.2-10.5,6.3-20.9,9.2-31.5c2.5-9,3.6-19.7,7.8-28.1c2-4,7-12.6,5.2-17.3c-2.3-6.1,2.7-14.8,4.1-20.5
			c1.9-8.9,1.7-21,5.2-29.3c3.1-7.2-0.6-17,0.4-24.6c0.8-5.6,2.8-27.5,7.4-29.7c11.1-5.3,32.6,25.5,32.1,32.2
			c-0.5,8.7-2.1,14.7-4.2,23.4c-2.4,9.4-6.2,17.3-0.3,26.3c8.1,12.4,23.4,9.9,34.2,8.3c13.2-2,20.1-5.1,20.2-20
			c0.2-19.4-4.1-32.9-19.4-45c-11.4-9.1-24.3-17.3-35.5-25.7c-3.8-2.8-15.4-8.7-20-9.5c-11.1-1.9-8.8-8.1-7-18.2
			c-0.5,2.8,39.9,5.9,43.9,8c10.1-0.5,26.3-6,38.9-13c5.1-2.8,17.6-12.5,23.2-14.3c10.1-3.2,18.4-5.4,29.1-5.8
			c4.7-0.2,11.3-0.3,15.7,1.8c1.9-1.6,9.6,4.2,12.4,3.6c17.1-3.3,11.6,25.6,11.7,33.4c0.3,23.9,0,55.7-0.5,85.7
			c-0.3,14.7-2.6,30.9-2.3,45.8c0,1.9-0.3,15.4-1,15.7c0,0,0.6,22.4,0.8,22.9c2.6,5.9-3,18.9-3.2,25.2c-0.1,3.9,1.4,8,0.2,11.7
			c-1.8,5.5-1,15-8.2,9.1c5.4-1.2-15.4-14.3-18.6-17.1c-10.1-8.4-23.1-12.2-35.6-13.6c-15.1-1.8-26.1,2.4-40.1,8.1
			C264.3,339.1,252.4,350.2,239,356.3C237.9,356.5,240.4,355.6,239,356.3z"/>
		<path class="st0" d="M388.5,356.2c-1.9-14.9-1.5-32.8-0.7-47.9c1-19.3,2.4-37.2,3.2-56.5c1.2-31.2-0.4-66.3,0.2-99.1
			c0.1-9.1-0.8-18.6,0.2-27.5c0.5-4.6-1-10.2,0.1-14.5c0.5-1.8,3.9-1.5,4.8-2.8c8.2-12.8,31.2-5.9,42.8-5.3
			c19.1,4.9,31.3,12.5,49.3,13.5c2.6,0.2,11.4-1.1,13,0.5c6.9,7-7.1,21-12.3,23.4c-14.8,6.9-45.3-15.7-49,11.8
			c-2.8,20.9,23.2,27.8,36.6,14.6c11.5-11.3,27.4-14.7,37.1-32.6c4.7-8.6-2.8-19.8-0.6-20.5c6.8-2.2,18.5-9.1,25.5-7.8
			c6.8,1.3,6.4,47.1,7.2,55.4c1.9,18.7,6.8,38,10.7,56.2c2.9,13.5,5.6,27.1,9.1,40.4c3.4,13.1,10.4,28.6,17.7,40
			c3.8,5.9,6.9,16,12,21.1c9.9,9.8,3.5,11.4-8.4,18.1c-13.9,7.5-48.7,5.8-63.1,1.8c-23.4-6.5-41.7-14.1-66.4-13.2
			c-14.8,0.5-26.2,3.1-39.9,7.7C404.2,337.6,399.5,349.3,388.5,356.2C388.1,353.4,388.9,356,388.5,356.2z"/>
	</g>
</g>
<g>
	<path d="M201.9,331.3c-0.4-0.6-0.5-1.3-0.2-2c8.1-2.5,23.1,2.9,33.2-1.5C232.8,333.6,207.1,331.9,201.9,331.3
		C201.8,331.1,211.2,332.3,201.9,331.3z"/>
	<path d="M281.8,273.1c-1.4,1.4-17,11-17.1,8.1C264.6,277.2,279.2,270.7,281.8,273.1z"/>
	<path d="M348.5,136.1c6-1,11.7-1.5,18.9-0.4C368.2,142,352,137.7,348.5,136.1C349.8,135.9,349.4,136.5,348.5,136.1z"/>
	<path d="M323.7,215.7c1.1-0.4-8.7,3.8-9.5,5.2c-0.5-1.8-6,0.8-5.3-1C310.5,216,321,211.2,323.7,215.7
		C323.9,215.6,323.5,215.2,323.7,215.7z"/>
	<path d="M364.8,179.9c-4.7-3.1-10-4-15.5-2.9c-3.2-7.4,27.3,1.8,19.2,5.1C367,181.9,365.7,181.1,364.8,179.9
		C359.8,176.5,364.9,180.4,364.8,179.9z"/>
	<path d="M237.7,306.5c-6.4,4.2-23-2.5-30.7-3.2C211.9,295,230,309.4,237.7,306.5C235.4,308,236.3,307,237.7,306.5z"/>
	<path d="M353.2,314.4c-4.9-0.9-14.2-9.7-17.7-8.8c-0.3-0.7,0.1-1.3,1.1-1.7c-1.9,1-3.2,0.6-3.7-1.4
		C334.2,300.8,351.1,310.2,353.2,314.4C350.1,313.8,352,311.9,353.2,314.4z"/>
	<path d="M332.6,178.9c-0.8,0.2-10,3.7-11,0.6c-0.9-2.7,14.7-5.6,16.5-0.2C336.2,179.7,334.4,179.5,332.6,178.9
		C330.8,179.3,333.1,179.1,332.6,178.9z"/>
	<path d="M365.5,157.3c-1.8,2.1-9.7-1.2-13.5-2C354.1,149.8,364.2,152,365.5,157.3C364.9,157.9,365.5,157.1,365.5,157.3z"/>
	<path d="M305.1,206.1c3.5-5.7,7-7.5,12.8-5.8C315.1,202.7,309,208,305.1,206.1C305.5,205.6,307.1,207,305.1,206.1z"/>
	<path d="M291.4,270.1c-0.6,0.7-1.2,1.5-1.9,2.2c-2-6.1,13.8-8.6,16.5-4.5C303.3,268.5,296.2,270.8,291.4,270.1
		C290.9,270.7,292.2,270.2,291.4,270.1z"/>
	<path d="M306.1,257.4c2.3-2.1,11.9-6.9,14.3-0.8c0.5-1.9,0.7-1.7,2.4-0.5C320.9,258.2,309.4,258.5,306.1,257.4
		C307.6,256.1,306.8,257.7,306.1,257.4z"/>
	<path d="M302.9,147.8c-2.1,6.4-10.1,2.1-11.2,10c0.2,0.2-8.6-2.2-2-4.6C294.5,151.6,298.2,150.3,302.9,147.8
		C302.6,148.6,300.7,149,302.9,147.8z"/>
	<path d="M275.8,294c0.9-3.5,11.4-8.3,15.9-8.5C290.2,288.6,279.5,293.8,275.8,294C275.9,293.6,277.4,293.9,275.8,294z"/>
	<path d="M339.2,285.9c2.5,0.8,18.4,7.1,17.6,10.2C350,295.1,344.1,290.9,339.2,285.9C341.2,286.6,340,286.8,339.2,285.9z"/>
	<path d="M228.3,283.1c1.3-0.5,4,0.3,4,1.5c-2.2-0.2-18.2-1.6-17.3-4.5C215.9,277,227.8,282.6,228.3,283.1
		C230.4,282.3,227.9,282.7,228.3,283.1z"/>
	<path d="M218.7,259.8c5,1.8,10.1,5,14.1,8.6c0.7-2.8,0.8-2.1,2.2,0.4C232,269.1,216.6,263.1,218.7,259.8
		C220.6,260.5,217.8,261.2,218.7,259.8z"/>
	<path d="M356.4,214.1c3.3-3.4,11,2.9,12.7,5.4C363.5,219.2,361.1,216.8,356.4,214.1C358,212.5,356.9,214.4,356.4,214.1z"/>
	<path d="M331.5,136.9c-0.3,3.2-9.8,8.3-13.4,7.4C320.7,139.7,326.7,138.9,331.5,136.9C331.4,138.1,327.7,138.5,331.5,136.9z"/>
	<path d="M361.8,263.8c-2,1-2.9,0.4-2.5-1.8c-2,3.2-8.2-2.3-7.9-5.1C351.7,254.5,361.4,263.4,361.8,263.8
		C360.8,264,359.1,260.5,361.8,263.8z"/>
	<path d="M325.1,197.6c4.2-2.8,4.7-2.1,8.9-0.5c-0.9,2.6-9.4,1.7-11.8,3.1C321.2,198.2,324.9,196.4,325.1,197.6
		C326,197,325.1,197.4,325.1,197.6z"/>
	<path d="M262.1,298c-0.6,0.5-1.3,1.1-1.9,1.6c-0.8-6.1,7.8-3.8,11.8-5.8C271.6,296.8,262.7,299,262.1,298
		C261.5,298.5,262.4,298.5,262.1,298z"/>
	<path d="M301,186.5c-3.1,1.4-5.1,1.8-8.2,2.6C291.4,183.8,299.8,182.4,301,186.5C299.6,187.1,300.6,185.1,301,186.5z"/>
	<path d="M280.2,262.7c-1.5-5,13.8-6.3,14.7-3.9C290.8,261.1,284.5,260.3,280.2,262.7C280,262.1,280.9,262.3,280.2,262.7z"/>
	<path d="M310.4,183c4.7-2.4,4.8-2.9,9.6-0.8C319,183.8,310.5,187.2,310.4,183C311.8,182.2,310.4,183.7,310.4,183z"/>
	<path d="M333.5,158.9c0.5-3.2,3.5-0.2,3.7,1.4c-3.7-0.7-12,1.6-14.2-0.4c2.4,0.8,3.7,0,3.9-2.4
		C326.5,156.8,335.1,158.4,333.5,158.9C333.6,158.5,333.4,159,333.5,158.9z"/>
	<path d="M339.1,231c5.4-2.8,5-1.3,9.8,0.4C347.7,234.9,340.7,231.9,339.1,231C340.5,230.2,340.4,231.8,339.1,231z"/>
	<path d="M310,232.1c-0.7,3.3-9.4,5-12.6,5.9C296.5,232.9,307.3,233.5,310,232.1C309.8,233,309.2,232.5,310,232.1z"/>
	<path d="M313.8,278.9c-1.2-0.1,10.5,1.7,6.7,3.5c-1.7,0.6-11.3-0.3-11.7-1.7C310.2,280.4,313.3,280.8,313.8,278.9
		C315.2,279,313.5,279.9,313.8,278.9z"/>
	<path d="M270.3,312.4c-0.6,0.2-11.2,4.5-11,5C257.9,311.9,266.9,311.1,270.3,312.4C267.9,313.2,269.6,312.1,270.3,312.4z"/>
	<path d="M317.4,301c0.4-2,1.2-2,2.3-0.1C299.2,303.8,314.3,296.8,317.4,301C317.7,300.5,317.3,300.8,317.4,301z"/>
	<path d="M348.3,194c3.6-5.3,9.6,1.4,11.4,1.4C355.8,195,352.3,194.3,348.3,194C348.6,193.5,350.6,194.2,348.3,194z"/>
	<path d="M262.1,265.2c-1.1,0.7-8.3,4.6-10.5,3.3C254.4,264.9,258.2,263.5,262.1,265.2C261.5,265.6,261.4,264.9,262.1,265.2z"/>
	<path d="M248.2,322.7c3.7,3-5.4,5.5-7.8,4.3C242.3,324.5,245.6,324.4,248.2,322.7C248.2,322.7,247.6,323.1,248.2,322.7z"/>
	<path d="M292.7,307.1c-3.3-0.5-6.7,1.3-9.9,2.3C281.9,305.1,290.8,304.1,292.7,307.1C291.5,306.9,292.3,306.4,292.7,307.1z"/>
	<path d="M353.7,278.4c-2.1-0.4-11.7-5.4-12.3-7.5C344.6,270.3,352.4,275.4,353.7,278.4C350.6,277.8,353.3,277.5,353.7,278.4z"/>
	<path d="M355.5,233c3.5-0.5,7.3,4.8,9.4,7.2C363,242.6,354.9,235.2,355.5,233C356,232.9,355.5,233.2,355.5,233z"/>
	<path d="M282.8,172.5c5.3-1.4,6.7-0.5,10.6-0.8C293.5,172.8,283.8,176,282.8,172.5C285.4,171.8,282.9,172.9,282.8,172.5z"/>
	<path d="M322.2,231.2c0,3.6-3.9,1.8-4.6-0.5c-1.5,1.8-3.4,2.9-5.8,3.2C311.8,228.4,318.8,231.6,322.2,231.2
		C322.2,232.8,321.1,231.4,322.2,231.2z"/>
	<path d="M243.5,306c-0.3-1.6-1.2-3.3,1.3-3.9C246.3,304,246,305.3,243.5,306z"/>
	<path d="M281.9,273.2c1.1-2.2,3.9-1.7,6-1.6C284.9,273.6,285,273.1,281.9,273.2z"/>
	<path d="M250.9,283.4c0.1,2.4-0.3,0.9-3.8,0.7C246.9,281.9,249.9,283.2,250.9,283.4C250.9,283.5,249.9,283.2,250.9,283.4z"/>
	<path d="M252.8,300.9c1.8-0.9,2.9-0.8,3.5,0.3C258.2,300.4,250,303.4,252.8,300.9C253.9,300.9,252.7,301,252.8,300.9z"/>
	<path d="M333.8,139.9c-0.3-1.7,0.1-2.6,1.3-2.7C336.1,138.3,335.4,140.5,333.8,139.9C334.1,139,334.1,140,333.8,139.9z"/>
	<path d="M235.6,267.7c1.3-0.5,2.3-0.2,3.4,0.9C235.9,268.8,235.9,268.8,235.6,267.7z"/>
	<path d="M341.4,214.4c-1.8,0.4-2.5-0.4-2.1-2.2C339.5,213.8,342.2,212,341.4,214.4C340.8,214.4,342.1,212.2,341.4,214.4z"/>
	<path d="M494.6,285.4c2.1-1.7,12.4-4.4,12.6-2.6c2.2-1.1,20.4-10.7,20.1-13.4c5.6,3-8.6,10.1-12.3,12.4
		C511.9,283.6,496.8,288,494.6,285.4C494.8,285.2,495.5,286.5,494.6,285.4z"/>
	<path d="M408.1,204.8c2.1-1.9,19-5.1,20.9-1.5C430.6,206.5,410.6,205.4,408.1,204.8C408.8,204.2,409.9,205.2,408.1,204.8z"/>
	<path d="M453,210c5.8,7-13.4,4-13-0.1C440.6,204.4,452.8,213.4,453,210C453.4,210.4,453,210.1,453,210z"/>
	<path d="M408.7,128c1.8-4,9.4-3,12.7-2.2c5.1,1.1,2.4,5.3,1.5,3.4C417.9,131,412.1,127.8,408.7,128C409.6,126,409.7,128,408.7,128z
		"/>
	<path d="M407.2,303.4c2.8-4.5,15.6-3.8,15.6-3.8C421.4,302.1,408.8,305.2,407.2,303.4C407.9,302.3,408.9,305.3,407.2,303.4z"/>
	<path d="M425.7,246.7c-3.7,1.6-15.9-2.3-19.4-4.3C410.1,241.1,424.3,241.2,425.7,246.7C423.1,247.8,425.5,246,425.7,246.7z"/>
	<path d="M562,306.5c5.6,4-3.1,5.6-6.3,7.6C553.3,315.5,555.3,307.6,562,306.5C562.7,307,561.1,306.7,562,306.5z"/>
	<path d="M487.3,255.7c0.7-0.6,1.5-0.7,2.3-0.3c1.5,1.5-14.1,4.6-17.6,1.8C476.7,254.6,482.1,254.9,487.3,255.7
		C487.4,255.6,486.1,255.5,487.3,255.7z"/>
	<path d="M458.7,271.6c4.5-4.5,8.5,6.8,11.9,4.3C474.7,280.3,460.7,277.2,458.7,271.6C460.3,270,458.8,271.8,458.7,271.6z"/>
	<path d="M448.9,269.5c1.2,3.1-11.7,6.3-13.4,4.2C431.5,268.7,447.4,269.6,448.9,269.5C449.5,271.2,446.4,269.7,448.9,269.5z"/>
	<path d="M529.8,186.9c-6.5-0.5-0.1-7.6,3.4-7.5C539.1,179.6,532.9,186.4,529.8,186.9C528.9,186.8,532,186.6,529.8,186.9z"/>
	<path d="M411.3,180.1c-1.6,1.4-1.7,1-3.3-0.8c4.3-3.6,8.6-1.3,13.7-0.8C421.4,183,414.2,180.7,411.3,180.1
		C411,180.4,413.2,180.5,411.3,180.1z"/>
	<path d="M513.2,168.7c-2.7,0.7-14.1,4-15.4,0.2C497,166.3,511.6,167.1,513.2,168.7C512,169,511.4,166.8,513.2,168.7z"/>
	<path d="M437,153.7c3-3.7-1,3.8-1.4,4.3c-1.6-4-11.1-4.1-10.6-8.7C429.2,150.1,432.9,151.9,437,153.7
		C437.3,153.3,434.3,152.5,437,153.7z"/>
	<path d="M522.8,312.2C545.5,316.9,515.5,318.7,522.8,312.2C525.3,312.7,521.8,313.1,522.8,312.2z"/>
	<path d="M445.4,126.7c-3.6,0.6-7.2-0.2-9.9-2.6c2.1-2.2,6.2-2.8,8.7-0.8C446.2,124.9,446.5,128,445.4,126.7
		C444.6,126.8,445.6,126.9,445.4,126.7z"/>
	<path d="M440.8,311.5c-4.1,0.3-8.1,0.9-12.2-0.6C430.8,307.7,449.6,307.2,440.8,311.5C439.7,311.5,441.2,311.3,440.8,311.5z"/>
	<path d="M495.5,211.8c-0.4,1.2-0.9,2.5-1.3,3.7c-1.4-2.5-8,2.1-10.1-0.1C479.8,210.8,495.1,211.8,495.5,211.8
		C495,213.2,494.7,211.8,495.5,211.8z"/>
	<path d="M456.6,294c2.7-1,4.5-0.6,5.4,1.2c-1.7,3.7-7.3,1.7-10.6,1.4C447.7,296.2,452.5,289.6,456.6,294
		C458.6,294.2,455.4,292.7,456.6,294z"/>
	<path d="M527,242.1c-1.3-6.3,13-5.8,9,0.8C535,240.8,529.1,241.6,527,242.1C526.4,239.5,529.7,241.4,527,242.1z"/>
	<path d="M445.3,186.8C425.9,177.2,448.8,183.4,445.3,186.8C443.8,186,446,186.1,445.3,186.8z"/>
	<path d="M531,160.1c-0.9,1.4-4.9,7.6-7.3,6.1C519.3,163.5,527.9,156.1,531,160.1C530.7,160.6,530.9,159.9,531,160.1z"/>
	<path d="M445,254c2-0.6,7.7,0.1,9.2,1.7c-2.7,1.8-8.7,0-9.1,0.5C438.5,263.2,444.6,245.6,445,254C446.6,253.5,444.9,252.7,445,254z
		"/>
	<path d="M540.6,287.4C541.8,296.4,517.8,290.8,540.6,287.4C540.9,289.5,539.1,287.7,540.6,287.4z"/>
	<path d="M457.8,233.2c2.5-0.5,14.2-2.4,15.1-1.2C474.3,234,458.9,237.2,457.8,233.2C459.5,232.8,458.4,235.4,457.8,233.2z"/>
	<path d="M435.1,230.5c1.5-4.4,9.3,1.2,12.2,2C443.2,235.9,438.6,233.4,435.1,230.5C435.7,229,436.1,231.3,435.1,230.5z"/>
	<path d="M513.3,206.4c12.2-5.5-0.6,8.2-4.5,3.9C507.1,208.6,512.2,203.6,513.3,206.4C513.5,206.3,513.2,206.3,513.3,206.4z"/>
	<path d="M412.9,152.4c-0.7,0.2-5.9,2.4-4.8-1.2c0.8-2.4,11.3-2.7,13.3-2.8C422.1,153.8,413.8,149.7,412.9,152.4
		C411.8,152.8,413.4,150.6,412.9,152.4z"/>
	<path d="M478,309.1c-1.8,1.9-13.9,3.2-13.7-0.8C464.5,305.4,476.9,308.6,478,309.1C477.7,309.4,477.6,308.9,478,309.1z"/>
	<path d="M475.8,215.2c-4.6,1.7-8.6,3-12.9-0.1C463.7,215.7,472.8,211.4,475.8,215.2C474,215.9,475.2,214.5,475.8,215.2z"/>
	<path d="M469.3,130.3c-2,2.6-15.7-1.3-13.2-4.7C459.5,127.3,466.8,127.6,469.3,130.3C468.9,130.7,468.8,129.7,469.3,130.3z"/>
	<path d="M498.4,192.3c-1.5-4.5,10.6-3.3,12.3-3.8C509.3,193.6,502.6,192.6,498.4,192.3C497.9,190.9,498.9,192.3,498.4,192.3z"/>
	<path d="M514.5,223.3c-0.8,7.1-10.7,2.4-11.9,5.7C504,225.9,513.9,223,514.5,223.3C514.4,224.1,514.3,223.2,514.5,223.3z"/>
	<path d="M485.5,195.8c-2.8,0.2-6.2-0.5-8.4-2.4C480.3,190,485.9,190.7,485.5,195.8C484.1,195.9,485.5,194.9,485.5,195.8z"/>
	<path d="M487.3,299c-3.2,0.3-8.8,2-11.2-1c3.8-0.9,10.4-2.6,13.9-0.5C489.6,297.8,487.7,300.1,487.3,299
		C485.2,299.2,487.3,299,487.3,299z"/>
	<path d="M409,278.3c0.5-4.4,12.4-5.5,16.2-5.4C422.5,276.3,413.5,277.1,409,278.3C409.2,276.7,411.3,277.7,409,278.3z"/>
	<path d="M527.1,219.6c0.1-3.3,7.9-3.1,5.7,0.2C531.4,222,527,224.7,527.1,219.6C527.1,218.7,527.1,220.9,527.1,219.6z"/>
	<path d="M502.2,311c1.5-0.9,8.7-2.3,9.9-0.1C514.4,315.2,502.2,310.9,502.2,311C504,309.9,503.9,311.7,502.2,311z"/>
	<path d="M454.1,189.7c3.5-3.8,8,3,8,4.3C457.8,191.8,458.9,193.9,454.1,189.7C456.3,187.3,455.4,190.8,454.1,189.7z"/>
	<path d="M419.2,221.9c-1.9,1.9-9.6,2.6-9.5-0.8C411.2,221.1,417.7,220,419.2,221.9C417.5,223.5,417.8,220.2,419.2,221.9z"/>
	<path d="M535.2,267.8c-0.7-2.4,4.4-6.8,5.4-3.6C541.4,266.7,536.9,268.1,535.2,267.8C534.6,265.3,537.3,268.1,535.2,267.8z"/>
	<path d="M502.1,250.4c1.5,1.1,2.9-2.4,4.2-0.2c1.5,2.4-4.9,3.5-6.4,3.6C499.8,252,500.5,250.9,502.1,250.4
		C502.3,250.5,501.6,250.7,502.1,250.4z"/>
	<path d="M505.3,298.9c1.7-1.8,6.4-2.4,8.6-2.2C511.5,299.8,508.7,300.2,505.3,298.9C506.9,297.2,506.2,299.2,505.3,298.9z"/>
	<path d="M489.7,231.3c1.6,3.7-7.1,3-6,0.9C485.3,230.5,487.3,230.2,489.7,231.3C490.5,233.2,488.2,231.2,489.7,231.3z"/>
	<path d="M414.5,313.9c-1.6,2.4-4.6,3.8-7.3,2.5C406.5,316,412.8,313.3,414.5,313.9C414.2,314.4,413.9,313.7,414.5,313.9z"/>
	<path d="M480.6,285.5c2,0.1,6.5-2.9,6.2,1.1C486.8,287.4,480.6,288.1,480.6,285.5C481.8,285.6,480.6,285.7,480.6,285.5z"/>
	<path d="M419.7,221.2c2.5-0.6,4,0.1,4.5,2.1C422,223.8,419.4,224.1,419.7,221.2C421,221.4,419.5,222.5,419.7,221.2z"/>
	<path d="M530.8,203.7c-1.1,1.1-1.9,0.9-2.7-0.7C529,201.7,529.9,201.9,530.8,203.7C530.2,204.1,530.1,203.1,530.8,203.7z"/>
</g>
<path d="M280.1,473.6c-15.6-1.4-32.3-1.5-44.5-12c-19.8-16.9,20.4-36.7,33.1-37.1c17.9-0.6,31.1,12.3,46.6,20.3
	c15.8,8.2,40.7-11.9,31.2-29.6c-7.2-13.3-31-31.4-44.8-25.3c-22,9.8-46.7,15.9-67.5,28.2c-8.2,4.8-57.5,25.1-60.2,13.9
	c-2.6-10.4-11.6-34.6-4.4-44.5c-12.5-5.3-5.4-4.5-4.1-15.7c1.2-10.1-1.7-1.8-7.4-9.1c-2.7-3.4,3.1-11.4,4.5-14.3
	c-3.8-4-30.3,19.4-33.2,22.4c-9.3,9.8-10.9,42.3,3.3,49c6,2.9,10.6,8.8,15.8,12.8c3.9,3,14.9,18.5,2.3,11.5
	c-16.8-9.3-25-21-34.4-36.5c-19.7-32.4,6.6-52.5,31.5-65.7c7.5-4,25.4-11.2,23-22.7c-0.5-2.9,5.5-23.9,7.4-24.8
	c3-1.3,4.2-18.8,5.1-22.6c6.6-28-3.5-47.9-13.5-72.6c-5.5-13.8-11.8-29.9-1.7-43.4c6.5-8.7,12.4-12.1,22.5-16.2
	c4.6-1.9,10.6,0.3,14.6-1.8c0.8-4.5,0-8.3-0.1-12.9c-0.6-17,12.5-0.1,18.8,0.7c10.6,1.3,24.2,5.5,36.4,3.9c14.1-1.9,26-4,24.9-20.1
	c-0.5-7.1-4-14-7.2-20.2c-0.7-1.4-7-16.9,0.8-9.1c5.7,5.6,11.5,13,13.4,21c0.5,2.2,1.1,10.9,3.8,12.2c4.9,2.3,12.2-10.5,17-10.1
	c2.7,0.2,4.1-2.6,6-3.2c5.1-1.7,11.3-2.5,16.6-3.2c9.2-1.2,18.7-0.8,27.6,1.9c6.2,1.9,12.4,4.2,18.3,6.7c10.9,4.8,5.6-2.6,7.6-9.2
	c3-10.2-5.1-40.9-21.7-32.4c-2.9,1.5-12-0.9-7.9-5.1c2.9-3,13.1-1.6,16.6-1c13.4,2.6,22.9,13.8,24,27.7c0.9,10.1,0.8,12.5,12.3,9.8
	c5-1.1,13.3-0.6,18.7,0.4c10.4,1.8,29.7,15.7,38.7,10.7c10.4-5.9,23.2-19,35.4-4.3c9.1,11,22.6,1.5,34.4-2.9c0.1,0,10.5-7,9.1,0.2
	c-1.8,8.8-1.8,19.8-0.2,28.6c1.3,7.9-3.9,18.9,7.1,15.3c4.5-1.5,8.6-7.3,11.4-10.8c4.9-6.2,3.3-15.4,9.4-20.7
	c6.5-5.8,14.7-12.1,23.9-11.7c6.6,0.2,12.9,0.3,17.7,5.6c3.8,4.1-11.5,2.3-12.5,2.2c-15.6-0.3-25.5,13.1-31.2,26.4
	c-2.7,6.1-15.2,28.2-22.9,24.8c-0.1,7.8,1.8,24.8,5.4,31.8c4.2,8.2,2,26.3,8.4,32.4c6.6,6.2,26.2-12.5,22.7-18.6
	c-5.6-10.2-1.5-28.6,11.4-30.4c23-3.2,37.1,23.7,26.8,43.2c-5.2,9.8-15.7,17.9-25.4,23.2c-4.7,2.6-27.8,10.2-31.8,6.6
	c3,15.5,8.7,29.5,14.4,44.1c3.9,10.1,13.4,29.8,23.3,34.3c-3.7,5.5-6.4,8.1-12.8,12c-9.3,5.7,1.9,12.6-5.7,16.8
	c-7.5,4-7.1,1.9-6.4,10c0,0.1-0.8,8.2-0.8,8.2c4.3,2.8,5.7,11.7,6,16.5c0.9,15.8-81.2-1.1-88.3-1.9c1.8,13,20.8,24.4,28.3,33.8
	c11.9,14.8,15.1,37.1,1.4,51.8c-8.9,9.7-38.7,10.2-50.6,5.2c-24.9-10.5-15.8-32.6-8.4-50.8c3.7-8.9,8.3-20.6,8.4-30.2
	c0.2-13-0.4-13.6-13-15.9c-4.2-0.8-51.8-7.6-53.1-3c-2.5,9.1-6.4,19.5-1.1,28.7c1.4,2.4,11.4,16.3,9.5,17.5
	c-6.6,4.2-12.7-10-14.1-13.4c-4.9-12.3-7.5-22.1-2.2-34.7c-7.6-1.4-38.7-4-43.6,2.7c0.1-4.7-33.4,3.2-36,4c0,0.4,12.7,6.8,13.7,6.9
	c7.3,0.4,13.5,11.6,16.6,16.8c9.1,14.7,12.1,25.6,0.5,39.8c-10.5,12.8-22.9,16.4-38.5,18.1C306.9,465.4,288.6,467.8,280.1,473.6
	C279.1,473.5,280.3,473.4,280.1,473.6z M239,356.3c10.6-4.8,24.8-14.8,33.8-22.3c11-9.3,31.9-10.2,45.4-8.6
	c12.9,1.5,22.3,5.1,33.8,10.3c4.1,1.8,25.2,19.3,20.4,20.4c6.9,5.6,6.8-9.8,7.7-16.2c1-7.2,2-17.3,0.9-24.3c-1-6.9,2-14,1.7-21
	c-0.2-5.7-0.4-12,0.4-17.6c1.1-6.8,0.9-14.6-0.3-21.5c-1-5.3,3.9-12.8,2.1-18c-2.8-8.4,0.8-19.1,0.4-27.7c-0.4-8.7-0.2-17-0.3-25.8
	c0-13.4,1.3-26.8,0.6-40c-0.3-7,3.1-31.3-2.7-33.7c-28.2-12.5-54.5-11.9-81.2,6c-12.9,8.6-24.5,16.2-40.4,17.7
	c-13.2,1.3-32.5,0.7-44.8-4.8c-7-3.2-6.9,10-2.4,11.5c6.9,2.4,14.4,5,20.4,9.3c10.9,7.7,22.5,15.6,33.1,24.5
	c12,10.1,27.9,21.2,26.1,39.4c-0.8,8.3,2,17.7-3.2,25.1c-2.7,3.9-12.1,3.9-13.4,6.3c-2.3,4.2-16,0.7-19.9,2.3
	c-5.5,2.3-12.2-3.7-15.9-6.9c-14.2-12.3,0.4-31.7,1-46.5c0.4-9.7-3-22.2-12-27.8c-3-1.8-15.3-14.5-19-12.1
	c-5.4,3.4-6.1,42.4-6.9,50.3c-1.9,17.8-9.4,35.1-9.9,52.6c-0.4,13.8-8.6,28.3-12,42c-2.6,10.3-5.3,20.5-8.6,30.6
	c-2.3,6.8-11,24.2-8.9,30.9c6.8-2.4,30.9,9.6,35.8,4.3c1.8-2,13.2-2.3,16.2-2.7C224.4,361.3,231.5,358,239,356.3
	C240.4,355.6,237.9,356.5,239,356.3z M388.5,356.2c6.3-4,10.8-11.9,16.7-16.7c6.6-5.4,15.7-8.4,23.6-11c14.4-4.8,36.1-5,51.1-2.5
	c17,2.8,33.5,11.4,50.2,13.1c7.8,0.8,16.6,1.7,24.4,1.6c5.8,0,18.9-4.2,23.7-2.4c6,2.3,25.8-9.7,19.5-15.4
	c-9.5-8.5-16.4-19.4-21.4-30.4c-1.4-3.1-4.2-17.3-5.8-18.6c-6.3-5.4-2.1-18.3-7.3-24.3c-1.9-2.2-5.6-16.8-6-19.5
	c-1-9-4.4-17.7-5.4-26.7c-2-18-5.5-35.9-7.3-54c-1-9.9-0.9-19.9-2-29.8c-1.1-9.4-0.1-18.2-11.7-12.8c-4,1.8-19,4.4-16.9,10.3
	c2.4,6.7,0.8,18.2-2.7,24.3c-4.2,7.5-10.7,9.7-18,13.2c-10.4,5-15.8,14.9-27.1,18.2c-17.2,5-33.4-12.7-23.9-29.3
	c4.8-8.3,21.3-6.6,28.9-4.8c13,3,20.9,2.6,28.9-9.5c10.4-15.5-9.6-12.9-18.6-13.3c-18.7-0.9-33.6-13.2-52.2-15.1
	c-9.3-1-22.6-1.8-30.7,4.3c-9.6,7.3-6.9,14.9-7,26.7c-0.3,31,0,62.2,1,93.3c0.4,7.3,0.3,17.8-1.9,24.6c0.3,0.1-0.4,34.1-0.5,37.6
	C389.9,309.6,385.7,334.2,388.5,356.2C388.9,356,388.1,353.4,388.5,356.2z M586.9,349.5c-4.2-13-19.4-2-30.7-3.5
	c-17.2-2.2-32.3-1.5-48.8-8.1c-15.3-6.1-31.9-6.6-47.9-7.1c-2.8-0.1-14.5-1.6-16.2,0.2c-1.5,1.5-5.5,1.4-7.4,1.9
	c-0.7,4.7-1.8,8.7-3.1,13.3c0.2-0.8,28.8-0.1,32-0.1c9.7-0.1,25.2,3.4,33.8,7.3C526.1,366,559.4,360.3,586.9,349.5
	C586.2,347.4,585.6,350,586.9,349.5z M351.6,344.7c3.5-6.1-35.2-14.4-39.5-14.4c-21.9-0.3-41,10.5-57.7,24
	c-11.4,9.1-31.7,14.5-46,15.4c-9.1,0.6-22.3,2.3-30.9-1.4c-8.1-3.5-14.4,12.9-4.6,13.4c16.1,0.8,34.6,2.1,50.2-1.9
	c14.4-3.7,27.3-9.9,40.3-17c2.3-1.3,14.8-9.9,14.8-12.6c0-3.8,17.3-10.3,20.8-11.6C315.7,332.2,335.8,338.4,351.6,344.7
	C351.8,344.5,350,344.1,351.6,344.7z M183,395.4c11.3,5.6,32.7,3.5,44.7,0.1c15.9-4.5,29.2-6.9,43.1-16.5
	c12.5-8.6,24.8-19.2,38.3-25.5c14.7-6.8,31.3-3.3,45.8,0.3c-12.1-11.5-35.6-12.8-50.3-7.9c-11.6,3.9-24.7,9.7-32.6,18.5
	c-11,12.1-32.9,18.2-48.2,21c-8.8,1.6-20.9,3.7-29.8,2.1c-2.4-0.5-12.6-1-14.8,0.4c-1.9,1.2-0.5,7-0.5,8.9c1.7-0.9,3.1-0.6,4.2,1
	C182.9,397.1,182.9,396.2,183,395.4C183.8,395.8,183,396.1,183,395.4z M191.4,227.6c2,0.2,7.2-42.8,7.9-49.2
	c1.1-7.8,11.8-27.4-0.4-27.2C157.5,151.4,188.5,208.6,191.4,227.6C191.6,227.7,191,225,191.4,227.6z M225.1,410
	c5.2-3,75.2-25.6,63.1-38.6c-4.6,4.7-29.5,26-35.9,21.7c-4.3,8.1-24.2,3.1-29.9,7.4c-4,3-38.5-0.2-38.6,0.9
	c-1,9.6,0.4,16.4,13.1,12.2C202.8,411.6,219.3,408,225.1,410C225.9,409.5,223.6,409.5,225.1,410z M486,355.4
	c0,12.9,30.3,22.8,40.9,20.4c3.4-0.7,54.8,0,50.5-10.8c-3.5-8.7-3.7-4.9-12.2-3.4c-9.3,1.7-18.6,3.6-28,4.2
	C517.9,367.2,503.6,358,486,355.4C486,355.7,488.6,355.8,486,355.4z M424.9,358.7c2.5,1.8,43.2-1.5,42.5,0.4
	c1.3-3.3-3.5-4.1,0.4-7.4C458.4,346.7,430.3,349.2,424.9,358.7C425.1,358.8,426,356.8,424.9,358.7z M343.4,357.2
	c-6.8-4.5-19.9-2.7-27.2-0.2c-4.2,1.5-6.9,3.5-10.4,5.4c-1.7,0.9-9.2,8.2-5.6,6.2c9.6-5.3,22-9.8,33.3-8.3
	c6.9,0.9,22.5,4.9,28.7,2.5C360.8,361.2,344.5,355.2,343.4,357.2C342.4,356.6,343.9,356.3,343.4,357.2z M492,372.5
	c0.9,6.4,27,9.5,33.2,10.9c5.8,1.3,48.5,2.9,45.1-7.8c-7.7,1.8-15,4.8-22.8,6.3c-4.5,0.8-10-1.2-14.7-0.9c-7.7,0.6-14.2-1-21.2-3.6
	C507.7,376,495.8,372.3,492,372.5C492.5,375.9,492.4,372.5,492,372.5z M414.6,340.2c-6.3,2.5-25.1,25.7-27.6,25.2
	c4.5,1.1,11.1-5,14.9-7.5C409.4,353,418.5,351.6,414.6,340.2C413.5,340.6,414.8,340.8,414.6,340.2z M449.4,362.7
	c-3.2-0.9-26.2-0.5-27.8,2.1c0.3-0.5,18.9,0,21.9,0.5c10.4,1.8,20.8,3.5,31.2,5.7C474.2,364.9,451.1,359.1,449.4,362.7
	C448,362.4,449.8,361.9,449.4,362.7z M498.2,111.2c0.3-8.6-18.2-7.4-18.5-1.2C479.6,111.9,496.4,111.2,498.2,111.2
	C498.2,110.8,497.7,111.2,498.2,111.2z M408.4,362.2c3,1.4,5.9-1.2,5.7-4.8c-3.5,0.3-9.9,3-11.1,6.1
	C405,364.1,407.2,364.2,408.4,362.2C408.9,362.4,408,362.8,408.4,362.2z"/>
<g>
	<g>
		<g>
			<path class="st0" d="M234.9,448.5c1.8-4.2,9.6-18.2,16.8-14.5c10.4,5.3,3.6,7.8,2.4,15.4c-0.5,2.4,7.5,14,1.4,13.8
				c-4.6-0.1-9.1,0.2-13.6-1.6c-3.3-1.3-6.6-9.9-7-10.5C235,451.3,234.6,449.1,234.9,448.5z"/>
			<path class="st0" d="M282.3,446.6c0.9,12.5-10.6,26.3-21.2,13.8C243.9,440.1,279.8,429.8,282.3,446.6
				C282.1,447.1,282,444.6,282.3,446.6z"/>
		</g>
		<g>
			<path d="M249.8,437c6.2,0.4,3,11.3-2.5,12C238.1,450.2,243.4,438.5,249.8,437C252.6,437.1,248.6,437.2,249.8,437z"/>
			<path d="M260.5,448.3c4.1-8.6,13.7-6.1,12.1,3.4C270.8,461.9,262,449.5,260.5,448.3C261.2,446.9,260.6,448.4,260.5,448.3z"/>
		</g>
	</g>
	<g>
		<g>
			<path class="st0" d="M489.9,467.4c-25.7-0.6-21.5-42.1-0.3-39.5C516.4,431.2,514.8,461.4,489.9,467.4
				C486,467.3,491.3,467.1,489.9,467.4z"/>
			<path class="st0" d="M534.1,448c0.2,10.9-6.5,22.1-18.6,20.7c-9.5-1.1-8.6-3.7-4.3-11c4.5-7.6-2.3-21,3.8-25.1
				C523.1,427,535.9,440.1,534.1,448C534.2,453.7,534.7,445.4,534.1,448z"/>
		</g>
		<g>
			<path d="M505.9,449.6c0.4,8.7-13.7,8.3-11,0.1C496.7,443.9,505.9,441.5,505.9,449.6C506.1,454.6,505.9,449.3,505.9,449.6z"/>
			<path d="M523.6,459.7c-7.4,1.2-5.6-13.4,1.1-11.9C532.7,449.6,531.5,460.6,523.6,459.7C521.9,459.9,525.5,459.9,523.6,459.7z"/>
		</g>
	</g>
	<g>
		<g>
			<path class="st0" d="M459,154.6c0.4-15,23-13.8,19.8-0.8C475.1,168.6,463.8,169.7,459,154.6C459.1,151.1,459.4,155.7,459,154.6z"
				/>
			<path class="st0" d="M453,165.6c-16.5-0.3-12.5-24.9,3.6-24.6c7.1,0.2,0.2,10.7-0.1,12.6C455.9,158.6,462.7,165.6,453,165.6
				C449.3,165.5,453.5,165.6,453,165.6z"/>
		</g>
		<g>
			<path d="M461.4,155c0-6.4,9.9-7.4,10-0.6C471.4,162,460.4,161.7,461.4,155C461.4,151.7,460.9,158.4,461.4,155z"/>
			<path d="M448.8,150.4c4.1-0.3,5.5,4.8,2.7,7.7C446,163.7,440.3,150.4,448.8,150.4C451.5,150.2,445.8,150.4,448.8,150.4z"/>
		</g>
	</g>
	<g>
		<g>
			<path class="st0" d="M241.4,214.2c-2.1-19.8,39.5-22,32.7,2.4c-2.5,8.9-7.3,20.3-17.8,21.4C244.6,239.1,242.8,223.1,241.4,214.2
				C241,210.2,241.9,216.9,241.4,214.2z"/>
			<path class="st0" d="M274.6,241.3c-2.3-0.2-7.7,0.4-9.4-1.9c-1.2-1.7,0-3.4,2.1-4.7c7.5-4.6,8.6-18.7,11.7-22.2
				c9.5-10.8,13.3,13.9,12.9,17.2C290.7,239.6,284.5,240.7,274.6,241.3C271.8,241.1,274.9,241.3,274.6,241.3z"/>
		</g>
		<g>
			<path d="M270,218.2c0.4,8-13.3,12.3-15.3,3.6C252.2,211,268,204.2,270,218.2C270.2,221.6,269.9,217.1,270,218.2z"/>
			<path d="M288.5,226.8c0.8,6.5-9.6,9.1-10.4,2.3C277.3,222.7,288.5,219.4,288.5,226.8C288.8,229.5,288.5,224.3,288.5,226.8z"/>
		</g>
	</g>
	<g>
		<g>
			<path class="st0" d="M616.7,189.5c18.4,0.6,9.5,35.2-6.4,34.7C589,223.6,602.6,187.3,616.7,189.5
				C620.1,189.6,615,189.2,616.7,189.5z"/>
			<path class="st0" d="M588.8,193.5c-0.8-11,5.3-16.4,12.2-17.6c4.9-0.9,16.9,9.1,8.8,12.6c-6,2.5-8.8,15.5-14.1,18
				C590.2,208.9,588.9,196.7,588.8,193.5C588.8,190.2,589,198.9,588.8,193.5z"/>
		</g>
		<g>
			<path d="M615.2,207.1c-1.4,9.4-14.8,13.6-13.1,2.8C603.4,201.7,613.7,195.9,615.2,207.1C614.8,210.1,615.3,206.8,615.2,207.1z"/>
			<path d="M602.1,190.4c-0.1,8-10.8,13.1-10.7,3.9C591.5,187.3,599.5,181.2,602.1,190.4C602,193,602.1,190.2,602.1,190.4z"/>
		</g>
	</g>
</g>
</svg>
