<?xml version="1.0" encoding="utf-8"?>
<!-- Generator: Adobe Illustrator 16.0.0, SVG Export Plug-In . SVG Version: 6.00 Build 0)  -->
<!DOCTYPE svg PUBLIC "-//W3C//DTD SVG 1.1//EN" "http://www.w3.org/Graphics/SVG/1.1/DTD/svg11.dtd">
<svg version="1.1" id="Layer_1" xmlns="http://www.w3.org/2000/svg" xmlns:xlink="http://www.w3.org/1999/xlink" x="0px" y="0px"
	 width="594.3px" height="580px" viewBox="0 0 594.3 580" enable-background="new 0 0 594.3 580" xml:space="preserve">
<g>
	<path fill-rule="evenodd" clip-rule="evenodd" d="M503.5,155.3c-35.3-12.7-67.4,4.5-90.5,31.6c-12,14.1-6.6,32.4-2.1,48.5
		c2.8,10.1,8.6,20.2,13.5,29.4c5.9,11.1,7.3,15.1,19.3,19.1c34.7,11.7,61.7-10.8,85.2-33.1c4.7-4.5,16.1-13.3,17-20.3
		c1-7.5-4.9-18.4-7.4-25.4C531.3,185.5,522.6,165.5,503.5,155.3C499.5,153.9,506,156.6,503.5,155.3z M448.3,169.1
		c19.2-10.7,53.8-13,69.1,6.8c16,20.7-0.7,52.9-19.6,65.1c-26.9,17.3-56.1,23.9-77.5-4.5c-21.2-28.2,0.5-51.8,25.7-66
		c0.7,7.3-3.8,39.2,6.4,36.3c2.3-0.7,14.1-7,14.8-2.4c1.6,9.8,2.2,19.8,3,29.7c-7.6-8.7-13.4-19-22.8-26
		c-0.1,5.3,8.8,13.3,11.7,18.1c4.3,7.1,9.7,13.1,15.9,18.4c4.3-9.9-3.4-29-4.1-40.1C470.2,192.6,455,179,448.3,169.1
		C448.7,168.8,450,171.7,448.3,169.1z M422.6,248.1c4.1,3.1,20.9,21.3,14.2,26.5C430.5,269.2,423.6,256.4,422.6,248.1
		C425.6,250.4,422.8,249.4,422.6,248.1z M540.5,227.3c-7.9,1.2-11.7-25.5-10.8-30.4C533.8,206.1,540.1,217.3,540.5,227.3
		C540.2,227.4,540.5,226.2,540.5,227.3z M483,275.8c-5.9,4.7-10.4-9.5-12.4-13.2c-1.4-2.7,1.1-3.3,3-2.8
		C476.7,260.4,481.5,273.1,483,275.8C480.3,278,480.4,270.9,483,275.8z M523.8,220.6c1.6,3.5,10.7,16.7,6.6,20.1
		C526.6,239.6,517.1,223.4,523.8,220.6C526.1,225.6,521,221.8,523.8,220.6z M449,275.9c-6.3,2.4-14.3-12-12.3-17.1
		C443.7,262.2,444.1,270.6,449,275.9C446,277,444.1,270.6,449,275.9z M470.9,278.2c-2.8-5.6-7.8-9.5-8.5-16.1
		c6.8,0.8,9.8,9.2,11.4,15.7C472.7,278,471.8,278.1,470.9,278.2C470.2,277,471.9,278.1,470.9,278.2z M526.4,211.8
		c3.3,5,11.1,16.5,10.3,22.7C532.5,233.6,522.1,215.2,526.4,211.8C527.4,213.3,524,213.7,526.4,211.8z M486.8,274.7
		c-1.7-2.3-10.8-15.5-7.8-17.5C482.1,255.2,490.1,270.8,486.8,274.7C486.1,273.7,489.5,271.5,486.8,274.7z M524.7,246.7
		c-2.8-6.2-8-11.2-7.9-18.5C522.1,230.4,529.1,241.5,524.7,246.7C521.8,240.6,527.9,242.9,524.7,246.7z M505.5,239.8
		c3.4-5.3,10.7,12.5,9.8,16.2C510.6,251.8,508,245.5,505.5,239.8C505.7,239.5,506.1,241.2,505.5,239.8z M444.8,263.6
		c6-2.4,14.8,8.1,11,13.4C449.1,274.6,450.1,266.7,444.8,263.6C445.3,263.4,445.3,263.9,444.8,263.6z M508.9,260.6
		c-3.2-5.3-6.3-10.6-9.5-15.9C505.1,242.8,513.3,257.8,508.9,260.6C505.6,255.1,510.5,259.6,508.9,260.6z M512.8,232.7
		c2.7,4.7,8.5,13.5,7.9,18.7C517.7,252.3,511,235.8,512.8,232.7C513.4,233.7,511.6,234.9,512.8,232.7z M498.2,268.8
		c-1.6-2.8-10.6-16-6.4-18C494.1,255,502.1,265.5,498.2,268.8C494.9,263,499.1,268,498.2,268.8z M496.1,247.6
		c2.4,2.2,12.8,13.9,7.6,17.5C501.5,261.2,494.2,251.9,496.1,247.6C496.9,248.3,495.8,248.2,496.1,247.6z M485.4,254
		c1.9-0.5,10.6,13.7,7,16.8C490,266.2,484.4,259.2,485.4,254C485.7,253.9,485.3,254.8,485.4,254z M465.4,277.3
		c-7.4-0.4-6.8-12.7-8.3-14C461,266.6,463.1,272.9,465.4,277.3C462.7,277.2,464.8,276.1,465.4,277.3z"/>
	<path fill-rule="evenodd" clip-rule="evenodd" fill="#FFFFFF" d="M448.3,169.1c5.7,8.5,21,22.1,22.5,32c1,6.6,1.1,13.4,2,20
		c0.9,6.9,5.1,17,2.3,23.5c-6.2-5.4-11.6-11.4-15.9-18.4c-2.9-4.8-11.8-12.8-11.7-18.1c9.4,6.9,15.2,17.3,22.8,26
		c-0.7-8.5-1.2-17-2.4-25.4c-1.4-10.3-8.1-4.1-15.5-1.9c-10.2,3-5.7-28.9-6.4-36.3c-25.2,14.2-46.9,37.8-25.7,66
		c21.3,28.4,50.5,21.8,77.5,4.5c18.9-12.2,35.6-44.4,19.6-65.1C502.1,156.1,467.5,158.3,448.3,169.1
		C450,171.7,448.7,168.8,448.3,169.1z"/>
	<path fill-rule="evenodd" clip-rule="evenodd" fill="#FFFFFF" d="M422.6,248.1c1,8.3,7.8,21.1,14.2,26.5
		C443.5,269.5,426.7,251.2,422.6,248.1C422.8,249.4,425.6,250.4,422.6,248.1z"/>
	<path fill-rule="evenodd" clip-rule="evenodd" fill="#FFFFFF" d="M540.5,227.3c-0.4-10.1-6.8-21.2-10.8-30.4
		C528.8,201.8,532.6,228.5,540.5,227.3C540.5,226.2,540.2,227.4,540.5,227.3z"/>
	<path fill-rule="evenodd" clip-rule="evenodd" fill="#FFFFFF" d="M483,275.8c-3.8-7-5.5-14-12.5-15.7
		C470.7,264.3,477.1,280.5,483,275.8C480.4,270.9,480.3,278,483,275.8z"/>
	<path fill-rule="evenodd" clip-rule="evenodd" fill="#FFFFFF" d="M523.8,220.6c-6.7,2.8,2.8,18.9,6.6,20.1
		C534.5,237.3,525.4,224.1,523.8,220.6C521,221.8,526.1,225.6,523.8,220.6z"/>
	<path fill-rule="evenodd" clip-rule="evenodd" fill="#FFFFFF" d="M449,275.9c-4.8-5.3-5.2-13.7-12.3-17.1
		C434.6,263.9,442.7,278.3,449,275.9C444.1,270.6,446,277,449,275.9z"/>
	<path fill-rule="evenodd" clip-rule="evenodd" fill="#FFFFFF" d="M470.9,278.2c0.9-0.1,1.9-0.3,2.8-0.4
		c-1.6-6.5-4.5-14.9-11.4-15.7C463,268.7,468.1,272.6,470.9,278.2C471.9,278.1,470.2,277,470.9,278.2z"/>
	<path fill-rule="evenodd" clip-rule="evenodd" fill="#FFFFFF" d="M526.4,211.8c-4.2,3.4,6.1,21.8,10.3,22.7
		C537.5,228.3,529.6,216.8,526.4,211.8C524,213.7,527.4,213.3,526.4,211.8z"/>
	<path fill-rule="evenodd" clip-rule="evenodd" fill="#FFFFFF" d="M486.8,274.7c3.3-3.9-4.7-19.5-7.8-17.5
		C476,259.3,485.1,272.4,486.8,274.7C489.5,271.5,486.1,273.7,486.8,274.7z"/>
	<path fill-rule="evenodd" clip-rule="evenodd" fill="#FFFFFF" d="M524.7,246.7c4.4-5.2-2.5-16.3-7.9-18.5
		C516.7,235.5,521.8,240.6,524.7,246.7C527.9,242.9,521.8,240.6,524.7,246.7z"/>
	<path fill-rule="evenodd" clip-rule="evenodd" fill="#FFFFFF" d="M505.5,239.8c2.5,5.7,5.1,12,9.8,16.2
		C516.2,252.3,508.8,234.5,505.5,239.8C506.1,241.2,505.7,239.5,505.5,239.8z"/>
	<path fill-rule="evenodd" clip-rule="evenodd" fill="#FFFFFF" d="M444.8,263.6c5.3,3.1,4.3,11,11,13.4
		C459.6,271.8,450.8,261.2,444.8,263.6C445.3,263.9,445.3,263.4,444.8,263.6z"/>
	<path fill-rule="evenodd" clip-rule="evenodd" fill="#FFFFFF" d="M508.9,260.6c4.4-2.8-3.8-17.8-9.5-15.9
		C502.6,250,505.8,255.3,508.9,260.6C510.5,259.6,505.6,255.1,508.9,260.6z"/>
	<path fill-rule="evenodd" clip-rule="evenodd" fill="#FFFFFF" d="M512.8,232.7c-1.8,3.1,4.9,19.5,7.9,18.7
		C521.4,246.2,515.5,237.4,512.8,232.7C511.6,234.9,513.4,233.7,512.8,232.7z"/>
	<path fill-rule="evenodd" clip-rule="evenodd" fill="#FFFFFF" d="M498.2,268.8c3.9-3.2-4.1-13.7-6.4-18
		C487.6,252.7,496.6,265.9,498.2,268.8C499.1,268,494.9,263,498.2,268.8z"/>
	<path fill-rule="evenodd" clip-rule="evenodd" fill="#FFFFFF" d="M496.1,247.6c-1.9,4.3,5.5,13.7,7.6,17.5
		C508.8,261.4,498.5,249.7,496.1,247.6C495.8,248.2,496.9,248.3,496.1,247.6z"/>
	<path fill-rule="evenodd" clip-rule="evenodd" fill="#FFFFFF" d="M485.4,254c-1,5.2,4.6,12.2,7,16.8
		C496,267.7,487.3,253.5,485.4,254C485.3,254.8,485.7,253.9,485.4,254z"/>
	<path fill-rule="evenodd" clip-rule="evenodd" fill="#FFFFFF" d="M465.4,277.3c-2.4-4.4-4.4-10.7-8.3-14
		C458.6,264.6,458,276.9,465.4,277.3C464.8,276.1,462.7,277.2,465.4,277.3z"/>
</g>
<g>
	<path fill-rule="evenodd" clip-rule="evenodd" d="M57.9,247.3c-14.3-8.5-39.5-16.2-46.6-32.5c-8.5-19.4-17.9-43.2-5-63.5
		c9.6-15.1,18.3-29.5,20.9-47.1c3.6-24,8.6-38.5,28.1-54C69.8,38.6,71.8,15.5,90.2,7.3c11.1-4.9,15.6-7.8,28.4-7.2
		c10.3,0.5,18.7,6,28.6,7.8c9.9,1.9,16.3,8.1,23.6,14.7c9.4,8.5,10.8-1.5,23.3,0.3c25,3.4,42.7,27.6,57.8,45.5
		c3.4,4,18.1,5.4,23.6,9.9c7.7,6.2,11.9,16.1,15,25.2c2.2,6.7-4.2,19.2-0.4,24.1c7.8,10.2,20.4,3.1,27.4-2.8
		c19.8-16.9,33.5-6,39.9,14.3c11.4,36.1-37.3-9.7-45.6,1.1c-1.4,1.8,7.4,23.5,8.1,27.7c1.2,7.6-1,16.9-2.2,24.5
		c-3,20-29.6,36.6-47.5,41.6c-5.3,1.5-20.2,0.8-23.1,6.1c-5,9.1-11.6,11.9-18.9,18.3c-3.7,3.3-5.7,13.4-7.6,18.1
		c-4.3,10.6-7.1,26.9-15.6,34.8c-2.4-8.1-4.9-16.2-7.3-24.3c-1.3-4.6-11.5,2.5-14.2,3c-16.7,3.6-15.7,15.6-26.3,28.2
		c-9.2,10.9-10.2-27.2-12.2-33.3c-6.8-20.7-24.6,1.4-30,12c-3.3,0.5-4.9-1.7-4.8-6.5c-4.4-9.5-8.2-6.7-17.3-10.4
		c-9.3-3.7-10.9-10.3-16.9-0.2c-1.5,2.5-5.6,12.2-8.8,12.2C62.9,277.4,61.6,262.1,57.9,247.3C53.8,244.8,58.3,248.8,57.9,247.3z
		 M163,41.8c6-23.9-18.4-28.4-35.8-34.7c-21.9-7.9-41,9.7-44.7,31.1c-1.5,8.6,0.3,5.5-8.5,9.7C62.6,53.3,55,58.8,46.4,68
		c-6.2,6.7-11.1,15.1-12,24.3c-0.4,3.8,0.2,36.4,5.4,36.6c1.3,0,5.8-7.7,6.7-8.7c5.3-5.6,11-9.8,19.1-7.7
		c-7.6,9.3-17.2,9.4-21.9,23.4c-0.8,2.3-1.1,31.1-1,31.1c-6.6-3.8-4.2-36.7-8.2-35.4c-16.2,5.1-25.6,25.7-25.3,42
		c0.3,15.3,4.3,35.5,16.5,46c3.8,3.3,11.3,6.8,16.2,8.3c14.8,4.7,6.5-5.5,14.9-10.9c9.2,43.9,35.7,68,80.8,57
		c-5.8-9.8-29.8-19-27.4-31.6c8.2,5.8,13,13.7,23.2,16.9c12.9,4,24.4-1.7,36.2-0.6c-7.5,9.8-19,7.6-29.8,8.1
		c6.5,12.8,24.6,16.3,37.5,16.7c15.7,0.5,27.7-10.3,38.8-20.2c-5.2-0.6-9.2-1.8-10.2-7.4c16.2,4.3,27.4-5.8,37.1-17.4
		c-19.7-5-38.9-8.8-52.2-25.7c-12.8-16.2-8.8-43.2,1.3-60c11.9-19.9-19.3-13.6-29.2-6.3c-6,4.4-16.2,12.6-21.8,2.7
		c-4.4-7.7-3.1-18.6,2.7-25.5c14.3-16.7,35.5-6.3,47.6,6.9c11.3,12.4,10.4,5.7,22.6-0.2c8.6-4.2,17-4.7,26.2-6
		c11.9-1.6,26.4-2.7,38.3-0.5c12.4,2.3,4.9-16.7,1-22.5c-12.4-18.5-27.5-30.2-47.5-16.6c-1.6-9.9,8.2-7.4,4.7-18.5
		c-2.9-9.2-8.9-17.3-15.9-23.9c-17.2-16.3-37.6-19-53.5-0.2c6.4,4.1,24.3,11.2,21.9,21.6c-19.8-7.8-25.2-23.3-48.1-12.6
		C145.5,43.9,154.6,39.5,163,41.8C163.6,39.5,155,39.6,163,41.8z"/>
	<path fill-rule="evenodd" clip-rule="evenodd" fill="#FFFFFF" d="M163,41.8c-8.3-2.3-17.5,2.1-21.7,9.5
		c22.9-10.6,28.2,4.8,48.1,12.6c2.4-10.4-15.5-17.5-21.9-21.6c14.8-17.5,31.2-16.3,49-3.5c7.3,5.3,15.1,14.1,18.6,22.5
		c1.2,2.8,4.7,9.7,3.8,12.8c-1.6,5.3-7.9,3-6.7,10.8c19.9-13.6,35-1.9,47.5,16.6c3.9,5.8,11.4,24.8-1,22.5
		c-11.9-2.2-26.4-1.1-38.3,0.5c-9.2,1.3-17.6,1.8-26.2,6c-12.2,5.9-11.3,12.6-22.6,0.2c-12.1-13.3-33.3-23.7-47.6-6.9
		c-5.9,6.8-7.2,17.7-2.7,25.5c5.6,9.8,15.8,1.7,21.8-2.7c9.9-7.3,41.1-13.6,29.2,6.3c-10,16.8-14.1,43.8-1.3,60
		c13.3,16.8,32.5,20.7,52.2,25.7c-9.7,11.5-21,21.6-37.1,17.4c1,5.6,5,6.9,10.2,7.4c-11.1,9.9-23.1,20.7-38.8,20.2
		c-12.8-0.4-30.9-3.9-37.5-16.7c10.7-0.5,22.3,1.7,29.8-8.1c-8.6-0.8-20,1.8-29.5,1.7c-13.8-0.2-20.1-11.1-30-18.1
		c-2.4,12.6,21.6,21.8,27.4,31.6c-45.1,11-71.6-13.2-80.8-57c-7.6,4.8,0.6,12.1-9.8,11.7c-5.1-0.2-12.5-3.4-16.9-6
		c-15.8-9.3-20.5-32.2-20.8-49.2c-0.3-13.6,7.3-34.7,20.6-40.3c15.7-6.7,1.9,27.4,12.9,33.8c-0.1,0.1,0.2-28.7,1-31.1
		c4.7-13.9,14.3-14,21.9-23.4c-5.9-1.5-11,0.1-15.4,4c-1.4,1.2-9.2,12.4-10.5,12.4c-3.9-0.1-5.7-26.2-5.7-29.2
		c-0.2-10.2,2.8-20.2,9.3-28.2C46.9,67.2,82,40.3,83,42.7c-2.6-6.4,4.4-16.9,7.7-22c7.7-12,15-16.6,29.7-15.4
		C139.8,6.9,168.9,18.3,163,41.8C155,39.6,163.6,39.5,163,41.8z"/>
	<path fill-rule="evenodd" clip-rule="evenodd" fill="#FFFFFF" d="M263.6,164.6c-1.7,21.6-10.5,47.4-34.6,52.3
		c-27.8,5.6-42.9-13.1-36.9-38.4c5.1-21.2,15.5-37.1,35.9-45.9C251.7,122.2,260,147.5,263.6,164.6
		C262.8,174.5,263.1,162.3,263.6,164.6z"/>
	<path fill-rule="evenodd" clip-rule="evenodd" fill="#FFFFFF" d="M264.3,141.9c14.8-7.4,30-11.6,40.8,3.3
		c10.7,14.7,13.4,40.1,0.9,54.7c-7.4,8.6-16.8,13-28.2,11c-4.1-0.7-15.3-8.9-16.2-13.3c-1.4-7.2,6.8-21.8,8.3-29.2
		C271.4,160.6,266.6,149,264.3,141.9C268.3,139.9,265.7,146.2,264.3,141.9z"/>
	<path fill-rule="evenodd" clip-rule="evenodd" d="M224.3,198.4c0-13.3,20.2-14.7,20.6-1.2C245.3,210.2,224.2,213.2,224.3,198.4
		C224.3,191.7,224.3,204.2,224.3,198.4z"/>
	<path fill-rule="evenodd" clip-rule="evenodd" d="M295.2,194.4c0,12-17.6,12.9-17.6,0.2C277.7,182.6,295.2,182.3,295.2,194.4
		C295.2,199.1,295.2,188.8,295.2,194.4z"/>
</g>
<g>
	<path fill-rule="evenodd" clip-rule="evenodd" d="M325.6,295.1c-11.5-7.2-31.8-15.2-36.7-29.1c-1.3-3.8,4.8-14.3,7.9-15.8
		c6.4-3.2,13.2,4.7,17.6,8.1c9,6.9,28.5,27.7,40.7,27.4c7-0.1,28.1-11.8,31.6-17.5c6.9,10.9,7.6,25.2,11.8,37.3
		c4.4,12.5,12,15.3,23.5,22.5c10.2,6.4,20,13.4,30.2,19.8c11.5,7.2,27.8,12.6,37.3,22.2c12.7,12.8,20.7-3.3,25.6-12.8
		c6-11.4,11.6,1.1,18.8,6c22.2,15.1,52.4,32.9,59.2,61.4c6.3,26.8-18.2,42.9-41.2,40.3c-12.6-1.4-24.5-6.1-36.7-9.5
		c-12.5-3.5-22.8-12.3-34.8-16c-9.3-2.8,2.4-17.9,5-23.4c6.4-13.1-3.4-8.4-4.7-19.1c-1-8,2.4-5.8-6.7-10.9
		c-6.6-3.7-13.1-7.5-19.5-11.5c-14.9-9.3-29.3-19.5-42.9-30.6c-6.1,5.9,15.4,43.7,18.1,51.4c5.6,16.4,18.8,32.6,23,48.6
		c3.8,14.7,16.1,32.6,25.8,44.1c16.2,19.1-30.3,22.5-41.5,21.7c-25.2-1.8-51.3,4.6-75.8,9.7c-20.2,4.2-42.8,15.2-63.5,15.2
		c-9.1,0-20.5,3.3-29.4,5.6c-13.2,3.4-28.8,2-41.5,6.9c-20.4,7.9-46.1,2.3-66.8,10.7c-19.4,7.9-42.3,10.2-62.6,16
		c-5.1,1.5-23.3,12.3-25.7,1.3c-2-9.3,5-19.8,8.2-28.2c16.7-43.5,22.4-97.3,23-143.7c0.1-12,0.5-24.1-0.5-36
		c-1.2-15.3-2.1-22.3,15.3-24.1c25.1-2.7,50.6-2.2,75.5-7.7c24.7-5.4,49.4-11.8,73.8-18.6c9.3-2.6,17.8-7.1,27.1-10
		C303.1,304,319.4,301.9,325.6,295.1C318.9,290.9,325,295.8,325.6,295.1z M386.6,281.1c-18.8,5.6-35.8,14.9-54,22
		c-20.9,8.2-42,14-63.4,20.9c-41.1,13.3-87.9,22.6-131.1,24.9c-5.1,0.3-26.4-1.7-29.7,2.3c-4.3,5.1,0.1,26.6,1.1,32.7
		c3.6,20.5-1.6,46.1-3,66.9c-2.8,41.9-15,82-30.2,120.9c61.7-20,125.8-27.2,188.7-42.2c33.9-8.1,68.9-12.8,103.1-20.1
		c33.8-7.1,67.3-14.2,102-16.1c-10.1-26.1-28.5-49.2-39.8-74.9c-2.4-5.4-2.3-12.1-9-11.4c-7.2,0.7-14.3,5.9-20.6,9
		c-15.6,7.6-29.6,15.6-38.9,31c-8.4,14.1-13.5,29.8-25,41.9c-12.2,12.7-28,18.7-44.9,23.3c-28,7.7-56.4-2.4-85,5.4
		c0-14.4,32.6-12.9,42.6-13.4c7.9-0.5,33.7-0.9,43.4-4.4c14-5,26.5-8,35.3-23c8.3-14.3,15.9-28.9,22.8-43.8
		c6.4-13.7,15.1-23.1,26.3-32.7c4.2-3.6,36.9-23.1,36.4-24.6C402.9,345.1,389.7,313.5,386.6,281.1
		C385.1,281.5,387,285.4,386.6,281.1z"/>
	<path fill-rule="evenodd" clip-rule="evenodd" fill="#FFFFFF" d="M386.6,281.1c3.1,31.9,16.2,62.2,26.4,92.3
		c2.7,7.9-26.3,17-32,23.2c-11.4,12.3-22.5,20.5-29.9,36.4c-6.1,13-10.6,27.5-18.4,39.6c-9.6,15-17.9,19.5-33.8,26.8
		c-14.4,6.7-91.9,3.8-91.9,18.2c26.8-7.3,52.3,0.3,78.9-4.1c38.7-6.3,54.7-34.7,72.3-66.6c6.7-12,60.1-61.1,69.8-39
		c12.1,27.7,33.2,58.2,44,86.3c-34.7,1.9-70,8.1-103.8,15.3c-34.3,7.2-69.2,12-103.1,20.1c-62.9,15-126.9,22.1-188.7,42.2
		c15.2-38.9,27.4-79,30.2-120.9c1.4-20.7,2.2-41.6,3-62.1c0.5-10.8-1.3-22.6-2-33.5c-0.6-8.7,24.3-6.1,30.5-6.4
		c43.1-2.2,90-11.6,131.1-24.9c19.1-6.2,38-11.2,56.7-18.3C346.4,297.9,365.5,287.3,386.6,281.1C387,285.4,385.1,281.5,386.6,281.1z
		"/>
	<path fill-rule="evenodd" clip-rule="evenodd" fill="#FFFFFF" d="M483.8,433.5c4-8.2,8-16.4,12-24.5c14.7,7,27.1,16.9,44.5,14.5
		c14.6-2.1,6-15.1-0.2-23.2c-5.3-6.9-27.4-14.6-29.4-21.2c-2.1-7.1,7.5-11.8,12.2-10.2c8.8,2.9,16.4,8.6,24,13.8
		c19.9,13.4,60.8,46.4,29.2,70.9C552,472.2,507.2,442.5,483.8,433.5C488,425,486.1,434.4,483.8,433.5z"/>
	<path fill-rule="evenodd" clip-rule="evenodd" fill="#FFFFFF" d="M541.2,419c-18-1.1-25.7-6.6-41.6-13.3
		c-17.1-7.2-11.7-17.8-2.5-29.1c3.1,2.7,6.1,5.5,9.2,8.2c-5.6-2.3-10.8-0.1-4.2,3.2c6.3,3.2,12.5,6.6,18.6,10
		c-0.8-6.1-7-6.5-10.1-10.9C521.7,385.5,541,408.9,541.2,419C535,418.6,541.1,412.8,541.2,419z"/>
	<path fill-rule="evenodd" clip-rule="evenodd" fill="#FFFFFF" d="M405.7,326.7c12.4,8.1,84.3,48.4,78.7,59.7
		c-14.1-10.7-30.5-17.4-44.9-27.8C429.5,351.4,404.1,341.1,405.7,326.7C409.9,329.4,404.9,334.1,405.7,326.7z"/>
	<path fill-rule="evenodd" clip-rule="evenodd" fill="#FFFFFF" d="M300.1,258.9c14.6,9.8,29.8,20.1,43.8,30.9
		c-9.5,8.8-18.1-0.3-26-7.1C310.5,276.3,286.9,269.8,300.1,258.9C303.4,261.2,298.4,260.3,300.1,258.9z"/>
	<path fill-rule="evenodd" clip-rule="evenodd" d="M169.1,428.9c-1.6-3.6-11.3-7-6.9-10.9c8-7.1,11.5-7.5,13.9,3.9
		c2.1,10,18.2,2.5,26.6,10.1c5.8,5.3,9.9,15.5,3.4,22.1c-7.9,8.1,0.4,6.7,3.5,15.9c3.4,10-2.2,18.9-9.8,24.6
		c-17.8,13.6-39.3-0.3-36.3-21.4c-12.2,7-27-8.3-26.4-20.2C138,437.9,157.3,432.3,169.1,428.9C168.3,427,165.5,429.9,169.1,428.9z
		 M201.6,486.5c0-5.6,1.4-13.5-0.3-19c-0.8-2.8-6.9-5.1-6.6-7.5c0.4-3.6,5.9-5.1,6.7-8.9c1.3-6.1-1-15.8-7.4-18.5
		c-20.5-8.8-12.7,14.5-10.4,24.6c1.5,6.5,6.2,31.2,10.8,35.1C196.8,490.4,199.2,488.4,201.6,486.5
		C201.6,480.9,199.6,488.1,201.6,486.5z"/>
	<path fill-rule="evenodd" clip-rule="evenodd" d="M222,383c4.1-5.4,8.4-15.2,16.8-12.8c-1.7,2.8-11.9,16.6-7.8,19.1
		c3.7,2.3,21.3,10.3,14.6,16.9c-15.3,15.2-18.3-25.3-27.1,5.4c-1.4,4.9-10.4,0.4-12.6-2.3c-4.5-5.7,9.5-12.1,10.5-16.9
		c0.8-3.8-13.8-8.1-14.4-12.5C200.2,368.2,217.8,382.3,222,383C224,380.3,214.8,381.7,222,383z"/>
	<path fill-rule="evenodd" clip-rule="evenodd" d="M367.8,364.8c6.9-12.3,4.8,9.1,3.4,13.1c-1.6-2.1-19-22.6-7.7-15.1
		c1.4-11.5-19.7-13.5-26.8-13.5c-0.3-6.4,7.4-5.6,9.9-10.3c3.8-7.3,1.4-14.7,4.5-21c7.8,8.3,1.8,10.6,14,11.6
		c6.5,0.5,11.3-2.3,17.8-2.3c1,2.7,0,4.2-2.8,4.7c-8.2,1.5-7.4,3.8-8.9,10.1C368.7,352.3,365.2,353.8,367.8,364.8
		C368.9,362.8,366.9,361.1,367.8,364.8z M360.4,341.4c3.8,10.1,5.6,2.9,6.5-3.3C364.7,339.2,362.5,340.3,360.4,341.4
		C361,343.1,362.4,340.4,360.4,341.4z M357.3,344.4c-2.1,0.4-4.2,0.8-6.4,1.2c2.9,2.9,4.5,5.1,8.6,3.6
		C358.7,347.6,358,346,357.3,344.4C355.4,344.8,358.1,346.3,357.3,344.4z M349.6,339.6c4.1,0.5,5.3-0.7,4.8-5.2
		C352.5,336.4,351.2,337.8,349.6,339.6z"/>
	<path fill-rule="evenodd" clip-rule="evenodd" d="M564.5,406.8c8.6-0.8,21.1,16.5,9.9,20.3C577,418.2,570,412.6,564.5,406.8
		C570,406.4,570.4,412.9,564.5,406.8z"/>
	<path fill-rule="evenodd" clip-rule="evenodd" d="M573.4,423.4c-5.5-1-8.1-5.6-6.3-9.9C569.2,416.8,571.1,419.7,573.4,423.4z"/>
	<path fill-rule="evenodd" clip-rule="evenodd" d="M268.2,397.1c-0.6-7.8,5.2-6.2,11.2-9.1c9.5-4.6,10.3,7,12.2,13.6
		c16.2-5.8,28.7-6.1,38,10.5c4.9,8.8-6.8,9.7-6.6,16.3c0.2,5,5,8.3,4.4,14.5c-1.2,11.7-8.6,21.5-20,25c-11,3.5-42.4-4-30.3-21.6
		c-11-1.2-19.9-9.3-17.9-21c2.1-12.5,13.5-16.3,23.5-21.1C277.4,399.2,275.5,398,268.2,397.1C267.8,391.7,270.8,397.5,268.2,397.1z
		 M293.4,407c3.6,12.7,7,25.2,9.9,37.9c0.5,2.1,3,15.4,7.1,11.9c3.8-3.3,14.5-10.9,12.1-17.5c-1.3-3.4-2.3-7-6.2-8.3
		c-6.1-1.9,3.6-6.1,4.2-7C330.8,409.3,300.9,405.6,293.4,407C294.3,410,301.7,405.4,293.4,407z"/>
</g>
</svg>
