<?xml version="1.0" encoding="utf-8"?>
<!-- Generator: Adobe Illustrator 16.0.0, SVG Export Plug-In . SVG Version: 6.00 Build 0)  -->
<!DOCTYPE svg PUBLIC "-//W3C//DTD SVG 1.1//EN" "http://www.w3.org/Graphics/SVG/1.1/DTD/svg11.dtd">
<svg version="1.1" id="Layer_1" xmlns="http://www.w3.org/2000/svg" xmlns:xlink="http://www.w3.org/1999/xlink" x="0px" y="0px"
	 width="43.1px" height="21.2px" viewBox="0 0 43.1 21.2" enable-background="new 0 0 43.1 21.2" xml:space="preserve">
<path fill-rule="evenodd" fill="#FFFFFF" clip-rule="evenodd" d="M25,18.4c-1.9,2.6-3.9,2.7-5.6,2.7c-4,0.1-8.1-0.2-12.1-0.4
	c-2.4-0.1-4.8-0.2-7.2-0.3c-0.3-1.8,0.8-2.4,1.6-3.1c3.2-2.6,6.4-5,9.5-7.7c1.8-1.5,3.7-3.1,4.7-6.1c-3.1,0.2-5.8,0.3-8.5,0.6
	C5.8,4.2,4.2,4.7,2.6,4.8C2,4.9,1.4,4.2,0.8,3.8c0.5-0.5,1-1.3,1.6-1.4c3-0.5,5.9-1,8.9-1.3c4-0.4,8-0.7,12.3-1
	c0.4,1.9-0.5,3-2.1,4.1c-2,1.3-3.9,2.6-5.6,4.2C12.4,11.5,9,14.9,5.3,18.4C11.9,18.4,18.1,18.4,25,18.4z"/>
<path fill-rule="evenodd" fill="#FFFFFF" clip-rule="evenodd" d="M27.5,0c1.9,0.9,1.6,2.3,1.6,3.5c0,3.6,0,7.2,0,11.2c4.7,0.1,9.3-1,13.9-1.5
	c0.2,1.5-0.3,2-1.6,2.2c-3.6,0.5-7.4,0.7-10.8,2.2c-1.6,0.7-3.6-0.4-4-2.2c-0.3-1-0.6-2.1-0.5-3.2C26.5,8.3,27,4.3,27.5,0z"/>
</svg>
