<?xml version="1.0" encoding="utf-8"?>
<!-- Generator: Adobe Illustrator 16.0.0, SVG Export Plug-In . SVG Version: 6.00 Build 0)  -->
<!DOCTYPE svg PUBLIC "-//W3C//DTD SVG 1.1//EN" "http://www.w3.org/Graphics/SVG/1.1/DTD/svg11.dtd">
<svg version="1.1" id="ArrowNext" xmlns="http://www.w3.org/2000/svg" xmlns:xlink="http://www.w3.org/1999/xlink" x="0px" y="0px"
	 width="708.7px" height="425.2px" viewBox="0 0 708.7 425.2" enable-background="new 0 0 708.7 425.2" xml:space="preserve">
<path fill-rule="evenodd" clip-rule="evenodd" fill="#851E25" d="M65,213.6c7.2-11.3-10.3-73.4-13.3-85.6
	C43.5,94.8,39.8,57.8,35.2,23.7C66.4,4.1,148.1,30.1,180,34.1c40,4.9,91,21.6,140.8,34.7c23.5,6.2,161.5,76.1,146.8,10.6
	C450,1.5,577.4,119.5,591.9,128.5c27.1,16.8,54.4,48.4,74.2,73.5c32,40.8-1.7,39.5-28.6,71.3c-37.5,44.4-106.2,103.1-158.7,127
	c-37.1,16.9-33.6-47.1-62-48.7c-28.3-1.5-51.6-5.2-79.1,0.5c-71.1,14.8-141.4,43-212.7,54.3c-61.4,9.7-43.3-40.9-49.2-85.3
	C71.6,289.1,75.4,243.8,65,213.6C66.2,211.6,66.3,217.3,65,213.6z"/>
<path fill-rule="evenodd" clip-rule="evenodd" d="M566.3,346.7c-6.7,25.8-52.3,35.5-67.6,56.9c-22.9,32.1-47.8,18.9-61.1-13.4
	c-14.9-36.2-112.4-7.6-140.7-7.8c-31.3-0.2-97.5,13.3-126,25.9c-32.3,14.2-97.5,33.5-98.8-8.8c-2.1-66.2-6.2-138.1-17.5-203.6
	C50,170,47.8,103.1,30.1,82C22.4,72.9-2.7,12.3,0.2,3c5.9-18.8,355.1,56.3,376.5,77.1c13.9,13.6,42.8,11,60.2,18.4
	c37.3,15.8,9.5-59.3,44.3-74.3C493.3,19,603.3,121.6,620.7,135c23.2,17.8,43,44.7,67.9,59.1c40.5,23.3,9,27.5-1.5,48.7
	c-3.5,7.1-49.3,48.3-56.6,47C622.6,288.3,578.1,341.2,566.3,346.7C565.6,349.3,567.8,346,566.3,346.7z M69.7,213.6
	c16.4,47.5,8.6,115.1,13.7,165.3c5.9,57.3,126.4,0,165.9-7.2c47.5-8.7,98.1-34.2,146.7-33.2c47.8,1,33.7,12.3,58.2,52.5
	c23.3,38.3,62.4-37.3,81.9-38.6c20.3-1.3,147.9-126.6,142.7-131.4c-26.8-24.4-46.4-54.2-75.1-76.8c-23.6-18.6-59.6-42.8-79.3-65.2
	c-10-11.5-45.1-33.7-49.5-14c-7.8,35.7-6,57.7-43.7,43.1c-18.9-7.3-146.7-21.7-155.3-38.7C267.7,52.9,91.1,17.6,74.6,24.3
	c-10.8,4.3-23.6-4.2-34.2,2.5c2.1,15.3,3.6,36.7,7.8,51.5C53.3,96.4,79.9,197.6,69.7,213.6C71,217.3,70.9,211.7,69.7,213.6z"/>
</svg>
