<?xml version="1.0" encoding="utf-8"?>
<!-- Generator: Adobe Illustrator 16.0.0, SVG Export Plug-In . SVG Version: 6.00 Build 0)  -->
<!DOCTYPE svg PUBLIC "-//W3C//DTD SVG 1.1//EN" "http://www.w3.org/Graphics/SVG/1.1/DTD/svg11.dtd">
<svg version="1.1" id="Layer_1" xmlns="http://www.w3.org/2000/svg" xmlns:xlink="http://www.w3.org/1999/xlink" x="0px" y="0px"
	 width="1034.9px" height="1667.7px" viewBox="0 0 1034.9 1667.7" enable-background="new 0 0 1034.9 1667.7" xml:space="preserve">
<path fill-rule="evenodd" clip-rule="evenodd" fill="#FFFFFF" d="M1034.9,1383.7c-12.5-1.1-24.9-1.9-37.4-3.2
	c-9.7-1-19.5-2.5-29.2-3.8c-8.7-1.2-17.4-2.7-26.1-3.8c-3.3-0.4-6.7-0.4-10-0.1c-11.8,0.9-23.7,2.6-35.2-2c-0.4-0.2-1.2-0.3-1.5,0
	c-3.9,3.3-8.1,1.6-12.4,1.7c-7.5,0.2-14.7,1.3-21.7-2.4c-0.9-0.5-2.4-0.6-3.4-0.2c-8.1,3.4-16-1.2-24-0.6c-1.6,0.1-3.3-0.6-4.8-0.5
	c-6.9,0.5-13.7,1.3-20.5,1.9c-16.1,1.4-32.1,2.7-48.2,3.9c-1.5,0.1-2.9-0.4-4.4-0.3c-6.3,0.4-12.6,0.8-18.9,1.4
	c-1.8,0.1-3.5,0.9-5.2,1c-19.7,0.7-39.4,1.5-59.1,2c-9.4,0.3-18.8,0-28.1,0.1c-3.6,0.1-7.2,0.7-10.8,1c-8.4,0.7-16.8,1.9-25.1,1.9
	c-16.8,0-33.5-0.4-50.3-1c-4-0.1-8.1-1.9-12.1-1.8c-6.8,0.3-13.5,1.6-20.3,2.2c-7.9,0.7-15.9,0.6-23.7,1.8
	c-11.4,1.8-23.2-1.3-34.6,4c-7.3,3.4-15.5,5.4-24.2,0.6c-3.7-2-9.6-0.1-14.6,0.2c-2.3,0.1-5.1,1.7-6.7,0.9
	c-8.8-4.8-15.9,1.3-23.7,3.1c-8.7,2-17.6,3.4-26.3,5.1c-2.2,0.4-4.3,1.7-6.5,1.8c-5.3,0.3-10.7,0.1-16,0.1c-2,0-4.1-0.3-6,0.1
	c-3.4,0.8-6.6,2.1-10,0.1c-0.6-0.3-1.8-0.2-2.4,0.2c-6,3.8-12.5,3.3-19.3,3c-5.3-0.2-10.8,2-16.2,3.2c-7.7,1.8-15.4,3.7-23.1,5.5
	c-2.4,0.5-4.9,0.6-7.2,1.1c-1.1,0.2-2.8,1.1-2.8,1.8c0,1.1,0.8,2.8,1.7,3.2c3.4,1.3,3.5,3.8,3.5,6.8c0.2,9.4-2.3,18.9-1.4,28
	c0.7,8-2.3,14.8-2.5,22.2c-0.1,3.2,0.8,6.4,1.2,9.7c0.1,1.1,0.3,2.2,0.2,3.2c-1.1,7.6-2.8,15.2-3.4,22.8
	c-0.8,11.6-0.9,23.2-1.3,34.9c-0.2,5.8,0.3,11.7-0.3,17.5c-0.6,6.1,1.6,12.5-2.1,18.4c-1.1,1.8-0.3,4.9-0.4,7.4
	c-0.3,5.4-1,10.9-0.9,16.3c0.1,4.9,1.5,9.7,1.8,14.6c0.3,4.2,0.2,8.4,0,12.5c-0.2,4.3-0.6,8.5-1,12.8c-0.3,3.1-1.1,6.2-0.8,9.3
	c0.4,4,1.6,7.8,2.4,11.8c0.2,0.9,0.3,1.9,0.4,2.9c-6.7,0-13.3,0-20,0c0.5-3.4,1.3-6.7,1.5-10.1c0.3-6.5,0.1-13,0.6-19.4
	c0.3-4.2,1.6-8.3,1.8-12.5c0.1-4.6-0.7-9.2-0.9-13.8c-0.2-5.4,0.1-10.8-0.1-16.2c-0.2-6.3-0.7-12.6-0.8-18.9c0-4.7,0.6-9.3,0.8-14
	c0.2-3.8,0.2-7.7,0.2-11.6c0-1.2-0.3-2.3-0.2-3.5c2-16.6,4.2-33.1,5.8-49.7c0.7-7.5-1-15.1-2-22.6c-0.7-5.7-1.1-11.4-2-17.1
	c-1.5-9.8-3.3-19.6-4.8-29.4c-0.5-3.1,0.3-6.4-0.3-9.5c-0.3-1.5-2.3-2.8-3.7-3.8c-3.2-2.2-6.7-4-9.6-6.5c-0.9-0.8-1-3.7-0.3-5
	c2.7-5,5.8-9.7,8.9-14.5c1.4-2.1,3-4.2,4.9-6c4-3.7,8.2-7.1,12.3-10.7c0.7-0.7,1.3-1.8,2.1-2.1c10.4-3.6,12.1-13.1,14.9-21.9
	c0.3-0.9,0.9-2,0.7-2.8c-4.2-17.6,1.3-34.8,1.9-52.3c0.4-11.8-0.7-23.6-0.6-35.3c0-5.3,1.4-10.7,2.2-16c0.1-1,0.7-2,0.5-2.9
	c-2.6-10.2,2.8-19.5,3.2-29.4c0.3-7.1,1.1-14.1,1.9-21.1c1-8.5,2.3-16.9,3.2-25.3c0.8-7.2,1.2-14.5,1.8-21.7c0-0.5-0.1-1,0-1.5
	c2.6-12.1,5.5-24.1,7.8-36.2c1-5.3,0.4-10.9,1.3-16.3c1.1-6.8,3.3-13.5,4.6-20.3c0.9-4.7,0.6-9.5,1.3-14.2
	c2.1-14.2,4.4-28.4,6.7-42.5c1-6.4,1.8-13,3.2-19.3c1.7-7.6,3.6-15.1,6.1-22.5c3.7-11,7.3-22.2,12.2-32.7c2.4-5,5.2-10.1,10.4-14.1
	c5.5-4.2,8.5-11.6,12.7-17.7c-1.7-1.5-3.1-2.8-4.2-3.8c4-7.7,4.7-15.7,4.8-23.7c0.1-3.2-0.8-6.8,2.6-9c0.1-0.1,0.2-0.3,0.2-0.4
	c-2.4-9.5,5.2-18.1,2.4-27.7c-0.9-3.2,0-7-0.2-10.5c-0.6-8.9-1.5-17.8-1.9-26.6c-0.3-7.1-0.1-14.2-0.1-21.3c0-0.5,0.2-1.1,0-1.5
	c-2.4-4.5-1.2-9.2-1-13.8c0.1-1.9,0.6-4-2.5-4.4c-0.6-0.1-1.5-1.6-1.4-2.3c0.9-5.7-2.2-10.2-4-15.2c-0.5-1.4-1.5-3.4-0.9-4.2
	c5.2-6.9-1.3-14.6,1.7-21.6c1.2-2.9,1.1-6.4,2.1-9.4c4.2-11.9,8.3-23.8,12.9-35.4c2.3-5.7,5.6-10.9,8.4-16.4
	c1.1-2.1,1.5-4.7,2.8-6.6c5.6-7.8,11.4-15.5,17.1-23.2c2.4-3.3,4.4-6.9,7-9.9c3.7-4.2,8.7-7.5,11.7-12.2c3.3-5.1,7-9.5,11.6-13.3
	c2.7-2.1,5.5-4.2,8.2-6.3c2.7-2.1,3.2-4.2,0.6-7c-4.6-5-8.8-10.4-13.3-15.5c-0.9-1-2.4-1.4-3.6-2.1c-2-1.2-5.6-1.2-3.9-5.4
	c0.3-0.7-1.8-2.5-3.1-3.5c-1.7-1.4-3.9-2.4-5.5-3.9c-2.5-2.4-4.6-5-8.8-4.5c-1.2,0.1-2.7-2.5-4-3.9c-1.2-1.3-2-3.1-3.5-3.8
	c-6.5-2.8-12.7-1.6-19.4,0.5c-10.3,3.3-20.6,1.6-30.6-2.8c-8.8-3.8-18-6.6-26.7-10.7c-6.2-3-11.9-7.3-17.5-11.4
	c-4.5-3.3-8.6-7-12.9-10.6c-0.5-0.4-1.3-0.8-1.3-1.2c-0.7-8.8-6.9-15.1-10.2-22.8c-3.7-8.6-8-17-12-25.4c-1.9-4-3.6-8-5.6-11.9
	c-2.2-4.5-4.1-8.8-9.2-11.6c-3.2-1.8-5-6-7.6-9.1c-3.9-4.6-5-11.3-12.2-13.7c-3.2-1.1-4.9-6.4-7.4-9.7c-7.5-9.9-16.2-18.7-27-24.8
	c-10-5.7-20.5-10.5-30.5-16.1c-6.6-3.7-12.6-8.3-19.2-12.1c-5.3-3.1-10.9-5.7-16.5-8.5c-7.2-3.6-14.4-7.4-21.7-10.8
	c-4.1-1.9-8.8-2.6-12.7-4.7c-10-5.3-21-8.4-31.2-13.2c-3.3-1.5-7.3-1.5-11-2.2c-9.6-1.9-19.4-3.1-28.8-5.9c-4.3-1.3-9.3-3.7-11-9
	c-1.2-3.7,0.9-6.1,4.1-7.9c4.6-2.6,8.9-6.1,13.7-8.3c5.7-2.6,11.2-6.8,18.2-4.6c0.5,0.1,1,0.2,1.5,0c6.2-1.9,12.3-3.8,18.5-5.8
	c2.8-0.9,5.4-2.4,8.2-2.9c11.7-2,21.7-8.3,32.2-13.2c1-0.5,2.1-0.9,3.2-1c3.6-0.5,4.8-2.6,5.1-6c0.5-8,0.5-16.2,2.2-24
	c1.4-6.7,4.6-13,7.6-19.2c2.7-5.6,5.7-11.2,9.4-16.2c4.6-6.1,9.2-12.3,16.6-15.7c5.7-2.6,11.9-5,15.2-10.7c2.8-4.7,4.5-10,7-14.9
	c3.4-6.5,5-13.8,3.6-20.4c-1.9-9.2,2.5-17.1,2.8-25.5c0.3-7.4,1.2-14.5,3.6-21.3c4.3-12.3,9.8-23.8,18.8-33.9
	c8.6-9.6,20.2-9.8,30.9-13c9.1-2.7,18.6-4.5,28.1-4.9c6.7-0.2,13.5,2.6,20.2,4.2c4.9,1.2,8.6,4.2,12.1,7.7c0.9,0.9,4.6,0.2,6-1
	c9.6-8.1,20.3-14.9,32-18.8c9.1-3,19.3-5.7,29.2-1.4c1.8,0.8,3.4,1.8,5.1,2.8c3.6,2.3,7.2,4.6,10.7,7.1c1.7,1.2,3.3,2.8,4.2,4.7
	c2.7,5.8,5.5,11.6,7.4,17.7c1.6,5.1,2,10.6,3.1,16.9c4.7,1.6,3.6,7.4,4.2,11.9c0.5,4-1.3,8.2-1.5,12.4c-0.1,2,0.7,4.6,2.1,6
	c5.2,5.6,10.8,10.8,16.1,16.3c8.4,8.8,11.6,19.9,12.4,31.7c0.4,5.2-0.8,10.4,1.9,15.5c1.6,3-4.1,11.5-7.3,12.9
	c-3.8,1.7-7.5,3.8-11,5.9c-3.9,2.4-7.6,3.7-12.5,2.2c-6.9-2.2-13.3,0-19.4,3.6c-1.5,0.9-3.3,1.4-4.8,2.2c-2.4,1.4-4.9,2.8-7,4.5
	c-3.7,3-7,6.5-10.8,9.4c-7.9,6.2-15.3,13.1-18.9,22.5c-1.9,5-2.1,11-1.9,16.4c0.2,6.1,1.8,12.1,2.8,18.2c0.2,0.9,0.6,1.9,1.2,2.6
	c7.7,9.1,15.9,17.5,25.6,24.5c5.4,3.8,9.3,9.6,14.3,14.1c3.3,3,7.3,5.3,11.1,7.7c5.1,3.3,10.3,6.4,15.5,9.6c1.3,0.8,2.4,2,3.8,2.4
	c6.5,1.7,13.1,3.2,19.7,4.7c8.6,1.9,17,2.9,25.4-1.3c6.9-3.5,14.3-6.2,21.5-9.2c3.9-1.6,6.8-3.8,8.6-8c2.1-4.7,6.1-8.6,8.2-13.2
	c4.1-8.8,8.6-17.7,10.8-27c2.6-10.9,3.1-22.3,4.3-33.5c1.4-13.1,2.6-26.1,3.9-39.2c0.7-7.5,1.5-15,2.1-22.4
	c0.7-8.7,1.4-17.4,1.9-26.1c0.3-4.8-0.6-9.9,0.7-14.4c3.5-12.4,7.5-24.7,11.8-36.9c4.7-13.4,11.5-25.6,22.2-35.3
	c5.9-5.4,11.4-11.4,17.9-15.8c6.9-4.6,15-7.4,22.6-11.1c7.5-3.7,14.8-7.8,22.5-10.9c4.6-1.8,9.7-2.3,14.7-3.1c9-1.5,18-3.1,27-4.1
	c9.4-1,18.8-1.2,28.2-2c2.7-0.2,5.6-0.5,8.2-1.4c5.1-1.8,10-3,15.7-1.8c5.8,1.2,12.3-1.2,17.7,3.2c0.5,0.5,1.8,0.1,2.7,0.1
	c1.3,0,3-0.6,3.9,0c7.8,5.1,17.3,4.7,25.6,8c3,1.2,5.3,4,8.1,5.7c3.3,2,7,3.5,10.3,5.5c3.7,2.3,7.1,4.9,10.7,7.4
	c1.3,0.9,2.5,2.2,4,2.9c10.5,4.5,18.7,11.7,25.1,21.2c0.5,0.8,1.3,1.8,2.2,2c6,1.7,6.1,7.5,8.4,11.8c0.7,1.4,1.4,2.8,2.3,4.1
	c2.4,3.4,5.5,6.4,7.4,10c3.6,6.9,6,14.3,9.8,21.1c4.3,7.7,10.8,14.5,13.7,22.6c2.7,7.6,8.7,14.6,6,24.1c-0.9,3.3,1.4,7.5,2.1,11.4
	c1.9,11.4,4.5,22.8,5.3,34.3c0.5,7-1.7,14.2-2.7,21.3c-0.1,0.8-0.9,1.6-0.8,2.3c1,6.8-2.5,12.3-5.2,17.9c-1.3,2.6-2.9,5-4,7.7
	c-2.1,5.3-3.7,10.7-5.7,16c-1.6,4.2-3.3,8.4-5.6,12.2c-4.2,6.9-8.7,13.7-13.7,20c-2.3,2.9-6,4.7-9,7c-2.1,1.6-4.2,3.1-6.5,4.8
	c5.7,6.3,4.9,12.8,3.6,19.6c-0.5,2.4,0,5,0.1,7.5c0,0.8,0.9,1.6,0.8,2.3c-1.2,6.5-2.8,13-3.8,19.6c-0.5,3.6,0.1,7.4-0.2,11.1
	c-0.5,7.1-0.7,14.2-2.1,21.1c-1.1,5.5-0.9,11.4-5.4,16.1c-1.8,1.9-0.5,6.3-1.8,8.9c-5.4,11.2-11,22.4-17.1,33.2
	c-5,8.9-10,17.8-17.7,24.8c-2.1,1.9-4.9,3.2-7.5,4.4c-7.1,3.2-14.3,6.1-21.4,9.2c-0.5,0.2-0.9,0.4-1.3,0.7
	c-9.9,7.7-22.2,8.7-33.8,11.6c-9,2.2-18.3,3.9-27.5,4.3c-5.8,0.3-11.8-1.7-17.5-3.4c-5.5-1.6-10.1-6.1-16.5-5.4
	c-1,0.1-2.3-0.6-3.1-1.3c-6.4-5.3-13.1-10.4-19.1-16.1c-5.3-5.1-7.1-12.2-8.2-19.4c-2.2-14.2,3.9-26.1,10-38.1
	c0.4-0.7,0.6-1.4,1.3-3c-9.8,0.3-19.4,1-27.4-4.7c-7.3-5.2-14.2-11-21.2-16.6c-3.7,5-8,11.2-12.8,17.1c-5.8,7.1-12,14-18.1,20.8
	c-4.9,5.4-9.8,10.7-15,15.8c-6.8,6.5-13.8,12.8-20.8,19.1c-6.7,6.1-14.3,11.4-19.7,18.4c-2.3,3-6.1,6.4-5.8,12.3
	c0.3,6.5-2,13.4-4.7,19.5c-2.7,6.2,0.3,11.2,1,16.8c0.3,2.3,0.1,4.7,0.4,7c0.2,2.1,0.4,4.2,1.1,6.2c3.1,8.4,6.1,16.8,9.6,25
	c4.3,10.3,8.6,20.6,13.8,30.4c4.5,8.3,10.6,15.7,15.5,23.8c3.1,5.1,5.6,10.5,8,15.9c2.1,4.7,4.1,9.6,5.3,14.6
	c3,12.3,4.3,24.9,2.9,37.6c-0.9,8.6-0.9,17.2-1.7,25.8c-0.6,6.5-2,12.9-2.7,19.3c-0.3,2.2,0.2,4.6,0.4,6.9c0.4,3.7,1.4,7.5,1.4,11.2
	c0.2,11.2,0.1,22.4,0,33.7c0,1.8-0.4,3.6-0.6,5.4c-0.1,1-0.7,2.4-0.2,2.8c4.1,4.2,1.6,8.3,0.2,12.4c0.9,1.1,2.5,2.1,2.6,3.2
	c1,10.2,7.9,18.9,7.3,29.7c-0.4,7.7,4.3,10.2,13.6,9.7c5.6-0.3,11.2,0.6,16.8,1.2c4.2,0.4,8.4,1.1,12.6,1.7c5.2,0.7,10.5,1,15.4,2.4
	c3,0.9,5.7,3.5,8.3,5.6c6.9,5.5,15.9,8.7,18.6,18.6c0.9,3.5,4.1,6.3,5.4,9.8c1.7,4.3,2.9,8.8,3.9,13.3c1.5,6.5,2.4,13.2,4.3,19.5
	c1.7,5.6,4.8,10.9,6.9,16.4c2.5,6.6,4.6,13.3,7,20c1,2.8,2.3,5.6,3.5,8.3c1.7,4,3.1,8.2,5.1,12.1c3,6,6.4,11.9,9.7,17.8
	c3.2,5.8,6.6,11.5,9.7,17.4c1.9,3.6,3.4,4.8,7.5,2.1c9.7-6.5,20-12.1,29.8-18.5c3.9-2.6,6.7-6.9,10.6-9.6c4.8-3.3,10.1-5.8,15.2-8.7
	c8-4.5,16.2-8.9,24.1-13.6c10.2-6.1,21-11.6,30.2-19c16.1-12.8,35.7-19,52.7-30c7-4.5,13.7-9.4,20.6-14c1.4-0.9,3.1-1.5,4.8-1.9
	c4.1-0.9,8.4-1.4,12.4-2.6c2.6-0.7,4.3-2.2,1.8-5.4c-2.9-3.7-3.1-7.8-1.9-12.5c3.4-13.4,6.5-27,9.1-40.6c1.6-8.2,2.3-16.6,3.3-24.9
	c0.1-0.7-0.7-2.3-1.1-2.3c-5.4-0.4-9.8-5.7-16.1-2c-4.4,2.6-9.7,3.5-15.1,0.8c-3.1-1.5-6.5-1.5-8,2.9c-0.3,0.9-1.4,2.1-2.3,2.1
	c-5,0.4-10.1,0.4-15.1,0.6c-2.9,0.1-5.9,0.2-8.7,0.7c-12.6,2.2-25.6,1.7-37.7,6.8c-1,0.4-2.3,0.1-3.5,0.2c-7,0.8-14,1.4-20.9,2.7
	c-6.7,1.2-10.9-2.1-9.7-8.7c0.2-1.4,1.5-3.3,2.7-3.7c3.6-1.1,7.3-1.7,11-2.2c8.9-1.2,17.9-2.3,26.8-3.3c5.4-0.6,10.8-1.1,16.1-1.7
	c17.6-2,35.3-2.2,52.6-6.6c3-0.8,6.3-0.1,9.5-0.3c5.3-0.3,10.6-1,15.9-1c4.3,0,5.7-2,6.3-5.7c1.2-7.9,2.2-15.9,3.8-23.7
	c1.6-8.1-1.4-10.2-9.7-9.6c-6.1,0.5-12.4,3.8-18.7,0.2c-0.9-0.5-2.9,0.6-4.4,1.2c-5.5,2.2-11.3,4.7-16.5,0.1c-2-1.7-3.7-4.9-3.8-7.5
	c-0.2-3.6,2.7-5.1,6.4-5.2c7.5-0.2,14.9-0.6,22.4-1c5.4-0.3,10.9-0.7,16.3-1c1.3-0.1,2.7,0,3.9,0.3c5.8,1.3,10.7-3.2,9-8.8
	c-1.3-4-1.1-7.4,0.1-11.6c2.7-9,4.4-18.3,6.1-27.6c1.3-6.9,2-13.9,3.1-20.8c0.3-1.8,1.1-3.9,2.2-5.2c1-1.1,3.3-2.3,4.4-1.8
	c1.4,0.6,3.2,2.8,3.1,4.3c0,4.4-0.5,8.8-1.4,13.2c-1.6,8.8-4.7,17.4-5.1,26.2c-0.3,7.8-0.2,15.5-2.2,23.1c-1,3.9,1.5,6.9,5.6,6.5
	c6.5-0.6,12.9-1.8,19.4-2.5c5.7-0.6,11.5-0.9,17.2-1.5c2.1-0.2,4.1-0.7,6.5-1.1c0,5.6,0,10.7,0,14.6c-4.6,0.5-8.9,1.2-13.2,1.5
	c-5.9,0.5-11.9,1-17.8,1c-4.4,0-8.9-0.8-13.3-0.9c-4.9-0.2-7.7,4.1-8.5,11.7c-0.8,7.7-1.9,15.5-3.1,23.2c-0.2,1.5-1.3,2.9-2.5,5.7
	c3.7,0.3,6.8,0.9,9.8,0.7c6.9-0.5,13.7-1.5,20.5-2.2c17.1-1.7,34.3-3.4,51.4-5.1c1.1-0.1,2.3,0,3.6,0c0,4,0,7.6,0,11.5
	c-3.3-1.7-6.1-2.1-9.2,1c-1.5,1.5-5,1.3-7.6,1.3c-12.3,0.5-24.5,0.8-36.8,1.1c-1.3,0-3.1-0.3-3.9,0.4c-6.7,6.3-15,4.4-22.8,4.6
	c-3.3,0.1-6.7,2.4-6.5,5.9c0.9,12.8,1.9,25.6,2.9,38.4c0.1,0.7,0.1,1.3,0,2c-0.8,9.1,1.5,17.6,4.6,26.1c0.4,1.2-0.1,2.8-0.4,4.2
	c-1.4,6.4,0.9,9.4,7.3,9.5c9.4,0,18.8-0.2,28.3,0.1c8.3,0.3,16.5,1.6,24.8,1.7c7.6,0.1,15.2-0.8,22.8-1c8.6-0.3,17.2-0.4,25.8-0.7
	c3.3-0.1,6.5-0.7,9.8-1.1c0,7.3,0,14.7,0,22c-2.4-0.3-4.8-0.7-7.2-1c-2.3-0.3-4.5-0.6-6.8-0.9c-10.4-1.4-20.7-1.1-30.9,0.9
	c-0.2,0-0.3,0-0.5,0c-9.8,0.7-19.7,1.9-29.5,1.9c-11.4,0-22.8-1.2-34.2-1.8c-1.2-0.1-2.3-0.1-3.5,0c-8,0.6-16.1,1.4-24.1,1.9
	c-5.3,0.3-10.9-0.8-16,0.3c-6.3,1.4-12.5,4-18.3,6.9c-6.5,3.2-12.5,7.4-18.7,11.1c-7.1,4.2-14.4,8.1-21.4,12.4
	c-9.3,5.8-18.3,11.9-27.5,17.7c-3.8,2.4-7.8,4.6-11.8,6.7c-4.5,2.4-9.2,4.5-13.7,7c-2.3,1.3-4.2,3.2-6.3,4.7
	c-10.3,7.1-20.6,14.1-30.9,21.3c-8.7,6.1-17.1,12.4-25.8,18.5c-6.6,4.6-13.7,8.6-20.1,13.5c-2.3,1.7-3.4,5.1-5.6,8.5
	c-2.1,0.7-7.1,0.7-8.8,3.1c-6.3,9-16.6,13.1-23.5,21.5c-6,7.2-14.9,11.9-22.4,17.8c-5.2,4.1-10.2,8.6-15.5,12.7
	c-9.3,7.2-18.8,14.2-28.2,21.2c-8.9,6.6-17.8,13.2-26.7,19.7c-6.4,4.6-13.2,8.7-19.4,13.6c-12.2,9.5-23.9,19.7-36.3,28.9
	c-7.3,5.4-15.9,8.9-23.4,14.2c-5.5,3.8-12.7,5.8-15.6,13c-0.4,1-2.1,1.5-3.1,2.3c-3.8,3-7.5,6.1-11.2,9.2c-2.2,1.8-4.2,3.8-6.5,5.2
	c-4.2,2.6-8.6,4.7-11.9,8.9c-2.2,2.9-6,4.5-8.8,7c-5.6,4.9-10.7,10.4-16.4,15.1c-4.5,3.7-9.6,6.8-14.6,9.8
	c-5.5,3.3-10.5,6.4-11,13.9c-0.1,1.6-4.5,2.7-6.7,4.4c-4.4,3.5-11.2,4.1-13.2,10.6c-0.1,0.3-0.4,0.7-0.6,0.7
	c-10.1,1.7-12.3,12.7-20.1,17.2c-3.7,2.2-8.3,3.7-8.4,9.2c0,0.3-0.4,0.6-0.6,0.7c-6.1,3.9-12.3,7.8-18.3,11.7
	c-1.1,0.7-1.8,1.9-2.7,2.8c-3.6,4.1-7,8.5-10.9,12.3c-4.3,4.2-9.1,7.8-13.6,11.7c-0.3,0.2-0.7,0.5-0.6,0.7
	c0.7,9.8-10.4,8.2-13.7,14.4c-1.6,3.1-4.6,5.5-7.7,9.1c4.3-0.5,7.5-0.6,10.6-1.2c9.1-1.6,18.2-3.4,27.4-5.1c1.6-0.3,3.2-0.7,4.8-0.8
	c12.2-1.3,24.4-2.7,36.7-3.9c4.3-0.4,8.7,0.3,13-0.2c14.8-1.7,29.5-3.8,44.3-5.5c6.9-0.8,13.9-0.9,20.9-1.5c2.6-0.2,5.2-0.8,7.8-0.9
	c10-0.7,20.1-1.4,30.1-2c13.5-0.8,27.1-0.8,40.6-2.2c11.1-1.2,22-4.5,33.2-6c6.8-0.9,13.9-0.3,20.8-0.5c3.3-0.1,6.5-0.7,9.8-1
	c4.6-0.4,9.2-0.8,13.7-1.3c6.7-0.7,13.4-1.5,20.1-1.9c2.1-0.2,4.2,0.6,6.3,0.8c2.3,0.1,4.7,0.3,6.9-0.1c4.1-0.7,8.1-2.3,12.3-2.6
	c9.4-0.7,19.3,0.7,28.3-1.5c8.1-2,15.7,0.8,23.5-0.6c3.1-0.5,6.1-1.1,9.2-1.3c2.4-0.2,4.7,0.1,7.1,0.2c4.3,0.3,8.6,0.8,12.8,1
	c12.1,0.4,24.3,0.5,36.4,1.2c7,0.4,13.8,2.3,20.8,2.6c4.4,0.2,8.8-1.5,13.3-2.3c1.5-0.3,2.9-0.4,4.4-0.4c9,0,18,0.2,27-0.1
	c4.4-0.1,8.7-1.2,13-1.9c8.5-1.3,17-3.1,25.5-3.9c7.3-0.6,14.7-0.5,22.1,0c5.8,0.4,11.5,2.5,17.3,2.7c6.9,0.3,13.9-0.8,20.8-0.8
	c8.1,0,16.3,0.8,24.4,0.8c6.7,0,13.3-0.7,20-0.9c7.9-0.2,15.7-0.4,23.6,0.1c8.1,0.5,16.2,2,24.4,2.7c4.7,0.4,9.4-0.2,14,0.3
	c7.3,0.8,14.6,2.1,22,3.2c1.4,0.2,2.9,0.5,4.3,0.7C1034.9,1366.4,1034.9,1375.1,1034.9,1383.7z M36.1,283.3c5.5,6.5,12.3,5.4,18,7.4
	c3.9,1.4,8.2,2.1,12,3.8c10.7,4.9,21.2,10.1,31.8,15.2c9,4.3,18.1,8.3,27.1,12.7c5.4,2.6,10.6,5.5,15.8,8.3
	c6.3,3.4,12.5,7,18.8,10.2c6.9,3.5,13.8,8.1,21.1,9.4c7.8,1.4,15.1,3.8,22.4,6.5c1.9,0.7,4.1,1.3,5.7,2.5c4.6,3.7,7.9,9.4,15.2,8.6
	c1.4-0.2,3.3,0.9,4.3,2c3.2,3.5,6.4,7,9,10.9c2.9,4.3,4.6,9.5,7.9,13.3c6,6.8,8.9,14.6,10.6,23.2c0.2,1.2,0.9,2.3,1.6,3.3
	c1.2,1.5,3.1,2.6,3.8,4.3c4,9.1,7.7,18.4,11.6,27.6c1.4,3.3,2.3,6.7,4.1,9.7c3.8,6.4,5.5,14.3,12.4,18.6c0.2,0.1,0.2,0.6,0.4,0.9
	c4.5,4.7,8.5,10.3,13.7,14c7.2,5.2,16.2,8,22.9,13.6c12.2,10.2,26.1,10.3,40.3,9.2c10.8-0.9,21.6-2.9,32.3-4.9
	c4.1-0.8,9.4-0.5,9.1-7.7c-0.1-2.5,2.2-5.8,7.1-5.4c6.8,0.5,14.1,2,20.5-2.7c3.9-2.9,9.4-4.4,12-8c3.1-4.3,9-5.4,10.7-10.9
	c0.1-0.3,0.9-0.3,1.3-0.6c6.7-4.2,13.3-8.4,20-12.5c7-4.3,12.8-9.9,18.3-15.8c6.6-7.2,12.8-14.8,19.3-22.2
	c5.7-6.5,13.3-11.9,13.8-21.7c0-0.7,0.7-1.5,1.2-2.1c3.5-3.8,6.9-7.6,10.5-11.2c2.2-2.3,5.3-3.9,6.9-6.5c2.8-4.4,8.6-6.4,9.4-12.3
	c0.1-0.5,1.4-0.8,2-1.2c1.4-1,2.9-2,4.2-3.2c2-1.8,3.9-3.9,5.9-5.7c2.4-2.1,4.7-4.3,7.3-6.2c5.4-4.1,7.1-4.1,9.9,1.5
	c1.5,2.9-0.5,10.8-3.4,13.7c-8.3,8.5-8.4,14,1.2,20.2c4,2.6,7.8,5.4,12,7.7c6.3,3.6,12.9,3.8,19.9,2c8.7-2.3,11.6-10.1,16.4-16.1
	c2.8-3.6,4.2-8.3,6.4-12.5c7.3-13.6,11-27.1,1.5-41.4c-0.8-1.2-0.3-4.5,0.9-5.6c1.1-1,4.1-1.1,5.6-0.4c1.7,0.9,3,3,4.1,4.8
	c5.6,9.3,3.6,19.4,3.2,29.4c-0.3,7.7-5,13.6-7.8,20.2c-2.2,5.3-6,9.9-9.2,14.7c-2.3,3.5-6.2,6.6-7.1,10.4
	c-1.5,6.7-5.5,13.4-1.9,20.7c0.5,1,0.4,2.6,0,3.7c-1.3,3.9-3.8,7.7-4,11.7c-0.2,3.9-3,8.5,2.2,12.3c2.9,2.1,3.2,7.4,5.9,10
	c9.1,8.6,20.5,12.5,32.9,13.1c5.8,0.3,11.6-0.9,17.4-0.8c11.9,0.2,22.8-4,33.6-7.6c10.1-3.4,19.1-9.8,28.9-13.9
	c5.2-2.2,8.6-5.8,11.7-10.1c0.6-0.8,1-1.8,1.7-2.3c11.9-8.6,13-22.9,18.1-35c2.4-5.6,3.1-11.9,4.2-18c1.2-6.8,2-13.6,3-20.4
	c0-0.3,0.1-0.7-0.1-1c-3-5.8-2.7-12-3-18.3c-0.2-4-1.6-7.9-2.7-11.8c-1.9-6.6-4-13.2-6.2-19.8c-0.4-1.1-1.6-2.4-2.7-2.8
	c-2.8-0.9-5.8-1-8.5-1.9c-7.5-2.3-14.9-4.7-22.3-7.2c-14.1-4.9-28.7-8.7-41.4-17c-6.2-4-11.4-9.5-13.3-16.5
	c-0.7-2.5,3.6-6.3,5.7-9.4c0.1-0.1,1.7,0.4,2,1c1,2,2,4.1,2.5,6.2c0.9,4,2.9,6.3,7.2,6.8c3.2,0.4,6.5,1.1,9.5,2.3
	c10.2,4,20.2,8.4,30.3,12.6c1.3,0.6,2.8,0.8,4.2,1.1c5.4,1.2,10.7,3.1,16.1,3.5c6,0.4,12.4,0.3,17.9-1.5c6-2,11.1-6.8,17-9.4
	c9.7-4.3,17.4-10.5,22.1-20.1c0.5-1,1.2-1.9,1.8-2.9c2.4-4.2,5.1-8.2,6.9-12.6c1.6-4,2.2-8.4,3.4-12.5c2.2-7.6,5.2-15,3.8-23.2
	c-0.3-1.6,0.3-3.3,0.3-4.9c0-3.6,0.3-7.2-0.2-10.8c-0.8-6.6-1.9-13.2-3.2-19.8c-1-5.4-2.1-10.9-3.9-16c-2.5-7.3-5.7-14.4-8.5-21.6
	c-0.2-0.6-0.4-1.2-0.5-1.9c-0.8-5.7-0.8-11.6-2.6-16.9c-2.5-7.2-6.4-14-9.6-20.9c-5.6-12.2-11.2-24.5-16.9-36.7
	c-0.6-1.4-1.8-2.6-3-3.6c-4.8-3.6-9.9-6.8-14.6-10.5c-4-3.1-7.8-6.5-11.7-9.7c-0.4-0.3-1.1-0.1-1.7-0.2c-1.7-0.4-3.4-0.7-5-1.4
	c-3.9-1.8-7.8-3.8-11.6-5.6c-8.7-4.2-17.6-7.8-27.3-9.3c-8.3-1.3-16.5-3.8-24.8-5.4c-11.5-2.2-23.1-2.4-34.4,0.7
	c-9.9,2.7-19.7,6-29.6,8.7c-7.6,2.1-15.4,3.8-23.1,5.6c-6,1.4-12.7,1.5-17.8,4.5c-4.4,2.5-8.7,3.2-13.2,4.2c-1.4,0.3-2.8,1-3.9,1.9
	c-2.6,2-5,4.3-7.6,6.3c-8.2,6.3-16.5,12.5-21.6,21.9c-4,7.4-7.8,15-11.5,22.5c-1.1,2.2-1.5,4.8-2.4,7.2c-0.9,2.3-2.8,4.4-2.9,6.6
	c-0.4,7,0,14-0.2,20.9c-0.1,5.1-0.8,10.2-0.9,15.3c-0.1,2.6,1.6,5.7,0.7,7.7c-4.1,8.6-2.8,18.6-7.6,26.9c-0.4,0.7,0,1.9,0.2,2.9
	c0.6,5.2,2.7,10.4-0.9,15.5c-0.5,0.7-0.5,2-0.3,2.9c3.2,11.6,2.3,23.4,1.8,35.2c-0.3,6-1.4,12.1-2.7,18c-1.4,6.8-3.5,13.5-5.2,20.3
	c-2.6,10.2-7.4,19.3-13.8,27.4c-4.5,5.7-10.4,10.2-15.9,15.1c-1.5,1.4-3.5,2.3-5.3,3.4c-11.6,7-24.6,10.2-37.6,13.2
	c-5.5,1.3-11.4,2.6-17,2.1c-11-1.1-21.8-3.3-32.7-5.4c-5.9-1.1-11.8-2.5-17.4-4.5c-4.2-1.5-7.9-4.6-11.9-6.6c-6-3-12.2-5.7-18.3-8.6
	c-8.5-4-14.3-10.7-18.9-18.9c-5.7-10.1-10.6-20.5-14.6-31.5c-1.6-4.5-4.5-8.6-5.8-13.2c-1.5-5.1-3-10.6-2.7-15.9
	c0.6-10.4,4.8-19.7,11.1-28c4.9-6.4,8.8-13.7,14.6-19.1c6.6-6.1,15.4-9.8,22-15.8c9.9-9,22.8-8.8,34.2-13c4.3-1.6,9.5-0.9,14.2-1.4
	c3.3-0.3,8.9-7.5,8.2-10c-1.9-6.3-4.4-12.6-5.2-19.1c-1-7.4-11-18.1-19.8-18.7c-1.4-0.1-3.4,0.9-4.4,2c-5.2,6-9.4,13.1-15.3,18.2
	c-7,6.1-14.7,11.6-23.6,15.3c-3.6,1.5-5.1,0.2-7-1.6c-1.1-1-2.3-3.1-1.9-4.2c1.2-3.3,2.6-7,5-9.3c3.6-3.3,8.3-5.2,12.3-8
	c2-1.4,3.2-3.8,4.9-5.6c1.4-1.4,2.9-2.8,4.5-4c1.9-1.4,4.7-2,5.8-3.8c3.3-5.4,6.8-10.9,8.8-16.8c2-5.9,3.5-12.6,2.9-18.6
	c-0.7-7.1-4-13.9-6.1-20.9c-0.6-2.1-0.4-5.2-1.8-6.3c-3.3-2.7-7.2-4.9-11.2-6.6c-4.1-1.8-8.7-2.5-12.9-4.2
	c-3.6-1.5-13.5-0.9-16.5,1.7c-2.9,2.5-5.6,5.2-8.6,7.6c-5.5,4.4-13.9,5.8-14.9,14.8c0,0.1-0.7,0.1-0.9,0.4c-1.8,2.6-3.9,5.1-5.1,8
	c-1.5,3.4-3.5,6.7-7.2,5.3c-3.1-1.1-5.4-4.4-3.4-8.6c0.4-0.8,0.4-2.4-0.1-3c-4.6-5.9-5.9-14.8-14.9-16.9c-1.1-0.3-2.4-1.5-2.8-2.6
	c-1.4-3.5-3.5-2-5.6-1.2c-1.9,0.7-4,1.9-5.8,1.7c-7.5-1-14.8-1.8-21.7,2.2c-1.1,0.6-2.5,1.1-3.7,1c-5.3-0.7-9.4,2.5-12.7,5.3
	c-9.8,8.2-17.7,17.6-21.1,30.8c-2,7.9-3.3,15.5-3.6,23.6c-0.1,3.8-0.9,7.5-0.8,11.3c0.1,6.6,0.7,13.2,1.1,19.8
	c0,0.4,0.4,0.9,0.7,1.3c1.9,3.1,3.7,6.4,5.9,9.3c1,1.3,2.9,2.4,4.5,2.6c4.8,0.6,9,2,13.5,4.3c10.1,5.1,17.1,13.5,25.2,20.7
	c3.5,3.1,6.6,6.6,9.6,10.2c3.3,3.9,6.3,8.1,9.2,12.3c2,2.8,3.6,5.7,5.4,8.6c0.9,1.4,1.9,2.7,2.4,4.2c2.7,8,5.7,15.9,7.5,24.1
	c1.4,6.2,1.3,12.8,1.4,19.2c0,1.8-1.3,3.6-1.8,5.5c-1.9,6.7,0,14.8-7.6,19.2c-0.2,6.2-5,9.6-8.5,13.7c-4,4.7-7.7,10.6-13,13.2
	c-12.7,6.2-26,11.7-39.5,15.6c-11.7,3.4-24.2,4.7-36.5,2.3c-5.1-1-10.3-2-14.9-4.1c-6.6-3-13.1-6.5-18.8-11
	c-7-5.4-17.4-7.7-18.7-18.8c0-0.4-0.8-0.7-1-1.1c-0.9-1.8-1.6-3.7-2.5-5.6c-1.2-2.5-2.4-4.9-3.5-7.4c-0.9-2-1.6-4.2-2.4-6.3
	c-0.9-2.4-1.9-4.7-2.8-7.1c-3.8,1.8-6.4,2.5-8.8,3.7c-5.5,2.6-10.6,6.1-16.3,8.1c-7.9,2.8-16.3,4.3-24.4,6.8
	C46.5,278.4,41.6,280.9,36.1,283.3z M525,872.8c0-0.3-0.1-0.7-0.1-1c-0.8,0-1.7-0.2-2.5,0c-13.6,3-27.2,6.3-40.9,9.1
	c-8.1,1.7-16.4,2.3-24.5,4c-8.8,1.8-17.6,4.2-26.2,6.7c-9.7,2.8-19.4,6.1-29,9.2c-0.5,0.1-1-0.1-1.5,0c-3,0.9-6.2,1.7-9.1,3
	c-4,1.7-7.9,3.8-11.7,5.8c-3.3,1.8-6.6,3.5-9.5,5.8c-6.3,5-11.5,10.8-16.8,17c-11.2,13-16.9,28.3-22.2,43.9
	c-1.8,5.2-3.4,10.5-4.7,15.9c-1.6,6.8-3,13.6-4.3,20.5c-1.2,6.4-2.2,12.8-3.1,19.3c-0.5,3.7-0.7,7.5-1,11.3c-0.1,1.5-0.1,3-0.4,4.4
	c-1.8,8.4-5.5,16.4-4.6,25.3c0.1,1.3-0.2,2.6-0.5,3.9c-2.1,9.4-4.5,18.8-3.6,28.6c0.4,4-1,8.1-0.9,12.2c0.1,7,1.3,13.9,0.9,20.9
	c-0.7,12.6-1.8,25.2-6.7,37.1c-0.8,2-0.7,4.4-0.9,6.7c-0.3,2.5-0.4,5-0.7,7.4c-0.3,2.2-1.4,4.4-1.4,6.6c0.1,5.4,0.8,10.9,0.8,16.3
	c0,2.9-1.1,5.9-1,8.8c0.1,8.3,0.8,16.5,0.9,24.8c0.1,7.1-0.6,14.3-0.6,21.4c0,5.8,0.6,11.6,0.9,17.4c0.1,1.3-0.4,3,0.2,3.9
	c3.7,4.9,2.6,9.7,1,15.2c-1.3,4.5-0.4,9.6-0.2,14.5c0.1,1.6,0.8,3.3,1.3,4.9c1.7-0.6,3.8-0.7,5.1-1.8c2.9-2.3,5.4-5.2,8.1-7.7
	c5.7-5.2,11.7-10.1,17.1-15.6c4.6-4.6,8.5-9.8,12.9-14.6c4.4-4.7,9.2-9,13.6-13.7c2.1-2.2,3.3-5.5,5.6-7.3
	c6.3-4.9,13.1-9.2,19.7-13.8c2-1.4,4.1-2.6,6-4.2c6.2-5,12.1-10.4,18.4-15.2c10-7.7,19.9-15.8,30.7-22.4c7-4.3,13.9-8.5,19.4-14.6
	c0.7-0.8,1.9-1.4,3-1.6c9.8-1.9,16.5-9.2,24.6-14c2.6-1.6,5.4-2.9,7.8-4.9c6-5,11.5-10.6,17.6-15.5c9.4-7.5,19.1-14.6,28.8-21.7
	c4.6-3.4,9.3-6.5,13.9-9.8c3-2.2,5.7-4.7,8.7-6.7c10.3-6.9,20.4-13.9,28.9-23.2c3.5-3.8,7.7-6.9,11.7-10.3c4-3.3,8.4-6.2,12.1-9.8
	c3.9-3.8,6.8-8.7,10.8-12.3c4.8-4.3,10.3-8.1,15.7-11.7c7.9-5.1,14-12.9,23.2-16.1c3.4-1.2,2.9-3.8,1.9-6.1
	c-2.2-4.9-4.8-9.5-7.1-14.3c-6.5-13-16.4-24.2-19.5-39c-2.2-10.8-7.8-20.3-12.7-30.1c-6.1-11.9-10.8-24.5-16.1-36.8
	c-2-4.7-3.4-9.8-6-14.1c-3.2-5.2-8.1-9.3-11-14.6c-3.6-6.5-8.9-7.5-15.2-7.2c-5.4,0.3-10.3-0.8-15.3-2.9c-3.1-1.3-7.3-0.4-11-0.3
	c-1.2,0-2.5,1-3.7,1.1C541.6,871.4,533.3,872.1,525,872.8z M511.2,733.2c-0.1-7.5-0.2-13.1-0.3-18.6c-0.1-5-0.2-9.9-0.5-14.9
	c-0.4-5.7-0.9-11.5-1.4-17.2c-0.1-0.8,0.1-1.8-0.3-2.4c-3.8-5.7-5.7-11.7-5.8-18.7c-0.1-5.6-1.2-11.4-2.6-16.8
	c-2-7.5-4.1-15.1-7.1-22.2c-3.4-8-8.2-15.4-11.9-23.3c-3.4-7.3-6.1-14.9-9.1-22.4c-1.1-2.8-2.7-6.5-6-3.6
	c-7.2,6-13.8,12.8-20.4,19.1c1.2,1.9,1.8,3,2.5,4.1c-1.7,1-3.1,1.7-4.5,2.6c-3.9,2.5-7.7,4.9-11.5,7.5c-1.5,1.1-2.8,2.6-4.4,3.6
	c-3.5,2.3-8.9,3.5-10.3,6.6c-3,6.5-9.6,9.9-11.7,17.2c-2.4,8.3-7,16-10.8,23.9c-2.6,5.4-4.5,11.7-8.6,15.7
	c-3.9,3.8-5.4,7.8-6.8,12.4c-1.5,5-3.6,9.8-4.4,14.9c-1.2,7.7,1.4,15.7-2,23.3c-0.6,1.3,0.8,3.4,0.8,5.2c0.1,4.2,0.7,8.5-0.2,12.5
	c-0.7,3-0.1,4.2,2.3,5.3c1.3,0.6,2.4,1.7,3.7,2.3c2.4,1,4.9,2.5,7.5,2.6c4.8,0.2,9.6-0.3,14.3-0.9c7-0.8,13.8-2.2,20.8-2.7
	c7-0.5,14,0.1,21-0.4c10.3-0.7,20.3-4.5,30.9-3c0.9,0.1,1.9-0.4,2.8-0.6c4.9-1.1,9.8-2.2,14.7-3.3
	C499.2,739,507.1,738.3,511.2,733.2z M166.5,169.6c0-0.3-0.1-0.5-0.1-0.8c-1.3,0-2.7,0-4,0c-0.5,0-1,0.2-1.4,0.4
	c-8.7,3.8-17.9,6.7-22.5,16.3c-2.3,4.7-5.3,9.3-8.6,13.3c-3.4,4.1-6.1,8.1-5.3,13.7c0.2,1.1-0.8,2.4-1.3,3.6c-1.4,2.9-4,5.8-3.9,8.6
	c0.2,4.9,0.1,9.8,0,14.7c0,12.3,3.3,24.2,9.1,35.2c1.2,2.3,3,4.4,4.5,6.6c1,1.5,2.4,2.8,2.9,4.5c2.5,8.3,13.7,12.1,19.3,11.4
	c6-0.7,11.5-0.4,17,3c3.4,2.1,7.4,3.6,12,1.3c3.4-1.7,7.5-1.9,11.4-2.6c3.4-0.6,7-0.4,10.2-1.5c5.7-1.8,11.1-4.9,16.9-6.2
	c7.6-1.7,14.3-3.9,17.5-11.8c0.4-1,1.7-1.6,2.4-2.5c1.5-2,3-4,4.1-6.2c1.3-2.4,2.3-4.9,3.3-7.5c1.8-4.5,4.7-9,4.8-13.6
	c0.3-7.1,2.2-14.6-1.6-21.5c-0.3-0.5,0.1-1.6,0.4-2.3c2.6-4.8,0.4-9.2-1.7-13.3c-2.1-4-4.9-7.7-7.9-11.2c-3.5-4.1-7.4-7.9-11.4-11.5
	c-2.1-1.9-5.4-2.8-6.9-5c-4.7-6.6-10.6-11.6-18-14.6c-4.6-1.8-9.6-4.1-14.3-3.9C184.4,166.5,175.5,168.4,166.5,169.6z M522.6,851
	c-1.2-3.1-2.3-5.1-2.7-7.1c-1.1-6.1-2-12.2-2.9-18.3c-0.7-5.1-1.4-10.3-1.7-15.5c-0.3-5.2,0.2-10.5-0.2-15.7
	c-0.8-9.3-2-18.6-3.4-27.8c-0.2-1.4-2.4-3.5-3.8-3.6c-3.6-0.3-7.3,0.2-10.8,0.8c-13.7,2.3-27.3,5.4-41.4,5.1
	c-4.3-0.1-8.7,0.6-13,0.9c-3.6,0.3-7.2,0.7-10.8,1c-7.6,0.6-15.2,1.5-22.8,1.8c-7,0.3-14.1,0.1-21.7,0.1c-0.8,0.4-2.4,1.9-4,2
	c-3.1,0.1-6.2-0.4-9.2-0.9c-2.5-0.5-5.2-2.5-6.3,1.7c-0.7,2.5-2.6,5.9-1.7,7.3c3.3,4.8,1.6,9.8,1.7,14.7c0.1,1.6,0.5,3.2,0.7,4.9
	c0.5,5.4,0.9,10.8,1.3,16.2c0.2,2.7-0.2,5.4,0.1,8.1c0.5,4.7,1.8,9.4,1.8,14.1c0,5.5-1.3,11.1-1.8,16.6c-0.8,8-0.7,16.2-2.3,24.1
	c-1.1,5.5,1.3,9,3.2,13c4.3-2.3,8.4-4.5,12.6-6.6c2.3-1.1,4.9-1.7,7.2-3c1-0.6,1.6-2.1,2.3-3.2c-4.7-2.8-1.6-7.3-2.4-10.9
	c-0.8-3.3-2.4-7.6-1.1-10c3.3-5.8,1.1-11.8,2.5-17.5c0.9-3.6,0.1-7.7,1.3-11.2c1.7-5.2,3.5-11.2,7.1-14.9
	c7.1-7.2,16.2-11.5,26.3-13.6c6.3-1.3,11.1-0.1,14.8,5.3c4.9,7.2,7,15.3,7.6,23.9c0.5,7,1.2,14.1,2,21c0.5,3.7,5.5,5.6,4.4,10.1
	c2.4,0.4,4.9,1.4,7.1,1c3-0.5,3.1-2.9,2.3-5.7c-0.5-1.9,0.4-4.2,0.6-6.3c0.1-0.9,0.4-2,0.1-2.8c-2.6-7.1-1.5-14.1,0.3-21.1
	c1.3-5.2,2.7-10.5,3-15.9c0.6-11.2,2.5-13.6,13.4-14.3c1.9-0.1,3.9-0.9,5.8-0.9c1.3,0,3,0.6,3.8,1.6c5.1,6.9,10,14,14.8,20.8
	c-0.5,2.2-1.7,4.5-1.4,6.6c1,7.3,3,14.6,3.7,21.9c0.5,4.5,2.3,6.5,6.7,5C518.1,852.9,520.6,851.8,522.6,851z M398.3,860.6
	c0.2,0,0.4,0.1,0.7,0.1c0,3.5-0.2,7,0,10.5c0.3,6.2,5.5,10.7,11.1,9.4c2.1-0.5,3.8-3.3,5.9-3.7c9.5-1.8,17.3-6.9,25.3-11.7
	c4.4-2.6,4-5.7,3.1-9.6c-2.2-8.8-3.9-17.7-6.6-26.4c-1.1-3.7-3.4-8.9-6.2-9.7c-5.9-1.7-12.6-1.6-18.8-0.8c-7.8,1-9,8.7-10.4,14.4
	C400,842,399.5,851.4,398.3,860.6z M459.9,549.9c0-0.7,0.2-1.4,0-2c-3.6-9.9-7-19.8-11.2-29.5c-2.2-5.2-7.7-6-12.4-2.6
	c-0.5,0.4-1.1,0.6-1.7,0.9c-4.1,1.5-8.3,2.9-12.4,4.4c-2.6,1-3.7,2.2-2.5,5.6c2,5.4,2.7,11.2,4.3,16.8c1.5,5.4,3.2,10.9,5.4,16.1
	c2.1,4.9,5.1,9.3,7.5,14.1c1.8,3.7,4,4,6.7,1c2.4-2.8,4.7-5.8,7.7-7.8C457.5,562.7,459.8,557,459.9,549.9z M497.9,844.3
	c0-3.3,0.1-6.6,0-10c-0.5-9.5-5.6-16-13.6-20.2c-1.3-0.7-4.6,0.4-5.5,1.6c-1.8,2.5-3.4,5.7-3.7,8.8c-1,10.6-1.5,21.3-2.2,31.9
	c-0.2,3.8,1.6,5.5,5.4,5.3c4.6-0.3,9.2-0.4,13.7-1.2c3.8-0.6,6.7-2.5,6-7.3C497.6,850.3,497.9,847.3,497.9,844.3z"/>
<path fill-rule="evenodd" clip-rule="evenodd" fill="#FFFFFF" d="M1034.9,1150.7c-5,1.8-9.9,3.6-14.9,5.3c-0.9,0.3-1.9,0.6-2.8,0.6
	c-9.9,0.4-19.9,1.1-29.8,0.8c-6.7-0.2-13.5-1.7-20.1-3.2c-7.7-1.7-17.1-15.2-16.9-23.4c0.1-3.6-0.1-7.4,0.7-10.8
	c0.6-2.5,2.1-5.6,4.2-6.7c1.7-0.9,4.8,0.6,7.3,1.3c0.6,0.2,1.3,1.4,1.3,2.2c0,3.6-0.3,7.3-0.5,10.9c-0.3,4.9,2.6,8.5,6.2,10.6
	c8,4.8,16.8,8.2,26.3,8.2c13.1-0.1,26.3,0,39.1-3.9C1034.9,1145.4,1034.9,1148.1,1034.9,1150.7z"/>
<path fill-rule="evenodd" clip-rule="evenodd" fill="#FFFFFF" d="M1034.9,1313.7c-3.6,0.3-7.2,0.6-10.7,1c-0.9,0.1-2.3,0.4-2.6,1
	c-3.4,8.1-11.2,5.5-16.4,5.2c-8.5-0.7-17.2-3.5-25.1-6.9c-4.7-2-9.9-5.2-11.4-11.4c-0.4-1.7-1.3-3.4-2.4-4.8
	c-2.1-2.7-2.3-5.1,0.4-7.3c2.6-2.1,5.2-2.7,7.8,0.2c2,2.2,4.1,4.2,6.1,6.3c8.4,9.2,19.7,10,31.1,10.8c8.3,0.6,15.7-2.4,23.2-5.1
	C1034.9,1306.4,1034.9,1310.1,1034.9,1313.7z"/>
<path fill-rule="evenodd" clip-rule="evenodd" fill="#FFFFFF" d="M1034.9,1214.7c-8.7-6.2-17.4-12.2-25.9-18.5
	c-4-2.9-1.9-6.6-0.2-9.7c2-3.4,4.7-1,6.7,0.2c6.6,3.9,12.9,8,19.4,12C1034.9,1204.1,1034.9,1209.4,1034.9,1214.7z"/>
<path fill-rule="evenodd" clip-rule="evenodd" fill="#FFFFFF" d="M1034.9,1106.7c-6.1-1.7-12.2-3.1-15.8-9.2
	c-2.2-3.8-5.2-7.2-7.7-10.8c-0.9-1.3-1.7-2.7-2.5-4.2c-1.8-3.3-1.5-5.9,2.1-7.8c3.8-2.1,5.6,0.4,7.4,3c3.3,4.7,6.4,9.5,10.1,13.9
	c1.6,1.9,4.3,2.8,6.4,4.1C1034.9,1099.4,1034.9,1103.1,1034.9,1106.7z"/>
<path fill-rule="evenodd" clip-rule="evenodd" fill="#FFFFFF" d="M1034.9,1021.7c-8.6-7.2-13.2-16.2-11.8-27.6
	c7.2-2.1,8.9,3.6,11.8,7.6C1034.9,1008.4,1034.9,1015.1,1034.9,1021.7z"/>
<path fill-rule="evenodd" clip-rule="evenodd" fill="#FFFFFF" d="M724.7,1225.6c-4.6-2.4-7.4,0.5-10.6,4.1c-3.7,4.2-8.1,8.3-13,10.9
	c-4.7,2.4-10.5,3.2-15.9,4c-5.2,0.8-11.1,2.4-15.7,0.7c-7.6-2.7-15.8-1.3-23.2-6.1c-5-3.3-9.7-6.4-12.5-11.4
	c-2.1-3.7-3.4-8.1-3.6-12.3c-0.1-2.1,3-4.5,5.1-6.2c0.5-0.4,3.5,1.5,4.4,2.9c2.1,3.2,3.2,7.2,5.6,10c2.4,2.7,5.7,4.9,9.1,6.4
	c4,1.8,8.3,3,12.7,3.6c7.1,1.1,14.3,2.4,21.4,2c8.3-0.5,14.7-6,20.5-11.6c3.5-3.4,6.4-7.6,10.3-10.3c2.1-1.5,6.4-1.9,8.6-0.7
	c3.2,1.8,1.2,5.4,0.1,8.2C727.1,1221.6,726,1223.2,724.7,1225.6z"/>
<path fill-rule="evenodd" clip-rule="evenodd" fill="#FFFFFF" d="M815.4,1252.5c-7.8-0.9-15.3-2-22.7-2.7c-10.4-1-20-3.9-27.5-11.4
	c-3.8-3.8-5.8-8.8-5.1-14.3c0.3-1.9,2.2-5,3.3-5c2.1,0,4.4,1.7,6.2,3.2c1.9,1.6,3.6,3.7,4.8,5.8c2.8,4.8,7.2,6.2,12.2,7.1
	c5.6,0.9,11.1,2.5,16.6,3.6c10.2,2,19.4-0.2,28.2-5.7c3.9-2.4,9-2.9,13.2-4.8c3.8-1.8,7-5,10.9-6.5c2.4-0.9,7.1-0.6,8.2,0.9
	c1.8,2.5-1,5.1-3.7,6.6c-3.1,1.7-6,3.7-9.1,5.3c-5.4,2.8-10.9,5.6-16.5,8.1c-4.4,1.9-8.8,3.9-13.4,4.8
	C816.6,1248.6,816.5,1248,815.4,1252.5z"/>
<path fill-rule="evenodd" clip-rule="evenodd" fill="#FFFFFF" d="M949.8,1263.7c-11.2,0.7-22-1.3-32.3-5.2c-3.6-1.4-6.8-3.2-6.6-8
	c0.1-1.7-1.1-3.4-1.6-5.1c-0.9-3.4,2.2-8.6,5.6-8.3c1.8,0.1,4.6,2.4,4.9,4c1.3,7.2,6.4,11.2,13.8,10c1.9-0.3,3.9,0.4,5.8,0.4
	c4.5,0.1,8.9,0.1,13.4-0.1c4.6-0.1,9.3-0.2,13.9-0.7c5.6-0.6,10.3-3.3,14.9-6.7c4.9-3.7,10.2-7.1,15.8-9.7c3.2-1.4,6.6-2,8.9-5.1
	c1.6-2.1,4.4-3.5,6.1-1c0.9,1.4,0.3,5.5-1.1,6.5c-6.6,5-13.7,9.4-20.5,14.1c-2.7,1.9-5.5,3.8-8,6
	C973.1,1263.1,961.1,1262.1,949.8,1263.7z"/>
<path fill-rule="evenodd" clip-rule="evenodd" fill="#FFFFFF" d="M750.5,1189.6c-11.8-1.8-24.4-2.3-34.3-12
	c-6.5-6.5-8.8-22-2.8-28.5c1-1.1,3.9-1.5,5.3-0.8c2.1,1,4,2.9,5.1,5c1,1.9,0.7,4.5,1.1,6.7c0.4,2.2,0.3,5.7,1.5,6.3
	c5.4,2.6,8.8,8.5,15.6,8.6c3.5,0,7,1.4,10.5,1.9c8.5,1.1,16.2-1.8,23.8-4.7c3.6-1.4,7.2-3.1,11-3.8c2-0.4,5.4,0.5,6.2,1.9
	c1.7,2.8-1.2,4.1-3.5,5.1c-8.5,3.5-16.9,7.3-25.5,10.6C760.2,1187.4,755.5,1188.3,750.5,1189.6z"/>
<path fill-rule="evenodd" clip-rule="evenodd" fill="#FFFFFF" d="M704.7,1300.4c-8.1,2.8-14.6-3-21.8-5.5
	c-5.4-1.8-8.5-10.3-7.1-15.9c0.2-0.8-0.1-1.8,0.2-2.5c1.2-2.6,0.9-7.3,5-6.4c2,0.4,4.4,4.2,4.6,6.5c0.4,5.4,4.3,6.9,8,7.7
	c6.7,1.3,13.6,1.8,20.5,2.2c2.7,0.1,5.4-1,8.1-1.5c8.4-1.8,15.8-5.9,23.5-9.5c3.9-1.8,8.1-3.3,12.4-4.2c1.6-0.4,3.7,1.1,5.6,1.7
	c-0.5,1.2-0.7,3-1.6,3.5c-4.8,3-10.5,4.8-14.5,8.6c-6.7,6.3-15.5,7.3-23,11.4C718.4,1299.9,712.1,1301.8,704.7,1300.4z"/>
<path fill-rule="evenodd" clip-rule="evenodd" fill="#FFFFFF" d="M809.6,1292.4c2-2,3.1-4.1,4.8-4.5c2-0.5,4.8-0.2,6.5,0.9
	c4.1,2.6,7.9,5.7,11.5,8.9c6.5,5.7,14.4,5.2,22.1,5.2c12.5,0,23.5-5.1,34.8-9.6c2.2-0.9,6.9,0.3,8.2,2.2c2.1,3-1.4,4.6-3.9,6
	c-4.1,2.3-7.9,5.4-12.2,6.9c-5.3,1.8-11.2,2-16.7,3.5c-2.9,0.8-5.3,3.2-8.2,3.9c-10.7,2.8-20.8,1.6-30-5c-3.3-2.4-7.1-4.4-9.9-7.3
	C813.9,1300.5,812.2,1296.6,809.6,1292.4z"/>
<path fill-rule="evenodd" clip-rule="evenodd" fill="#FFFFFF" d="M527.8,1259.6c0.8,2.6-0.3,3.9-3.1,5.2c-5.7,2.5-11.3,5.5-16.8,8.5
	c-3.6,2-6.9,4.3-10.3,6.5c-3.1,2-6.8,2.7-8.9,6.9c-0.9,1.9-7,2.4-10.3,1.7c-10-2.1-19.9-4.5-29.5-8c-4.7-1.7-8.7-5.6-12.5-9.1
	c-1.8-1.7-2.7-4.7,0.2-6.9c2.8-2.1,5.3-2.5,8.3,0c2.6,2.1,5.6,4.1,8.7,4.9c8.2,2.1,16.5,3.6,24.8,5.3c7.2,1.5,12.6-2.1,18-6
	c2.2-1.6,4.1-3.8,6.5-5.3c1.8-1.2,4-2,6.1-2.6c2-0.6,4.4-0.3,6.2-1.3C519.3,1257.2,523.2,1256.2,527.8,1259.6z"/>
<path fill-rule="evenodd" clip-rule="evenodd" fill="#FFFFFF" d="M861.1,1139.2c-9.9-2.4-19.5-3.6-26.3-11.6c-0.9-1-2.3-1.8-3.7-2.2
	c-7.8-2.2-10.4-9-12.7-15.3c-0.9-2.4,1.5-7.6,3.8-9c3-1.7,5.7,0.6,8,4.4c2.8,4.5,5.8,10.2,12.4,11.3c1.7,0.3,3.4,1.2,4.9,2.2
	c9.3,6.2,19.4,7.5,30.4,5.9c5.4-0.8,10.7-0.6,15-4.7c1.3-1.2,8.4,1.7,8.7,3.4c0.1,0.9-0.6,2.5-1.4,2.9c-9.5,5.6-20.2,7.6-30.7,10.1
	C866.7,1137.5,863.8,1138.4,861.1,1139.2z"/>
<path fill-rule="evenodd" clip-rule="evenodd" fill="#FFFFFF" d="M950,1180.3c-0.2,6.1-4,8.6-7.6,10.5c-7.6,4-15.5,7.3-23.2,11.1
	c-1.5,0.7-2.8,2.1-4.3,2.9c-1.4,0.8-3,2-4.5,1.9c-6.4-0.4-12.7-1.9-19.1-1.7c-9.7,0.3-18-2.9-24.4-9.4c-3.8-3.9-5.8-9.9-7.8-15.2
	c-1-2.7-0.4-6.8,3.2-7c2.1-0.1,4.8,2.5,6.6,4.4c2.8,3,4.3,7.9,7.6,9.5c7.8,3.8,16.4,5.7,25.2,6.7c13.5,1.6,24.5-3.8,35.7-9.9
	C940.9,1182,945.3,1181.6,950,1180.3z"/>
<path fill-rule="evenodd" clip-rule="evenodd" fill="#FFFFFF" d="M728.1,1125.4c-16.5-0.9-27.3-4.7-35.9-13.1
	c-5-4.9-8.2-11-7.4-18.5c0.1-1.2-1.1-2.5-1-3.7c0.1-2.2,0.1-4.9,1.3-6.3c1.9-2.2,4.7-1.6,6.3,0.9c2.9,4.6,6,9.2,8,14.3
	c2.6,6.5,8.5,8.7,13.8,11.1c5.4,2.4,11.8,2.5,17.8,3.2c8.9,1.2,16.4-3,24.6-2.5c2.8,0.2,5.5,1.9,8.2,2.9c-2.2,1.6-4.2,4-6.6,4.7
	C746.2,1121.8,735.6,1127.1,728.1,1125.4z"/>
<path fill-rule="evenodd" clip-rule="evenodd" fill="#FFFFFF" d="M492.2,1319.9c-4.9,2.3-10.3,4-14.6,7.1
	c-9.8,6.9-21.8,6.8-32.3,11.4c-2.6,1.1-5.8,1-8.8,1c-6.9,0-13.9,2.9-20.9-0.3c-1-0.5-2.3-0.4-3.4-0.4c-7.3-0.1-12.9-3.3-17-9.3
	c-0.6-0.9-1.4-1.8-2.4-2.2c-3-1.2-4.7-3.4-3.8-6.5c0.7-2.2,2.3-5.4,3.9-5.6c2.6-0.3,6.4,0.5,7.9,2.4c6.6,7.8,15.3,11.4,24.9,11
	c13.4-0.5,26.8-1.9,40-4.1c6.9-1.1,13.4-4.8,20.2-7.1c1.8-0.6,4-0.1,6-0.1C492,1318.2,492.1,1319,492.2,1319.9z"/>
<path fill-rule="evenodd" clip-rule="evenodd" fill="#FFFFFF" d="M1002.9,982.8c-14.2-0.4-22.2-7.3-28-17.4c-2.6-4.5-5.4-8.9-7-13.7
	c-0.6-1.7,1.6-5.1,3.4-6.5c1.9-1.4,4.4-1,6,2.1c2.4,4.5,6.1,8.3,8.2,12.9c2.1,4.6,5.4,7.6,9.4,9.9c1,0.6,3.1,0.6,4-0.1
	c8.3-5.9,17.8-10.3,23.8-19.3c1.6-2.5,4.9-3,7.6,0c3.5,4,3.4,7.8-0.5,11.7c-4.9,5-9.2,10.7-14.7,15
	C1011.3,980.3,1006,981.5,1002.9,982.8z"/>
<path fill-rule="evenodd" clip-rule="evenodd" fill="#FFFFFF" d="M555.7,1234.3c-8-1.8-15.1-2.8-20.9-8.7
	c-3.4-3.5-8.3-5.6-10.5-10.4c-0.7-1.4-0.7-4.5,0-5c1.4-0.9,4-1.1,5.6-0.4c5.7,2.7,11.3,5.7,16.7,8.8c5.3,3,10.2-0.2,15.3-0.5
	c8.3-0.5,13.6-7.1,20.6-10.4c6.4-2.9,13.2-5,20-6.9c1.4-0.4,3.5,2,5.3,3.2c-1.6,0.9-3.3,1.7-4.9,2.6c-1.4,0.8-2.8,1.6-4,2.6
	c-1.7,1.4-3,3.2-4.8,4.4c-2.3,1.5-5.1,2.2-7.3,3.7c-6.3,4.4-12.2,9.5-18.8,13.3C564.4,1232.9,559.5,1233.2,555.7,1234.3z"/>
<path fill-rule="evenodd" clip-rule="evenodd" fill="#FFFFFF" d="M881.9,944.1c0-9,4.1-13.5,9.3-12.2c1.5,0.4,3.1,2.7,3.4,4.3
	c0.8,3.8-0.7,9.4,1.4,11.4c3.8,3.5,9.4,6.1,14.6,6.8c5.8,0.8,12-1,18-1.5c1.8-0.1,3.9-0.2,5.3,0.6c1.9,1.1,4.1,2.8,4.7,4.7
	c0.4,1.4-1.4,4.1-2.9,5.1c-11.4,6.8-24.3,9.2-35.6,2.4C891.7,960.6,883.2,953.2,881.9,944.1z"/>
<path fill-rule="evenodd" clip-rule="evenodd" fill="#FFFFFF" d="M849.8,998.4c-1.4,0.4-2.8,0.8-4.1,1.4c-8.8,4.1-18.7,2.4-25.5-4.3
	c-0.3-0.3-0.8-0.5-1.2-0.8c-3.5-2.3-7.2-4.1-7.5-9.5c-0.1-2.5-3.4-4.7-4.6-7.3c-0.9-1.9-1-4.4-0.7-6.5c0.4-3,3.1-3.1,5.4-2.6
	c1.2,0.3,3.1,1.5,3.1,2.2c-0.4,4.1,3,5.6,5,8c1.6,2,3.3,4,4.5,6.2c2.9,5.5,15.4,7.8,21.1,2.7c3.7-3.3,6.9-7.2,10.7-10.4
	c1.7-1.4,4.3-2.7,6.3-2.5c2.3,0.3,3.9,2.6,1.9,5.3c-0.1,0.2,0,0.7,0.2,0.9c2.6,3.3,2.1,6.1-0.5,9.3c-2.3,2.8-4.6,4.7-8.2,5.3
	c-1.8,0.3-3.4,2.3-5.1,3.5C850.2,999.1,850,998.8,849.8,998.4z"/>
<path fill-rule="evenodd" clip-rule="evenodd" fill="#FFFFFF" d="M884.6,1045.8c-4.1,1.3-8.2,2.6-12.4,3.7c-0.9,0.2-2.2-0.5-3.2-0.9
	c-7.9-3-15.2-6.8-22.1-11.9c-4.9-3.6-6.7-8.2-8.6-13c-0.6-1.4,1.7-3.9,2.7-6c2,1.1,4.1,2,5.9,3.3c1.8,1.4,3.1,3.8,5,4.9
	c5.9,3.4,11.7,7,18,9.5c5.7,2.2,11.5,2.7,16.7-2.6c3.1-3.2,7.8-4.9,12-6.9c1-0.5,3.4,0.5,4.3,1.5c0.9,1,1.4,3.6,0.7,4.5
	c-3.2,4.4-6.5,8.8-10.4,12.4c-1.9,1.8-5.3,2-8,3C885,1046.9,884.8,1046.3,884.6,1045.8z"/>
<path fill-rule="evenodd" clip-rule="evenodd" fill="#FFFFFF" d="M582.3,1289.7c-9-0.9-17.2-0.8-22.3-8.4c-2.6-3.9-5.5-7.5-8.3-11.4
	c-1.7-2.4-0.4-5.5,2.4-5.1c3.3,0.5,6.9,1.3,9.4,3.2c8.9,6.9,18.1,9.2,28.7,4c2.5-1.2,5.7-1,8.6-1.5c0.8-0.1,1.9-0.2,2.2-0.7
	c3.4-6,9-2.8,13.6-3.1c1-0.1,2.8,1,2.9,1.8c0.2,1-0.6,2.6-1.5,3.2c-1.6,1.1-3.5,1.6-5.3,2.4c-5.1,2.2-10.2,4.4-15.3,6.7
	c-0.6,0.3-1.2,0.7-1.4,1.3C593.1,1288.9,585.9,1287,582.3,1289.7z"/>
<path fill-rule="evenodd" clip-rule="evenodd" fill="#FFFFFF" d="M861.5,1067.9c1.3,8.4-1.2,11-9.5,11.9
	c-10.1,1.1-20.2,2.8-30.3,4.6c-5.7,1-12.8-1.5-16.1-6.4c-0.4-0.5-0.9-1-1.5-1.2c-8.7-3.1-8.3-11.7-11-18.4c-1-2.4-0.4-5.6,2.8-6.6
	c4-1.2,7,1.8,7.8,4.6c3.8,13.9,15,16.6,26.7,18c5,0.6,10.3-1.2,15.4-2.2c4.5-0.9,9.8,0.6,13-4.3
	C859,1067.5,860.5,1067.9,861.5,1067.9z"/>
<path fill-rule="evenodd" clip-rule="evenodd" fill="#FFFFFF" d="M772.7,1049.7c-2.2,4.8-3,8-8,10.9c-7.9,4.6-16.6,6-24.7,9.3
	c-2.7,1.1-6.4,0.4-9.5-0.3c-9.7-2-17.4-7-22.4-15.7c-1.8-3.2-1-7,1.6-8.7c2.8-1.9,6-0.1,8,2.8c7.9,12.1,15.2,10.1,26.9,7.5
	c4.9-1.1,9.9-2.3,14.8-3.5c2.3-0.6,4.5-1.7,6.8-2.2C767.8,1049.4,769.7,1049.7,772.7,1049.7z"/>
<path fill-rule="evenodd" clip-rule="evenodd" fill="#FFFFFF" d="M948.7,1016.7c-7.8,0-17.1-7-18.7-12.5c-0.6-2.2-1-4.4-1.6-6.6
	c-0.9-3.3-0.5-6.3,2.9-7.9c3.3-1.5,6-0.1,7.6,3c2.5,4.5,4.8,9.2,10.3,10.8c1.4,0.4,3.2,0.4,4.6-0.2c2.5-1.1,4.8-2.6,7.1-4
	c2.2-1.4,4.4-2.9,6.6-4.5c2.9-2,5.6-3.5,8.7-0.3c3.1,3.2,4,9.3,1.1,11.1C967.9,1011.3,957.9,1015.7,948.7,1016.7z"/>
<path fill-rule="evenodd" clip-rule="evenodd" fill="#FFFFFF" d="M555.7,1317.8c0.6-0.8,1.6-3.3,3.4-3.9c2.9-1.1,3.6,1.2,4.1,3.9
	c0.9,4.9,5.6,5.8,9.4,6.7c5.4,1.2,11,2.2,16.5,2c6.6-0.2,13.2-2,19.8-2.8c3-0.4,6.1,0.4,9-0.2c3.8-0.7,7.4-2.6,11.1-3.3
	c2.1-0.4,4.5,0.6,6.8,1c-1.1,1.8-1.8,3.8-3.3,5.2c-1.2,1.2-3.1,1.9-4.8,2.2c-11.6,2.4-23.2,6.4-34.9,6.4c-9.4,0.1-19.5,1.9-28.8-2.3
	C558,1330.1,557,1327,555.7,1317.8z"/>
<path fill-rule="evenodd" clip-rule="evenodd" fill="#FFFFFF" d="M787.6,1034.3c-9-0.3-16.7-3-23.2-9.4c-4.4-4.4-4.7-9.4-3.1-14.6
	c0.5-1.5,3.3-3.5,4.6-3.2c1.8,0.3,4.2,2.3,4.8,4.1c2,5.9,10.4,10.7,16.5,9c6.1-1.7,12.2-3.4,18.5-4.2c3.3-0.4,6.8,1.6,6.1,5.9
	c-0.3,1.7-1.9,3.8-3.5,4.7c-4,2.3-8.3,4.2-12.6,5.9C793.1,1033.3,790.3,1033.6,787.6,1034.3z"/>
<path fill-rule="evenodd" clip-rule="evenodd" fill="#FFFFFF" d="M669.1,1151.2c-4.4,1.2-8.9,2.3-13.3,3.5c-2.9,0.9-6,1.6-8.7,3
	c-7.4,3.8-14.9,5-23.1,2.7c-3.7-1-7.9-0.5-11.9-0.8c-1.4-0.1-2.8-0.6-4-1.2c-2.6-1.1-5.4-2.1-7.6-3.8c-1.6-1.2-2.6-3.4-3.3-5.3
	c-0.1-0.3,2.5-2.5,3.7-2.4c8.4,0.4,16.8,1.5,25.3,1.9c6.8,0.3,13.7,0.1,20.5-0.4c5-0.4,9.9-2.1,14.9-2.4c2.5-0.1,5.1,1.6,7.7,2.4
	C669.2,1149.3,669.2,1150.2,669.1,1151.2z"/>
<path fill-rule="evenodd" clip-rule="evenodd" fill="#FFFFFF" d="M1015.5,1038.4c-2.1,2.4-3.1,4.4-4.6,5.3c-2.9,1.7-6.2,2.8-9.3,4.1
	c-0.4,0.2-1.2,0.2-1.3,0.5c-5.5,11.2-14.6,8.2-23.1,5.2c-5.6-2-10.9-5.4-15.8-8.9c-2.4-1.7-3.8-5-5.2-7.9c-0.4-0.9,0.4-3.3,1.3-3.8
	c1.3-0.7,3.5-0.9,4.8-0.3c3.4,1.5,6.3,3.9,9.7,5.5c3.2,1.5,6.6,2.4,9.9,3.7c4.9,1.9,9,0.3,13.5-1.9c4.8-2.4,10.3-3.6,15.6-4.9
	C1011.8,1034.7,1013.4,1036.8,1015.5,1038.4z"/>
<path fill-rule="evenodd" clip-rule="evenodd" fill="#FFFFFF" d="M909.4,1066.8c1.1,1.2,3.5,2.8,4.4,5c3.5,8.1,9.4,13.6,17.5,16.3
	c2.2,0.7,5.4-1.3,8.1-2.2c3.1-1,6.1-2.2,9.3-3c1.9-0.4,4.2-0.7,5.9-0.1c2,0.8,3.6,2.6,5.4,4c-1.6,1-3.2,2.3-5,2.8
	c-8.8,2.5-17.6,4.9-26.5,7c-6.4,1.5-12.6-0.4-16.8-5.1c-3.9-4.3-6.5-9.7-9.2-14.9C900.4,1072.4,904,1066.6,909.4,1066.8z"/>
<path fill-rule="evenodd" clip-rule="evenodd" fill="#FFFFFF" d="M928.2,1624c-12.6-0.8-25.2-1.7-37.8-2.2
	c-8.7-0.4-17.4,0.2-26.1-0.3c-13.8-0.9-27.6-2.6-41.4-3.6c-4.9-0.3-10.2-0.5-14.7,1.2c-4.4,1.7-7.9-0.2-11.7-0.7
	c-5-0.6-9.8-2.2-14.6-3.8c-1.7-0.6-4.1-1.8-4.6-3.3c-3.1-9.2-7.7-17.9-6.7-28.2c0.5-5.2-1.6-10.7-1.7-16.1
	c-0.1-7.2,0.7-14.5,1.1-21.8c0.2-2.6,0.5-5.2,0.8-7.8c0.3-3.9,0.8-7.8,0.9-11.8c0.1-2.4-0.3-4.9-0.7-7.3c-0.3-2.6-1.2-5.1-1.2-7.7
	c-0.1-10.4-0.1-20.8-0.1-31.1c0-6.7-0.3-13.4,0.1-20.1c0.2-4,1.3-8,2.6-11.8c1.3-3.8,7.4-5.9,12-6c8.4-0.1,16.8-0.9,25.3-1.4
	c2.8-0.2,5.6-0.4,8.4-0.4c6.6-0.1,13.1-0.4,19.7,0c8.6,0.5,17.3-2,26,1.5c3.2,1.3,7.3,0.1,11,0.3c5.9,0.3,11.9,0.2,17.6,1.4
	c8.2,1.7,16.1,4.6,24.2,6.8c2,0.6,4.5,1.3,6.3,0.6c6.9-2.4,11.7,2.7,17.4,4.3c2,0.6,3.8,1.8,5.6,2.9c1,0.6,2.1,1.2,2.6,2.2
	c3.6,6.8,7.4,13.6,10.5,20.7c0.9,2.1,0.1,5,0,7.5c0,2.8-0.9,6,0,8.4c1.3,3.4,1.4,6,0.3,9.7c-0.9,3.3,1.4,7.4,1.8,11.3
	c1.6,16.4,4.1,32.7,1.9,49.3c-0.7,5.5,1.1,11.3,1.8,17c0.3,2.3,1.3,4.8,0.9,6.9c-2,9.4-1.9,19.6-9.5,26.9c-3.5,3.3-7.5,6.2-12.9,6.1
	c-5.1-0.1-10.2,0-15.3,0C928.2,1623.8,928.2,1623.9,928.2,1624z M826.4,1459.2c0,0.2,0,0.4,0,0.6c-10.3,0-20.5-0.1-30.8,0
	c-5.2,0.1-7.2,3-6,8.1c0.2,0.9,0.4,2,0.3,2.9c-0.6,8.2-1.4,16.4-1.8,24.7c-0.1,2.9,1,5.9,0.8,8.8c-0.8,13-2.3,26-2.8,39
	c-0.3,9.1,1.4,18.3,0.6,27.3c-0.6,6.1-0.1,11.5,1.1,17.3c1.8,8.8,12.6,16.7,21.6,14.8c1.9-0.4,3.9-0.9,5.8-0.8
	c17,0.6,34.1,1.3,51.1,2c4.2,0.2,8.3,0.3,12.5,0.4c5.5,0.2,10.9,0.4,16.4,0.5c4.2,0.1,8.4-0.2,12.6,0.1c7.7,0.5,15.4,1.9,23,1.8
	c3.1,0,8.7-3,8.7-4.8c0.4-11.9,3.7-24-0.4-35.9c-0.7-2,0.1-4.6,0.2-6.9c0.1-2,0.5-3.9,0.5-5.9c0.1-11.2,0-22.4,0.3-33.6
	c0.1-7,5.2-13.7,1-20.9c-0.4-0.7,0.8-2.3,0.6-3.2c-1.2-4.8-1.4-10.5-4.3-13.9c-4.5-5.2-10.8-8.8-16.4-13c-0.8-0.6-1.6-1.4-2.5-1.4
	c-5.2-0.5-10.5-0.9-15.8-1c-2.6-0.1-5.2,0.9-7.8,0.9c-15.8-0.3-30.8-4.5-46-8.4c-1.1-0.3-2.3-0.6-3.4-0.5
	C839.2,1458.2,832.8,1458.7,826.4,1459.2z"/>
<path fill-rule="evenodd" clip-rule="evenodd" fill="#FFFFFF" d="M583.5,1615c-4.6-1.2-11.1-2.7-17.4-4.7c-8.5-2.8-16.6-7-25.9-7.6
	c-2.7-0.2-5.3-1.4-8-1.9c-6.8-1.1-13.6-2-20.3-3.1c-2.2-0.4-4.5-0.9-6.5-1.9c-6.8-3.6-14-2.8-21-1.7c-9.5,1.5-18.7,1.7-27.9-1.3
	c-2.3-0.7-4.9-1.2-7.2-1c-6.1,0.6-12.1-0.6-17.1-3.6c-6.4-3.9-8.8-10.4-9.3-17.9c-0.5-8-1.7-15.9-2.6-23.8c-0.1-0.8-0.2-1.7,0-2.4
	c2.2-7.4,4.6-14.8,6.6-22.2c2.2-8.3,4.4-16.6,5.9-25c1.8-9.8,2.8-19.8,4.2-29.7c0.3-1.7,1.2-3.3,1.9-4.9c0.3-0.7,1.7-1.4,1.6-1.8
	c-1.5-4.4,2.5-6.2,3.9-9.2c2.6-5.6,6.9-6.3,11.9-6.6c5.5-0.3,10.9-0.6,16.4-1c1.1-0.1,2.4-0.3,3.2-1c6.6-5.8,13.9-4.4,21.3-2.4
	c1.9,0.5,4.2,0.9,5.9,0.2c7-3.1,13.8-1.7,20.8-0.4c3,0.6,6.2,0,9.2,0.1c9.3,0,18.6,0,27.9,0.1c1,0,2.1,0.7,2.8,0.4
	c6.6-2.5,11.6,1.6,17.3,3.5c10.2,3.4,14.4,11.9,19.4,19.8c1.8,2.9,2.7,6.6,3,10c0.9,11.1,3.6,21.8,6.7,32.5c0.5,1.6,0.2,3.5,0.2,5.2
	c0,7.9-0.3,15.9-0.1,23.8c0.3,12.2,3.5,24.3,0,36.5c-0.3,1.1-0.7,2.4-0.3,3.4c3.5,9.6-2.9,17.2-5.1,25.7c-0.6,2.2-1.2,4.3-2.1,6.4
	C599.3,1615,592.2,1614.4,583.5,1615z M582.1,1491.8c0.3,0,0.6,0,0.9-0.1c-1.4-7.7-2.8-15.4-4.1-23.1c-1.6-9.2-12.7-12.4-19.4-11.9
	c-2.5,0.2-5,0-7.6,0c-3.7,0-7.4-0.2-11,0.1c-4.7,0.4-9.4,1.7-14.1,1.7c-12.6,0-25.2-0.5-37.9-0.8c-1.2,0-2.3-0.2-3.5-0.2
	c-8.7-0.3-17-0.7-24,6.8c-6.6,7.1-6.4,16.2-9.5,24.3c-0.8,2.2-1.4,4.6-1.9,6.9c-1.4,6.1-2.7,12.2-4.1,18.4c-0.1,0.3,0.1,0.7,0,1
	c-0.5,8.3-0.7,16.5-1.5,24.8c-0.5,5.5-1.7,10.9-2.5,16.3c-0.1,0.8,0.6,1.9,1.2,2.6c2.9,3.3,6.3,6.3,8.8,9.8c3.6,5.2,9,7.7,14.4,8.2
	c8.9,0.7,17.9-0.3,26.8-0.8c2.1-0.1,4.3-1.2,6.3-0.8c11.3,2.4,22.2,6.1,33.9,6.9c6.7,0.5,13.2,3.3,19.8,4.9
	c9.3,2.3,18.6,4.4,27.9,6.7c4,1,8.6-1.4,8.6-5.7c0.1-6.3-1-12.7-1.8-19c-0.8-6.1-1.8-12.3-2.8-18.4c-0.6-3.7-1.3-7.3-1.9-11
	c-0.4-2.4-0.8-4.7-1-7.1c-0.1-1.5,0.2-3.1,0-4.7c-0.3-3.2-1.3-6.5-1.2-9.7c0.1-3.2,1.7-6.3,1.8-9.5
	C583,1502.8,582.4,1497.3,582.1,1491.8z"/>
<path fill-rule="evenodd" clip-rule="evenodd" fill="#FFFFFF" d="M290.2,1450.5c4.4,1.8,7,3.1,4.3,8.5c-2.7,5.4-4,11.6-5.4,17.6
	c-0.6,2.7-0.1,5.7-0.2,8.5c0,5.2,0.1,10.4-0.1,15.6c-0.2,5.3-0.7,10.5-0.9,15.8c-0.4,7.3-0.8,14.6-0.9,22c0,3.4,0.8,6.8,0.9,10.3
	c0.2,4.4,0.8,9,0,13.3c-0.5,2.7-0.5,4.5,1.1,6.6c0.8,1.1,0.5,2.8,0.9,4.2c0.5,1.8,1.3,3.5,1.8,5.3c0.4,1.4,0.5,3,0.7,4.4
	c-2,0.1-4.4,0.9-5.8,0.1c-4.8-2.9-3.5-8-3.7-12.6c-0.1-2.8-0.3-5.6-0.5-8.4c-0.8-8.8-1.7-17.5-2.4-26.3c-0.1-0.8,0.3-1.6,0.4-2.4
	c0.2-7.5,0.4-15,0.7-22.5c0.3-7.1,0.8-14.1,1.2-21.2c0.3-4.8,0.1-9.6,0.8-14.4c1-6.4,2.5-12.7,4-19
	C287.6,1454,289.1,1452.3,290.2,1450.5z"/>
<path fill-rule="evenodd" clip-rule="evenodd" fill="#FFFFFF" d="M322.5,1486.8c-1.2,8.2-3,16.4-3.5,24.7
	c-0.6,9.8-0.1,19.7,0.1,29.6c0.1,4,0.7,7.9,0.7,11.9c0,0.9-2.1,2.8-2.5,2.6c-1.6-0.7-3.9-2-4.1-3.3c-1.1-7.6-3.7-15-1.5-23.1
	c1.3-4.7-0.7-10.2-0.5-15.3c0.1-4.2,1.5-8.3,1.9-12.5c0.5-4.9,0.3-10,1-14.9c0.4-2.8,1.9-5.4,3-8.1c0.2-0.5,1.8-0.9,2.1-0.6
	c1.1,0.9,2.3,2,2.6,3.3c0.4,1.7,0.1,3.6,0.1,5.5C322.1,1486.7,322.3,1486.7,322.5,1486.8z"/>
<path fill-rule="evenodd" clip-rule="evenodd" fill="#FFFFFF" d="M735.4,361.6c0.8-2.4,2.8-5.6,2.1-6.3c-3.1-3.3-6.8-5.9-10.5-8.6
	c-2.2-1.6-4.7-2.7-7-4c2.2-1.7,4.1-3.9,6.5-4.9c8.4-3.3,19.1,1.9,22.4,10.5c2.1,5.3,4.1,10.6,6.2,15.9c0.2,0.5,0.8,0.9,0.7,1.3
	c-2.2,8.8,2.8,17.1,1.9,25.6c-0.6,6-1.9,12.6-5.1,17.4c-3.1,4.6-8.6,8.4-13.8,10.5c-9.6,3.7-19.7,6.8-29.8,8.3
	c-4.9,0.7-11-2-15.4-4.8c-5.4-3.4-9.2-9.4-14.6-12.9c-6.5-4.3-7-11.7-11-17.3c-2.3-3.2-0.3-8.7,4.3-13c4.6,5.2,8.9,10.6,13.8,15.5
	c5.1,5.2,10.2,10.7,16.2,14.6c2.7,1.8,7.9,0.5,11.7-0.3c6.1-1.4,12.4-2.8,17.9-5.6c3.9-2,8.7-5.8,9.5-9.6c1.5-6.4,0.1-13.5-0.1-20.3
	c0-1.1-0.5-2.3-0.3-3.4C741.7,365.5,740.6,362.1,735.4,361.6z"/>
<path fill-rule="evenodd" clip-rule="evenodd" fill="#FFFFFF" d="M772.4,116.1c8.5,9.7,17.3,18.6,24.5,28.7
	c4.1,5.7,6.7,12.7,7.1,20.4c0.9,14.7-4.2,28-8.6,41.5c-0.2,0.6-0.5,1.3-0.9,1.8c-8.9,10.3-18.3,19.8-32.4,22.6
	c-7.6,1.5-15.3,3-23,3.6c-8.7,0.6-16.6-2.7-23.9-7.2c-4.7-2.9-5.2-6.3-1.3-10.8c3.2-3.8,5.7-1.2,8.8,1.2c2.9,2.2,7.1,3.6,10.8,3.8
	c14.9,0.7,29.2-2.4,42.7-8.8c1.9-0.9,3.3-3,4.8-4.7c1.5-1.7,2.4-3.9,4-5.3c2.9-2.4,4.6-4.5,1.5-8c-0.7-0.8-0.5-2.8-0.2-4.1
	c2-7.4,6-14.8,5.8-22.1c-0.1-6.6-4-13.5-7.5-19.6c-1.7-3-6.4-4.2-9.5-6.6c-1.2-0.9-2.1-2.6-2.4-4.1c-1.8-9.2-6.2-13.1-15.4-13.6
	c-1.9-0.1-5.4-1.2-5.4-1.8c0-2.6,0.5-5.6,1.9-7.6c1.8-2.4,4.6-1.6,7,0.2C764.4,117.8,767.8,119.9,772.4,116.1z"/>
<path fill-rule="evenodd" clip-rule="evenodd" fill="#FFFFFF" d="M609.9,373.5c3.2-7.8,6.2-15,9.2-22.3c0.7-1.8,0.9-3.9,1.9-5.4
	c1.1-1.6,3.1-3.8,4.6-3.7c1.5,0.1,4.3,2.9,4.1,4c-1,5.7-2.6,11.2-4.4,16.7c-1.5,4.7-3.7,9.1-5.3,13.8c-1.1,3.1-6.9,7.4-10.3,7.2
	c-6.4-0.3-14.4-8.2-13.6-13.6c0.2-1.5,1.6-3.8,2.8-4c1.6-0.4,3.9,0.5,5.2,1.5C606.3,369.3,608.1,371.6,609.9,373.5z"/>
<path fill-rule="evenodd" clip-rule="evenodd" fill="#FFFFFF" d="M477.5,1107.3c-15.1-0.7-29.3-4.1-41-13.1
	c-7-5.4-14.8-10.4-18.9-19.5c-3.2-7-10.9-12.1-13.8-19.2c-3.3-8.1-3.5-17.5-4.8-26.3c-0.8-5.5-1.8-11-1.9-16.6
	c-0.1-9.5,1.1-18.9,5.9-27.5c1-1.9,2.8-3.4,4.2-5.1c1.6-1.9,3.5-3.7,4.7-5.9c4.3-7.4,10.2-13.3,17.5-17.4
	c9.6-5.3,19.8-9.6,29.8-14.1c5.7-2.6,11.5-5.8,17.5-6.7c6.2-0.9,12.8,0.3,19.2,1.2c5.1,0.7,10.1,2.3,15.1,3.5c5,1.2,10,2.4,15,3.5
	c4.3,0.9,8.6,1.7,12.9,2.5c0.3,0.1,0.8-0.1,1,0c4.6,3,9.8,5.5,13.6,9.3c4.5,4.5,8.2,10,11.4,15.6c3.5,6.2,6.4,12.8,9.1,19.4
	c1.6,4,2.7,8.3,3.5,12.6c0.5,2.8-0.2,5.8-0.3,8.6c-0.1,2.8,0,5.7-0.2,8.6c-0.2,4.1-0.2,8.3-1,12.3c-1.1,5.5-2.8,10.9-4.2,16.3
	c-0.1,0.3-0.3,0.7-0.6,0.8c-5.9,3.3-4.6,10.6-8.2,14.9c-5,6-8.6,13.9-17.5,15.6c-1.1,0.2-2.4,1.2-3.1,2.2c-4.1,5.7-9.9,7.7-16.5,8.9
	c-3,0.5-5.5,3.3-8.3,4.7c-9.5,4.6-19.6,6.7-30,8.2C484,1105.3,480.8,1106.4,477.5,1107.3z M560.9,1010.4c2.7-6.1-3.1-10.5-6.5-15.4
	c-5-7.1-11-13.4-16.8-20c-2.3-2.7-5-5.1-7.5-7.6c-1.9-2-3.6-4.8-6-5.7c-4.9-1.9-8.7-5.7-14.9-5.3c-5.4,0.3-11-2.9-16.5-3.4
	c-7-0.6-14.2-1.1-21,0.2c-5,0.9-9.5,4.7-14.2,7.3c-4.3,2.3-9,4-12.7,7c-7.6,6.1-14.4,13.1-22,19.2c-5.4,4.3-7.3,10.1-7.9,16.3
	c-0.6,6.1-0.1,12.4-0.2,18.6c0,2.2-1.3,4.8-0.6,6.7c2.5,6.7,4,13.3,2.8,20.4c-0.1,0.7,0.9,1.8,1.7,2.5c2.8,2.6,6.3,4.6,8.4,7.6
	c8.2,11.8,19.3,18.2,33.3,20.2c2.1,0.3,5.4,1.6,5.7,3c1,4.7,4.2,4,7.2,3.8c3.6-0.2,7.4,0,10.7-1.1c11.1-3.6,24.5-0.4,33-11.5
	c0.6-0.8,2.1-0.7,3.1-1.2c2.9-1.5,6.3-2.5,8.5-4.8c6.2-6.6,11.7-13.8,17.8-20.5C555.6,1036.7,561.4,1025.5,560.9,1010.4z"/>
<path fill-rule="evenodd" clip-rule="evenodd" fill="#FFFFFF" d="M359.9,1087.9c7.1,2.5,7.1,3.3,4.8,10.7c-1.1,3.7-0.4,7.9-0.8,11.8
	c-0.9,9-1,18.2-3.2,26.9c-2.4,9.6-3.5,19.3-5,29c-0.7,4.9-0.4,9.9-0.9,14.9c-0.3,3.2-1.5,6.2-1.9,9.4c-0.5,5-0.7,10-1,15
	c0,0.8,0.2,1.7,0.6,2.3c2.2,3.3,1.4,5.5-1.5,6.4c0.9,4.7,1.8,8.9,2.5,13.2c0.1,0.6-1,1.8-1.7,2c-3.3,0.9-9.1-3.5-9-6.9
	c0.2-8.6,0.9-17.2,0.9-25.9c0-12.1,4.3-23.8,4.6-35.6c0.3-12.7,4.8-24.5,4.7-37.1c-0.1-8.9,2.7-17.8,3.2-26.7
	C356.7,1093.8,355.1,1090.2,359.9,1087.9z"/>
<path fill-rule="evenodd" clip-rule="evenodd" fill="#FFFFFF" d="M375.3,1212.8c-6.4-1.9-9.4-7.8-8.1-13.8c0.9-3.9,1.1-8.1,1.7-12.1
	c1.6-9.6,3.1-19.2,5.2-28.8c0.4-1.7,2.7-3.4,4.5-4.1c0.9-0.4,3.6,1.2,3.8,2.2c0.3,1.6-0.8,3.5-1.2,5.3c-0.8,2.9-1.8,5.7-2.2,8.6
	c-0.9,7.2-1.5,14.4-2.1,21.6C376.4,1198.6,375.9,1205.4,375.3,1212.8z"/>
<path fill-rule="evenodd" clip-rule="evenodd" fill="#FFFFFF" d="M416.6,651.1c5,2.4,7.6,3.9,5.8,9.7c-1.2,3.7-1.6,7-5.1,9.2
	c-0.7,0.5-1.2,1.6-1.4,2.5c-2.7,12.2-9,23.3-10.1,35.9c-0.2,2.5-1,5.1-2.1,7.4c-0.4,1-2.7,2.1-3.4,1.7c-1.1-0.6-2.2-2.3-2.2-3.6
	c-1-16.4,6-30.9,11.2-45.8C411.3,662.4,414.1,656.9,416.6,651.1z"/>
<path fill-rule="evenodd" clip-rule="evenodd" fill="#FFFFFF" d="M415.5,718.6c5-3.4,3.2-8.4,3.5-13.1c0.2-3.8,1.2-7.6,2.2-11.3
	c0.7-2.5,8.9-6.6,10.8-5.2c1,0.8,1.5,3.4,1.1,4.9c-1.5,5.1-3.7,10-5.3,15.1c-0.9,2.9-0.6,6.3-1.8,9
	C423.5,723.7,420.6,723.9,415.5,718.6z"/>
<path fill-rule="evenodd" clip-rule="evenodd" fill="#FFFFFF" d="M145.1,232.8c-0.6-3-1.1-6.1-1.7-9.1c0-0.1-0.3-0.2-0.3-0.4
	c-0.5-3.4,8.9-11.6,12.1-10.6c3.8,1.2,8,2,11,4.2c1.8,1.3,2.1,5.1,2.7,7.8c0.7,3.3,1.2,6.7,1.5,10.1c0.1,1.2-0.5,3.3-1.3,3.5
	c-5,1.6-10.1,3-15.3,4.2C150.7,243.3,143.6,236.3,145.1,232.8z"/>
<path fill-rule="evenodd" clip-rule="evenodd" fill="#FFFFFF" d="M820.1,1504.6c-0.7,8.7-1.4,16.5-1.8,24.4
	c-0.3,6.3,0,12.6-0.4,18.9c-0.3,4.3-1.2,8.6-2.1,12.8c-0.2,0.8-2.7,2-2.8,1.9c-2.1-2.4-6-6.5-5.5-7.1c4.6-5.9,1.9-11.2,0-16.8
	c-0.3-0.9-0.8-2.2-0.4-2.8c4.4-7-0.1-13.9,0-20.8c0.1-3.8,0-7.7-0.1-11.5c0-1-0.2-2-0.6-2.9c-2.6-7.1-0.2-11.5,7.1-11.6
	c1.8,0,4.7,2.3,5.2,4.1C819.8,1497.1,819.8,1501.3,820.1,1504.6z"/>
<path fill-rule="evenodd" clip-rule="evenodd" fill="#FFFFFF" d="M839,1496.2c1.7,8.8-0.5,17.2-0.8,25.7c-0.3,8.6-1.9,17-4,25.7
	c0.7,2.2,2.2,5.1,2.5,8.1c0.1,1.6-1.9,3.3-2.9,5c-1.6-1.1-4.5-1.9-4.7-3.2c-1.4-7.2-2.4-14.5-3-21.8c-0.3-3.9,0.5-7.8,0.9-11.8
	c0.6-6.9,1.3-13.8,1.9-20.7C829.4,1497.5,833.3,1495,839,1496.2z"/>
<path fill-rule="evenodd" clip-rule="evenodd" fill="#FFFFFF" d="M475.7,1491.4c-0.3,5.2-0.1,10.4-0.9,15.6
	c-0.8,5.7-2.5,11.4-3.7,17.1c-0.5,2.2-1.8,5.2-0.9,6.5c2.7,3.8,0.4,6.9-0.5,10.1c-0.5,1.7-2.9,2.8-4.4,4.1c-1.4-2.2-4-4.4-3.9-6.5
	c0.5-10,1.6-19.9,2.6-29.8c0.6-5.9,1-11.8,2.3-17.5c0.3-1.2,4.3-1.8,6.6-2c1.3-0.1,2.8,1.4,4.1,2.1
	C476.6,1491.2,476.1,1491.3,475.7,1491.4z"/>
<path fill-rule="evenodd" clip-rule="evenodd" fill="#FFFFFF" d="M490.9,1546.9c-4.8-4.4-7.6-7.3-6.2-13.2
	c1.4-5.7,0.8-11.8,1.3-17.7c0.4-6,3.8-8.6,9.8-7.6c0.1,3.2-0.7,5.8-2.2,9c-1.8,3.7-3.2,9.1-0.9,14.1c0.8,1.7-0.3,4.3-0.6,6.5
	c-0.2,1.5-0.6,3-0.9,4.5C491.1,1543.6,491.1,1544.6,490.9,1546.9z"/>
<path fill-rule="evenodd" clip-rule="evenodd" fill="#FFFFFF" d="M515.1,1001.6c-5.4,6.7-10.9,13.4-16.2,19.9
	c-8.2-2-12,2.4-8.6,11.1c2.1,5.4-1.2,7.3-3.5,10.1c-1.4,1.7-3.8,2.6-5.4,4.2c-2.7,2.6-4.8,2.8-8.6,1.1c-5.7-2.6-10.8-5-12.6-11.5
	c-2-7.4,0.3-10.9,7.7-13c2.6-0.7,5.3-2.8,6.7-5c0.6-0.9-1.9-3.8-2.8-5.9c-0.5-1.3-0.9-2.7-0.8-4.1c0.6-8.9,1.2-17.7,2-26.6
	c0.2-1.8,0.8-3.6,1.4-6.4c1.6,11.5,2.9,21.9,4.6,32.2c0.8,4.5,4.1,8.8-0.8,13c-0.5,0.5,0.5,4.1,1.7,5c1.2,0.9,3.6,0.4,5.3-0.1
	c1.1-0.3,2.4-1.6,2.8-2.7c3.6-9.4,12.8-12.6,19.8-18.2c2-1.6,4.1-2.9,6.2-4.3C514.4,1000.9,514.7,1001.2,515.1,1001.6z
	 M476.6,1040.5c0.8,0,1.5-0.1,2.3-0.1c1-1.9,3-3.8,2.8-5.5c-0.2-1.5-3-4.1-4.1-3.9c-1.7,0.4-4.1,2.7-4.3,4.3
	C473.1,1036.9,475.4,1038.8,476.6,1040.5z"/>
</svg>
