<?xml version="1.0" encoding="utf-8"?>
<!-- Generator: Adobe Illustrator 16.0.0, SVG Export Plug-In . SVG Version: 6.00 Build 0)  -->
<!DOCTYPE svg PUBLIC "-//W3C//DTD SVG 1.1//EN" "http://www.w3.org/Graphics/SVG/1.1/DTD/svg11.dtd">
<svg version="1.1" id="Layer_1" xmlns="http://www.w3.org/2000/svg" xmlns:xlink="http://www.w3.org/1999/xlink" x="0px" y="0px"
	 width="229.6px" height="343.3px" viewBox="0 0 229.6 343.3" enable-background="new 0 0 229.6 343.3" xml:space="preserve">
<ellipse opacity="0.2" fill-rule="evenodd" clip-rule="evenodd" cx="54.7" cy="301.5" rx="30.4" ry="11.7"/>
<ellipse opacity="0.2" fill-rule="evenodd" clip-rule="evenodd" cx="40.5" cy="222.9" rx="16.2" ry="6.6"/>
<ellipse opacity="0.2" fill-rule="evenodd" clip-rule="evenodd" cx="106.3" cy="249.7" rx="23.4" ry="6.5"/>
<ellipse opacity="0.2" fill-rule="evenodd" clip-rule="evenodd" cx="152.1" cy="326.5" rx="36.1" ry="16.8"/>
<ellipse opacity="0.2" fill-rule="evenodd" clip-rule="evenodd" cx="209" cy="294.6" rx="11.4" ry="8.4"/>
<ellipse opacity="0.2" fill-rule="evenodd" clip-rule="evenodd" cx="172.8" cy="251.4" rx="21.4" ry="10.2"/>
<path fill-rule="evenodd" clip-rule="evenodd" d="M222.5,261.8c1.1,0.2,2.1,0.4,3.1,0.6c0.5,0.1,1.1,0.3,1.6,0.4
	c2.5,0.5,3.2,4.2,1.4,5.9c-2.7,2.6-5.6,4.7-9.3,5.5c-0.4,0.1-0.8,0.1-1.1,0.3c-2.5,1.1-5.1,1.3-7.8,1.7c-0.4,0.1-0.8,0.2-1.2,0.2
	c-0.8,0.1-1.6,0.3-2.3,0.2c-3-0.7-6.1-0.1-9-1.2c-0.4-0.1-0.8-0.2-1.2-0.1c-1.6,0.2-3.1-0.5-4.5-1.1c-3.2-1.4-4-4.8-1.9-7.6
	c0.5-0.6,1.1-1.1,1.9-1.3c1.5-0.4,3-0.9,4.5-1.3c0.4-0.1,0.7-0.2,1.2-0.4c0.1-0.3,0.2-0.6,0.2-0.9c-0.2-1.6-0.6-3.2-0.8-4.8
	c-0.2-1.5-0.3-3.1-0.4-4.6c-0.1-2-0.1-4.1-0.2-6.1c0-1.9-0.1-3.9-0.1-5.8c0.1-2.5-0.3-5-0.6-7.5c-0.3-3-0.7-6-0.8-9.1
	c0-3-0.4-6.1-0.6-9.1c-0.2-2.8-0.3-5.6-0.5-8.4c-0.1-2.5-0.3-5-0.5-7.5c-0.1-1.1-0.2-2.2-0.3-3.3s-0.2-2.2-0.5-3.2
	c-1.2-3.2-1.1-6.6-1.4-9.9c-0.2-3.5,0.5-7,0.4-10.5c0-1.6,0.1-3.3,0-4.9c-0.1-1.8-0.4-3.6-0.7-5.3c-0.3-2.1-0.6-4.2-0.5-6.3
	c0-0.9-0.3-1.8-0.4-2.8c-0.1-0.8-0.3-1.7-0.3-2.5c0.1-2.4,0-4.8-0.7-7.2c-0.5-1.7-0.4-3.6-0.5-5.3c-0.2-2.6-0.4-5.3-0.7-7.9
	c0-0.2,0-0.5-0.1-0.7c-1.2-2.1-1.4-4.5-1.5-6.8c-0.1-2.4-0.7-4.6-1.5-6.8c-0.2-0.4-0.4-0.9-0.5-1.3c-0.9-4.6-1.9-9.2-2.6-13.8
	c-0.3-2.1-0.6-4.2-1.1-6.2c-0.6-2.5-1.3-5-1.8-7.5c-0.8-3.9-2.7-7.5-3.8-11.5c0.3-0.4,0.6-0.8,1.1-1.5c-0.7-1.3-0.8-2.7-0.5-4.2
	c0.2-0.8-0.2-1.7-0.5-2.5c-0.7-1.8-1.5-3.5-2.2-5.2c-1-2.2-2.7-3.8-4.3-5.5c-0.1-0.1-0.2-0.2-0.4-0.3c-2.5-0.9-4.2-3.2-7-4
	c-0.2,0.2-0.7,0.5-1,0.9c-2.1,2.8-4.5,5.2-7,7.5c-1.7,1.5-3.5,2.8-5.2,4.3c-1,0.9-2.2,1.4-3.4,2c-1.5,0.8-3,1.6-4.6,2.4
	c-0.6,0.3-1.2,0.5-1.8,0.1c-0.2-0.1-0.4-0.4-0.7-0.7c1.6-1.3,3.4-2.1,5.2-2.9c3-1.5,5.9-3.3,8.1-5.8c1.7-1.9,3.1-4,4-6.5
	c0.5-1.3,1.1-2.5,1.7-3.8c-1.7-1.7-4.1-1.3-6-2.3c-0.8,0.3-1.7,0.7-2.6,1c-0.7,0.3-1.4,0.7-2.2,0.8c-1.7,0.2-2.9,1.2-4,2.2
	c-2.8,2.4-5.7,4.7-8.8,6.6c-0.7,0.4-1.4,0.8-2.1,1c-1.2,0.4-2.3,0.5-3.6-0.4c-1.5-1-3.3-1.8-4.9-2.6c-3.2-1.5-4.8-3.9-4.8-7.4
	c0-1.3,0.1-2.6,0.6-3.9c0.8-2.2,1.2-4.5,1.9-6.8c0.5-1.8,1.2-3.5,1.7-5.3c0.5-1.6,1.3-3,2.1-4.4c0.5-0.9,1.4-1.3,2.3-1.6
	c0.4-0.1,0.8-0.1,1.2-0.2c1.1-0.1,1.9-0.4,2.6-1.3c0.5-0.7,1.3-1.2,2-1.6c0.3-0.2,0.8-0.2,1.1-0.1c0.5,0.2,0.6,0.7,0.5,1.2
	c-0.1,0.4-0.6,0.8-0.2,1.4c1.1-0.1,1.6-1,2.4-1.7c0.3-0.3,0.6-0.7,1-1c0.1-0.1,0.5-0.1,0.7,0c0.2,0.2,0.5,0.5,0.4,0.7
	c-0.3,0.9-0.7,1.7-1.1,2.6c0.1,0.7,0.7,1.1,1.3,1.5c0.2-0.1,0.5-0.1,0.6-0.3c0.6-0.5,1.1-1.1,1.8-1.5c0.2-0.1,0.6-0.1,0.8,0
	c0.2,0.1,0.3,0.6,0.3,0.8c-0.1,0.4-0.4,0.9-0.6,1.2c-0.3,0.5-0.4,1,0,1.5c0.6,0.6,1.1,0.8,1.9,0.5c0.3-0.1,0.6-0.3,0.8-0.4
	c0.5-0.2,1-0.6,1.5-0.1c0.4,0.4,0.1,0.9-0.1,1.3c-0.1,0.3-0.2,0.6-0.3,0.9c0.6,1,1.6,1.3,2.4,2.1c1.1-0.9,2.2-1.8,3.3-2.7
	c2-1.9,4.3-3.3,6.5-5c0.2-0.1,0.4-0.3,0.6-0.3c1.6,0,3-0.8,4.6-1c0.5-0.1,1.1,0,1.6,0.2c2.5,0.9,5,1.8,7.5,2.7
	c1.1,0.4,2,1.1,2.8,2.1c0.7,1,1.6,1.9,2.4,2.9c1.2,0.3,2.3-0.3,3.4-0.6c2.4-0.7,4.5-2.1,6.4-3.8c0.7-0.7,1.6-1.3,2.3-1.9
	c0.4-0.3,0.8-0.7,1.3-1c-0.3-1.8-2.2-2.7-2.6-4.7c0.1-0.1,0.4-0.3,0.6-0.6c0.9,0.5,1.6,0.8,2.3,1.2c0.6-0.2,0.5-0.7,0.2-0.9
	c-1.7-1.2-2.9-2.8-4.4-4.1c-1.1-0.9-1.6-2-1.8-3.4c-0.1-0.9,0-1.7,0.6-2.4c1.2-1.2,2.1-2.7,3.7-3.5c0.5-0.2,0.9-0.7,1.3-1
	c0.9-0.7,1.8-1.4,2.9-2.1c-0.3-1.1-1-2-2-2.6c-0.1-0.1-0.3-0.1-0.4-0.2c-0.2-0.3-0.4-0.7-0.4-1c0-0.2,0.4-0.5,0.7-0.5
	c1.1-0.2,2.3-0.5,3.5,0c0.4,0.2,0.9,0.2,1.5,0.3c0,0.5,0.1,1,0.1,1.6c-0.1,0.8-0.3,1.7-0.5,2.6c2.1,0.7,3.8,0.4,5.2-1.2
	c1-1.1,2-2,3.5-2.2c1.7-0.3,3.4-0.3,5,0.7c1.4,0.8,3,1.4,4.6,1.6c0.5,0.1,1.1,0.2,1,1.1c-0.8,0.2-1.5,0.8-2.4,0.5
	c-1.2-0.5-2.1-0.1-3.1,0.4c-0.2,0.1-0.4,0.3-0.6,0.4c-0.3,0.9-0.4,1.9-0.8,2.6c-0.5,0.8-1.3,1.4-2,2c-0.6,0.6-1.3,1.1-2.1,1.6
	c-0.2,1.6,0.1,3.4-0.9,4.9c-0.8,1.4-1.7,2.8-2.5,4.3c0.3,0.6,0.7,1.2,1,1.8c0.3,0.6-0.1,1.3-0.7,1.5c-0.4,0.1-0.8,0.1-1.1,0.2
	c-0.6,0.2-1.2,0.3-1.8,0.5c-3.1,1.2-6,2.6-8.4,5c-2.5,2.4-5.2,4.7-7.8,7.1c-0.3,0.3-0.5,0.6-0.7,1c1.3,2.6,1.8,5.5,2.6,8.3
	c0.4,1.3,0.6,2.6,0.8,3.9c0.3,1.4,0.5,2.9,0.9,4.3c0.1,0.4,0.3,0.7,0.4,1.1c0.3,0.8,0.6,1.6,0.8,2.4c1.2,5.3,0.2,10.2-3.1,14.6
	c-0.2,0.3-0.3,0.7-0.6,1c-0.3,0.3-0.7,0.6-1.2,0.7c-0.9,0.3-1.6-0.4-1.3-1.3c0.2-0.8,0.5-1.6,0.9-2.4c1.3-2.5,1.4-5.3,1.3-8
	c-0.2-2.8-1.5-5.2-4-6.8c-0.5-0.3-0.9-0.7-1.3-1c-0.5-0.3-0.9,0-1.3,0.5c0.2,0.7,0.4,1.5,0.6,2.4c0.3,1.5,0.7,3,1,4.6
	c0.3,1.8,0.5,3.5,0.7,5.3c0.1,1.1,0,2.2-0.3,3.2c-0.2,0.6-0.2,1.2-0.3,1.9c0,0.9,0.3,1.3,1.3,1.6c0.9,0.3,1.8,0.5,2.7,0.6
	c1.7,0.2,2.7,1,3.2,2.6c0.6,1.9,1.2,3.9,1.8,5.8c0.6,2,0.8,4,0.8,6c0,1,0.3,2,0.4,3c0.2,1.7,0.4,3.4,0.6,5.1
	c0.1,0.8,0.2,1.7,0.4,2.6c0.6,0,1.2,0.2,1.7,0.1c1.7-0.2,3.4-0.4,5.1-0.7c1.6-0.3,3.2-0.7,4.9-0.6c0.6,0,1.3-0.1,1.9-0.2
	c1.6-0.4,3.1-0.9,4.8-1.4c0.5-0.7,0.2-1.6,0.2-2.4c-0.2-2.3-0.7-4.6-0.9-7c-0.2-1.8-0.7-3.5-1.1-5.3c-0.3-1.1-0.7-2.2-1-3.4
	c-0.3-0.9,0.1-1.5,1.1-1.4c0.5,0,0.7-0.1,1-0.4c0.5-0.5,1-0.6,1.7-0.3c1.6,0.6,3.3,0.9,5,0.1c0.3,1.2,0.5,2.1,0.7,3.1
	c0.5,2.5,1,5.1,1.5,7.6c0.1,0.4,0.2,0.8,0.2,1.2c0.2,2.9,0.5,5.7,0.7,8.6c0.1,1.6,0.3,3.3,0.9,4.8c0.5,1.3,0.7,2.7,0.7,4.1
	c0.1,1.4,0.2,2.8,0.4,4.2c0.6,2.8,0.3,5.6,0.5,8.4c0.1,2.3,0.1,4.5,0.2,6.8c0,0.8,0,1.5-0.3,2.3c-0.2,0.6-0.4,1.2-0.3,1.8
	c0.5,3.4,0.3,6.9,0.4,10.3c0.1,3.1,0,6.3,0,9.4c0,0.7-0.1,1.4-0.1,2.1c-0.1,1.9-0.2,3.9-0.1,5.8c0.2,3-0.1,6.1-0.2,9.1
	c0,0.5-0.1,1.1,0,1.6c0.4,2.4,0.2,4.8,0.2,7.2c0,1.8,0.3,3.6,0.4,5.4c0.1,1.6,0.2,3.1,0.4,4.7c0.3,2,0.6,4,1.1,6
	c0.3,1.1,0.4,2.1,0.5,3.2c0,2,0.2,4.1,0.3,6.1c0,1.4-0.1,2.8-0.1,4.2c0,1.9-0.1,3.7,0.3,5.6c0.2,0.8,0.2,1.7,0.1,2.6
	c0,2.4,0.3,4.8,0.8,7.2c0.4,1.5,0.4,3.1,0.2,4.7c-0.3,3.8-0.6,7.6-0.6,11.4c0.1,3.8,0.5,7.6,0.4,11.5c0,1.9,0.1,3.9-0.3,5.8
	c-0.4,1.7-0.3,3.6-0.4,5.4c0,0.2,0.1,0.5,0.1,0.7C222.1,260.9,222.3,261.2,222.5,261.8z M220.1,270.2c0.1-2.1,0.2-4,0.2-5.9
	c0-2.6-0.3-5.2-0.1-7.7c0.2-2.7-0.1-5.3-0.2-8c-0.1-3.4-0.3-6.9-0.1-10.3c0.2-5.2,0.4-10.3-0.1-15.5c-0.2-1.7-0.4-3.4-0.4-5.1
	c-0.1-2.9,0.1-5.8-0.1-8.6c-0.2-3.3,0-6.6-0.8-9.8c-0.3-1.4-0.5-2.8-0.6-4.2c-0.2-1.7-0.2-3.4-0.4-5.1c-0.2-1.9-0.4-3.9-0.6-5.8
	c0-0.5-0.1-0.9-0.2-1.4c-0.3-2.5-0.6-5-0.9-7.4c-0.1-0.8-0.2-1.5-0.2-2.3c-0.1-1.9-0.5-3.7-0.2-5.6c0.2-1.9,0.3-3.7,0.5-5.6
	c0-0.5,0.1-1.1,0-1.6c-0.5-2.5,0.1-5,0-7.4c0-0.8,0.2-1.5-0.1-2.3c-0.1-0.3,0-0.8,0-1.2c0-1.3,0-2.7,0.1-4c0-2,0-4,0-6.1
	c0-0.9,0.2-1.8,0-2.6c-0.4-1.5-0.2-2.9-0.2-4.4c0-0.7-0.1-1.4-0.2-2.1c-0.1-0.5-0.3-0.9-0.2-1.4c0.3-1.9-0.2-3.7-0.3-5.6
	c-0.1-2.2-0.3-4.4-0.5-6.6c0-0.5,0-1.1,0-1.6c0-3.4,0.1-6.7-0.1-10.1c-0.1-2.1-0.4-4.2-0.3-6.3c0-1.1-0.1-2.2-0.4-3.2
	c-0.4-1.5-0.4-3.1-0.6-4.6c-0.3-3.1-0.6-6.2-1-9.3c-0.1-0.8-0.6-1.4-1.5-1.6c-1.5-0.4-2.9-0.4-4.4-0.1c0,0.6-0.1,1,0,1.5
	c0.5,2.8,1.1,5.5,1.5,8.3c0.2,1.2,0.2,2.5,0.4,3.7c0.3,2.6,0.6,5.3,0.9,7.9c0.2,2,0.3,4,0.4,6.1c0.1,0.9,0.3,1.8,0.3,2.8
	c0.2,2.6,0.2,5.2,0.5,7.7c0.3,2.8,0.1,5.6,0.9,8.4c0.2,0.6,0.2,1.3,0.1,1.9c-0.3,2.2,0,4.4-0.1,6.5c0,0.5,0.1,1,0,1.4
	c-0.4,2.1-0.1,4.2,0.1,6.3c0.3,2.4,0.4,4.8,0.7,7.2c0.5,4.2,0.9,8.4,1.1,12.6c0.1,1.6,0.3,3.1,0.4,4.7c0,0.5,0.1,0.9,0.1,1.4
	c0.2,3,0.3,6.1,0.5,9.1c0,0.4,0.2,0.8,0.2,1.1c0.2,1.5,0.5,3.1,0.6,4.6c0.1,1.7,0,3.4,0.6,5.1c0.1,0.4,0.1,0.9,0.1,1.4
	c0,0.7,0,1.4,0.1,2.1c0.3,2.2,0.8,4.3,1,6.5c0.1,1.2,0.3,2.5,0.3,3.7c0,2.5,0,5,0.1,7.5c0.1,3.5,0.4,7,0.6,10.5c0,0.8,0,1.6,0,2.3
	c-0.1,3.2-0.3,6.4-0.2,9.6c0.1,3.5,0.2,7,0.1,10.5c-0.1,3.3-0.5,6.7-0.2,10c0.1,0.6,0,1.3-0.1,1.9c-0.4,1.9-0.1,3.6,0.9,4.9
	c-0.1,1.4-0.2,2.6-0.2,3.7c0,1.8,0,3.6-0.4,5.4c-0.3,1.2-0.3,2.4,0,3.7C218.9,271.8,219.4,270.8,220.1,270.2z M129.3,56.7
	c2.3-0.1,4.3-0.8,6-2.4c1.1-1,2.3-1.9,3.4-2.8c0.8-0.7,1.7-1.3,2.6-2c1.5-1.3,2.8-2.8,4.4-3.8c1.3-0.9,2.1-2.1,2.8-3.4
	c0.5-0.9,0.4-1.8,0.1-2.7c-0.4-1.4-1.4-2.4-2.4-3.4c-1.2-1.3-2.7-2.4-4.4-2.9c-0.8-0.2-1.4-0.6-2-1.1c-1.4-1.2-3.1-2-4.8-2.8
	c-2.4-1.1-5.1-0.7-7.6-0.5c-0.3,0-0.6,0.2-0.8,0.4c-1.4,0.8-1.6,2.6-2.8,3.6c-0.1,0.1,0,0.3-0.1,0.5c-0.3,2.4-0.9,4.7-1.8,7
	c-0.8,2-1.4,4-1.7,6.1c-0.2,1.3-0.2,2.6-0.2,4c0,0.5,0.2,1.1,0.6,1.5c1.7,1.9,3.7,3.4,6.1,4.2C127.3,56.3,128.3,56.5,129.3,56.7z
	 M203.4,273.4c-0.1-0.4-0.1-0.7-0.2-1c-0.3-2.2-0.7-4.5-1-6.7c-0.2-1.3-0.3-2.6-0.5-3.9s-0.5-2.6-0.6-3.9c-0.2-2.7,0.1-5.5-0.7-8.1
	c-0.4-1.3,0-2.6-0.2-3.9c-0.2-1.4-0.2-2.8-0.3-4.2c0-0.7-0.1-1.4-0.1-2.1c-0.2-2.6-0.4-5.1-0.7-7.7c-0.2-1.7-0.3-3.4-0.6-5.1
	c-0.4-1.9-0.5-3.7-0.5-5.6c0-1.1,0-2.2-0.1-3.3c-0.1-2.2-0.3-4.4-0.3-6.6c-0.1-2.6,0-5.2-0.2-7.7c-0.3-3.9-0.6-7.8-0.8-11.6
	c0-0.5-0.2-1.1-0.2-1.6c0-0.5-0.1-0.9,0-1.4c0.3-1.2,0.1-2.3,0-3.5c-0.1-1.6-0.2-3.3-0.2-4.9c-0.1-1.2,0-2.5-0.1-3.7
	c-0.4-3.7-0.8-7.5-1.3-11.2c-0.2-1.6-0.4-3.3-0.4-4.9c0-0.9,0.1-1.9,0-2.8c-0.5-3.5-0.6-7-0.4-10.5c0.2-2.5-0.4-5-0.7-7.5
	c-0.6-3.9-0.9-7.8-1-11.7c-0.2-3.3-0.8-6.5-1.7-9.6c-0.2-0.7-0.4-1.5-0.6-2.3c-0.7-3.2-1.4-6.4-2.1-9.6c-0.2-1-0.4-2-0.5-3
	c-0.2-2.8-0.5-5.6-0.8-8.4c-0.2-1.8-0.5-3.6-0.7-5.3c-0.3-1.8-0.4-3.6-0.8-5.3c-0.3-1.5-0.9-3-1.3-4.5c-0.4-1.8-1.4-2.9-3.3-3.2
	c-0.2,0-0.3-0.1-0.5-0.1c-1-0.2-1.5,0.3-1.1,1.3c0.1,0.3,0.2,0.6,0.3,0.9c0.6,2.2,1.8,4.2,2,6.5c0.2,2.1,0.8,4.1,1.5,6.1
	c0.1,0.3,0.1,0.6,0.2,0.9c0.6,3.1,1,6.2,2.1,9.1c0.2,0.4,0.1,0.9,0.1,1.4c0.2,2.2,0.3,4.4,0.7,6.5c0.6,2.9,1,5.8,2.2,8.6
	c0.3,0.8,0.5,1.7,0.6,2.5c0.1,0.4,0.1,0.8,0.1,1.2c-0.2,1.5,0,2.9,0.4,4.4c0.4,1.5,0.9,3,1.2,4.5c0.6,3.1,1.2,6.1,1.6,9.2
	c0.2,1.3,0.2,2.6,0.3,4c0.1,1.8,0,3.6-0.1,5.4c-0.1,0.7,0,1.4,0.1,2.1c0.1,1.2,0.4,2.5,0.4,3.7c0.2,3.5,0.5,7,1.2,10.5
	c0.2,0.9,0.1,1.9,0.2,2.8c0.1,2.9,0,5.8,0.5,8.6c0.3,1.4,0.4,2.8,0.3,4.2c-0.2,1.5,0,2.9,0.3,4.4c0.1,0.5,0.2,1,0.1,1.4
	c-0.5,1.6-0.2,3.3-0.1,4.9c0.1,1.9,0.3,3.7,0.6,5.6c0.4,2.2,0.7,4.3,0.7,6.5c0,1.3,0,2.7,0.2,4c0.3,2.6,0.3,5.1,0.3,7.7
	c0,0.9,0.1,1.9,0.2,2.8c0.1,0.9,0.2,1.9,0.3,2.8c0.1,1.9,0,3.8,0.1,5.6c0.3,3.5,0.6,7,1,10.5c0.2,1.7,0.4,3.4,0.3,5.1
	c0,0.4,0,0.8,0.1,1.2c0.4,0.9,0.4,1.8,0.1,2.8c-0.1,0.3-0.1,0.6,0,0.9c0.7,3.5,0.2,7.2,1.1,10.7c0.1,0.4,0,0.8-0.1,1.2
	c-0.3,1.3-0.2,2.6,0,3.9c0.3,2.5,0.5,5,0.7,7.5c0.1,0.8,0,1.5,0,2.3C201.9,273.6,201.9,273.6,203.4,273.4z M199.4,210.5
	c0.1,3.3,0.2,6.4,0.3,9.5c0,0.5,0.3,0.9,0.9,0.9c1.8,0.1,3.6,0.2,5.4-0.3c1.3-0.4,2.6-0.4,3.9-0.5c1.9-0.1,3.8-0.2,5.7-0.6
	c0-1.8-0.1-3.5,0-5.2c0.1-1.7-0.1-3.3-0.3-5.1c-2.6-0.5-5.1,0-7.5,0.1C205.1,209.5,202.4,209.8,199.4,210.5z M189.5,108
	c1.2,2.6,0.8,5.4,2.3,7.9c1.3,0,2.7,0,4-0.1c3.9-0.4,7.9-0.8,11.8-1.3c0.3,0,0.5-0.2,0.7-0.3c0.1-0.3,0.2-0.4,0.2-0.6
	c0.1-2.7-0.6-5.4-0.9-8.1c-0.1-0.6-0.8-1-1.4-0.9c-1.6,0.3-3.2,0.6-4.8,0.9c-1.9,0.4-3.8,0.8-5.7,1.1
	C193.7,107,191.7,107.5,189.5,108z M193.5,122.9c0,0.9-0.1,1.7,0,2.4c0.1,1.5,0.3,2.9,0.5,4.4c0.3,1.7,1,2.2,2.8,1.9
	c4.1-0.6,8.2-1.1,12.3-1.4c0.1,0,0.3-0.2,0.4-0.3c0.5-0.7,0.4-1.5,0.3-2.2c-0.3-2.1-0.6-4.1-1-6.3c-0.4-0.2-0.7-0.4-1.1-0.4
	c-4.3,0.1-8.5,0.5-12.8,1.2C194.5,122.3,194,122.7,193.5,122.9z M214.3,194.1c-5.4,0.2-10.6,0.7-15.9,1.6c0.1,0.9,0.2,1.7,0.2,2.5
	c0,0.5,0.1,0.9,0.1,1.4c-0.1,1.2,0.1,2.3,0.6,3.4c1.2,0,2.3,0,3.5,0c1.8,0,3.6-0.4,5.3,0c2.3,0.5,4.5-0.3,6.7-0.6
	c0.2,0,0.4-0.3,0.6-0.5c-0.2-1.8-0.3-3.5-0.5-5.3c0-0.3-0.1-0.6-0.1-0.9C214.7,195.2,214.6,194.8,214.3,194.1z M198.1,188.1
	c0.6,0.1,1.1,0.2,1.6,0.2c1.2-0.1,2.3-0.2,3.5-0.2c3-0.2,6.1-0.3,9.1-0.4c0.9,0,1.1-0.3,1.2-1.1c0.1-1.2,0.1-2.3,0.1-3.5
	c0-1.2-0.2-2.3-0.9-3.4c-0.5,0-0.9,0-1.4,0c-1.4,0.1-2.8,0.3-4.2,0.3c-2.3,0-4.7-0.2-7-0.3c-1.2,0-2.1,0.7-2.3,1.8
	c-0.1,0.5-0.2,1,0,1.4c0.4,1.2,0.4,2.4,0.2,3.7C197.9,187,198,187.4,198.1,188.1z M196.1,158.7c3.8,1.2,10.8,1.2,14.9,0.1
	c0.2-2.7,0.1-5.4-0.7-8.1c-0.9-0.2-1.8-0.2-2.8-0.2c-2.8-0.1-5.6,0.4-8.4,0.7c-3.1,0.3-3.5,0.8-3.4,4
	C195.8,156.3,195.9,157.4,196.1,158.7z M197.7,20.8c0.7-1.1,1.4-2.1,2-3.1c0.4-0.7,0.8-1.3,1.1-2.1c0.5-1.1,0.5-2.4-0.1-3.4
	c-1.2-2.3-2.7-4.2-5.6-4.3c-1.5-0.1-2.8,0-4,0.8c-2.1,1.3-3.7,2.9-2.9,5.8c0,0.1,0,0.3,0,0.5c0.3,2.5,1.6,4.1,3.9,5
	c0.9,0.4,1.9,0.7,2.9,1c0.3,0.1,0.6,0.1,0.9,0.1C196.5,21,197.2,20.9,197.7,20.8z M212.1,172.7c-0.6-2.5,0.1-5.1-0.9-7.4
	c-0.2-0.1-0.3-0.2-0.5-0.2c-3.9-0.1-7.8,0.1-11.7,0.4c-0.8,0.1-1.5,0.2-2.3,0.7c0.1,2.2-0.1,4.3,0.6,6.4c2.5,0.4,4.9,0.5,7.3,0.4
	c2.1-0.1,4.2,0,6.3-0.1C211.3,173,211.6,172.8,212.1,172.7z M201,228.7c-0.2,1.1-0.1,2.3,0,3.4c0.1,1.1-0.4,2.3,0.5,3.5
	c4.6,0,9.3,0.1,13.9-0.6c0.1-0.3,0.3-0.5,0.3-0.7c0-2.2-0.1-4.4-0.2-6.5c0-0.2-0.2-0.4-0.4-0.7C210.3,227.5,205.6,227.4,201,228.7z
	 M215.3,242.4c-0.2-0.1-0.5-0.3-0.8-0.3c-3.7,0-7.4-0.1-11,0c-1.2,0-2,0.9-2,2.2c0.1,1.5,0.2,2.9,0.7,4.2c1,0.3,1.8,0.6,2.6,0.8
	c1.3,0.4,2.5,0.9,3.9,0.5c0.3-0.1,0.8,0.1,1.1,0.1c0.9,0.1,1.8,0.3,2.8,0.4c0.5,0.1,0.9,0,1.4-0.1c1.1-0.3,1.4-0.6,1.4-1.8
	c0.1-1.9,0.1-3.8,0.1-5.6C215.6,242.8,215.5,242.7,215.3,242.4z M209.8,143.8c-0.1-2-0.2-3.9-0.3-6c-4.8,0.2-9.5,0.7-14.2,1.4
	c-0.3,1.9,0,3.6,0.8,5.4c0.8,0,1.6,0.1,2.3,0.1C202.1,144.3,205.9,144.4,209.8,143.8z M202.4,255.8c0.5,1.3,0.8,2.4,0.8,3.7
	c0,0.1,0,0.2,0.1,0.2c0.3,0.8,0.5,1.7,1,2.3c0.4,0.4,1.3,0.2,1.9,0.5c1,0.4,1.9,0.4,3,0.2c1.5-0.2,2.9-0.3,4.4-0.5
	c0.4-0.1,0.9-0.2,1.4-0.3c0.2-1.8-0.2-3.5,0.3-5.2c0.2-0.5-0.4-1-1-0.9c-1.1,0.2-2.3,0.6-3.4,0.6c-2.2-0.1-4.5-0.4-6.7-0.6
	C203.6,255.8,203.1,255.8,202.4,255.8z M189.1,105.5c2.3-0.1,4.3,0,6.3-0.5c2-0.5,4.2-0.6,6.2-1c2-0.4,4-0.5,5.9-1.1
	c0.3-1.1-0.1-2.1-0.2-3.1c-0.6,0-1.1-0.1-1.5,0c-1.3,0.2-2.6,0.6-3.9,0.8c-3.8,0.7-7.7,1.3-11.5,2c-0.2,0-0.5,0.1-0.7,0.2
	c-0.6,0.2-0.9,0.6-0.9,1.2C188.9,104.5,189,105,189.1,105.5z M195,137.3c0.9-0.1,1.6-0.2,2.3-0.3c3-0.2,6.1-0.4,9.1-0.7
	c1.2-0.1,2.3-0.5,3.3-1c0.3-1.1,0.2-2.1,0-3.1c-0.4-0.1-0.7-0.3-0.9-0.2c-4.4,0.1-8.8,1-13.2,1.7c-0.4,0.1-0.7,0.3-1,0.5
	C194.6,135.2,194.8,136.1,195,137.3z M215.5,221.4c-2.6,0.2-4.9,0.4-7.3,0.7c-0.8,0.1-1.7,0.1-2.5,0.3c-1.5,0.4-3.1,0.5-4.6,0.6
	c-0.4,0-0.7,0.1-1.2,0.1c-0.1,1.2,0,2.2,0.6,3.3c1.7-0.2,3.4-0.4,5.1-0.6c3-0.2,6.1-0.4,9.1-0.6c0.3,0,0.6-0.1,1-0.2
	C215.8,223.8,215.7,222.7,215.5,221.4z M212.6,178c0.3-0.8,0.1-1.5-0.1-2.3c-0.1-0.7-0.6-1-1.4-1c-1.5-0.1-3.1-0.1-4.6-0.1
	c-0.2,0-0.5,0-0.7,0c-1.7,0.6-3.4,0.4-5.1,0.5c-1,0-2,0.2-3,0.3c0,0.8,0,1.5,0,2.1C200.5,178.3,209.4,178.6,212.6,178z M198.2,193.1
	c1.8,0.1,11.8-0.4,14.4-0.8c0.4-0.1,0.9-0.2,1.3-0.3c0.4-0.9,0.3-1.6-0.1-2.4c-0.3-0.1-0.6-0.1-0.9-0.1c-2.5,0-5-0.1-7.5,0.1
	c-2.3,0.2-4.7,0.3-6.8,1.3c-0.1,0.1-0.2,0.2-0.4,0.4C198.2,191.8,198.2,192.4,198.2,193.1z M208.3,116.2c-0.5,0-1-0.1-1.5,0
	c-4.6,0.6-9.3,0.9-13.9,1.8c-0.2,0-0.4,0.2-0.7,0.5c0.2,0.6,0.5,1.2,0.7,1.9c4.2,0.2,8.2-0.9,12.2-0.8c1.1,0,2.3-0.2,3.5-0.3
	C208.9,118.3,208.9,117.3,208.3,116.2z M215.1,203.9c-0.9,0.2-1.6,0.4-2.3,0.5c-1.2,0.2-2.3,0.4-3.5,0.4c-3.2,0.1-6.5-0.1-9.7,0.9
	c-0.3,0.7-0.5,1.3,0.1,2c1.6,0.5,2.9,0.6,4.1,0.3c2.8-0.5,5.7-0.7,8.6-0.7c0.6,0,1.3,0,1.9,0c0.4-0.1,0.8-0.3,1.2-0.5
	C215.3,205.8,215.2,205,215.1,203.9z M215.5,237.2c-1.1,0.1-2,0.1-2.8,0.2c-0.7,0-1.4,0.1-2.1,0.1c-2.1,0.1-4.2,0.1-6.3,0.2
	c-1,0.1-2,0.2-2.9,0.9c-0.1,0.7,0.2,1.2,0.9,1.4c0.7,0.2,1.4,0.2,2.1,0.2c2.3,0,4.7,0,7,0c1.3,0,2.6-0.1,4-0.1
	c0.1-0.5,0.2-0.9,0.2-1.3C215.6,238.4,215.6,237.9,215.5,237.2z M195.9,148.8c1.9,0.6,3.6,0.5,5.3,0.3c2.6-0.4,5.2-0.7,7.9-0.4
	c0.8,0.1,1.2-0.3,1.1-1.1c0-0.5-0.2-1-0.4-1.5c-2.1-0.3-11.6,0.5-14.1,1.1C195.8,147.6,195.9,148.2,195.9,148.8z M211.1,163
	c0.4-1.7,0.2-2.1-1.2-2.1c-0.3,0-0.6,0.1-0.9,0.1c-3.3,0.3-6.7,0.5-10,0.3c-0.4,0-0.8,0-1.2,0c-0.6,0-1.1,0.2-1.4,0.7
	c-0.3,0.5-0.2,1,0.1,1.5C201.4,163.8,206.3,163.5,211.1,163z M215.2,252.3c-2.1-0.3-4.2-0.5-6.2-0.8c-0.1,0-0.2,0-0.2,0
	c-2.1,0.4-4.2,0.3-6.2-0.5c-0.3,1.4-0.3,1.4,0,2.6c1.2,0.1,2.4,0.2,3.7,0.4c1.4,0.2,2.8,0.4,4.2,0.7c1.4,0.2,2.6-0.1,3.9-0.5
	C215.3,253.8,215.5,253.2,215.2,252.3z M204.6,266.6c1,0.1,1.9,0.2,2.7,0.3c2.4,0.4,4.8-0.1,7.1-0.8c0.7-0.2,0.8-0.6,0.5-1.2
	c-0.1,0-0.2-0.1-0.2-0.1c-2.2,0-4.5,0-6.7-0.1c-1.2-0.1-2.4-0.5-3.6-0.7C203.6,264.8,204.2,265.6,204.6,266.6z"/>
<path fill-rule="evenodd" clip-rule="evenodd" d="M56.8,115.2c2.2,0.4,3.9,0.8,5.6,1.1c1.5,0.2,3.1,0.3,4.6,0.5
	c0.2,0,0.5,0.1,0.7,0.1c0.9,0.3,1,1.1,0.4,1.8c-0.5,0.4-0.9,0.8-1.6,0.9c-1.7,0.4-3.3,0.9-5,1.2c-1,0.2-1.9,0.7-2.8,1.2
	c-0.1,0.9-0.2,1.7-0.2,2.6c0.1,1.7-0.3,3.3-0.7,4.9c-0.4,2-1.4,3.8-3.2,5c-0.3,0.2-0.6,0.5-0.8,0.8c-0.3,0.4-0.5,0.8-0.8,1.1
	c-2.1,1.7-2.5,4-2.1,6.5c0.1,1,0.4,1.9,0.9,2.9c1.4,2.9,2.6,5.9,3.9,8.8c0.6,1.3,0.5,2.4-0.1,3.6c-1.1,2.2-1.9,4.4-2.6,6.7
	c-0.2,0.5-0.4,1-0.5,1.6c0,1.5-0.7,2.9-1.2,4.3c-0.7,1.7-1.2,3.4-1.6,5.1c-0.8,3.1-1.8,6.2-2.6,9.2c-0.2,0.9-0.3,1.8-0.6,2.7
	c-0.6,2.4-1.1,4.7-1.7,7.1c-0.7,2.5-0.7,5.1-1,7.7c-0.3,3.2-0.5,6.4-0.8,9.6c-0.1,1.2,0,2.3,0,3.5c0,2.3,0.1,4.5,0.7,6.8
	c-0.5,0.4-0.9,0.9-1.4,1.3c-0.5-0.2-0.9-0.4-1.3-0.6c-0.4-2.1-0.5-4.2-0.3-6.3c0.1-1.7-0.4-3.4,0.3-5.1c-0.4-2.8,0.3-5.6,0.4-8.4
	c0.1-1.6-0.2-3.2-0.3-4.8c-2.7-0.1-3.7,0.2-8.3,2.5c-0.8,3.2-0.8,6.5-0.9,9.8c-0.1,3.3,0.3,6.5,0.5,9.9c-0.8,0.5-1.5,1.2-2.5,0.2
	c-0.2-3-0.3-6.1-0.7-9.1c-0.3-2.7-0.2-5.3,0-7.9c0-0.9,0.3-1.8-0.2-2.7c-0.1-0.2-0.1-0.6,0.1-0.9c0.8-1.9,0.4-3.9,0.2-5.8
	c-0.3-3.2-0.8-6.3-1.3-9.5c-0.2-1.3-0.5-2.6-0.8-3.9c-0.2-0.9-0.4-1.8-0.7-2.7c-1-3.5-1.8-7.1-2.9-10.6c-0.9-2.8-2.2-5.5-3.3-8.2
	c-0.7-1.7-1.4-3.3-2.2-5c0.5-1.3,1.5-2.3,2.5-3.3c1.7-1.7,3.3-3.3,5-4.9c1-1,1.7-2.2,2.3-3.5c0.6-1.2,0.6-2.4,0.4-3.6
	c-0.2-1.1-0.4-2.1-0.6-3.2c-0.1-0.4-0.1-0.8-0.2-1.2c-0.1-1.2,0.3-1.8,1.5-2.1c1.2-0.3,2.4-0.6,3.6-1c0.4-1.3,0.3-2.5,0.2-3.8
	c-0.2-2.2,0-4.3,1.2-6.3c0.5-0.8,0.7-1.8,1.3-2.5c2-2.6,4.4-4.7,7.7-5.3c0.7-0.1,1.2-0.5,1.4-1.1c0.3-0.9,0.5-1.8,0.7-2.7
	c0.3-1.8,0.5-3.6,0.7-5.3c0-0.2,0.1-0.3,0.1-0.5c-0.1-4.5,0.9-9,0.3-13.6c-0.3-2,0.7-3.6,2.2-5c0.2-0.2,0.6-0.3,0.8-0.3
	c2.6,0,5.2-0.2,7.7,0.6c1.4,0.5,2.8,1,4.2,1.4c1.7,0.6,3.4,1.2,5.1,1.6c1.9,0.5,2.2,2,1.8,3.4c-0.1,0.3-0.2,0.6-0.3,0.9
	c-1.3,3.1-2.5,6.2-4.2,9.2c-1.3,2.4-2.6,4.8-3.9,7.2c-0.5,0.9-1,1.7-1.5,2.7C57.6,113.1,57.3,114.1,56.8,115.2z M43.2,138
	c0.8-0.1,1.6-0.1,2.4-0.2c1.8-0.3,5.8-2.5,7.1-3.9c0.4-0.4,0.7-0.8,1.2-1.1c1.1-0.9,1.8-2,2.1-3.3c0.4-1.4,0.7-2.7,0.8-4.1
	c0.2-2.1-1.1-5.2-2.7-6.5c-0.7-0.6-1.5-1.2-2.3-1.7c-1.3-0.8-2.7-1.1-4.2-0.3c-2.4,1.3-4.5,2.8-6.3,4.8c-0.6,0.7-1.1,1.5-1.7,2.2
	c-1,1.2-1.2,2.7-1.6,4.1c-0.1,0.5-0.6,1-0.2,1.5c0.6,0.7,1.3,0.3,1.9,0.1c0.2,0,0.3-0.1,0.4-0.2c0.7-0.2,1.3-0.4,2-0.7
	c0.5-0.2,1.1-0.3,1.5,0.1c0.5,0.4,0.4,0.9,0.3,1.5c-0.1,0.2-0.2,0.4-0.2,0.7c-0.4,1.9-0.7,3.8-1,5.7C42.7,137.1,43,137.5,43.2,138z
	 M41.3,163.3c0.3,0.7,0.5,1.3,0.7,1.9c0.3,0.9,1,1.2,1.8,1.2c1.5,0.2,3.6-1.3,3.9-2.8c0-0.1,0.1-0.3,0-0.5c-0.3-1-0.8-1.9-1.7-2.4
	c-1.3-0.7-2.1-0.5-3.1,0.6C42.4,162,41.9,162.6,41.3,163.3z M44.6,154.6c2.3-0.4,2.3-0.4,3-1c0.8-0.7,1-1.5,0.7-2.5
	c-0.4-0.9-1.2-1.4-2.2-1.3c-0.8,0.1-1.6,0.1-2.3,0.2c-0.9,0.1-1.5,0.9-1.5,1.8c0.1,0.7,0.3,1.4,0.9,1.8
	C43.7,153.9,44.1,154.3,44.6,154.6z M44.4,176.3c-0.1-0.6-0.3-1.5-1.2-2c-0.3-0.2-0.8-0.3-1.1-0.1c-1,0.7-1.9,1.6-2.2,2.9
	c-0.2,0.8,0.2,1.5,0.8,2.1c0.6,0.5,1.2,0.6,2,0.3C43.9,178.9,44.5,178,44.4,176.3z M53.7,115.6c1-2.2,1.7-4.4,2.3-6.5
	c0.2-0.5-0.1-0.9-0.7-1.1c-0.4,0.2-0.9,0.4-1.4,0.6c-0.9,0.5-1.4,1.4-1.5,2.5c-0.1,1.1-0.2,2.3-0.3,3.5c0.1,0.1,0.2,0.3,0.4,0.4
	C52.8,115.2,53.2,115.3,53.7,115.6z"/>
<path fill-rule="evenodd" clip-rule="evenodd" d="M170.5,166.2c0.3-1.3,0.5-2.4,0.8-3.4c0.6-2.3,2.4-3.8,4.6-4
	c1.1-0.1,2.2-0.2,3.3-0.3c0.5,0,1.1-0.1,1.6,0c1,0.3,1.7,0.8,1.8,1.9c0,1.1,0.1,2.2-0.1,3.3c-0.4,2.6-0.7,5.1-0.7,7.7
	c0,1,0.1,2,0.2,3c0.3,2.3-0.9,4-3.2,4.4c-2,0.4-5.3,0-7.4-0.9c-0.5-0.9-0.9-1.8-0.9-3c0.1-2.2-0.3-4.3-0.4-6.6
	c-3.8-0.8-7.2-2.8-11-3.7c-0.1,0-0.1,0.1-0.3,0.2c0.7,2,1.7,3.9,3.5,5.3c2,1.7,3.5,3.8,4.8,6c0.9,1.5,1.2,3.2,0.6,5
	c-0.5,1.6-1,3.1-1.9,4.5c-1,1.5-1.4,3.1-1.1,4.9c0.5,3.2,1.3,6.3,2.7,9.2c0.4,0.9,0.8,1.7-0.2,2.5c-0.3,0.2-0.3,0.7-0.4,1
	c-0.1,0.2,0,0.5,0.1,0.7c0.9,2.5,1.2,5.1,1.9,7.7c1.2,4.4,2.6,8.9,3.3,13.4c0.1,0.7,0.4,1.4,0.5,2c0.2,0.9,0.4,1.8,0.5,2.8
	c0.1,0.9,0.1,1.9,0.4,2.8c0.7,2.1,1,4.4,1.6,6.6c0.6,2.6,1.4,5.1,2.2,7.6c0.6,1.9,2,3.3,3.6,4.5c0.9,0.6,1.4,1.4,2,2.2
	c0.8,1.2,0.7,1.5-0.8,2.6c-1.3-1.3-2.6-2.6-3.9-4c-0.1-0.1-0.2-0.2-0.3-0.3c-0.8-0.8-1.7-1.4-2.3-2.3c-0.5-0.9-0.4-2.2-1-3.1
	c-1.2-2-1-4.2-1.7-6.3c-0.3-1-0.5-2-1.1-2.8c-0.6-1-0.9-2.1-1.3-3.2c-0.8-2.4-1.6-4.7-2.6-7c-0.8-1.9-1.7-3.9-2-6
	c-0.1-0.8-0.7-1.2-1.2-1.7c-0.3,1.4-0.4,2.7-0.1,3.8c1,3.3,1.3,6.7,1.3,10.2c0,0.4,0,0.8,0,1.2c0.3,2.3,0.6,4.6,0.9,6.9
	c0.1,0.8,0.4,1.5,0.6,2.2c0.2,1.1,0.8,2.1,0.4,3.4c-0.2,0.7,0.3,1.6,0.4,2.5c0.1,0.9-0.2,1.3-1.2,1.2c-1-0.1-1.8,0.4-2.7,0.7
	c-1.1,0.5-2.2,1.2-3.3,1.7c-1.2,0.6-1.8,0.4-2.7-0.9c0.3-0.8,0.9-1.3,1.6-1.6c1.1-0.6,1.8-1.5,2.5-2.4c1.2-1.6,1.4-3.5,1.2-5.3
	c-0.2-1.9-0.3-3.9-1.4-5.6c-0.1-0.1-0.1-0.3-0.1-0.4c0.4-1.8-0.3-3.4-0.9-5c-0.5-1.3-0.8-2.7-0.6-4.1c0.2-1.2-0.2-2.3-0.5-3.4
	c-1.2-3.8-2.3-7.6-3.4-11.4c-0.4-1.3-0.6-2.7-1.5-3.9c-0.1-0.2-0.3-0.4-0.3-0.6c0-1.9-1.3-3.5-1.6-5.4c0-0.2-0.1-0.3-0.2-0.4
	c-1.4-1.7-1.1-3.6-0.7-5.6c0.1-0.4,0.2-0.8,0.2-1.1c0-1.4,0.4-2.8,0.8-4.1c0.8-3.1,1.4-6.2,1.7-9.4c0.2-2.3-0.3-4.5-1-6.7
	c-0.1-0.3-0.2-0.7-0.4-0.8c-1.7-1.3-2.4-3.5-4.1-5c-0.2,0.4-0.5,0.7-0.7,1.1c-0.9,2-1.1,4.2-1.5,6.4c-0.4,2.1-0.7,4.2-1.1,6.2
	c-0.1,0.3-0.1,0.7-0.3,0.9c-0.2,0.2-0.6,0.4-0.8,0.3c-0.3-0.1-0.6-0.4-0.9-0.7c-0.1-0.1,0-0.5,0-0.7c0.3-1.8,0.6-3.7,0.9-5.5
	c0.2-1.5,0.4-3.1,0.5-4.6c0.1-1.3,0.3-2.6,0.4-4c0-0.6,0-1.3-0.1-1.9c-0.2-1.3-0.6-2.3-1.8-3.1c-1.3-0.9-2.6-1.7-3.6-2.9
	c-0.3-0.3-0.8-0.5-1.2-0.7c-0.4-0.2-0.8-0.4-1.2-0.5c-0.3-0.9,0-1.6,0.4-2.3c0.5-0.8,1-1.6,1.5-2.4c0.9-1.5,1.8-2.9,2.6-4.4
	c0.2-0.3,0.4-0.7,0.4-1.1c0.3-2.2,0.8-4.3,0.6-6.5c-0.1-1-0.3-2-0.8-2.9c-0.9-1.8-2-3.5-3.1-5.2c-0.9-1.4-2.3-2-3.9-2.3
	c-0.6-0.1-1.2-0.3-1.8-0.3c-0.6-0.1-1.3-0.1-1.9,0c-0.8,0.1-1.2,0.8-0.9,1.6c1.2,3.5,0.9,7.1,1.3,10.7c0.2,1.8-0.1,3.6,0.5,5.4
	c0,0.1,0.1,0.3,0.1,0.5c-0.2,1.2,0,2.3,0.4,3.4c0.4,1-0.1,1.7-1.1,1.9c-2.2,0.4-4.4,0.7-6.6,1c-0.9-0.7-0.9-1.7-1-2.6
	c-0.1-1.9-0.1-3.9-0.2-5.8c0-0.4-0.1-0.9-0.1-1.4c-6.5,2.3-4,1.9-11,1.7c-0.4,1.1-0.6,2.2-0.6,3.4c0,1.6,0,3.1-0.1,4.7
	c0,0.8-0.4,1.3-1.3,1.7c-0.4-0.2-0.9-0.4-1.4-0.6c-1.5-0.6-2.7-1.9-4.5-1.6c-1.6-0.8-3.2-0.6-4.8-0.1c-1.1-0.6-1.3-1.5-1.1-2.6
	c0.2-1.5,0.4-3.1,0.6-4.6c0.5-3,1-6,1.6-9c0.4-2.1,1.1-4,2-6c0.6-1.3,1.4-2.6,1.4-4.2c0-0.5,0.3-1,0.6-1.5c0.6-1.1,1.1-2.2,1.8-3.3
	c0.3-0.5,0.7-1.1,1.2-1.4c1.8-1.3,3.7-2.4,6-2.5c1.2,0,2.3-0.1,3.5-0.2c2.2-0.1,4.2,0.5,6.1,1.4c2.6,1.1,4.4,3.2,5.3,5.9
	c0.1,0.4,0.3,0.9,0.5,1.3c0.9,0.2,1.7,0,2.6-0.1c0.9-0.1,1.9-0.2,2.8-0.3c0.3,0,0.7,0,0.9,0.1c1.9,1,3.8,1.9,5.6,3
	c1.9,1.2,3.2,2.9,4.5,4.7c1.8,2.5,3.4,5.1,4.8,7.7c0.8,1.5,1.2,3.2,1.7,4.8c0.8,2.7,1.5,5.4,2.4,8.1c0.5,1.6,1.9,2.7,3.2,3.7
	c0.1,0.1,0.3,0.2,0.4,0.2c2.2,1.1,4.4,2,6.6,2.9c0.8,0.3,1.6,0.6,2.4,1C168.7,166.2,169.6,165.9,170.5,166.2z M123.8,124.7
	c-2.7-1.5-5.3-1.8-8.1-1.5c-1.4,0.1-2.2,0.8-2.5,2.1c-0.7,3-1.5,6.1-1.2,9.2c0,0.3,0.1,0.6,0,0.9c-0.5,2.2-0.2,4.5-0.2,6.8
	c0,1.1,0.2,2.2,0.3,3.3c0.1,0.7,0.5,1.2,1.1,1.3c2.8,0.7,5.6,0.9,8.2-0.6c2.1-1.2,3.7-2.7,3.5-5.3c-0.2-2.8,0.3-5.6,0-8.4
	C124.6,129.8,124,127.3,123.8,124.7z M170.3,227.8c0.1-0.2,0.3-0.4,0.2-0.6c-0.4-2.3-0.8-4.6-1.4-6.8c-1-4.1-2.1-8.1-3.1-12.2
	c-0.5-1.9-1-3.9-1.5-5.9c-1.6-0.5-2.9,0-4.4,0.5c0.1,0.4,0.2,0.7,0.3,1c1.2,2.7,2.5,5.4,3.4,8.2c0.9,2.5,1.9,4.9,2.9,7.4
	c1,2.6,2.4,5.1,2.9,7.9C169.6,227.6,169.9,227.9,170.3,227.8z M163.7,227.5c-0.5-2.2-0.6-4.3-1.3-6.3c-0.1-0.3-0.2-0.6-0.2-0.9
	c0.2-2-0.4-3.9-0.9-5.7c-0.3-1.2-0.4-2.2-0.2-3.4c0.1-0.4,0-0.8-0.1-1.1c-0.6-2.4-1.8-4.5-3.1-6.5c0-0.1-0.1-0.1-0.2-0.2
	c-0.4-0.1-0.8-0.2-1.1-0.1c-0.2,0.1-0.4,0.5-0.4,0.7c0,0.4,0.1,0.8,0.2,1.2c0.3,1.8,0.9,3.4,1.3,5.2c0.6,2.7,1.4,5.5,2.1,8.1
	c0.8,2.7,1.7,5.3,2.5,8C162.5,227,162.6,227.6,163.7,227.5z M174.9,170.7c1.1,0,2.1-0.9,2.1-2c0-0.8-0.9-1.7-1.8-1.8
	c-0.8-0.1-2,1-2,1.9C173.3,169.8,174.1,170.7,174.9,170.7z"/>
<path fill-rule="evenodd" clip-rule="evenodd" d="M11.4,268.4c0.5-0.6,1-1.2,1.6-1.9c-0.3-0.6-0.6-1.2-0.8-1.7
	c0.6-1.2,1.6-0.8,2.6-0.7c0.1-0.2,0.4-0.5,0.4-0.8c0.2-0.7,0.8-1.1,1.4-1c1.8,0.2,3.4-0.5,5-0.9c1-0.3,2-0.4,3-0.4
	c2.4,0,4.8-0.2,7.3-0.2c0.9,0,1.7,0.1,2.6,0.2c0.7,0,1.4,0.2,2.1,0.1c1-0.1,2-0.4,2.4-1.5c0.2-0.6,0.5-1.1,0.8-1.7
	c0.3-0.5,0.5-0.9,0.9-1.5c0.3,0.6,0.5,1,0.7,1.4c0.1,0,0.3,0,0.4-0.1c0.3-0.3,0.6-0.8,0.9-1.1c0.2-0.2,0.6-0.3,0.8-0.2
	c0.5,0,0.6,0.5,0.6,0.9c0,0.5,0,0.9-0.1,1.3c0.1,0.1,0.2,0.3,0.4,0.3c2.3,0.2,3.8,1.8,5.3,3.2c1,0.9,1.2,2.1,0.9,3.5
	c-0.3,1.4,0.1,2.4,1.4,3.3c0.5-0.2,0.9-0.5,1.4-0.7c0.9-0.4,1.9-0.8,2.8-1.1c2.6-0.6,4.7,0.8,5.1,3.5c0.3,1.8-0.1,3.6-1.3,4.9
	c0.1,0.2,0.1,0.4,0.2,0.5c1.9,1.5,3.2,3.4,4.3,5.5c0.3,0.5,0.5,1,0.9,1.4c1.1,1.2,1.7,2.6,2.1,4.1c0.1,0.5,0.4,1,0.6,1.5
	c0.3,1,0.6,2.1,0.9,3.2c0.2,0.9,0.3,1.9-0.8,2.5c-0.4,1.2-1.2,2.3-2.2,2.9c-3,1.8-5.4,4.4-8.5,6.2c-3.5,2-7.2,3.4-11.1,4.2
	c-3.2,0.6-6.4,1.2-9.6,1.6c-3.3,0.3-6.5,0.6-9.8,0.8c-2,0.1-4.1,0.1-5.9-1c-2.5-0.3-4.5-2.1-7-2.6c-2.4-0.5-4.7-1.3-7.1-1.3
	c-1.8,0-3.3-0.9-4.9-1.4c-0.3-0.1-0.7-0.5-0.8-0.8c-0.5-2.4-1.5-4.7-1.1-7.3c0.3-1.6,0.8-3.2,0.6-4.8c0-0.5,0.3-1,0.6-1.5
	c0.8-1.3,1.4-2.8,2.1-4.2c1.1-2.4,2.6-4.6,4.1-6.8c0.1-0.2,0.2-0.4,0.4-0.7c-0.3-0.5-0.6-1-0.9-1.5c-1.6-2.5-0.2-5.7,1.9-6.9
	C9.6,268.5,10.5,268.5,11.4,268.4z M38.6,282.8C38.6,282.8,38.6,282.8,38.6,282.8c0.4,0.1,0.8,0,1.2,0.1c1.9,0.3,3.7-0.2,5.4-0.9
	c2.1-0.9,3.5-2.5,5-4.2c1.8-2,1.8-4.2,0.8-6.5c-1-2.3-2.9-3.8-4.7-5.4c-0.2-0.2-0.6-0.2-0.9-0.3c-1.1-0.4-2.2-0.7-3.4-1.1
	c-0.9-0.3-1.7-0.4-2.5,0c-1.8,1-4,1.3-5.5,2.9c-0.6,0.7-1.4,0.9-2.3,0.9c-1.2-0.1-2.5,0.1-3.7-0.2c-1.3-0.3-2.6-0.4-3.8-0.7
	c-0.6-0.2-1.2-0.4-1.8-0.4c-3.4-0.2-5.4,0.4-6.8,3.3c-0.2,0.4-0.4,0.8-0.7,1.2c-0.9,1.6-0.6,4.2,0.9,5.3c1.3,1,2.5,2.1,4.1,2.6
	c2.1,0.7,4.3,1.5,6.5,2.1c1.9,0.5,3.8,0.8,5.8,1C34.2,282.8,36.4,282.7,38.6,282.8z M21.1,295.1c1.4,0.4,2.6,0.7,3.9,1
	c1.9,0.5,3.8,0.9,5.5,1.8c1,0.5,1.9,1.3,3.3,0.8c0.5-0.2,1.2,0.3,1.8,0.4c0.4,0.1,0.7,0.3,1.1,0.3c0.7,0.1,1.4-0.5,1.4-1.2
	c0-1.2,0-2.3,0-3.5c0-0.2-0.1-0.4-0.2-0.7c-0.5-0.2-1.1-0.5-1.6-0.7c-1.2,0.5-2.4,0.8-3.5,1.4c-0.9,0.5-1.7,0.5-2.6,0
	c-1.6-0.8-2.7-2.1-3.8-3.4c-0.4-0.5-0.7-1.1-1.5-1.1C23.4,291.7,21.8,293,21.1,295.1z M51.3,286.6c-0.6,1.4-1.1,2.5-1.7,3.6
	c-0.8,1.6-2.2,2.6-3.7,3.5c-1,0.6-2,0-3-0.2c-0.1,0-0.2,0-0.2,0c-1.7-0.2-2.6,0.7-2.3,2.3c0.1,0.9,0.4,1.8,0.6,2.9
	c0.5,0.3,1.1,0.6,1.8,0.8c1,0.3,1.8-0.1,2.3-1c0.3-0.5,0.5-1,0.7-1.5c0.3-0.8,0.8-1.3,1.6-1.6c1.2-0.4,2.4-1,3.7-1.4
	c1.5-0.4,2.9-1.1,4.1-2c0.6-2.2-0.4-3.5-2.1-4.5C52.5,287.1,51.9,286.9,51.3,286.6z M53,270.8c0.2,1.1,0.4,2.1,0.6,3.1
	c0.1,0.7,0.6,1.1,1.3,0.9c0.9-0.2,1.8-0.4,2.7-0.7c1.6-0.5,2.2-1.5,1.9-3.2c-0.1-0.9-0.5-1.6-1.2-2.2
	C56.3,268.7,54.5,269.3,53,270.8z M12.5,270.6c-0.8,0-1.4-0.1-2-0.1c-0.7,0-1.2,0.3-1.6,0.8c-0.8,1-0.8,2-0.3,3.1
	c0.5,1,1.3,1.8,2.3,2.3c0.5,0.3,1,0.4,1.6-0.2c-0.1-0.5-0.2-1-0.4-1.5c-0.4-0.9-0.3-1.8,0.1-2.7C12.4,271.8,12.4,271.3,12.5,270.6z"
	/>
<path fill-rule="evenodd" clip-rule="evenodd" d="M108.3,178.9c2-0.5,2.8-2,3.7-3.3c0.9-1.4,2-2.6,3.2-3.7
	c4.6-4.6,10.8-4.2,15.3,0.7c1.2,1.3,2.1,2.9,2.8,4.6c0.7,2,0.8,4,0.4,6c-0.6,3.5-1.1,6.9-1.6,10.4c-0.1,0.5,0,1.1,0.1,1.6
	c0.2,1.4,0.2,1.4-1.3,2.3c-0.1,0-0.2,0-0.2-0.1c-0.9-1.9-2.1-3.6-2.4-5.7c-0.4-2.2-1-4.4-1.8-6.5c-1-2.8-3.2-4.6-6-5.4
	c-0.4-0.1-0.8-0.1-1.1,0c-2.5,0.6-4.7,1.6-6.7,3.1c-0.7,0.5-1,1.2-0.8,2c0,0.2,0,0.5,0.1,0.7c0.6,1.3,0.5,2.8,0.3,4.2
	c-0.4,2.3-0.7,4.6-1.7,6.8c-0.7,1.5-1.5,2.8-2.7,4c-1,1.1-2,2.2-3.2,3c-0.8,0.5-1.6,1-2,1.9c-0.3,0.6-0.9,0.8-1.5,1
	c-1.5,0.4-3,0.8-4.5,1.2c-0.4,0.1-0.7,0.3-1.1,0.5c-0.1,2.1-0.2,4.1,0.5,6.2c0.4,0,0.9-0.1,1.3,0c0.4,0.1,0.8,0.4,1.3,0.5
	c1,0.2,2,0.4,3,0.5c3,0.1,5.9-0.7,8.6-2c1.4-0.6,2.6-1.7,3.8-2.7c0.9-0.7,1.3-1.8,1-3c-0.1-0.5-0.2-1.1-0.4-1.6
	c-0.4-1.2-1.4-1.7-2.6-1.3c-0.5,0.2-1,0.4-1.5,0.6c-1.5,0.7-1.8,1.9-0.9,3.4c0.1,0.2,0.3,0.4,0.3,0.6c0,0.3-0.1,0.6-0.3,0.8
	c-0.2,0.2-0.6,0.3-0.8,0.2c-0.5-0.2-0.9-0.5-1.3-0.8c-0.1-0.2-0.2-0.3-0.2-0.5c-0.3-1.3-0.4-2.7,0.5-3.8c1.2-1.4,2.6-2.5,4.5-2.8
	c1.2-0.2,2.1,0.2,2.9,1.1c1.2,1.4,1.7,3.1,1.5,4.8c-0.1,1.4-0.9,2.7-2,3.6c-1.1,0.9-2.4,1.7-3.6,2.6c-0.2,0.1-0.4,0.3-0.6,0.3
	c-3.1,0.9-6.1,2-9.4,1.8c-1.5-0.1-2.9-0.3-4.4-1c0.3,1.3,1,2.1,2.3,2.4c1.2,0.3,2.4,0.7,3.6,0.9c2.9,0.4,5.7,1.1,8.3,2.3
	c1.9,0.9,3.8,1.8,5.5,3c2,1.4,3.5,3.4,4.3,5.7c0.7,2,1.3,4,1.8,6c0.3,0.9-0.7,1.9-1.7,1.7c-1.6-0.4-3.2-0.5-4.9-0.7
	c-1.9-0.2-3,0.4-3.8,2.1c-0.3,0.6-0.5,1.2-0.5,1.8c-0.3,2.2-0.6,4.3-0.9,6.5c-0.1,0.8-0.3,1.2-0.8,1.2c-0.6,0-1-0.4-1.1-1
	c-0.3-2.5-1.4-4.7-2.9-6.6c-0.9-1.1-2.1-2.1-3.3-2.9c-0.9-0.7-2.1-0.6-3.2-0.4c-1.1,0.2-2.3,0.4-3,1.5c-0.4,0.6-1.1,1-1.7,1.6
	c-1.1,1.2-1.8,2.7-2.2,4.3c-0.4,1.7-1,3.4-1.5,5.1c-0.8,0.4-1.4,0.3-1.6-0.5c-0.4-1.4-1.1-2.7-1.4-4.2c-0.5-2.6-1.6-4.9-3.1-7
	c-0.7-1-1.6-1.7-2.8-2c-1.7-0.4-3.4-0.7-5.1-0.3c-1.1,0.2-2.3,0.4-3.5,0.5c-1,0.1-2,0.5-2.8,1c-1.5,0.9-1.8,0.8-2.6-1
	c0.2-0.3,0.4-0.7,0.7-1.1c4.3-5.6,5.1-6.4,10.9-10.9c2-1.5,3.8-3.2,5.5-5.1c0.6-0.6,0.9-1.4,1.4-2.3c-0.4,0-0.7,0-0.8,0.1
	c-1.5,0.7-3.1,1.6-4.6,2.3c-2.1,0.9-4.3,1.3-6.6,1.1c-2.1-0.2-3.7-1.2-5.3-2.2c-1.3-0.8-2.4-2-3.5-3.1c-1.5-1.7-1.4-3.9,0.2-5.5
	c1.3-1.4,2.9-2.4,4.9-2.8c0.6,0.2,1.3,0.5,2.1,0.8c1.1,0.4,1.6,1.2,1.7,2.3c0,0.8-0.1,1.5-0.1,2.3c-0.4,0.1-0.7,0.1-1,0.2
	c-0.1-0.2-0.3-0.3-0.3-0.5c0-0.5,0.1-1,0-1.4c-0.5-1.8-2.6-2.4-3.7-1.4c-0.8,0.7-1.8,1.2-2.4,2.2c-0.7,1.3-0.7,2.1,0.2,3.2
	c2.4,3,5.6,4.4,9.4,4.3c1,0,2.1-0.5,3.1-0.8c2.1-0.7,4-1.8,5.7-3.2c0.4-0.3,0.7-0.7,1.1-0.8c1.3-0.4,1.6-1.4,1.6-2.5
	c0.1-1.4,0.4-2.8,0-4.2c-0.3-0.1-0.5-0.3-0.8-0.4c-1.7-0.4-3.5-0.8-5.2-1.2c-1.6-0.4-2.8-1.4-4-2.3c-1.8-1.3-3.3-2.9-4.3-4.9
	c-0.3-0.5-0.6-0.9-0.8-1.4c-1.9-3.8-2.2-7.6-0.5-11.5c0.8-1.8,1.9-3.4,3.3-4.8c2.8-2.8,5.7-5.3,8.9-7.6c2.3-1.7,4.9-2.1,7.6-1.6
	c2.6,0.4,5.2,1.2,7.8,1.8c0.8,0.2,1.5,0.4,2.1,0.9c0.1,0,0.1,0.1,0.2,0.1C104.8,175.6,106.5,177.2,108.3,178.9z M81.9,178.8
	c-0.2,0.1-0.5,0.1-0.6,0.2c-1.2,1.2-2.5,2.4-3.7,3.6c-2.6,2.7-3.3,6.1-3.6,9.7c0,0.2,0,0.5,0.1,0.7c0.8,3.2,2.2,6,4.7,8.2
	c1,0.9,2.2,1.9,3.5,2.4c2,0.8,4.2,1.2,6.3,1.8c0.4,0.1,0.9,0.1,1.4,0.2c3.1,0.2,6.1-0.2,9-1.3c2.6-1,5-2.2,5.9-5.2
	c0.1-0.3,0.3-0.5,0.5-0.8c1.4-2.6,2-5.3,1.4-8.3c-0.4-1.9-1-3.6-1.5-5.4c-0.5-1.6-1.5-2.7-2.7-3.8c-0.6-0.6-1.4-1-2.1-1.5
	c-1.3-0.8-2.8-1.4-4-2.3c-1.3-1-2.8-1.6-4.4-1.3c-3.6,0.7-6.1,1.6-5.2,5.8c0.6,0.5,1.4,0.8,2.5,0.6c-0.1-0.8-0.3-1.4-0.4-2.1
	c-0.2-0.8,0.1-1.4,1-1.6c0.5,0.7,1.2,1.3,1.6,2c0.6,1.1,0.4,2.4,0.1,3.6c-0.1,0.4-0.7,0.9-1.1,1c-0.6,0.2-1.4,0.3-2.1,0.2
	c-2-0.3-3.7-1.2-4.7-3C83,181.1,82.5,179.9,81.9,178.8z"/>
<path fill-rule="evenodd" clip-rule="evenodd" d="M165,302c2.8,1.3,5.5,2.3,8.4,3.2c1.3,0.4,2.6,0.7,3.7,1.4
	c0.5,0.3,1.2,0.4,1.7,0.6c0.4,0.7,0.4,1.3-0.1,1.8c-2.3,2.1-4,4.6-5.9,7c-1.5,2-3.2,3.8-5,5.5c-0.7,0.6-1.2,1.5-1.8,2.2
	c-1.1,1.4-1.6,1.5-3.2,1c-3.1-1.1-6.2-2.2-9.3-3.2c-1.3-0.4-2.7-0.7-4.1-1.1c-0.4,0.5-0.8,0.9-1.1,1.3c-1.1,1.8-2.3,3.6-3.5,5.3
	c-2.4,3.4-4.7,6.8-7.7,9.7c-0.6,0.5-1,1.2-1.6,1.7c-0.8,0.8-1.7,1.1-2.8,0.9c-1-0.2-2-0.5-3-0.7c-1.9-0.5-3.8-1-5.7-1.4
	c-1.1-0.3-2.3-0.5-3.4-0.8c-2.1-0.7-4.2-1.1-6.5-0.9c-0.2,0-0.3,0-0.5,0c-2-0.5-4,0-6,0.2c-1.9,0.2-3.9,0.3-5.8,0.4
	c-1.2,0-2.1-1.3-1.7-2.5c0.3-0.6,0.7-1.2,1-1.8c2-3.2,3.8-6.5,5.1-10c0.1-0.3,0.1-0.6,0.2-1c-0.4,0-0.7-0.1-0.9-0.1
	c-2.1,0.2-4.2,0.5-6.3,0.8c-1.7,0.2-3.4,0.2-5.1,0.4c-1.2,0.2-2.1-0.2-2.9-1c0.1-0.9,0.7-1.3,1.2-1.7c1.5-1.2,3.1-2.4,4.5-3.7
	c1-0.9,1.9-1.8,2.8-2.8c1.2-1.5,2.7-2.6,4.7-2.8c0.2,0,0.5-0.1,0.7-0.2c0.1,0,0.1-0.1,0.3-0.2c0-0.3-0.1-0.8-0.1-1.2
	c-0.6-3.4-1.2-6.8-1.8-10.1c-0.2-1.2-0.2-2.3-0.3-3.5c-0.4-2.5-0.9-5.1-1.4-7.6c-0.4-2.2-0.9-4.4-1.3-6.6c-0.2-0.8,0.2-1.6,1-2
	c0.1-0.1,0.3-0.1,0.4-0.1c3.2-0.8,6-2.6,9.1-3.7c1-0.3,2-0.9,3-1.4c0.5-0.2,1-0.4,1.5-0.6c0.6-0.3,1.4-0.4,1.9-0.8
	c1.1-0.9,2.2-1,3.5-0.8c0.4,0.1,0.8,0,1.2,0c2.8-0.4,5.6-0.8,8.4-1.1c0.4-0.1,0.8-0.1,1.2-0.1c3.8,0,7.5-0.6,11.2-1.2
	c2.3-0.4,4.7-0.5,7-0.7c2.4-0.2,4.8-0.5,7.3-0.7c0.6,0.3,1.1,0.7,1.6,1c1.2,3.6,1.8,7.1,2.1,10.7c0.1,1.5,0.4,2.9,0.9,4.3
	c0.8,2.2,1.2,4.5,1.4,6.9c0.2,1.6,0.3,3.3,0.4,4.9c0.1,1,0.4,2,0.6,3c0.1,0.5,0.2,1.1,0.3,1.6C164.8,300,164.9,301,165,302z
	 M102.8,280.9c-0.3,1.7,0.1,3.1,0.5,4.5c0.9,3.1,1.5,6.2,2,9.4c0.5,3.5,1,6.9,1.6,10.4c0.4,2.7,1,5.4,1.5,8c0.2,1.1,0.5,2.3,0.7,3.5
	c1.9,0.2,3.7,0.5,5.6,0.7c0.8,0.1,1.7-0.1,2.6-0.1c3.8,0,7.7-0.2,11.5,0c4.5,0.1,8.8-0.8,13.2-1.3c1.8-0.2,3.4-0.8,5.1-1.7
	c0-2.2,0.1-4.4,0-6.5c-0.1-2.2-0.3-4.3-0.4-6.5c0-1-0.2-2.1,0-3c0.5-2.5,0.2-5,0-7.5c-0.2-2.6-0.5-5.1-0.3-7.7
	c0.1-1.1,0.1-2.2-0.6-3.3c-0.7,0-1.5-0.1-2.2-0.1c-1.5,0-3,0-4.5,0.1c-2.2,0.1-4.4,0.2-6.5,0.2c-1.4,0-2.8,0-4.2,0
	c-1.2,0-2.3,0-3.5,0c-1,0-2,0.1-3,0.1c-2.4,0.1-4.8,0.3-7.2,0.3c-2,0.1-4,0-6,0C106.7,280.6,104.8,280.3,102.8,280.9z M104.3,333.4
	c0.9,0.1,1.8,0,2.7-0.1c3.8-0.2,7.6-0.8,11.4,0c2.7,0.5,5.4,0.8,8.1,1.2c1.8,0.3,3.5,0.8,5.3,0.8c1.4,0,2.3-0.5,3.2-1.4
	c3.6-3.8,6.6-8.1,9.7-12.4c0.1-0.1,0-0.4,0.1-0.7c-0.8,0-1.5,0-2.2-0.1c-3-0.4-6.1-0.1-9.1,0c-1.2,0-2.5,0.1-3.7,0
	c-2.2-0.1-4.3-0.1-6.5-0.4c-3.3-0.4-6.7-0.3-10-0.5c-1.2-0.1-2.3,0.1-3.3,1c0,1.2-0.4,2.3-0.9,3.3c-0.6,1.2-1.5,2.2-2.1,3.4
	c-0.9,1.9-1.8,3.8-2.8,5.6C104.1,333.1,104.2,333.2,104.3,333.4z M163.1,304.7c-0.6,1.4-1.6,2.4-2.7,3.3c-1,0.8-1.8,1.8-2.6,2.7
	c-1.5,1.7-2.9,3.5-4.8,4.8c-0.7,0.5-1.1,1.3-1.7,2c0.4,0.3,0.6,0.6,0.8,0.7c2.9,1.4,5.9,2.3,9,3.4c0.3,0.1,0.6,0.2,0.9,0.2
	c0.4-0.1,0.8-0.2,1-0.4c1.7-1.8,3.5-3.6,5.1-5.4c1.3-1.5,2.7-3,4.3-4.2c0.6-0.5,1.3-0.9,1.9-1.4c0.4-0.3,0.8-0.8,0.6-1.4
	C172.3,306.7,166.1,304.5,163.1,304.7z M106.1,311.5c-1.6-0.1-2.7,0.4-3.7,1.2c-1.6,1.4-3.1,2.9-4.6,4.3c-0.2,0.2-0.3,0.5-0.4,0.8
	c1.5,0.3,5,0.2,7.8-0.1c0.6-0.1,1.2-0.3,1.7-0.4C106.8,315.2,106.7,313.4,106.1,311.5z"/>
<path fill-rule="evenodd" clip-rule="evenodd" d="M196.6,279.1c3.5-0.1,6.8,0.7,10.2,1.1c0.4,0,0.8,0.2,1.2,0.2
	c2.5-0.3,4.1,1.2,5.6,2.7c1.5,1.5,2.1,3.3,1.8,5.4c-0.2,1.5-0.4,2.9-0.7,4.4c-0.5,1.7-1.8,2.8-3.4,3.3c-1.8,0.5-3.5,1.4-5.4,1.6
	c-0.6,0.1-1.2,0.1-1.8,0c-1.9-0.2-3.9-0.3-5.8-0.3c-3.3-0.1-6.7,0-9.9-1.2c-1.8-0.6-3.6-1.2-5.2-2c-1.2-0.6-2.1-1.5-2.4-3
	c-0.3-1.5-1.2-2.9-1.5-4.4c-0.7-3,0.6-5.4,3.8-6.1c1.3-0.3,2.6-0.6,3.9-0.7c2.2-0.2,4.4-0.7,6.7-0.8
	C194.6,279,195.6,279.1,196.6,279.1z M214.2,288.1c-0.3-1.7-1.2-2.9-2.2-4.1c-0.6-0.7-1.2-1.2-2.1-1.3c-1.4-0.3-2.7-0.6-4.1-0.9
	c-4.5-0.8-9.1-1.1-13.7-0.7c-1,0.1-2,0.3-3,0.3c-2.1,0.2-4.2,0.6-6.2,1.3c-2.2,0.8-2.6,2.1-2.1,4.1c0.5,1.8,1.6,3.1,3.5,3.7
	c3.1,1.1,6.3,1.7,9.5,2.4c1.4,0.3,2.9,0.5,4.4,0.6c3.1,0.2,6.3,0.6,9.3-0.2c2.9-0.7,5.5-1.7,6.5-4.9
	C214.1,288.4,214.1,288.3,214.2,288.1z"/>
<path fill-rule="evenodd" clip-rule="evenodd" fill="#3A5B50" d="M220.1,270.2c-0.7,0.6-1.2,1.6-2.6,1.6c-0.3-1.3-0.3-2.5,0-3.7
	c0.4-1.8,0.4-3.6,0.4-5.4c0-1.2,0.1-2.3,0.2-3.7c-0.9-1.4-1.2-3.1-0.9-4.9c0.1-0.6,0.2-1.3,0.1-1.9c-0.3-3.4,0.1-6.7,0.2-10
	c0.1-3.5-0.1-7-0.1-10.5c-0.1-3.2,0.1-6.4,0.2-9.6c0-0.8,0.1-1.6,0-2.3c-0.2-3.5-0.4-7-0.6-10.5c-0.1-2.5-0.1-5-0.1-7.5
	c0-1.3-0.2-2.5-0.3-3.7c-0.2-2.2-0.7-4.3-1-6.5c-0.1-0.7,0-1.4-0.1-2.1c0-0.5,0.1-1-0.1-1.4c-0.6-1.7-0.5-3.4-0.6-5.1
	c-0.1-1.6-0.4-3.1-0.6-4.6c-0.1-0.4-0.2-0.8-0.2-1.1c-0.2-3-0.4-6.1-0.5-9.1c0-0.5-0.1-0.9-0.1-1.4c-0.1-1.6-0.3-3.1-0.4-4.7
	c-0.2-4.2-0.7-8.4-1.1-12.6c-0.3-2.4-0.4-4.8-0.7-7.2c-0.3-2.1-0.5-4.2-0.1-6.3c0.1-0.5,0-0.9,0-1.4c0.1-2.2-0.3-4.4,0.1-6.5
	c0.1-0.6,0.1-1.3-0.1-1.9c-0.8-2.7-0.6-5.6-0.9-8.4c-0.3-2.6-0.3-5.1-0.5-7.7c-0.1-0.9-0.3-1.9-0.3-2.8c-0.2-2-0.2-4.1-0.4-6.1
	c-0.3-2.6-0.6-5.3-0.9-7.9c-0.1-1.2-0.2-2.5-0.4-3.7c-0.5-2.8-1-5.5-1.5-8.3c-0.1-0.4,0-0.9,0-1.5c1.5-0.3,3-0.3,4.4,0.1
	c0.9,0.2,1.4,0.8,1.5,1.6c0.3,3.1,0.6,6.2,1,9.3c0.2,1.6,0.3,3.1,0.6,4.6c0.3,1.1,0.4,2.1,0.4,3.2c0,2.1,0.2,4.2,0.3,6.3
	c0.2,3.3,0.1,6.7,0.1,10.1c0,0.5,0,1.1,0,1.6c0.1,2.2,0.4,4.4,0.5,6.6c0.1,1.9,0.6,3.7,0.3,5.6c-0.1,0.4,0.2,0.9,0.2,1.4
	c0.1,0.7,0.2,1.4,0.2,2.1c0,1.5-0.1,2.9,0.2,4.4c0.2,0.8,0,1.7,0,2.6c0,2,0,4,0,6.1c0,1.3,0,2.7-0.1,4c0,0.4-0.1,0.8,0,1.2
	c0.3,0.8,0.1,1.5,0.1,2.3c0.1,2.5-0.5,4.9,0,7.4c0.1,0.5,0,1.1,0,1.6c-0.1,1.9-0.2,3.8-0.5,5.6c-0.2,1.9,0.1,3.7,0.2,5.6
	c0.1,0.8,0.1,1.5,0.2,2.3c0.3,2.5,0.6,5,0.9,7.4c0.1,0.5,0.1,0.9,0.2,1.4c0.2,1.9,0.4,3.9,0.6,5.8c0.1,1.7,0.2,3.4,0.4,5.1
	c0.1,1.4,0.3,2.8,0.6,4.2c0.8,3.2,0.6,6.5,0.8,9.8c0.2,2.9,0,5.8,0.1,8.6c0,1.7,0.3,3.4,0.4,5.1c0.5,5.2,0.3,10.3,0.1,15.5
	c-0.2,3.4,0,6.9,0.1,10.3c0.1,2.7,0.4,5.3,0.2,8c-0.1,2.6,0.1,5.2,0.1,7.7C220.3,266.2,220.2,268.1,220.1,270.2z"/>
<path fill-rule="evenodd" clip-rule="evenodd" fill="#F5F2C5" d="M129.3,56.7c-1-0.2-2-0.4-2.9-0.8c-2.4-0.9-4.4-2.4-6.1-4.2
	c-0.3-0.4-0.6-1-0.6-1.5c0-1.3,0-2.7,0.2-4c0.3-2.1,1-4.1,1.7-6.1c0.9-2.3,1.5-4.6,1.8-7c0-0.2,0-0.4,0.1-0.5c1.3-1,1.4-2.8,2.8-3.6
	c0.3-0.2,0.6-0.3,0.8-0.4c2.6-0.2,5.2-0.6,7.6,0.5c1.7,0.8,3.4,1.6,4.8,2.8c0.6,0.5,1.2,0.9,2,1.1c1.8,0.5,3.2,1.6,4.4,2.9
	c0.9,1,2,2,2.4,3.4c0.3,1,0.4,1.8-0.1,2.7c-0.7,1.3-1.4,2.5-2.8,3.4c-1.6,1.1-2.9,2.6-4.4,3.8c-0.8,0.7-1.7,1.3-2.6,2
	c-1.1,0.9-2.4,1.8-3.4,2.8C133.5,55.9,131.6,56.7,129.3,56.7z M127.4,39.7c1.1,0,1.8-0.4,2.1-1.4c0.5-1.4-0.2-2.6-1.7-3
	c-0.6-0.1-1.1,0-1.5,0.4c-0.8,0.8-0.9,1.9-0.3,3.2C126.4,39.4,126.8,39.7,127.4,39.7z M136,40.2c-0.2-0.4-0.5-0.9-0.8-1.4
	c-0.5-0.7-1.1-0.8-1.8-0.4c-0.9,0.5-1.3,1.4-1,2.4c0.2,0.7,0.9,1.2,1.6,1.2c0.8,0,1.7-0.4,1.9-1C135.9,40.8,135.9,40.6,136,40.2z"/>
<path fill-rule="evenodd" clip-rule="evenodd" fill="#3A5B50" d="M203.4,273.4c-1.5,0.2-1.5,0.2-2.9-0.6c0-0.7,0.1-1.5,0-2.3
	c-0.2-2.5-0.4-5-0.7-7.5c-0.2-1.3-0.2-2.6,0-3.9c0.1-0.4,0.2-0.8,0.1-1.2c-0.9-3.5-0.4-7.2-1.1-10.7c-0.1-0.3,0-0.6,0-0.9
	c0.3-0.9,0.3-1.8-0.1-2.8c-0.1-0.3-0.1-0.8-0.1-1.2c0.1-1.7-0.1-3.4-0.3-5.1c-0.4-3.5-0.8-7-1-10.5c-0.1-1.9-0.1-3.8-0.1-5.6
	c0-0.9-0.2-1.9-0.3-2.8c-0.1-0.9-0.2-1.9-0.2-2.8c0-2.6,0-5.2-0.3-7.7c-0.2-1.3-0.2-2.6-0.2-4c0-2.2-0.3-4.4-0.7-6.5
	c-0.3-1.8-0.5-3.7-0.6-5.6c-0.1-1.6-0.3-3.3,0.1-4.9c0.1-0.4,0-0.9-0.1-1.4c-0.3-1.5-0.5-2.9-0.3-4.4c0.2-1.4,0-2.8-0.3-4.2
	c-0.5-2.8-0.4-5.8-0.5-8.6c0-0.9,0-1.9-0.2-2.8c-0.7-3.5-1.1-7-1.2-10.5c-0.1-1.2-0.3-2.5-0.4-3.7c-0.1-0.7-0.2-1.4-0.1-2.1
	c0.2-1.8,0.2-3.6,0.1-5.4c-0.1-1.3-0.1-2.7-0.3-4c-0.5-3.1-1-6.2-1.6-9.2c-0.3-1.5-0.8-3-1.2-4.5c-0.4-1.4-0.6-2.9-0.4-4.4
	c0.1-0.4,0-0.8-0.1-1.2c-0.2-0.8-0.3-1.7-0.6-2.5c-1.2-2.7-1.7-5.7-2.2-8.6c-0.4-2.1-0.5-4.3-0.7-6.5c0-0.5,0-1-0.1-1.4
	c-1.2-2.9-1.5-6-2.1-9.1c-0.1-0.3-0.1-0.6-0.2-0.9c-0.7-2-1.3-4-1.5-6.1c-0.2-2.3-1.4-4.3-2-6.5c-0.1-0.3-0.2-0.6-0.3-0.9
	c-0.3-1,0.1-1.5,1.1-1.3c0.2,0,0.3,0.1,0.5,0.1c1.8,0.3,2.9,1.3,3.3,3.2c0.3,1.5,1,3,1.3,4.5c0.4,1.8,0.5,3.5,0.8,5.3
	c0.3,1.8,0.5,3.6,0.7,5.3c0.3,2.8,0.6,5.6,0.8,8.4c0.1,1,0.3,2,0.5,3c0.8,3.2,1.4,6.4,2.1,9.6c0.2,0.8,0.3,1.5,0.6,2.3
	c1,3.1,1.6,6.3,1.7,9.6c0.2,3.9,0.4,7.8,1,11.7c0.4,2.5,0.9,4.9,0.7,7.5c-0.2,3.5-0.2,7,0.4,10.5c0.1,0.9,0,1.9,0,2.8
	c0,1.6,0.1,3.3,0.4,4.9c0.5,3.7,0.9,7.4,1.3,11.2c0.1,1.2,0.1,2.5,0.1,3.7c0.1,1.6,0.1,3.3,0.2,4.9c0.1,1.2,0.2,2.3,0,3.5
	c-0.1,0.4,0,0.9,0,1.4c0,0.5,0.2,1.1,0.2,1.6c0.2,3.9,0.6,7.8,0.8,11.6c0.2,2.6,0.1,5.2,0.2,7.7c0.1,2.2,0.2,4.4,0.3,6.6
	c0,1.1,0,2.2,0.1,3.3c0,1.9,0.2,3.7,0.5,5.6c0.3,1.7,0.5,3.4,0.6,5.1c0.2,2.6,0.5,5.1,0.7,7.7c0.1,0.7,0.1,1.4,0.1,2.1
	c0.1,1.4,0.1,2.8,0.3,4.2c0.2,1.3-0.2,2.6,0.2,3.9c0.8,2.7,0.5,5.4,0.7,8.1c0.1,1.3,0.4,2.6,0.6,3.9s0.3,2.6,0.5,3.9
	c0.3,2.2,0.7,4.5,1,6.7C203.2,272.7,203.3,273,203.4,273.4z"/>
<path fill-rule="evenodd" clip-rule="evenodd" fill="#D1323E" d="M197.7,20.8c-0.5,0.1-1.2,0.2-1.9,0.3c-0.3,0-0.6,0-0.9-0.1
	c-1-0.3-1.9-0.7-2.9-1c-2.3-0.9-3.6-2.6-3.9-5c0-0.2,0-0.3,0-0.5c-0.8-2.8,0.8-4.4,2.9-5.8c1.2-0.8,2.6-0.9,4-0.8
	c3,0.2,4.4,2.1,5.6,4.3c0.5,1,0.6,2.3,0.1,3.4c-0.3,0.7-0.7,1.4-1.1,2.1C199,18.7,198.4,19.7,197.7,20.8z M194.2,12.1
	c-0.7,0.2-0.8,0.5-0.7,0.9c0.1,0.9,0.3,1.8,0.3,2.8c0,0.5-0.2,1.1,0.5,1c0.3,0,0.8-0.6,0.9-0.9c0.1-0.5,0.1-1.1-0.1-1.6
	C194.9,13.6,194.5,12.9,194.2,12.1z M196.6,12.1c0.5,1.6-0.4,3.3-0.1,5.4c0.5-0.7,1-1.1,1.1-1.6c0.2-1,0.6-2.1,0.2-3.2
	C197.6,12.3,197.5,11.9,196.6,12.1z"/>
<path fill-rule="evenodd" clip-rule="evenodd" fill="#3A5B50" d="M189.1,105.5c-0.1-0.6-0.2-1-0.2-1.5c0-0.6,0.3-1,0.9-1.2
	c0.2-0.1,0.4-0.1,0.7-0.2c3.8-0.7,7.7-1.3,11.5-2c1.3-0.2,2.6-0.6,3.9-0.8c0.4-0.1,0.9,0,1.5,0c0.2,1,0.5,1.9,0.2,3.1
	c-1.9,0.7-4,0.8-5.9,1.1c-2.1,0.4-4.2,0.5-6.2,1C193.4,105.5,191.4,105.4,189.1,105.5z"/>
<path fill-rule="evenodd" clip-rule="evenodd" fill="#3A5B50" d="M195,137.3c-0.2-1.2-0.3-2.1-0.5-3c0.4-0.2,0.7-0.5,1-0.5
	c4.4-0.6,8.7-1.5,13.2-1.7c0.3,0,0.6,0.1,0.9,0.2c0.2,1,0.3,2,0,3.1c-1,0.5-2.1,0.9-3.3,1c-3,0.2-6.1,0.4-9.1,0.7
	C196.6,137.1,195.9,137.2,195,137.3z"/>
<path fill-rule="evenodd" clip-rule="evenodd" fill="#3A5B50" d="M215.5,221.4c0.2,1.3,0.3,2.4,0.3,3.6c-0.5,0.1-0.8,0.2-1,0.2
	c-3,0.2-6.1,0.4-9.1,0.6c-1.7,0.1-3.4,0.4-5.1,0.6c-0.6-1.1-0.7-2.1-0.6-3.3c0.5,0,0.8-0.1,1.2-0.1c1.6,0,3.1-0.2,4.6-0.6
	c0.8-0.2,1.7-0.3,2.5-0.3C210.5,221.8,212.9,221.6,215.5,221.4z"/>
<path fill-rule="evenodd" clip-rule="evenodd" fill="#3A5B50" d="M212.6,178c-3.2,0.7-12.1,0.3-14.9-0.6c0-0.6,0-1.3,0-2.1
	c1-0.1,2-0.2,3-0.3c1.7-0.1,3.4,0.1,5.1-0.5c0.2-0.1,0.5-0.1,0.7,0c1.5,0,3.1,0.1,4.6,0.1c0.7,0,1.3,0.4,1.4,1
	C212.6,176.4,212.9,177.2,212.6,178z"/>
<path fill-rule="evenodd" clip-rule="evenodd" fill="#3A5B50" d="M198.2,193.1c0-0.7,0-1.3,0-1.9c0.1-0.2,0.2-0.3,0.4-0.4
	c2.2-1,4.5-1.1,6.8-1.3c2.5-0.2,5-0.1,7.5-0.1c0.3,0,0.6,0.1,0.9,0.1c0.4,0.8,0.5,1.5,0.1,2.4c-0.4,0.1-0.8,0.3-1.3,0.3
	C210,192.7,200,193.3,198.2,193.1z"/>
<path fill-rule="evenodd" clip-rule="evenodd" fill="#3A5B50" d="M208.3,116.2c0.6,1.1,0.6,2,0.3,3.1c-1.2,0.1-2.4,0.3-3.5,0.3
	c-4.1-0.1-8,1-12.2,0.8c-0.2-0.7-0.5-1.3-0.7-1.9c0.3-0.2,0.5-0.4,0.7-0.5c4.6-0.9,9.3-1.2,13.9-1.8
	C207.3,116.2,207.8,116.2,208.3,116.2z"/>
<path fill-rule="evenodd" clip-rule="evenodd" fill="#3A5B50" d="M215.1,203.9c0.2,1.1,0.3,1.9,0.4,2.9c-0.4,0.2-0.8,0.5-1.2,0.5
	c-0.6,0.1-1.2,0-1.9,0c-2.9,0-5.7,0.1-8.6,0.7c-1.3,0.2-2.5,0.1-4.1-0.3c-0.5-0.6-0.3-1.3-0.1-2c3.2-1,6.4-0.8,9.7-0.9
	c1.2,0,2.3-0.3,3.5-0.4C213.4,204.3,214.1,204.1,215.1,203.9z"/>
<path fill-rule="evenodd" clip-rule="evenodd" fill="#3A5B50" d="M215.5,237.2c0,0.7,0.1,1.2,0.1,1.7c0,0.4-0.1,0.8-0.2,1.3
	c-1.4,0-2.7,0.1-4,0.1c-2.3,0-4.7,0-7,0c-0.7,0-1.4-0.1-2.1-0.2c-0.7-0.2-1-0.7-0.9-1.4c0.8-0.8,1.9-0.9,2.9-0.9
	c2.1-0.1,4.2-0.1,6.3-0.2c0.7,0,1.4-0.1,2.1-0.1C213.6,237.3,214.4,237.2,215.5,237.2z"/>
<path fill-rule="evenodd" clip-rule="evenodd" fill="#3A5B50" d="M195.9,148.8c0-0.6-0.1-1.1-0.1-1.6c2.5-0.6,12-1.3,14.1-1.1
	c0.1,0.4,0.3,0.9,0.4,1.5c0.1,0.8-0.3,1.1-1.1,1.1c-2.7-0.2-5.3,0-7.9,0.4C199.5,149.3,197.8,149.4,195.9,148.8z"/>
<path fill-rule="evenodd" clip-rule="evenodd" fill="#3A5B50" d="M211.1,163c-4.8,0.5-9.7,0.8-14.6,0.5c-0.3-0.4-0.4-1-0.1-1.5
	c0.3-0.5,0.8-0.7,1.4-0.7c0.4,0,0.8,0,1.2,0c3.3,0.1,6.7,0,10-0.3c0.3,0,0.6-0.1,0.9-0.1C211.2,160.9,211.5,161.3,211.1,163z"/>
<path fill-rule="evenodd" clip-rule="evenodd" fill="#3A5B50" d="M215.2,252.3c0.3,0.9,0,1.6-0.9,1.8c-1.3,0.4-2.5,0.8-3.9,0.5
	c-1.4-0.2-2.8-0.5-4.2-0.7c-1.2-0.2-2.5-0.3-3.7-0.4c-0.3-1.2-0.3-1.2,0-2.6c2,0.8,4.1,0.9,6.2,0.5c0.1,0,0.2,0,0.2,0
	C211.1,251.8,213.2,252,215.2,252.3z"/>
<path fill-rule="evenodd" clip-rule="evenodd" fill="#3A5B50" d="M204.6,266.6c-0.4-1-0.9-1.8-0.3-2.6c1.3,0.3,2.4,0.7,3.6,0.7
	c2.2,0.1,4.5,0.1,6.7,0.1c0.1,0,0.1,0,0.2,0.1c0.3,0.6,0.2,1-0.5,1.2c-2.3,0.7-4.7,1.2-7.1,0.8C206.5,266.8,205.6,266.7,204.6,266.6
	z"/>
<path fill-rule="evenodd" clip-rule="evenodd" fill="#F5F2C5" d="M43.2,138c-0.2-0.5-0.4-0.8-0.4-1.2c0.3-1.9,0.7-3.8,1-5.7
	c0-0.2,0.1-0.4,0.2-0.7c0.2-0.5,0.3-1.1-0.3-1.5c-0.5-0.4-1-0.3-1.5-0.1c-0.6,0.3-1.3,0.5-2,0.7c-0.1,0.1-0.3,0.2-0.4,0.2
	c-0.7,0.1-1.4,0.5-1.9-0.1c-0.4-0.5,0-1,0.2-1.5c0.4-1.4,0.6-2.9,1.6-4.1c0.6-0.7,1.1-1.5,1.7-2.2c1.8-2,3.9-3.5,6.3-4.8
	c1.5-0.8,2.9-0.6,4.2,0.3c0.8,0.5,1.5,1.1,2.3,1.7c1.6,1.3,2.9,4.4,2.7,6.5c-0.2,1.4-0.5,2.8-0.8,4.1c-0.3,1.3-1,2.4-2.1,3.3
	c-0.4,0.3-0.8,0.7-1.2,1.1c-1.2,1.3-5.3,3.6-7.1,3.9C44.8,137.9,44,137.9,43.2,138z M43.5,125c1.2,0.6,2.2,0.8,3.1-0.2
	c0.8-0.8,1-1.5,0.7-2.3c-0.4-0.9-1.3-1.3-2.3-1.1c-0.5,0.1-1,0.3-1.5,0.5C42.8,123,43,124,43.5,125z M49.8,123.5
	c0.1,0.5,0.2,1.1,0.4,1.6c0.2,0.6,0.9,1,1.5,0.9c0.8-0.1,1.6-0.2,1.9-1.1c0.3-0.9,0.1-1.7-0.5-2.4c-0.5-0.5-1.2-0.4-1.8-0.3
	C50.8,122.4,50.3,122.8,49.8,123.5z"/>
<path fill-rule="evenodd" clip-rule="evenodd" fill="#D1AA31" d="M41.3,163.3c0.6-0.7,1.1-1.4,1.6-1.9c1-1.1,1.8-1.2,3.1-0.6
	c1,0.5,1.4,1.4,1.7,2.4c0,0.1,0,0.3,0,0.5c-0.4,1.5-2.4,2.9-3.9,2.8c-0.8-0.1-1.5-0.4-1.8-1.2C41.8,164.6,41.6,164.1,41.3,163.3z"/>
<path fill-rule="evenodd" clip-rule="evenodd" fill="#D1AA31" d="M44.6,154.6c-0.5-0.4-1-0.7-1.5-1c-0.7-0.4-0.8-1.1-0.9-1.8
	c-0.1-0.9,0.5-1.7,1.5-1.8c0.8-0.1,1.6-0.2,2.3-0.2c1-0.1,1.9,0.5,2.2,1.3c0.4,1,0.2,1.8-0.7,2.5C47,154.2,46.9,154.2,44.6,154.6z"
	/>
<path fill-rule="evenodd" clip-rule="evenodd" fill="#D1AA31" d="M44.4,176.3c0.1,1.7-0.5,2.6-1.7,3.1c-0.7,0.3-1.4,0.2-2-0.3
	c-0.6-0.5-1-1.2-0.8-2.1c0.3-1.3,1.2-2.2,2.2-2.9c0.2-0.2,0.8-0.1,1.1,0.1C44.2,174.8,44.4,175.7,44.4,176.3z"/>
<path fill-rule="evenodd" clip-rule="evenodd" fill="#D1AA31" d="M53.7,115.6c-0.5-0.3-0.9-0.4-1.2-0.6c-0.2-0.1-0.3-0.3-0.4-0.4
	c0.1-1.2,0.2-2.4,0.3-3.5c0.1-1.1,0.6-1.9,1.5-2.5c0.5-0.3,1-0.5,1.4-0.6c0.6,0.2,0.8,0.6,0.7,1.1C55.4,111.2,54.7,113.3,53.7,115.6
	z"/>
<path fill-rule="evenodd" clip-rule="evenodd" fill="#F5F2C5" d="M123.8,124.7c0.2,2.7,0.8,5.2,1.1,7.7c0.4,2.8-0.1,5.6,0,8.4
	c0.2,2.7-1.5,4.2-3.5,5.3c-2.6,1.5-5.4,1.2-8.2,0.6c-0.6-0.2-1.1-0.6-1.1-1.3c-0.1-1.1-0.3-2.2-0.3-3.3c-0.1-2.3-0.4-4.5,0.2-6.8
	c0.1-0.3,0-0.6,0-0.9c-0.3-3.2,0.6-6.2,1.2-9.2c0.3-1.3,1.2-1.9,2.5-2.1C118.5,122.8,121.1,123.1,123.8,124.7z M118.7,135.3
	c1.7,0,2.6-1,3.2-2.5c-0.4-0.2-0.9-0.4-1.3-0.6s-0.8-0.4-1.2-0.6C117.5,132.9,117.5,132.9,118.7,135.3z M116.1,131.8
	c-1.3-1.2-2.3-0.1-3.3,0c-0.6,2,1,2.2,2,3C115.9,134.1,116.1,133,116.1,131.8z"/>
<path fill-rule="evenodd" clip-rule="evenodd" fill="#A6AAD5" d="M170.3,227.8c-0.5,0.1-0.7-0.3-0.7-0.5c-0.5-2.8-1.9-5.2-2.9-7.9
	c-0.9-2.5-2-4.9-2.9-7.4c-1-2.8-2.3-5.5-3.4-8.2c-0.1-0.3-0.2-0.6-0.3-1c1.5-0.5,2.8-1,4.4-0.5c0.5,2,1,3.9,1.5,5.9
	c1.1,4.1,2.2,8.1,3.1,12.2c0.5,2.3,0.9,4.5,1.4,6.8C170.6,227.5,170.4,227.7,170.3,227.8z"/>
<path fill-rule="evenodd" clip-rule="evenodd" fill="#A6AAD5" d="M163.7,227.5c-1.1,0.1-1.2-0.5-1.4-1c-0.9-2.7-1.8-5.3-2.5-8
	c-0.8-2.7-1.5-5.4-2.1-8.1c-0.4-1.7-0.9-3.4-1.3-5.2c-0.1-0.4-0.2-0.8-0.2-1.2c0-0.3,0.2-0.7,0.4-0.7c0.3-0.1,0.7,0.1,1.1,0.1
	c0.1,0,0.1,0.1,0.2,0.2c1.3,2,2.6,4.1,3.1,6.5c0.1,0.4,0.1,0.8,0.1,1.1c-0.2,1.2-0.1,2.2,0.2,3.4c0.5,1.8,1.1,3.7,0.9,5.7
	c0,0.3,0.1,0.6,0.2,0.9C163.1,223.2,163.2,225.3,163.7,227.5z"/>
<path fill-rule="evenodd" clip-rule="evenodd" fill="#A46684" d="M174.9,170.7c-0.9,0-1.7-0.9-1.7-1.9c0-0.9,1.1-2,2-1.9
	c1,0.1,1.9,1,1.8,1.8C177,169.8,176.1,170.8,174.9,170.7z"/>
<path fill-rule="evenodd" clip-rule="evenodd" fill="#F5F2C5" d="M38.6,282.8c-2.2-0.1-4.4,0-6.5-0.2c-1.9-0.2-3.9-0.5-5.8-1
	c-2.2-0.6-4.3-1.4-6.5-2.1c-1.6-0.5-2.8-1.6-4.1-2.6c-1.5-1.2-1.8-3.7-0.9-5.3c0.2-0.4,0.5-0.8,0.7-1.2c1.4-2.9,3.4-3.5,6.8-3.3
	c0.6,0,1.2,0.2,1.8,0.4c1.3,0.4,2.6,0.4,3.8,0.7c1.2,0.3,2.5,0.1,3.7,0.2c0.9,0.1,1.7-0.2,2.3-0.9c1.5-1.7,3.7-2,5.5-2.9
	c0.8-0.4,1.7-0.3,2.5,0c1.1,0.4,2.2,0.7,3.4,1.1c0.3,0.1,0.6,0.1,0.9,0.3c1.8,1.6,3.7,3.1,4.7,5.4c1,2.4,1,4.5-0.8,6.5
	c-1.5,1.6-2.9,3.3-5,4.2c-1.8,0.8-3.5,1.2-5.4,0.9C39.4,282.8,39,282.9,38.6,282.8C38.6,282.8,38.6,282.8,38.6,282.8z M37.2,274.1
	c1.2-0.1,1.9-0.9,1.9-2.2c-0.1-0.8-1.2-1.5-2.2-1.4c-0.8,0.1-1.7,1-1.7,1.7C35.2,273.1,36.3,274.2,37.2,274.1z M28.8,271.7
	c-0.7,0.7-0.7,1.4-0.5,2.1c0.2,0.7,0.5,1.3,1.2,1.6c0.4-0.1,0.8-0.2,1.1-0.3c1.3-0.5,1.5-1.9,0.4-2.7
	C30.5,271.8,29.7,271.6,28.8,271.7z"/>
<path fill-rule="evenodd" clip-rule="evenodd" fill="#F5F2C5" d="M21.1,295.1c0.7-2.2,2.3-3.5,3.6-4.8c0.9,0.1,1.1,0.7,1.5,1.1
	c1.1,1.3,2.3,2.6,3.8,3.4c0.9,0.5,1.7,0.5,2.6,0c1.1-0.6,2.3-0.9,3.5-1.4c0.5,0.2,1.1,0.5,1.6,0.7c0.1,0.3,0.2,0.5,0.2,0.7
	c0,1.2,0,2.3,0,3.5c0,0.7-0.7,1.3-1.4,1.2c-0.4,0-0.7-0.2-1.1-0.3c-0.6-0.2-1.3-0.6-1.8-0.4c-1.3,0.4-2.2-0.3-3.3-0.8
	c-1.7-0.9-3.6-1.3-5.5-1.8C23.7,295.8,22.5,295.5,21.1,295.1z"/>
<path fill-rule="evenodd" clip-rule="evenodd" fill="#F5F2C5" d="M51.3,286.6c0.6,0.3,1.2,0.5,1.7,0.8c1.7,1,2.7,2.4,2.1,4.5
	c-1.3,0.8-2.6,1.6-4.1,2c-1.3,0.3-2.5,0.9-3.7,1.4c-0.8,0.3-1.3,0.8-1.6,1.6c-0.2,0.5-0.4,1-0.7,1.5c-0.5,0.9-1.4,1.4-2.3,1
	c-0.7-0.2-1.3-0.6-1.8-0.8c-0.2-1-0.4-1.9-0.6-2.9c-0.2-1.6,0.7-2.5,2.3-2.3c0.1,0,0.2,0,0.2,0c1,0.2,2,0.8,3,0.2
	c1.5-0.9,2.9-1.9,3.7-3.5C50.2,289.1,50.6,288,51.3,286.6z"/>
<path fill-rule="evenodd" clip-rule="evenodd" fill="#F5F2C5" d="M53,270.8c1.6-1.6,3.3-2.2,5.3-2.1c0.7,0.6,1.1,1.3,1.2,2.2
	c0.2,1.7-0.3,2.7-1.9,3.2c-0.9,0.3-1.8,0.5-2.7,0.7c-0.7,0.1-1.2-0.2-1.3-0.9C53.4,272.9,53.2,271.9,53,270.8z"/>
<path fill-rule="evenodd" clip-rule="evenodd" fill="#F5F2C5" d="M12.5,270.6c-0.1,0.6-0.1,1.2-0.3,1.6c-0.4,0.9-0.4,1.8-0.1,2.7
	c0.2,0.5,0.3,1,0.4,1.5c-0.5,0.6-1.1,0.5-1.6,0.2c-1-0.6-1.8-1.3-2.3-2.3c-0.5-1.1-0.5-2.1,0.3-3.1c0.4-0.5,0.9-0.9,1.6-0.8
	C11.2,270.6,11.8,270.6,12.5,270.6z"/>
<path fill-rule="evenodd" clip-rule="evenodd" fill="#F5F2C5" d="M81.9,178.8c0.6,1.2,1.1,2.3,1.7,3.4c1,1.8,2.7,2.8,4.7,3
	c0.7,0.1,1.4,0,2.1-0.2c0.5-0.2,1-0.6,1.1-1c0.3-1.2,0.5-2.5-0.1-3.6c-0.4-0.7-1-1.3-1.6-2c-0.8,0.3-1.1,0.8-1,1.6
	c0.1,0.7,0.3,1.3,0.4,2.1c-1.1,0.2-1.8-0.1-2.5-0.6c-0.9-4.2,1.6-5.1,5.2-5.8c1.5-0.3,3,0.2,4.4,1.3c1.2,0.9,2.7,1.5,4,2.3
	c0.7,0.4,1.5,0.9,2.1,1.5c1.2,1,2.2,2.2,2.7,3.8c0.5,1.8,1.2,3.5,1.5,5.4c0.6,3,0,5.7-1.4,8.3c-0.1,0.3-0.4,0.5-0.5,0.8
	c-0.9,3-3.3,4.2-5.9,5.2c-2.9,1.1-5.9,1.6-9,1.3c-0.5,0-0.9,0-1.4-0.2c-2.1-0.6-4.3-1-6.3-1.8c-1.3-0.5-2.4-1.4-3.5-2.4
	c-2.5-2.2-3.9-5-4.7-8.2c-0.1-0.2-0.1-0.5-0.1-0.7c0.3-3.6,1-7,3.6-9.7c1.2-1.2,2.4-2.4,3.7-3.6C81.4,178.9,81.7,178.9,81.9,178.8z
	 M82.6,194.3c-1.8,0.9-1.8,2.5-1.8,4.1c0.8,0.2,1.4,0.4,2.1,0.6c0.4-0.3,0.8-0.6,1.1-0.9c0.4-0.4,0.7-0.8,1.1-1.1
	C84.5,195.1,84.5,195.1,82.6,194.3z M87.8,198.7c0.6,0.3,1,0.6,1.5,0.8c1.2,0.4,2-0.1,2.1-1.4c0.1-1-0.5-1.7-1-2.4
	c-2.2,0-2.3,0.1-2.5,2.1C87.8,198,87.8,198.3,87.8,198.7z"/>
<path fill-rule="evenodd" clip-rule="evenodd" fill="#D0CB93" d="M102.8,280.9c2-0.7,3.8-0.3,5.7-0.4c2-0.1,4,0,6,0
	c2.4-0.1,4.8-0.2,7.2-0.3c1-0.1,2-0.1,3-0.1c1.2,0,2.3,0,3.5,0c1.4,0,2.8,0,4.2,0c2.2-0.1,4.4-0.2,6.5-0.2c1.5,0,3-0.1,4.5-0.1
	c0.8,0,1.5,0,2.2,0.1c0.7,1.1,0.6,2.3,0.6,3.3c-0.1,2.6,0.1,5.1,0.3,7.7c0.2,2.5,0.5,5,0,7.5c-0.2,1-0.1,2,0,3
	c0.1,2.2,0.3,4.3,0.4,6.5c0.1,2.2,0,4.4,0,6.5c-1.7,0.9-3.3,1.5-5.1,1.7c-4.4,0.5-8.7,1.4-13.2,1.3c-3.8-0.1-7.7,0-11.5,0
	c-0.9,0-1.7,0.2-2.6,0.1c-1.9-0.2-3.7-0.4-5.6-0.7c-0.3-1.3-0.5-2.4-0.7-3.5c-0.5-2.7-1-5.4-1.5-8c-0.6-3.5-1.1-6.9-1.6-10.4
	c-0.5-3.2-1.1-6.3-2-9.4C102.9,284.1,102.6,282.6,102.8,280.9z M130.2,289.4c-0.8,0.2-1.6,0.4-2.3,0.7c-0.4,0.2-0.8,0.5-1,0.9
	c-0.4,1-0.7,2.1-0.4,3.2c0.4,1.6,1.2,2.1,2.9,2.1c0.3,0,0.6,0,0.9,0c1,0,1.6-0.5,2-1.3c0.6-1.3,0.7-2.6-0.3-3.7
	C131.5,290.6,130.9,290.1,130.2,289.4z M121,289.5c-0.6,0.2-1.4,0.3-2.2,0.6c-0.8,0.2-1,0.9-1.1,1.6c-0.2,2.1,1.7,4.1,3.9,4
	c1.7,0,2.7-0.9,2.9-2.7C124.8,290.6,123.3,289.6,121,289.5z M108.3,294.6c0.1-0.4,0.2-0.7,0.2-0.9c-0.5-3.2-1.1-6.4-1.1-9.7
	c0-0.3-0.2-0.6-0.4-0.8c-0.2-0.2-0.6-0.3-0.8-0.3c-0.2,0.1-0.5,0.4-0.5,0.7c0.1,1.2,0.1,2.3,0.4,3.5c0.5,2.3,1,4.5,1.5,6.8
	C107.7,294.1,108,294.2,108.3,294.6z M111,292.3c0.4-0.1,0.4-0.4,0.3-0.7c-0.7-1.2-0.7-2.5-0.8-3.8c0-1.3-0.3-2.6-0.4-3.9
	c-0.9-0.1-1,0.5-1.1,1c-0.1,1.6,0.2,3.1,0.6,4.6C109.9,290.8,109.9,290.8,111,292.3z"/>
<path fill-rule="evenodd" clip-rule="evenodd" fill="#D0CB93" d="M104.3,333.4c-0.1-0.2-0.2-0.3-0.1-0.4c1-1.8,1.9-3.7,2.8-5.6
	c0.6-1.2,1.5-2.2,2.1-3.4c0.6-1.1,0.9-2.1,0.9-3.3c1-0.8,2-1.1,3.3-1c3.3,0.2,6.7,0.1,10,0.5c2.2,0.3,4.3,0.3,6.5,0.4
	c1.2,0.1,2.5,0.1,3.7,0c3-0.1,6.1-0.4,9.1,0c0.7,0.1,1.4,0.1,2.2,0.1c0,0.3,0,0.5-0.1,0.7c-3.1,4.3-6,8.6-9.7,12.4
	c-0.9,1-1.8,1.5-3.2,1.4c-1.8-0.1-3.5-0.5-5.3-0.8c-2.7-0.4-5.4-0.7-8.1-1.2c-3.8-0.8-7.6-0.2-11.4,0
	C106.1,333.4,105.2,333.5,104.3,333.4z M135.8,329c0.5-0.5,0.9-1,1.3-1.4c0.8-1,1.6-2.1,2.3-3.2c0.3-0.5,0.3-1-0.7-1.2
	c-1.2,1.5-2.3,3.2-3.4,4.8C135.1,328.3,135.2,328.7,135.8,329z M133.3,326.2c0.3,0,0.6,0.1,0.8,0c0.8-0.6,1.5-1.3,1.8-2.3
	c0.1-0.2,0-0.7-0.2-0.8c-0.2-0.1-0.6,0-0.8,0.2C134,324,133.3,324.8,133.3,326.2z"/>
<path fill-rule="evenodd" clip-rule="evenodd" fill="#D0CB93" d="M163.1,304.7c3-0.2,9.2,1.9,11.9,4.1c0.2,0.6-0.2,1.1-0.6,1.4
	c-0.6,0.5-1.3,0.9-1.9,1.4c-1.6,1.2-3,2.7-4.3,4.2c-1.6,1.9-3.4,3.6-5.1,5.4c-0.2,0.2-0.7,0.4-1,0.4c-0.3,0-0.6-0.1-0.9-0.2
	c-3-1-6.1-2-9-3.4c-0.3-0.1-0.5-0.4-0.8-0.7c0.6-0.7,1-1.5,1.7-2c1.9-1.3,3.2-3.1,4.8-4.8c0.8-0.9,1.7-1.9,2.6-2.7
	C161.6,307.1,162.6,306.1,163.1,304.7z M165.1,306.1c-2.8,1.6-3.8,2.8-3.8,4.6c1.5-1,2.7-2.3,3.9-3.6
	C165.3,307.1,165.2,306.7,165.1,306.1z"/>
<path fill-rule="evenodd" clip-rule="evenodd" fill="#D0CB93" d="M106.1,311.5c0.6,1.9,0.7,3.8,0.8,5.8c-0.5,0.1-1.1,0.4-1.7,0.4
	c-2.7,0.4-6.3,0.4-7.8,0.1c0.1-0.3,0.2-0.6,0.4-0.8c1.5-1.5,3-3,4.6-4.3C103.4,311.9,104.5,311.4,106.1,311.5z M103.9,313.2
	c-1.1,1-1.8,1.6-2.5,2.2c-0.3,0.4-0.3,0.9,0.3,1.3c1-0.4,1.8-1,2.3-2C104.2,314.5,104,314.1,103.9,313.2z"/>
<path fill-rule="evenodd" clip-rule="evenodd" fill="#BBB74A" d="M214.2,288.1c-0.1,0.2-0.1,0.3-0.1,0.4c-1,3.2-3.6,4.3-6.5,4.9
	c-3.1,0.7-6.2,0.4-9.3,0.2c-1.5-0.1-3-0.3-4.4-0.6c-3.2-0.7-6.4-1.2-9.5-2.4c-1.9-0.7-3-1.9-3.5-3.7c-0.5-2-0.1-3.3,2.1-4.1
	c2-0.7,4.1-1.1,6.2-1.3c1-0.1,2-0.3,3-0.3c4.6-0.5,9.2-0.1,13.7,0.7c1.4,0.2,2.7,0.6,4.1,0.9c0.9,0.2,1.6,0.7,2.1,1.3
	C213,285.1,213.9,286.4,214.2,288.1z M198.7,284.1c0.4,0.5,0.7,0.8,1,1.1c-1.4,1.4-3.9,1.1-4.8,3.2c1.2,0.7,2-0.7,3-0.2
	c0.7,0.5,1.4,1,2.1,1.4c0.4,0.2,0.5,0.5,0.6,0.9c0.2,1.1,0.3,1.2,1.2,0.9c0.9-0.3,1.8-0.5,2.3-1.5c0.1-0.2,0.4-0.3,0.6-0.4
	c1.6-0.9,3.2-1.7,4.7-2.6c0.7-0.4,1.6-0.7,2.1-1.6c-0.4-0.1-0.6-0.3-0.7-0.2c-2.2,1.1-4.7,1.7-6.6,3.4c-0.5,0.4-1.1,0.7-1.7,0.5
	c-1.1-0.4-2.2-0.8-3.1-1.8c1.4-1.2,2.7-2,4.4-0.8c0.3,0.2,0.7,0.4,1.1,0c-0.2-0.4-0.4-0.9-0.7-1.5c1-0.5,1.9-1,2.8-1.4
	c0.1-0.7-0.3-0.9-0.7-0.9c-0.8,0.1-1.5,0.4-2.2,0.7C201.4,284.5,201.4,284.5,198.7,284.1z M193.3,285.4c0.8-0.4,1.4-0.7,2-1
	c0.7-0.4,1.4-0.7,2-1.2c0.2-0.1,0.2-0.5,0.3-0.8c-0.3,0-0.6-0.2-0.8-0.1c-1.1,0.5-2.3,1-3.4,1.6c-1.6,0.8-3.1,0.8-4.7,0.1
	c-0.7-0.3-1.5-0.5-2.2-0.7c-0.1,0-0.3,0.1-0.4,0.2c-0.1,0.1-0.1,0.3-0.1,0.4c0.3,0.4,0.6,0.8,0.9,1c0.5,0.3,1.1,0.5,1.6,0.7
	c0.1,0.5,0.1,0.8,0.2,1.1c0,0.1,0.1,0.1,0.2,0.2c0.3,0,0.6,0.2,0.9,0.1c0.8-0.4,1.6-0.2,2.5,0c0.7,0.1,1.5,0.5,2.3-0.2
	C194.2,286.2,193.9,285.9,193.3,285.4z M192.3,290.1c-0.2-0.5-0.3-0.7-0.4-0.7c-0.5-0.3-1.1-0.7-1.6-0.9c-1.6-0.6-3.2-1.2-4.6-2.1
	c-0.3-0.2-0.7-0.3-1.1-0.3c-0.1,0-0.3,0.2-0.4,0.4c-0.1,0.1,0,0.3,0.1,0.4c0.1,0.1,0.2,0.2,0.4,0.3c2.1,0.9,4.1,1.8,6.2,2.7
	C191.1,290.2,191.6,290.1,192.3,290.1z"/>
<path fill-rule="evenodd" clip-rule="evenodd" d="M127.4,39.7c-0.6,0-1-0.3-1.3-0.8c-0.7-1.3-0.6-2.4,0.3-3.2
	c0.4-0.4,0.9-0.5,1.5-0.4c1.5,0.4,2.2,1.5,1.7,3C129.2,39.3,128.5,39.7,127.4,39.7z"/>
<path fill-rule="evenodd" clip-rule="evenodd" d="M136,40.2c-0.1,0.4-0.1,0.6-0.1,0.7c-0.2,0.6-1.1,1-1.9,1c-0.7,0-1.4-0.6-1.6-1.2
	c-0.3-0.9,0.2-1.9,1-2.4c0.7-0.4,1.3-0.3,1.8,0.4C135.5,39.3,135.8,39.8,136,40.2z"/>
<path fill-rule="evenodd" clip-rule="evenodd" d="M194.2,12.1c0.3,0.8,0.7,1.5,0.9,2.2c0.1,0.5,0.2,1.1,0.1,1.6
	c-0.1,0.4-0.5,0.9-0.9,0.9c-0.6,0-0.5-0.6-0.5-1c-0.1-0.9-0.2-1.8-0.3-2.8C193.4,12.6,193.5,12.3,194.2,12.1z"/>
<path fill-rule="evenodd" clip-rule="evenodd" d="M196.6,12.1c0.9-0.2,1,0.2,1.2,0.7c0.4,1.1-0.1,2.1-0.2,3.2
	c-0.1,0.4-0.6,0.8-1.1,1.6C196.1,15.4,197.1,13.8,196.6,12.1z"/>
<path fill-rule="evenodd" clip-rule="evenodd" d="M43.5,125c-0.5-1-0.7-2,0-3c0.4-0.2,0.9-0.4,1.5-0.5c1-0.2,1.9,0.2,2.3,1.1
	c0.4,0.8,0.1,1.5-0.7,2.3C45.7,125.8,44.7,125.6,43.5,125z"/>
<path fill-rule="evenodd" clip-rule="evenodd" d="M49.8,123.5c0.5-0.8,1-1.2,1.6-1.3c0.6-0.1,1.3-0.2,1.8,0.3
	c0.6,0.7,0.8,1.5,0.5,2.4c-0.3,0.9-1.2,1-1.9,1.1c-0.6,0.1-1.3-0.3-1.5-0.9C50.1,124.6,50,124.1,49.8,123.5z"/>
<path fill-rule="evenodd" clip-rule="evenodd" d="M118.7,135.3c-1.2-2.4-1.2-2.5,0.7-3.6c0.4,0.2,0.8,0.4,1.2,0.6s0.8,0.4,1.3,0.6
	C121.3,134.3,120.4,135.3,118.7,135.3z"/>
<path fill-rule="evenodd" clip-rule="evenodd" d="M116.1,131.8c0,1.3-0.1,2.3-1.3,3c-0.9-0.8-2.5-1-2-3
	C113.8,131.7,114.8,130.6,116.1,131.8z"/>
<path fill-rule="evenodd" clip-rule="evenodd" d="M37.2,274.1c-0.9,0-2-1-2-1.9c0-0.7,0.9-1.6,1.7-1.7c1-0.1,2.1,0.6,2.2,1.4
	C39.1,273.2,38.4,274.1,37.2,274.1z"/>
<path fill-rule="evenodd" clip-rule="evenodd" d="M28.8,271.7c0.9-0.1,1.6,0.1,2.3,0.6c1.1,0.8,0.9,2.2-0.4,2.7
	c-0.4,0.1-0.7,0.2-1.1,0.3c-0.8-0.2-1-0.9-1.2-1.6C28.2,273.1,28.2,272.4,28.8,271.7z"/>
<path fill-rule="evenodd" clip-rule="evenodd" d="M82.6,194.3c1.9,0.8,1.9,0.8,2.5,2.7c-0.3,0.3-0.7,0.7-1.1,1.1
	c-0.3,0.3-0.7,0.6-1.1,0.9c-0.7-0.2-1.4-0.4-2.1-0.6C80.8,196.7,80.8,195.2,82.6,194.3z"/>
<path fill-rule="evenodd" clip-rule="evenodd" d="M87.8,198.7c0-0.5,0-0.7,0-0.9c0.2-2,0.3-2,2.5-2.1c0.6,0.7,1.1,1.4,1,2.4
	c-0.1,1.3-0.9,1.8-2.1,1.4C88.8,199.4,88.4,199,87.8,198.7z"/>
<path fill-rule="evenodd" clip-rule="evenodd" d="M130.2,289.4c0.7,0.7,1.3,1.2,1.9,1.9c1,1.1,0.9,2.4,0.3,3.7
	c-0.4,0.8-1.1,1.3-2,1.3c-0.3,0-0.6,0-0.9,0c-1.7,0-2.4-0.6-2.9-2.1c-0.3-1.1-0.1-2.2,0.4-3.2c0.2-0.4,0.6-0.7,1-0.9
	C128.6,289.8,129.4,289.6,130.2,289.4z M129.7,294.6c0.2,0,0.6-0.1,0.9-0.3c0.2-0.1,0.5-0.4,0.5-0.7c0.2-1-1.1-2.1-2.1-1.9
	c-0.8,0.2-1.2,0.7-1.1,1.5C128.1,294.2,128.6,294.6,129.7,294.6z"/>
<path fill-rule="evenodd" clip-rule="evenodd" d="M121,289.5c2.3,0.1,3.7,1.1,3.5,3.6c-0.2,1.8-1.3,2.6-2.9,2.7c-2.1,0.1-4-2-3.9-4
	c0.1-0.8,0.3-1.4,1.1-1.6C119.6,289.8,120.5,289.6,121,289.5z M122.9,293.5c0-0.4,0.1-0.9,0-1.3c-0.1-0.3-0.5-0.7-0.7-0.8
	c-1-0.1-2-0.2-2.7,0.7C120.3,294.2,120.6,294.3,122.9,293.5z"/>
<path fill-rule="evenodd" clip-rule="evenodd" d="M108.3,294.6c-0.3-0.3-0.6-0.5-0.6-0.7c-0.5-2.3-1.1-4.5-1.5-6.8
	c-0.2-1.1-0.3-2.3-0.4-3.5c0-0.2,0.3-0.6,0.5-0.7c0.2-0.1,0.6,0.1,0.8,0.3c0.2,0.2,0.4,0.5,0.4,0.8c0,3.3,0.5,6.5,1.1,9.7
	C108.5,293.9,108.4,294.1,108.3,294.6z"/>
<path fill-rule="evenodd" clip-rule="evenodd" d="M111,292.3c-1.1-1.5-1.1-1.5-1.4-2.8c-0.4-1.5-0.7-3-0.6-4.6c0-0.5,0.1-1.1,1.1-1
	c0.1,1.3,0.4,2.6,0.4,3.9c0,1.3,0.1,2.6,0.8,3.8C111.4,291.9,111.4,292.2,111,292.3z"/>
<path fill-rule="evenodd" clip-rule="evenodd" d="M135.8,329c-0.6-0.3-0.7-0.7-0.5-1c1.1-1.7,2.2-3.3,3.4-4.8c0.9,0.2,1,0.7,0.7,1.2
	c-0.7,1.1-1.5,2.1-2.3,3.2C136.7,328,136.3,328.5,135.8,329z"/>
<path fill-rule="evenodd" clip-rule="evenodd" d="M133.3,326.2c0.1-1.4,0.8-2.2,1.6-2.9c0.2-0.2,0.6-0.3,0.8-0.2
	c0.2,0.1,0.3,0.5,0.2,0.8c-0.3,1-1,1.7-1.8,2.3C133.9,326.3,133.5,326.2,133.3,326.2z"/>
<path fill-rule="evenodd" clip-rule="evenodd" d="M165.1,306.1c0,0.5,0.2,0.9,0.1,1.1c-1.1,1.3-2.3,2.5-3.9,3.6
	C161.4,308.9,162.4,307.7,165.1,306.1z"/>
<path fill-rule="evenodd" clip-rule="evenodd" d="M103.9,313.2c0.1,0.8,0.3,1.3,0.2,1.5c-0.5,1-1.4,1.6-2.3,2
	c-0.6-0.4-0.6-0.9-0.3-1.3C102.1,314.8,102.8,314.2,103.9,313.2z"/>
<path fill-rule="evenodd" clip-rule="evenodd" d="M198.7,284.1c2.6,0.5,2.6,0.5,5.3-0.6c0.7-0.3,1.5-0.5,2.2-0.7
	c0.4-0.1,0.7,0.2,0.7,0.9c-0.8,0.4-1.8,0.9-2.8,1.4c0.3,0.6,0.5,1,0.7,1.5c-0.4,0.4-0.8,0.2-1.1,0c-1.7-1.1-3.1-0.4-4.4,0.8
	c0.9,1,2,1.4,3.1,1.8c0.6,0.2,1.2-0.1,1.7-0.5c1.9-1.7,4.4-2.3,6.6-3.4c0.1-0.1,0.4,0.1,0.7,0.2c-0.5,0.9-1.4,1.2-2.1,1.6
	c-1.5,0.9-3.1,1.7-4.7,2.6c-0.2,0.1-0.5,0.2-0.6,0.4c-0.4,1-1.4,1.2-2.3,1.5c-0.9,0.3-1.1,0.2-1.2-0.9c-0.1-0.4-0.2-0.7-0.6-0.9
	c-0.7-0.5-1.4-1-2.1-1.4c-1-0.4-1.9,0.9-3,0.2c0.9-2.1,3.3-1.8,4.8-3.2C199.4,284.9,199.1,284.5,198.7,284.1z"/>
<path fill-rule="evenodd" clip-rule="evenodd" d="M193.3,285.4c0.6,0.5,0.9,0.8,1.4,1.2c-0.8,0.6-1.6,0.3-2.3,0.2
	c-0.9-0.2-1.6-0.3-2.5,0c-0.2,0.1-0.6,0-0.9-0.1c-0.1,0-0.2-0.1-0.2-0.2c-0.1-0.3-0.1-0.6-0.2-1.1c-0.5-0.2-1.1-0.4-1.6-0.7
	c-0.4-0.2-0.6-0.6-0.9-1c-0.1-0.1,0-0.3,0.1-0.4c0.1-0.1,0.3-0.2,0.4-0.2c0.7,0.2,1.5,0.4,2.2,0.7c1.6,0.8,3.1,0.8,4.7-0.1
	c1.1-0.6,2.2-1.1,3.4-1.6c0.2-0.1,0.5,0.1,0.8,0.1c-0.1,0.3-0.1,0.7-0.3,0.8c-0.6,0.4-1.3,0.8-2,1.2
	C194.7,284.7,194.1,285,193.3,285.4z"/>
<path fill-rule="evenodd" clip-rule="evenodd" d="M192.3,290.1c-0.7-0.1-1.2,0-1.6-0.1c-2.1-0.9-4.1-1.8-6.2-2.7
	c-0.1-0.1-0.3-0.2-0.4-0.3c-0.1-0.1-0.1-0.3-0.1-0.4c0.1-0.2,0.3-0.4,0.4-0.4c0.4,0,0.8,0.1,1.1,0.3c1.4,0.9,3,1.5,4.6,2.1
	c0.6,0.2,1.1,0.6,1.6,0.9C192,289.5,192.1,289.7,192.3,290.1z"/>
<path fill-rule="evenodd" clip-rule="evenodd" fill="#FFFFFF" d="M129.7,294.6c-1.2,0-1.6-0.4-1.7-1.4c-0.1-0.8,0.3-1.3,1.1-1.5
	c1-0.2,2.2,0.9,2.1,1.9c0,0.3-0.3,0.6-0.5,0.7C130.3,294.5,129.9,294.6,129.7,294.6z"/>
<path fill-rule="evenodd" clip-rule="evenodd" fill="#FFFFFF" d="M122.9,293.5c-2.3,0.8-2.6,0.7-3.5-1.3c0.7-0.9,1.7-0.8,2.7-0.7
	c0.3,0,0.6,0.4,0.7,0.8C123,292.6,122.9,293.1,122.9,293.5z"/>
</svg>
