<?xml version="1.0" encoding="utf-8"?>
<!-- Generator: Adobe Illustrator 16.0.0, SVG Export Plug-In . SVG Version: 6.00 Build 0)  -->
<!DOCTYPE svg PUBLIC "-//W3C//DTD SVG 1.1//EN" "http://www.w3.org/Graphics/SVG/1.1/DTD/svg11.dtd">
<svg version="1.1" id="Layer_1" xmlns="http://www.w3.org/2000/svg" xmlns:xlink="http://www.w3.org/1999/xlink" x="0px" y="0px"
	 width="2834.6px" height="2097.6px" viewBox="0 0 2834.6 2097.6" enable-background="new 0 0 2834.6 2097.6" xml:space="preserve">
<path fill-rule="evenodd" clip-rule="evenodd" d="M1848.3,1124.2c71.5-6.9,153.6,43.1,192.7,101.9c20.7,31.1,27,63.5,38,98.2
	c13.1,41.4,11.8,82.5-0.2,123.9c-20.9,72.8-99.9,125.6-175.2,121.5c-38-2.1-76.3-8.4-108.6-30.3c-13.1-8.9-30.1,6.2-40.6,13.3
	c-17.9,12.1-38.5,21.1-59.1,27.6c-37.3,11.8-74.4,6.4-111.1-5.2c-37.6-11.8-62.6-30.7-94.9-51.8c-9.6-6.3-34.9,9.9-45.1,11.8
	c-16.4,3-37.3,1.7-53.3-2.5c-37.2-9.8-78.7-24.6-97.2-61.4c-34.9-69.7,13-148.3,80.9-171.3c17.8-6,35.9-8,54.6-6
	c8.6,0.9,17.1,2.9,25,6.7c4.4-7,9-14,13.3-21.1c21.5-34.9,48-62.1,81.6-85.4c7.4-5.1,20.9-10.6,23.7-20.1c3.7-12.5-2-32.3-4-44.9
	c-2.2-13.7-5.1-28.2-11.3-40.8c-5.2-10.4-30.6-0.8-41-0.7c-48.4,0.3-96.7-57.5-106.7-101.2c-1.4-6-1.6-23.1-8.1-26.5
	c-12.9-6.6-31.9-7.2-46-10.6c-23.2-5.6-53.5-18.4-71.4-34c-55.3-48-26.1-106.5,16.5-149.7c-38.7-17.5-77,20.7-116.9,6
	c-46.1-17-18.1-63,15.3-76.5c39.1-15.8,62.2,10,86.5,36.3c17.3,18.7,27.8,19,51.3,10.2c5.7-22.3,2.8-45.4-4.3-67.1
	c12.4,19.4,13.4,42.7,12.4,65c5.1-2.2,15.2-4.2,17.2-10.5c2.2-6.9-0.9-14.6,3.7-20.9c5.8,3.4,3.4,18.4,3.6,23.8
	c8.6-2.5,23.1-2.4,23.5-12.3c0.6-13.4-2.6-26.6-1.2-40c2.6-26,22.7-49.8,44.8-62.4c19.4-11.1,31.1-36.5,47.2-54
	c20.4-22,45.7-39.1,74.8-47.2c26.6-7.4,57-8.2,83.5-0.2c13.5,4.1,29.1,9.3,40.2,18.4c14,11.4,12.9,21.6,32.6,13.7
	c59.7-23.8,117.9-35,173.4,5.5c19.5,14.2,42.3,32.7,52.3,55.3c4.3,9.6,0.9,26.9,8.5,34c8.6,8.1,22,10.6,31.2,19
	c45.5,41.2,44.5,114.7,30.3,169.3c-6.9,26.6-20.8,59.5-43.2,77c-7.3,5.7-18.9,8.7-18.5,19.8c0.6,17.1,0.6,34.5-0.9,51.6
	c-2.8,33.4-30.6,53.5-56.2,71.2C1868.3,1067.1,1857.4,1097.3,1848.3,1124.2C1855.4,1123.5,1850.1,1119,1848.3,1124.2z
	 M1742.1,1499.1c6.5-10.5,70.3,38.7,83.4,44.1c35,14.5,78.7,20.5,115.8,12.3c79.8-17.5,120.4-106.1,123.4-181.3
	c1.8-44.7-7.3-80.4-24.6-121.8c-16.3-39.1-50-63-82.9-87.4c-31.7-23.5-73-32.6-111.6-33.9c-2.1,7.9-4,32.4-12.6,36.1
	c-9.9,4.3-11.1-33.1-13-40.4c-28.1,15.3-56.5,20.6-81,44.1c-12,11.5-22.6,24.3-33.9,36.5c-7.8,8.4-14.2,1.9-6.7-6.5
	c9.7-10.8-17.9-18.8-25.2-20.9c-20.4-5.9-6.2,21.7-18.5,30.4c-9.2,6.6-11.7-22.1-12.6-26.3c-3.2-16.2-18.6-9.9-31.4-7
	c-32.5,7.2-61.8,24.9-86.2,47.3c-21.5,19.8-51.1,53.6-43.8,85.4c2.5,10.8,13.5,16.4,10.6,27.6c-10.5-3.3-19.2-14.5-29.1-20.5
	c-33.1-20-70.2-14.7-103.7,2c-55.2,27.4-88.8,113.9-39.9,162.8c50.1,50.1,130.5,55.1,186.3,13c5.6-4.2,18.2-24.4,26-21.9
	c9.4,3,1.1,27.8,1.8,33.6c4.2,33.3,43.8,59.5,75.2,63.4c32.7,4.1,64.6,11.5,93.7-9.6C1725.2,1543.2,1756.3,1532.7,1742.1,1499.1
	C1745.8,1493,1743.8,1503.1,1742.1,1499.1z M1501.2,727.3c6.9,4.3,15.6,4.2,23.4,6.5c11.2,3.3,23.4,11.9,35,12.6
	c18.3,1.2,37.7-41.1,47-53.5c25.7-34.5,81.3-9.3,98.6,21c10.8,18.8,17.8,36.9,6.1,57.3c-12.4,21.5-33.1,21.5-50.4,5.1
	c-28.7-27.1-86.9-29-79.2,21.3c6.9,45.2-18.2,84.4-52.1,111c-17,13.3-34.1,27.7-54.2,36.2c-10.5,4.5-21.5,7.8-32.5,11
	c-13.8,4.1-29.3-0.8-26.5,16.2c6.6,39.3,38.7,80.3,76.9,92.7c19.9,6.5,50.5,10.4,65.9-7.6c10-11.7-9.5-31.5-12.1-45.3
	c4.9-2.2,56.9,65.3,66.9,73.1c30.7,24,70.1,26.3,106.4,17.2c26.6-6.6,64.5-29.8,73.7-57.1c3.9-11.5,13.5,13.7,20.6,16.3
	c16.5,6,35.2-4.3,50.1-10.5c31.1-13,63.7-30.9,71-66.7c6.5-32,7.1-76.7-8.5-106.3c-8.3-15.9,5.8-4.4,10.2,1.1
	c7,8.8,19.5,17.5,30.8,10.9c14.5-8.4,20.4-32.7,26.8-46.9c9.3-20.6,13.3-45.3,13.3-67.9c0.1-38.6-8.3-69.3-32.7-99.6
	c-10.9-13.5-22.9-21.1-39.2-26.8c-6.3-2.2-28.1,1.9-18.9-10c8.4-10.9,21.8-12.3,11.8-30.6c-8.4-15.4-23.4-27.7-36.8-38.7
	c-32.3-26.6-73.3-40.3-115-31.8c-31.6,6.5-66.4,18.2-92.9,36.9c-16.7,11.8-8-0.2-5.2-8.8c4.3-13.4-11.5-28.6-21.4-34.2
	c-73.4-42-153.8,14.1-191.7,75c3.8,1,7.5,2.1,11.3,3.1c-14.4,14.4-37.6,15.1-52.9,28.4c-18.4,16-25.4,42.6-21.7,66.1
	c4.1,26.4,24.6,18.6,47.5,19.3c20.6,0.7,18.7,0.2,23.9-19.2c3-11.3,8-26.7,21.3-29.5c-5.2,9.5-25.9,37.4-16.3,48.8
	c10.7,12.7,28.6-25,43.5-23.4C1513,707.1,1506.6,716.9,1501.2,727.3C1503.5,728.7,1506.6,716.7,1501.2,727.3z M1405.5,849
	c-7.6,54.1,55.9,68.4,94.8,58c44.4-11.9,78.3-53.8,71.6-101.1c-6.7-47.1-57.3-73.3-100.7-55.6C1427.9,768.1,1404.3,801,1405.5,849
	C1404.3,857.8,1404.7,814.8,1405.5,849z M1407,792.7c-22.9-29.2-67.1-37.8-98.8-17.5c-30.8,19.6-63.1,73.6-42.5,109.4
	c22.3,38.8,73.1,48.5,111.8,26c8.5-4.9,19.2-12.5,23.7-21.6c4.5-9.1-3.5-21.5-5-30.6C1392.1,834.9,1398.5,814.1,1407,792.7
	C1405.1,790.2,1404.2,799.8,1407,792.7z M1668.5,1168.7c10.3,5,21.3,8.7,31.5,14.1c12.8,6.7,19.1-6.6,27.7-15.3
	c21.2-21.4,23.6-30.1,16.1-60c-15.3,9.2-33.4,2.2-47.5,10.8C1683,1126.5,1674.7,1154.9,1668.5,1168.7
	C1671.5,1170.1,1671.1,1163,1668.5,1168.7z M1638.8,1163.5c0.8-15.8-3.1-32-5.1-47.7c-0.9-6.9-8.1-17.6-13.8-6.6
	c-6.8,13.2-8.8,27.1-11.5,41.5C1604.3,1173.3,1621.5,1165.1,1638.8,1163.5C1639,1160.6,1629.3,1164.4,1638.8,1163.5z M1818.1,1120.5
	c-0.7-11.7-4.4-48.3-21.3-41.5c-9.3,3.8-16,41.3-16.7,50.3C1792.6,1125.3,1804.5,1118.6,1818.1,1120.5
	C1817.1,1104.3,1803.9,1118.6,1818.1,1120.5z"/>
<path fill-rule="evenodd" clip-rule="evenodd" d="M756.8,1619.4c-10.1,5.3-30.2,10.8-32.8,23.6c-3.6,17.7-7.2,35.4-13.3,52.4
	c-6.6,18.6-10.8,38.6-15.3,57.9c-0.6,2.6-4.3,58.8-17.3,36.9c-9.7-16.3-10.6-41.1-14.5-59.5c-3.6-17.4-8.6-34-13.4-51.1
	c-9.2-33-19.5-76.5-57.4-87.9c-19-5.7-37.7-6.5-56.1-15.3c-12.2-5.8-23.4-22.5-30.8-33.4c-26.6-39.1-22.2-75.1-11.6-118.7
	c5.2-21.3-4.3-22.1-16.2-39c-13.4-18.9-13.1-35.8-40.3-31.5c-19,3-38.1,3.9-56.5,10.2c-12.5,4.3-43.8,25.6-56.5,19.3
	c-3.9-11.5,30-33.6,37.2-40.5c15.2-14.5,31.1-28.2,47.2-41.7c13.6-11.4,31.1-22.2,39.9-38.1c9.6-17.5,12.8-37.8,23-55.8
	c18.9-33.4,40.4-64.6,70.7-88.7c14-11.1,29.6-20.7,45.8-28.1c8.2-3.7,16.7-6.1,25.7-6.8c10.3-0.8,21.1,5.7,29-3.3
	c27.5-31.1,54.1-38.9,94.1-42.6c8.3-0.8,26-24.5,32.9-30.2c15.5-12.8,32.7-29.6-1.8-31.4c-31.7-1.7-87.8,14.7-114.6-4.3
	c-38.7-27.4,10.2-65.9,35.7-78c24.8-11.8,69.8-26.1,86.9,5.6c13.9,25.9,12.3,76.9,52,74.5c40.2-2.5,70-2.7,107.6,14.1
	c13.5,6,21.7,27.2,34.4,30.5c14.1,3.6,40.6-23.9,49.9-32.6c23.3-21.8,58.6-45.4,84.3-10.5c12.8,17.4,41.3,75.2-1.3,78.6
	c-37.5,3-69.7-34.2-107.9-15.3c-15.9,7.9-16.3,13.2-14.7,30c2.1,23.3,5.8,26.7,21.4,43.9c15.7,17.4,25,36.8,29.3,59.8
	c2.8,15.3,35-15.7,41.5-20.5c18.4-13.6,39.7-27.1,60.5-36.9c11.8-5.5,39.5-21.8,37,3.1c5.7-1.3,10.8,1.3,15.4-3.8
	c-18.6-11.7-1-4.6,3.2-13c5.2-10.5-20.9-1.7-22.9-8.5c13.6-9.9,13.2-6,5.4-16.5c7.9-4.3,12.8-17.8,1.3-10.4
	c-9.2,5.9-10.9,19-22.3,24.4c6.5-21.3,19.9-40.1,31.6-59c5.7-9.3,11.5-15.2,19.1-22.8c-5.4-8.3-10.5-16.5-14.3-25.7
	c-15.6-37.6,46.6-68.1,70.8-85.9c-0.6,18.9,15,41.7,9,60c-7.2,21.9-13.8,37.4-31.1,52.5c-12.2,10.7-2.7,5.9-3.7,19.7
	c-0.8,11.5-6.4,23.2-9.6,34.1c-7.7,26.2-10.4,53.1-15.1,80c-2.7,15.6-1.6,32.8-20.5,35.1c-6.7,0.8-51.2-9.6-43.3-22.1
	c4.3-6.8,13.4,1.4,16.7,3.8c4.2-8,11.8-9.9,20.2-8.3c9.8,1.8,25.4-6.6,7.7-9.6c-11-1.8-22.1-0.4-32.6,3.1
	c7.7-14.7,30.3-13.4,41.8-7.6c2.4-17-21.6-14.3-33.6-10.2c-21.1,7.2-36.5,39.6-49.5,56.7c-14.2,18.6-25,37.4-36.4,57.8
	c-6.2,11-11.6,22.4-17.5,33.5c-4.5,8.5,1.7,17.4,1.9,26.5c0.3,21.3-3,44.1-12,63.6c-9.4,20.5-25.3,29.3-16.8,51.6
	c15,39.3,8.9,92.2-22.3,122c-15.4,14.7-34.3,25-54.1,32.4c-8.8,3.3-9,13.6-14.8,20.3c-7.2,8.3-16.5,15.1-25.4,21.4
	c-10.2,7.2-34.6,16.1-39,28.2c-8.9,24.3-10.6,53.7-15.5,79.1c-2,10.3-4,20.5-5.9,30.7c-1.4,7.8-0.2,24.1-4.8,30.8
	c-14.9,21.5-27.8-35.1-30.2-42.1c-8.1-23.2-13.9-47-19.7-70.9C794.2,1638.7,783.1,1633.6,756.8,1619.4
	C748.6,1623.7,767.1,1625,756.8,1619.4z M873,1566.4c20.6-12.8,53.3-0.1,76.7-5.4c26.8-6,49.3-20.9,63.3-44.3
	c12.4-20.7,24.8-49.7,13.4-73.4c-3.8-7.9-11-18.6-21.4-16.2c-10.3,2.3-19.2,20.3-29.6,19.4c-26.6-2.4,26.1-38,30.7-42.7
	c19.1-19.5,33.1-41.6,39.3-68.4c5.9-25.5,6.1-55.3-8.4-78.4c-14.7-23.4-32.7-32-55.5-45.2c3.2-11.3,26,10.2,32.4-3.6
	c5.6-12,9.1-19.3,6.6-33.1c-5.5-31-22.3-59.5-48.9-76.6c-25.1-16.2-64.5-26.8-93.2-18.7c-33.8,9.6,11.2,38.7,5,62.4
	c-10.7-7.3-17.4-27.9-23.8-39.2c-7.2-12.9-13.5-19.5-25.7-28c-24.8-17.2-52.4-25.8-82.6-26.9c-62.6-2.3-107.7,29.2-124.7,90.7
	c-9.2-8.3-3.1-15.6-3.3-25.4c-0.1-11.9-21-15.9-29.4-13.4c-28.5,8.7-53.2,31.6-72.7,53.3c-19.8,22-38.1,48.6-47.8,76.8
	c-11.2,32.4-6.5,66.2-0.9,99.3c4.4,25.7,15.7,49.3,33.5,68.4c10.1,10.8,22,21.2,34.4,29.3c-1.8-1.2,21.3,14,6.1,13
	c-19-1.3-19.2-18.9-36.9-2.2c-10.3,9.7-15.2,24.7-15.7,38.5c-1,28.1,14.4,53.9,31.9,74.4c14.4,16.8,40.9,27.7,62.6,29
	c12.8,0.7,23.1-6.5,34.8-6.9c5.6-0.2-4.6,15.8-1.2,20.2c17.6,23.4,49.4,28,76,31.5c11.7,1.6,28.7,3,36.9-8
	c9.6-12.8-7.7-26.4-14.4-35.7c-8-11.1,0.6-15.3,9.6-8.3c10.6,8.4,15.8,23.2,26.6,32.4c23,19.4,56.7,31.3,86.6,26.3
	c26.5-4.4,57.1-11.9,72.5-35.6C933.6,1568.4,887,1577.5,873,1566.4C879.2,1562.6,875.8,1568.5,873,1566.4z M1253.5,908.3
	c-26.3,21.5-72.5,61.7-41,98.4c12.4,14.4,32.7-20.8,36-29.5C1257.6,953.6,1253.4,932.8,1253.5,908.3
	C1248.1,912.8,1253.4,928.5,1253.5,908.3z M1219.5,1039.6c12.6-22.8-21.4-26.8-25.9-6.7C1202.2,1035.2,1210.8,1037.4,1219.5,1039.6
	C1222.5,1034.2,1210.3,1037.3,1219.5,1039.6z M1191.4,1160.7c-9.6-1.5-19-4.6-28.4,0.2C1170.5,1169.2,1187.7,1175.5,1191.4,1160.7
	C1182.2,1159.3,1189.8,1167.3,1191.4,1160.7z M1202.1,1106.9C1206.8,1089.9,1184,1101,1202.1,1106.9
	C1203.8,1100.7,1194.9,1104.6,1202.1,1106.9z M1212.2,1051.9c-7.6-9-9.2-9.4-16.2-5.1C1199.5,1054.6,1208.6,1044.3,1212.2,1051.9z
	 M1195.4,1083.3C1184.4,1075.7,1181.2,1091.9,1195.4,1083.3C1192.2,1081,1192,1085.4,1195.4,1083.3z M1191.4,1115.4
	c2.1,4,4.8,5.7,9.3,4.1C1198.2,1112.7,1197.9,1112.6,1191.4,1115.4z M1196.9,1089.4c2.9-0.3,5.8-0.6,8.7-1
	C1203.5,1081.3,1199.6,1082.2,1196.9,1089.4C1200.8,1089,1199,1083.6,1196.9,1089.4z M1200.5,1061.6c-1.2-4-7-14.6-10.3-3.3
	C1193.7,1059.4,1197.1,1060.5,1200.5,1061.6C1199.4,1058,1195.8,1060.1,1200.5,1061.6z M1196.9,1070c-2.2-3.7-4.6-4.9-8.7-2.6
	C1190.1,1071.9,1192.2,1074.1,1196.9,1070z M1210.6,1064.6c2.6-5.9-1.1-7.5-5.4-4.7C1206.1,1062.5,1207.9,1064,1210.6,1064.6
	C1212.4,1060.5,1209.1,1063.9,1210.6,1064.6z M1177.1,1056.4c2.1,3.3,4.2,3.5,6.2,0.7C1183.4,1053.9,1181.3,1053.6,1177.1,1056.4
	C1180.1,1060.2,1179.5,1055.9,1177.1,1056.4z"/>
<path fill-rule="evenodd" clip-rule="evenodd" d="M2190.3,483.7c4.8-11.2,0.8-29.8,0.1-41.6c-1.1-18.2-4.4-38-2.1-56.2
	c2.9-22.5-58.5-16.3-74.6-16.5c-36.7-0.4-75.1,3-111.8,5c-17.4,0.9-36.9-0.4-54.1,2.6c-8.4,1.5-5.5,26.7-5.8,32.8
	c-5.2-6-4.2-17.1-4.7-24.7c-0.8-11.5-7.4-5.6-15.2-9.1c21-8.8,52-7.8,74.6-7.6c27.6,0.2,55.3-2.2,82.8-3.2c26.6-1,53.3-2,79.9-2.5
	c30.5-0.6,30.4,4.6,28.9-28.9c-0.5-12.2,6.6-64.3-3.1-72.1c-6.8-5.4-28.8-0.4-37-0.2c-12.9,0.4-25.5-1-38.3-2
	c-12.2-1-50.9-12.8-50.5,7.3c0.4,19.9,9.5,55-2.5,71.8c-4.3-20.4-3.6-41.2-4.5-61.9c-0.6-14.4,3.4-19.9-12.8-20.3
	c-14.3-0.3-28.6-0.7-42.9-1c-45.7-0.9-95.1,5-140.3-1.4c21.5-12.1,56.3,0,80-4.6c13.1-2.6,3.7-70.6,3.8-82.1
	c0.2-15.1,2.4-30.8,1.1-45.9c-1-11.8-12.3-8.2-21.1-8.1c-13.6,0.3-82.7,8.2-87-3.4c46.4-5.8,94.6-1.7,141.2-1.5
	c26,0.1,52-0.3,77.9-0.6c10.8-0.1,9.7,0.9,9.1-11.9c-0.7-14.2-1.3-28.4-2-42.6c11.1-1.9,6.3,46.8,13,53.2c5.2,5,20.4,2,26.6,2
	c16.8-0.1,33.5,1.3,50.3,1.5c12.5,0.1,24.9,0,37.4,0c4.8-14.3,2-32.1,1.8-47.1c-0.1-12.3-0.3-24.6-0.8-36.9
	c-0.3-8.3,10.4-22.7,12.1-8.5c3.1,25.8,1.5,54.8,0.3,80.8c-0.2,5-3.5,18.2,2.4,22c5,3.3,25.6,5.2,29.9,0.6c5.2-5.7,1.4-26,1.6-33.3
	c0.4-17.5,1.2-35,1.6-52.5c0.3-10.2-3.5-22.8-1.3-32.4c12.5-1,11.4,14.2,23,22.2c-5.2,3.9-9.6-4.2-14.1,2.7c6.6,5,13.1,10,19.7,15
	c-5.1,0.5-15.3-4.8-18.4-0.8c-5,6.5,10.4,15.2,14.3,17c-3.9,5.6-8.7,1.5-14.6-0.3c3,11.1,16.6,9.6,21.8,18.6
	c-6.8,3.9-16.6-3.8-22.4-6.7c-1.9,12.6,11.4,13.2,16.3,22.1c-6.1-0.7-12.2-1.5-18.3-2.2c2.2,9.1,11.2,12,16.8,18.4
	c-5.6,3.7-10.8-2.6-16.4,0.9c1.5,9.5-1.4,12,9.6,12.4c16.2,0.7,30.2,3.3,46.2,6.1c28.4,5-3.7,64.1-4.1,76.7
	c-3,84.9-7.4,171.7-3.6,256.6c0.8,16.8-1.5,34.7,0.2,51.3c0.7,6.6-0.9,18.3,2.9,24c3.6,5.4,9.9,7.7,11.3,14.7
	c2.5,12.5,9.6,29.3-0.2,40.5c-13.2,15-9,32.7-9,52.7c-0.1,82.8-3.1,165.6-3.7,248.4c-0.3,42-0.2,84,0.2,126.1
	c0.2,18.2,26.9,70.3-5.6,76.2c1.6,83.1-0.9,166.3,1.3,249.5c1,38.5,1.5,76.5,5.8,114.8c0.7,6.3,7.7,8,9.9,13.4
	c0.9,2.2,0.4,14,0.3,16.6c-0.1,6-1.4,12-4.9,17c-2.7,3.7-6.1,6.6-10.2,8.7c1.1,6.9,2.3,13.8,3.4,20.7c5.9,35,7.8,61.8,40.1,82.3
	c8.6,5.4,24.7,11.5,21.9,24.5c-4.2,19.2-18,35.4-39.1,33.1c-74-8.1-83.1-78-83.6-139.8c-0.1-12.9,1.5-23.5-14.6-19.4
	c-19.5,4.9-19.2,18.8-19.1,36.1c0.1,38.1-0.2,76.4,3.6,114.3c1.7,17.1,3.1,35,7.1,51.7c3.8,16,21.4,9.5,34.7,8.9
	c38.5-2,76.6,1.3,114.9-1.8c36.1-2.9,72,4.1,107.9,2.7c4.5-0.2,11,5,5.1,9.2c-4.7,3.3-14.9,0.3-19.9-0.2
	c-14.7-1.6-31.7-3.9-41.3,10.2c-3.1-1.7-3.8-4-2.1-6.9c2.4-8-16.7-5.9-20.4-6c-19-0.3-24.2,1.1-37,14c0.3-5,0.6-7.6,2.4-12.5
	c-18.2,0-36.5,0-54.7,0c-9,0-16.5-3.3-21.4,5.3c-4.4,7.7-8.4,15.4-16.6,19.7c0.6-10.1,10.7-15.7,11.5-25.7
	c-18.2,0.4-36.5,1.6-54.6,3.9c-17.4,2.2-14.3,16-29.3,21.5c2.5-7,4.9-14,7.4-21c-17.3,1-35,1-52.1,2.2c-12.6,0.9-17,23.1-28.2,19.4
	c3.3-6.3,6.5-12.5,9.8-18.8c-18.8,0-37.6,0-56.4,0c-14.6,0-26.1,23.3-36.4,32.1c-1.8-9.5,12.7-23.7,17.5-30.5
	c-14.3-2.4-28.8-0.3-43.2-0.1c-23.2,0.3-29.1,1.2-44,19.3c-7.4-3.6,4.9-13.5,4.2-19.5c-18.4,0-38-2-56.3,0.2
	c-12.8,1.5-17.8,23.2-23.9,32.5c-5-11.1,4.2-23.1,8.8-32.6c-13.8,0-27.5-0.3-41.3,0.5c-21.9,1.2-22.8,8.2-38.2,22.4
	c-0.4-8.2,7.8-13.1,9.1-20.9c-16-4.2-32.3,1.5-48.5-1.2c-7.9,11.7-14.2,24.7-24.4,34.7c-0.1-13.4,13.2-21.7,14.2-34.9
	c-14.9,0-32.4-3.1-46.9-1.6c-14.3,1.5-18.1,24.4-30.4,29.9c0.9-10.9,9-18.2,13.7-27.4c-8.8-5.6-22.6-2.9-32.9-3.5
	c-12.6-0.7-20,18.5-27.1,26.7c-2-10.4,8-16.7,8.4-26.5c-10.6-0.2-28-6.5-37.7-2.9c-9.6,3.6-9.5,17.9-18.6,23.2
	c-4.6-4.1,12.1-21.7,4.4-22.1c-13.5-0.7-26.9-1.4-40.4-2c-10.8-0.5-23.1-2.9-33.9-1.5c-9,1.1-17.2,14.7-24.4,12.8
	c1.3-3.4,2.7-6.7,4-10.1c-7.7-2.3-16.4-2.6-24.4-2.2c-13.8,0.7-16.6,18.4-28.9,19c3.3-5.8,6.5-11.5,9.8-17.3
	c-8.4-1.4-28.8-5.4-35.4,0.8c-9.5,8.8-16.1,23.1-23.3,33.9c-3.7-11.8,10-25.9,15.6-35.5c-13-2.5-26.2-3-39.4-2.3
	c-17,0.9-9.3,14.6-23.2,21.6c-2.5-8.6,6.6-13.1,7.7-20.9c-12.6-1.6-26.1-1.6-38.7,0.1c-9,1.2-15.2,15.6-23.2,12.6
	c1.2-3.5,2.4-7.1,3.6-10.6c-20.8,0-48.7,7.4-68.2,0.5c-6.8-2.4-0.5-9.3,4.2-9.4c14.4-0.5,28.7-0.9,43.1-1.5
	c51.7-2.4,102.8-10.7,154.4-10.3c101.4,0.7,202.1,12.4,303.3,14.7c104.6,2.4,210-8.8,314.5-3.4c24.2,1.2,48.4-0.8,72.7-0.8
	c12,0,24.1,0.9,36.1,0.9c15.1,0.1,27.4,4.4,26.8-12.7c-2-59.4-4-118.9-6-178.3c-8.3,1.3-16.5,2.7-24.8,4c-1.4-6.8,21.4-6.7,25.7-6.2
	c0-41.9,0-83.8,0-125.6c-7.8-0.2-14.1,5-22.2,2.8c4.1-5.3,9.8-8.1,16.4-9.1c12.6-1.9,6-14,5.7-24.5c-0.4-20.7,0.3-42.3,1.3-63
	c2-44.8-3-89.2-0.8-134.1c-6.1,0.3-12.3,0.6-18.4,1c5-5.4,11.7-5,18.3-3.9c4-55.7,11.1-113.9,8.4-169.7c-1.4-29.2-1.4-57.8-0.5-87
	c0.4-12.9,0.5-25.8,0.5-38.7c0-20.3-6.8-14.4-23.5-11.1c11.3-12.2,24-3,23.4-22.2c-0.5-15.6-0.8-31.2-2-46.8
	c-1.3-17.2-3.4-34.3-5.2-51.5c-1.8-17.4-8-14.1-23.8-12.8c8.5-10.8,23.9-0.6,24.4-17.5c0.6-22.6,1.4-44.9,3.4-67.5
	c4.1-47.1,0.4-94.3,0.7-141.5c0.1-17.4-0.1-21-18.5-21c-20.7,0-44.7-7.2-64.7-4.7c-19.6,2.4-39.5-0.4-59.2,1
	c-13.9,1-44.8,10-54.6-1.2c20.8-13.2,64-5.7,88-6C2118.4,481.1,2154.2,483.7,2190.3,483.7C2193.5,476.2,2179.4,483.7,2190.3,483.7z
	 M2185.3,249.7c0-30.7-1.2-61.7,1.2-92.4c1-12.4,1.8-24.9,0.1-37.3c-16.7,0.9-33.4-0.7-50.1-1.7c-29.7-1.9-59.6-2.1-89.3-3.4
	c-31.8-1.4-67.7-5.3-99.1-0.1c0.4,31.2,0.9,62.3,1.3,93.5c0.2,14.1,0.4,28.1,0.6,42.2c16.3,0,32.5,0.1,48.8,0
	c30.8-0.1,61.7-0.6,92.5-0.6C2122.3,249.9,2154.8,255.3,2185.3,249.7C2185.3,227.4,2181.3,250.4,2185.3,249.7z M2253.8,635.7
	c-2.7,7-12-4.1-15.7,3.2c-5.6,10.7,19.4,14.3,25,16c-5.8,3.8-28.1-4.2-25.5,5.6c2.3,8.8,22,4,21.3,13.3c-8.8,4.5-20-10.4-21.6,3.4
	c-1,9.3,13.8,8.5,16.3,16.9c-33.7-5.1-6.7,10.4,5.8,19.8c-4.6,10.7-19.8-12.2-21.7,5.2c-1.1,10.1,10.3,11.9,17.6,15.1
	c-3.4,6-12.6,2.5-17.5,2c-1.7,21.8,13.2,13.5,22.5,27.8c-7.2-1.2-14.4-2.5-21.7-3.7c-0.9,16,5.1,16,17.8,23.8
	c-1.9,5.2-12,1-16.5,0.4c-4.6,15.6,13.2,16.2,22.5,21.9c-7.9,5.4-14.7-1.9-22.8,0.6c0.8,15.1,6.9,16.2,19.9,21.6
	c-7.2,3.6-10.4,1.1-18.4,1.5c1,10.3,8.2,11.4,15.5,18.2c-3.5,6.3-20.1-6.6-16.2,7.1c1.8,6.4,16.4,9,21.5,12.2
	c-15,3.3-27.5-3.8-22,17.8c2.6,10.1,21.5,2.2,23.7,13.4c-2.5,1.1-40.6-4-21.7,10.9c5.7,4.5,21.9,5,23.6,11
	c-8.3,4.7-16.7-0.1-25.1-0.6c-1.9,15.8,8.3,14.4,20.2,17.3c2.5,0.6,3.1,3.8,1.2,5.3c-4.1,3.3-17.7-1.3-22.4-2
	c2.1,10.3,12.3,11.9,22.1,13.1c6.8,0.9,5.3,7.4-2.9,7.1c-6.9-0.3-12.8-4.5-19.8-4.3c-2.4,21.7,14.3,7,20.2,21.1
	c-3.4,4.1-18.8,0.8-23.4,0.8c6.8,10.9,21,12.1,26.3,22.5c-8.2-1.7-16.3-3.4-24.5-5.2c0.8,13,11.5,12.5,22.6,16.1
	c-6.3,5.7-28.3-3.1-18.5,13.9c4.8,8.4,33.6,6.2,41.9,7c3.4-90.9,2.1-183.2,2.2-274.3c0-47.2,0.1-94.5,0.5-141.8
	c0.2-24.6-7.4-26.2-32.3-21.6c-26.8,5-7.3,17.4,6.5,22.2c-1.4,6.8-14.7,1.8-19.9,0.7C2235.7,630.6,2248.4,628.7,2253.8,635.7
	C2253.4,636.5,2249.4,630,2253.8,635.7z M2256.9,1413.6c-1.6,7.9-17.7,3.3-23.4,2.7c-2.7,14.3,10.3,12,20.8,12.4
	c-5,8.5-12.9,5.8-20.9,7.3c1.4,8.6-0.3,19.1,10.3,19.9c14.1,1,28.2,2.2,42.3,3.5c-12.8-76.2-8.6-158.2-8.6-235.2
	c0-40.6,0-81.3,0-121.9c0-16.2-26.9-12-39.6-7.1c-13.4,5.2,14.4,16.3,16.8,17.5c-8.2,4-13.1-3.4-20.9-3
	c-3.7,15.3,18.1,15.1,16.8,20.8c-3.3-0.4-22.9-5.4-17.9,5c3.7,7.5,21.9,1.9,22.9,10.5c-5.1,2.3-20.9-2.8-23.5,2.5
	c-3.6,7.6,18,13.8,22.6,15.7c-2.2,11.2-17-1.9-23.9,1.6c0,14.2,15.8,14.4,24.1,21.9c-8.1,0-14.4-0.3-22.6-1.8
	c-2,14.2,16.3,14.5,24.5,20.9c-8.3,4.1-25.2-7.4-24.3,5.7c0.5,7.3,16.4,10.3,21.4,12.3c-5.4,9.2-12.5-0.3-21.6,1.5
	c-0.9,14.8,10.4,15.2,22.2,18c-7.9,5.8-14.6,2.7-22.9,0.7c-4.9,22.7,28.5,9.6,27,23.1c-8.8-0.4-17.6-0.8-26.4-1.2
	c-0.1,14.2,27.4,9.5,22.5,19.4c-8.5-1.9-16.9-3.8-25.4-5.7c1.5,6.9,0.1,15.6,8.5,17c7.3,1.2,15.1,0.1,18.7,8.3
	c-8.1-0.8-23-6.8-24.5,3.4c-1.4,9.2,14.4,9,20,10c-1.6,9.6-12.8,5.3-19.8,4.7c-3.4,13.6,16.1,15.2,25.1,17.8
	c-1.5,13.5-26.8-8.9-26.6,9.1c0.1,12.9,25.2,3.9,28,14.9c-9.3,6.1-19.2-3.7-28.7,1.1c1,12.4,17.7,11.7,27.4,15.2
	c-0.6,3.7-24.5,1.7-28.7,1.7c7.7,13.7,23.8,4,30.6,13.7c-8.9,6.2-19.1,0.5-28.6,3.4C2229.2,1411.9,2249.9,1411.8,2256.9,1413.6
	C2256.7,1414.5,2253,1412.6,2256.9,1413.6z M2238.7,470.8c-0.5,13.5,12.9,17,21.6,23.9c-9.1,2.5-20.3-9.2-20.7,4.7
	c-0.3,10.8,17.9,13,24.9,17.2c-9.1,6.4-16.1-3.9-25.2-1.2c2.8,26.2,10.1,22.8,35,22.4c15.7-0.2,7.8-22.9,7.8-33.3
	c0.2-46.9-0.2-93.9-0.1-140.9c0.1-47.1,0.9-94.3,2.7-141.3c0.7-20.3,8.8-38.4-15.9-38.5c-5.1,0-23.6-3.4-25.1,4.6
	c-1.9,10,11,9.1,8.9,17c-3.8-0.4-7.5-0.8-11.3-1.3c2.6,9.2,12.6,8.4,17.8,15c-6.1,6.9-10.3-1.5-16.7-0.7
	c-6.8,14.2,22.9,12.6,20.9,24.2c-7.3-2.1-14.6-4.3-22-6.4c3.6,14.1,19.8,11.3,22.6,23.2c-4.3-1.3-19.5-8.3-22.6-4.9
	c5.6,9.1,14.8,14,23.2,20.4c-9.4,5.7-15.2-7.5-24.4-4c2.7,12.3,14.8,17.3,23.2,24.8c-8.8,0.6-15.2-4.3-23-7.2
	c-4.6,13.9,16.3,18.1,18.4,31.1c-6.3-3.2-12.5-6.5-18.8-9.7c-1.9,14.1,14,17.5,18.9,28.4c-6.2-2.1-12.3-4.3-18.5-6.4
	c-5.9,16.6,10,21.6,21.2,31.6c-9.4,2.2-14.4-6.7-23.1-6.8c0,17.1,10.3,19,24.3,27.8c-9.4,7.6-15.5-7.6-24.2-7.3
	c-6.8,25,26.4,18.5,30.7,35.1c-11.6,2.1-19-8-29.6-10c-9.1,16.1,21.5,17.2,21.8,28.6c-8.5,3.1-13.1-6.7-21.2-5.7
	c-1.8,18.8,17.7,11.6,20.9,25.4c-7.7-2.2-15.4-4.4-23.1-6.5c2.5,18.6,8.4,16.6,20.7,27.9C2251.4,475.4,2245.8,469,2238.7,470.8
	C2238.2,484.9,2245.7,469,2238.7,470.8z M2230.4,599.2c-10.7,5.6-26.1,9.5-26.6,23.7c-0.7,21.4-2.7,42.9-4.3,64.3
	c-2.7,37.1,0.7,74.2,3.2,111.3c2.7,40.6,3.2,81.7,1.7,122.4c-0.7,19.3,0.8,38.7,1,58c0.1,10,0.1,20-0.2,30
	c-0.4,12.2,16.2,14.3,24.8,17.4c0-68.4,3.3-136.7,1.7-205.1c-0.9-37.5-2.8-74.9-2.4-112.4C2229.6,672.4,2233.7,635.5,2230.4,599.2
	C2222.8,603.2,2231,606.1,2230.4,599.2z M2235.8,186.4c-14.6-0.5-26.9,6.2-37.8,15.1c-6,4.9,0.6,31.3,1,38.1
	c2.3,37.4,1.8,75,2.4,112.4c0.6,39.6,0.3,79.2,1.3,118.8c0.4,17,1.7,34.1,1.1,51c-0.6,18.6,12,15.1,27.5,16.6
	C2233.1,421,2230.9,303.8,2235.8,186.4C2219.9,185.8,2235,203.7,2235.8,186.4z M2224.9,1099.6c-34.4-1.6-22.4,32.9-23.6,55.4
	c-1.8,33.4-1.5,66.6-0.8,100c0.7,36.5,2.8,73,2.8,109.4c0,16.3-0.6,32.5-1,48.8c-0.2,9.6-4,28.6,1,37.3c2.9,5.1,22.7,9.7,22.3-0.2
	c-0.6-16.3-1.3-32.5-2.1-48.8c-1.7-33.9-0.9-67.7,0-101.6C2225.3,1233,2226.2,1166.5,2224.9,1099.6
	C2217.8,1099.3,2225,1107.3,2224.9,1099.6z M2246.5,1588.8c-2.6,15.8,14.9,12.3,26,16.8c-7.5,7.4-15.2,1.6-23.7,3.7
	c2.4,11.2,7.5,17.2,20,14.5c9.7-2.1-2.8,7-9.7,7.5c6.7,16.4,25.4-1.6,30.4,11.4c-4.8,2-9.6,4-14.4,6c7.3,8.6,18.7,15.9,24.5,5.1
	c5.9-11,14.1-20.5,24.7-27.2c-24.5-23.6-36.9-41.9-40.6-76.8c-0.8-7.5,2.3-31.8-6.3-35.8c-10.7-5-28.7-4-39.1,1.1
	c2,11,15.4,5.6,20.3,13.7c-6.1,1.8-12.2,2.2-18.5,1.3c-1.7,13,9.4,7.9,15.7,13.8c-3.7,10.6-15.5-3.1-15.3,11.4
	c0.1,8.9,18,8,23.7,11.2c-0.9,4.2-18.8,1.9-22.4,1.9c-0.8,13,9.7,15.3,19.6,19.4C2259.9,1592.3,2250.5,1589.1,2246.5,1588.8
	C2245,1597.7,2251.2,1589.2,2246.5,1588.8z M2199.9,181.5c25.2-4.8,49.9-7.1,75.5-9c11.1-0.8,21.8,1.4,23.7-11.7
	c0.9-6.4,2.3-20-4.2-24.6c-16.4-11.6-57.5-3.7-76.3-3c-4.3,0.2-20.1-2.3-20.1,6.2C2198.6,151.9,2194.9,170.1,2199.9,181.5
	C2210.3,179.5,2199.2,180,2199.9,181.5z M2203.1,1090.6c20.5-4.8,41.3-8.7,62.4-10.2c24.4-1.7,28.2-4.5,26.3-29.6
	c-1.2-15.9-80.6-20.5-84.5-13.8C2201.1,1047.5,2204.1,1077.6,2203.1,1090.6C2228.5,1084.6,2204,1078.5,2203.1,1090.6z M2206.8,593.8
	c25.2-5,50.3-10.9,76.1-11.6c20.5-0.6,19.1-8.3,13.4-26.7c-5.1-16.7-43.3-10.2-56.3-9c-12.5,1.2-23.4,0.6-35.6,4.8
	C2204.2,565.6,2201.7,580.1,2206.8,593.8C2220.1,591.2,2201.5,579.6,2206.8,593.8z M2201.3,1506.4c26.7-3,53.5-6,80.2-9.1
	c16.2-1.8,17.7-23.5,1.5-28.2c-25.4-7.4-51.5-3.6-77.4-2.4C2197.3,1467.1,2198.3,1499.2,2201.3,1506.4
	C2231.8,1503,2198.3,1499.3,2201.3,1506.4z M2318.1,1666.6c19.5-0.4,36.2-37,16-33.8C2321.4,1634.7,2292.9,1667.1,2318.1,1666.6
	C2332.5,1666.3,2308.3,1666.8,2318.1,1666.6z"/>
<path fill-rule="evenodd" clip-rule="evenodd" d="M411.9,100.6c-9-20.9-31,4.1-37,13.7c-8.7-9.1,9.5-20-14.6-17.6
	c-12.8,1.3-15.7,12.5-20.8,22.6c-5.6-2.1,0.5-15.1,1.6-19.8c-10.1-5.6-26.9-3.4-34.3,5.3c-8.8-20.6-31-0.5-39.7,5.1
	c-4.5-5.5,2.6-13.1-9.5-12.2c-12.6,1-17.3,13.7-23.4,23c-1.2-9.3,11.9-18.9-0.1-22.8c-11.7-3.8-21.1,5.7-27.9,13.9
	c8.6-20-8.1-15.2-24.4-14.9c0.4,8.2-0.4,10.6-7.1,15.4c6.6-24.7-12.5-14.8-23.1-3c1.4-14.5-2.6-15.5-17.5-15.1
	c-10.2,0.3-16.4,13.3-22.8,20c3.1-11.2,12.3-21.7-5.5-22.6c-14.8-0.8-35.1,2.1-47.6-3.1c-6.7-2.8-13.7-0.1-19.1,4.1
	c-2.8-6.1-7.7-8.5-14.1-8.8c-6.8-0.4-11.2,1.9-14.3-5.6c-2.1-5.2,1.1-9.9,6.8-9.2c81.8,10.5,161.5,14.9,243.9,17.3
	c72.8,2.1,147,0.7,219.2-9c18.6-2.5,37.7-2.4,56.5-3.6c21.3-1.4,15.8,20.8,12.8,33.3c-9.4,38.3-16.2,77.2-24.9,115.7
	c-17.9,78.6-17.9,160.3-26.7,240.1c-4.1,37-3.6,74.2,1.4,111.1c1.5,11,0,42.3,11.4,48.1c12.8,6.4,29.6,2.4,41.8,10.9
	c19.1,13.3,2.6,63.5-1,81.2c-3.7,17.9-22.6,10.5-35.5,9c-20.3-2.3-40.5-3.1-60.9-3.4c-77.2-1-155.1-3.4-231.5,9.7
	c26,44.1,42,86.1,7.5,131.6c-12.5,16.6-30,25.4-51.1,23.9c-25.7-1.8-35.6-27-19.3-47.2c13.9-17.2,18.5-47.8,4.9-66.7
	c-18.6-25.8-45.9-12.6-71.3-6.5c-10.2,2.4-19.6,6.5-29.6,9.1c-3.8,1-22.3,1-10.9-7.6c18.8-14.1,51.3-14.1,73.3-20.6
	c-15.7-13.3-37.1-19.3-49.4-36.8c-10.5-14.9,1.6-38.2-20.8-36.6c-8.4,0.6-18.7,4.8-26.9,3.9c-7.9-0.9-1.2-14.4,6.8-13.1
	c11,1.8,21.5-2.5,32.4-2.7c12.5-0.3,19.5-20.7,26.5-28.9c14.8-17.2,33.2-28.2,52.2-40c23.6-14.7,10.6-43,15-66.4
	c5.6-30.2,18.5-52.3,36.6-76.4c7.9-10.5,15.9-21.1,22.9-32.3c7-11.2,9.5-26.6,18.6-35.9c9.3,12.1,6.5,27.8,23.2,34.6
	c12.2,5,32.2,1.6,40.7-8.9c3.1-3.8,11.3-30,18.9-21.2c3.7,4.2,2,15.3,3.5,20.7c2.2,7.6,5.9,14.7,9.7,21.6
	c16.7,30.8,39.3,53.7,47.8,88.8c5,20.7,5.5,41.6,7.3,62.7c1.5,18.4-14.6,43.7,9.4,44.1c9.8,0.2,40.1,5.5,47.6-2.4
	c6.8-7.2,2.6-37.5,3-47.1c1.4-36.3,4.8-71.8,5.6-108.2c0.5-20.9,0.9-41.8,1.4-62.6c0.5-22.7-11.5-21.4-30.9-23.8
	c-9.9-1.2-19.8-2.4-29.7-3.6c-15.1-1.8-11.3,5.3-14.3,18.3c-5.1,22.5-10.3,45-15.4,67.4c-21.2-4,1.2-50.2,4.2-63.8
	c3.9-17.3-0.2-20.6-1.7-35.9c-1.4-14.1,7.7-20-6.7-29.4c-44.9-29.2-116.2-22.4-142-78.5c-12.4-26.9-11.3-55.5-19-83.3
	c-2.8-10.2-22.8-7.2-30.3-7.5c-8.5-0.3-12.2,29.4-14.7,36.9c-9.4,27.7-14.1,55.2-36.2,76.5c-9.8,9.5-55,52.7-65.8,35.6
	c29.8-19.6,58.9-36.1,75.4-68.9c7.9-15.6,13.3-34.8,12.2-52.5c-1.7-27.2-10.3-27.4-35.3-30c-20.4-2.1-40.8-4.4-61.1-6.7
	c-9.8-1.1-39.8,2.2-45.6-7.8c-10.9-18.9,18.3-10.9,24.6-9.1c22.4,6.3,47.2,8,70.3,10.4c82.2,8.5,168.9,12.4,251.3,5.2
	c37-3.2,74.4-1.4,111.4-4.9c12.3-1.2,26.8-8.7,34.5,4c-11.3,9.2-8.9,42.4-10.2,55.9c-7.9,83.2-14.7,167.3-15.3,250.9
	c-0.3,38.2-6.5,77.4-3.4,115.1c0.5,6.7-1,44.8,6,46.8c8.9,2.5,15.3,3.2,17-7.1c2.1-13-8.3-11.2-2.6-22.7c5.2-10.4,2.6-23.8-7.7-23.8
	c-4.8,0,7.3-16.7,6.7-22.6c-1.1-11.3-7.7-3.7-2.3-15.2c3-6.6,2.7-14.1,0.1-20.7c-4.5-11.6,1.8-11.1,2.5-23.1
	c0.3-6.1-1.5-11.5-5.2-16.4c2.6-4.8,5-9.7,7.3-14.7c2.5-5.8,0.8-10.8-5.1-13.3c4.2-6.6,8.8-13.9,9.3-21.9c0.8-11.5-6-11.5-1.1-22.8
	c3.2-7.4,4.9-15.3,2.6-23.3c-4.8-16.2-0.3-3.6,3-16.6c1.2-4.7-1-10.6,0.6-15c2.5-6.8,1.4-13.1-5.2-16.9c-1.5-0.8,8.2-13.2,8.5-16.3
	c0.7-6.6,0.2-11.9-6.2-15.5c10.6-6,19.1-31.1,3.7-34.1c1.9-7,11.2-7.7,11.7-15.7c0.7-4.5,0.8-9,0.5-13.5c-1.8-11.2,3-7.3,6.5-18
	c1.2-4.5,2-9,2.3-13.7c1.1-10.3-5.2-5.7-5.2-12.4c0.9-2.7,2.5-4.9,4.9-6.5c8-7.6,5.3-6.1,7.8-16.8c1.3-4.3,1.7-8.7,1.3-13.2
	c-1.9-11.4,2.8-8.8,4.8-20.3c2.5-13.7,5.9-27.3,6.7-41.2c-4.7-1.9-9.4-2.1-14.1-0.5c-10.1,4.2-8.9,0.2-19.7,1.9
	c-13.3,2.1-15.9,6.5-23.7,16.8c0.4-4,0.8-8,1.2-11.9c-16.9-0.7-32.6,2.9-49.5,2.5C423.2,94.4,419.3,100.8,411.9,100.6z M424.5,338
	c8.8,1,33.2-3.8,38.8-11.1c6.2-8.2,4.4-33.5,4.9-43.6c1.9-38,5.7-77,3.5-115c-1.4-23.6-60.7-8.9-76.9-8c-39.6,2.3-79,4.5-118.7,3.9
	c-30.4-0.4-60.6-6-55.4,35.5c3.6,28.8,10.4,54.2,34.7,72.4c26.3,19.7,60.3,27.5,90.6,38.9c13.1,4.9,23.5,12.4,35.3,19.4
	C394.8,338.3,409.4,337.1,424.5,338C434.1,339.1,411.8,337.2,424.5,338z M240.2,405.5c-29.8,46.4-68.2,91.9-63.5,150
	c2.2,26.9,7.4,53.3,24.2,75.2c5.2,6.8,4.1,11.9,13.8,9.6c15.2-3.6,31-4.6,46.5-6.6c29.6-3.9,58.9-9.6,88.8-10.2
	c29.7-0.5,30-28.6,29.7-53.8c-0.4-28.3-2.5-61.3-16.4-86.6c-7.2-13.1-18.2-23.5-26-36.3c-6.4-10.6-9.6-31.3-21.2-37.4
	c-10.8,12.5-20.9,25.8-39.4,24.3C256.1,432.1,251.4,419.5,240.2,405.5C235.7,412.4,247,414,240.2,405.5z M154.8,659.1
	c-4.5,24.7,33.7,55,56.7,58.2c15.9,2.2,37.6-6,53.7-8.1c19.4-2.5,38.5-7.1,58-8.8c22.4-2,221,1.9,221.7-7.9
	c0.8-10.4,5.1-25.4,0.5-35.4c-5.9-12.7-32.9-14.4-44.4-16.4c-37.8-6.6-77.2-5.3-115.4-4C307.9,639.3,231.9,649.8,154.8,659.1
	C153.1,668.3,169.8,657.3,154.8,659.1z M171.5,598.7C136.4,610,47.1,663.5,96.9,705.9c12.8,10.9,25.4,22.8,39.8,31.6
	c14,8.6,28.9,14.4,39.2,27.9c23.7,31,2.3,58.9-9.6,88.7c-5.1,12.9,1.9,19.1,14.1,20.4c18.3,1.9,33.2-5.9,43.6-20.7
	c17.3-24.7,24-57.5,12-86c-12.7-29.9-49.8-46.7-72.4-68.3c-13.6-13-37-49.1-4-55.6c-1.1,8.4,2.5,9.8,10.7,4.1
	c9.5-1.7,19.5-1.5,28.4-5.6C192,632.3,181.5,604.3,171.5,598.7C167.6,600,180,603.5,171.5,598.7z M383.1,356.2
	c10.8,11.3,75.4,23.8,78.8,5.9C466.4,338.5,398.8,354.5,383.1,356.2C387.9,361.3,396.1,354.8,383.1,356.2z"/>
<path fill-rule="evenodd" clip-rule="evenodd" d="M1243.2,1774.9c40.4-9.5,81.2-2.2,101,39.4c10.7,22.5,22.5,44.6,25.4,69.7
	c3.1,27.1-9.2,45-8.7,71.6c0.2,11.8,11.4,61-4.4,64.6c-25.2,5.6-51.6,8.4-77.4,9.8c-28.3,1.6-53.9,2-82.2,0.3
	c-18.6-1.2-15-39.7-15.6-50.8c-1.2-22-3.3-19.5-24.6-18.9c-17.3,0.5-47.3,8-59.7-8.2c-11.4-15-2.8-41.6-9.1-59.5
	c-7.8-22.2-14.2-42.5-13.5-66.4c1.3-43.8,25.9-95.7,70.6-108.3C1190.7,1705.3,1228,1732.8,1243.2,1774.9
	C1251,1773,1238.7,1762.2,1243.2,1774.9z M1351.9,1920.7c-11.2-0.7-38.4-1.7-43.7,8.8c-2.5,5-9.7,25.5-19,20.7
	c-11.2-5.8-7.8-23.3-18.2-29.4c-16.1-9.4-34.6,18-45.4,26.6c-7.7,6.1-11.9-2.2-14.5-8.7c-4.4-11.1-20.8-7.7-20.8,4.3
	c0.1,19.9-4,59.3,18.1,70.2c26.2,13.1,55.2,7.6,83,4.5c19.3-2.1,53.3,1.1,57-24.6C1351.8,1969.5,1351.9,1944.5,1351.9,1920.7
	C1343.6,1920.1,1351.9,1925.9,1351.9,1920.7z M1237.3,1776.8c-17.9-23.4-28.1-48.6-61.1-51.5c-31.7-2.8-61.5,15.7-74.9,44.1
	c-4.7,10.1-10.6,24.1-10,35.5c1,18.3,35,3,46,0.5c18.5-4.1,37.5-10.1,56.4-11.5c5.4-0.4,17.3,4,21.9,0.5
	C1223,1788.7,1230.1,1782.7,1237.3,1776.8C1234.7,1773.4,1229.9,1782.9,1237.3,1776.8z M1186.6,1837c0,0-33.3,5.7-37.9,5.8
	c-22.3,0.6-42.4,3.1-64.6-0.7c0,15.6,6.7,31.8,10.8,46.7c6.1-2.2,8.5-8.6,14.1-11.3c9.2-4.4,10.9,7.4,22.3,1.5
	c17.8-9,20,21.2,23.2,31c3.3-4.4,6.7-8.9,10.1-13.2c9.8-12.2,12.4,9.3,15.3-11.8C1182.1,1869.1,1184.3,1853,1186.6,1837
	C1187.4,1837.6,1183.9,1856.5,1186.6,1837z M1293.1,1941.3c3.8-8.3,13.3-35.9,25.9-33.3c13.7,2.8,26.1-0.9,40.2,2.4
	c1.3-9.8,1-19.6-1.1-29.2c-30.1,7.3-59.9,20.2-92.2,16.3c-28.4-3.4-56.2,6.2-77.2-17.1c-2.4,10.6-5.8,37-0.4,46.7
	c24.6-14.1,22.1-7.5,33.5,12.8c9.9-12.8,22.1-23.8,34.6-33.6C1278.9,1888.8,1284.3,1931.8,1293.1,1941.3
	C1295.8,1935.5,1288.4,1936.2,1293.1,1941.3z M1347.9,1852.6c-10-47.7-56.8-81.2-104.5-55.3c6.8,3.3,18.7,6.1,20,14.9
	c1.8,12.3,4.2,24.5,7.9,36.4C1297.5,1848.6,1322.2,1849.9,1347.9,1852.6C1342.5,1826.9,1343.2,1852.1,1347.9,1852.6z M1350.9,1866.9
	c-26.1-9.9-58.1-9.9-85.8-8c-5,0.3-82.1,8.9-59.7,24.6C1222.2,1895.3,1353,1887.5,1350.9,1866.9
	C1346.9,1865.4,1351.5,1873.4,1350.9,1866.9z M1112.2,1890.5c-12.8,14-13.2,40.2-7,57.1c23.9,8.2,50-4.9,74.1,4
	c-0.5-15.3-1.1-30.6-1.6-45.8c-16.5-0.9-24.2,29.5-32.5,0.9C1137.2,1879.5,1131.1,1900.7,1112.2,1890.5
	C1101.5,1902.2,1118.2,1893.8,1112.2,1890.5z M1208.2,1802.9c-15.1-2.3-44.8,3.3-59.7,7.7c-13.7,4.1-49.9,7.8-56.4,22.2
	c18.6,8.4,46.8,1.6,66.7-0.1c9.7-0.8,19.4-1.6,29.1-1.9C1194.7,1821.6,1201.5,1812.3,1208.2,1802.9
	C1205.2,1802.5,1201.4,1812.3,1208.2,1802.9z M1254.2,1824.8c-14.2,6.1-29.5,8.8-44.9,9.4c-8-2.9-11.4-0.4-10.1,7.4
	c-0.5,3.6-3.3,11.6,0.1,14.8c6.1,5.8,29.6-2.4,36.8-3.5c8.7-1.4,17-2.1,25.1-5.7C1258.9,1839.7,1256.6,1832.2,1254.2,1824.8
	C1236.3,1832.5,1256.9,1833.3,1254.2,1824.8z M1203.3,1828.1c8.6-2.5,47.9-7.3,44.2-17.8C1238.2,1783.7,1209.3,1818.3,1203.3,1828.1
	C1211.2,1825.8,1210.9,1815.8,1203.3,1828.1z"/>
<path fill-rule="evenodd" clip-rule="evenodd" d="M291.1,1456.9c32.5-4.7,64.5-16.5,97.8-12.7c0.3-20.9-13-48.7-33.4-56.3
	c10.8-11.1,16-3.6,25.4,7.6c8,9.6,13.5,20.9,17,32.8c2.4,8.3,11.7,18.9,12,26.6c0.7,19.2,1.1,38.5,1.5,57.7
	c0.2,11.7-9.4,18.4-9.4,29.6c0,11.4,4.8,40.9-2.3,50.3c-7.5,9.9-28.8,8.7-39.6,10c-18.6,2.4-38.3,7-57,4
	c-26.3-4.3-24.8-40.1-26.4-60.5c-2.8-34.4-5.8-66.9,3.8-101.4c4.3-15.6,9.4-30.8,16.1-45.6c0.4-0.9,14.7-23.8,15.7-10.2
	c0.7,8.7-9.4,18-12.3,26.5C295.3,1428.8,290.4,1442.8,291.1,1456.9C324.6,1452.1,290.9,1452.5,291.1,1456.9z M290.3,1530.5
	c-2.2,16.2,0.2,35.1,4.9,50.8c6.2,20.9,18.7,17.2,38.2,14.9c15.8-1.9,50.5,0.7,57.4-17.8c6.2-16.6,1.5-44.7-1.6-61.9
	c-11.1,9.6-15.8,12.1-21.9-2.8c-3.3-8.1-8.8-1.4-11.1,2.4c-6.5,10.6-11,4.2-20.2,7c-11.8,3.6-8.9,22-16.1,29.3
	C307.8,1564.7,296.3,1536,290.3,1530.5C289.8,1533.7,296.2,1535.9,290.3,1530.5z M314.4,1544.6c3.6-10.3,5.7-24.7,17.3-29.2
	c9.5-3.6,15.8-10.9,24.3-13.8c13.5-4.6,12.1-0.8,20.1,7.8c1.5,1.6,18.6-1,23.8,1c2-12,2.2-25.9-1.9-37.5
	c-20.8,7.8-42.7,12.5-64.9,13.5c-12.9,0.6-25.8,0-38.5-1.6c-16.1-2.1-14.8,12.8-14.7,26.9C305.6,1511.8,294.2,1536.9,314.4,1544.6
	C316.4,1538.8,305.8,1541.3,314.4,1544.6z M294.4,1469.9c12.4,17.9,79.7,6.3,95.7-5.4c19.3-14.3-31.9-9.6-37-8.9
	C334,1458.2,311.5,1460.1,294.4,1469.9C296.1,1472.2,307.5,1462.4,294.4,1469.9z"/>
<path fill-rule="evenodd" clip-rule="evenodd" d="M569.7,1765c1.3-4.8,2.7-9.5,4-14.3c-21.6-8-31.8,4.2-44.9,18.1
	c-1-8.1,6-12.4,7.1-19.8c-20.7,0-35.1-2.4-50.1,13.4c-12,12.6-29.8,38.5-46.4,44.4c13.8-20.1,32.8-35.9,46.3-56.2
	c-12.8-0.6-25.5,0-38.3,0c-13,0-21.5,18.3-33.8,22.9c5.2-6.8,10.5-13.6,15.7-20.3c-8.7-1.4-28-3.8-35.5,2.1
	c-9.8,7.7-19.1,23.3-31.8,26c5-10.5,16-16.3,21.2-26.8c-13.7,0-36.6-3-48.3,4.7c-14.5,9.5-27,36.1-43.6,40.6
	c8.2-15.4,22.9-25.6,32.5-39.9c-10.7-3-32.5-3.5-42.5,2.2c-9.4,5.4-11.3,15.1-23.3,16.9c4.5-5.4,9-10.8,13.6-16.1
	c-3.7-7.6-43.4-1.3-51.2,3.3c-19.7,11.6-37.8,32-55.3,46.9c8-19.9,31.7-31.1,45.2-47c-18,0-31.5-2.6-46,9.1
	c-11.7,9.4-22.8,20.2-36.2,27.1c3.8-13.2,22.5-24.3,32.2-33c1.2,3.2-45.8-10.3-13-13c29.1-2.4,58.3-3.3,87.5-5.7
	c58.9-4.8,118.3-8.4,177.3-11.9c59.3-3.5,120.1,2.2,178.9-4.4c11.2-1.3,66.9-14.9,62.5,7.9c-1.8,9.1-15.5,4.7-21,10.8
	c-4.6,5.1-16,26.8-24.4,23.7c6.8-9.1,13.6-18.2,20.4-27.3c-10.6-2.6-30.5-3.8-41-0.3C579.8,1751.6,576.8,1767.8,569.7,1765
	C571,1760.4,570.7,1765.4,569.7,1765z"/>
<path fill-rule="evenodd" clip-rule="evenodd" d="M2577.1,419.3c-61.2,4.6-111.8-42.7-100-104.8c10.2-53.8,61.3-112.5,120.1-102.5
	c58.5,9.9,104,55.3,96.3,116.5C2685.8,389.6,2633.8,419.3,2577.1,419.3C2555.9,420.9,2581.4,419.3,2577.1,419.3z M2487.3,321.3
	c7.4,55.9,41.4,89.4,99.9,88.9c53.2-0.4,96.6-44,97.5-97.5c0.9-52.3-46-81.8-91.9-88.7C2542.3,216.3,2486.3,269.1,2487.3,321.3
	C2488.2,327.9,2486.9,302,2487.3,321.3z"/>
<path fill-rule="evenodd" clip-rule="evenodd" d="M1038,1738.7c-8.2,0-26.8-3.6-33.5,2c-6.3,5.2-13.3,20.1-22.8,19.1
	c4.1-6.1,8.2-12.2,12.4-18.3c-8-1.6-19.8-2.8-27.9-0.5c-10.4,3.1-11.5,17.2-23.4,17.8c3.7-5.6,7.5-11.2,11.2-16.8
	c-30.3-5.3-38.3,7.7-59.1,26.9c1.1-10.2,12.1-15.1,14.6-24.8c-7.6-3-32.6,6.4-27.1-10.8c2.2-6.9,27-3.4,32.2-3.5
	c38.2-0.7,76.4-1.7,114.6-3.1c16.7-0.6,33.5-1.3,50.2-2.2c5.2-0.3,12.6-1.6,17.7,1.2c7.8,4.2-1,9.9-5.1,10.3
	c-12.6,1.2-29.4-0.6-41.3,3.7c-12.6,4.6-13.5,21.1-26.1,27.2C1025.8,1756,1035.4,1749.1,1038,1738.7
	C1027.2,1738.7,1035.3,1749.4,1038,1738.7z"/>
<path fill-rule="evenodd" clip-rule="evenodd" d="M2654.6,429.7c19.2-17.2,29-18.4,42.4,3.3c18.8,30.5,42.1,57.7,61.7,87.5
	c0.5,0.8,13,23,0.6,16.8c-12.6-6.4-23.8-27.8-34.4-37.8C2701.9,477.7,2673.8,454.5,2654.6,429.7
	C2657,427.5,2656.5,432.1,2654.6,429.7z"/>
<path fill-rule="evenodd" clip-rule="evenodd" d="M2457.6,576.6c-10.6-7.4,23.7-72.4,28.3-85.1c5.7-16,10.7-32.3,14.2-48.9
	c2.8-13.5,25.1-2.7,33.9-0.7c-10.5,23.2-26,45.9-38.4,68.4C2483.6,532.1,2473.3,557.4,2457.6,576.6
	C2452.1,572.9,2459.4,574.4,2457.6,576.6z"/>
<path fill-rule="evenodd" clip-rule="evenodd" d="M2596.8,190c-31.6-8.1-17.4-30.6-14.8-57.7c1-9.8,6-92.3,14.5-91.2
	c8.6,1.2,1,61.6,1.5,70.3c0.8,16.3,1.9,32.6,3.1,48.8C2601.7,170.4,2612.1,189.6,2596.8,190C2593,189,2605.6,189.8,2596.8,190z"/>
<path fill-rule="evenodd" clip-rule="evenodd" d="M435.8,582.1c-12.4,11.1-19.5,16.6-22.1-4.6c-2.4-19.1-1-39.4-0.4-58.6
	c0.6-20.3,2.8-40.5,5.1-60.7c1.1-9.6,2.3-19.3,2-29c-0.3-9.5-6.6-20.3-6-29.1c0.4-5.7,8.7-1.9,9.6,1.7c2.5,9.6,4.8,19.3,6.6,29
	c2.4,12.8-2.5,31.4-3.3,44.6C425,514.3,419.8,545.6,435.8,582.1C431.1,586.3,434.6,579.2,435.8,582.1z"/>
<path fill-rule="evenodd" clip-rule="evenodd" d="M2357.3,216.3c9.2-6.1,23.3,7,31.1,10.8c14.4,7,29.5,12.3,44.4,18.2
	c7.2,2.9,31.5,6.6,33.2,16c1.2,6.3-12.2,18-12.9,27c-17-12.4-34.5-24.1-51.7-36.2C2388,242.8,2364.3,231.2,2357.3,216.3
	C2362.9,212.6,2358.1,218.1,2357.3,216.3z"/>
<path fill-rule="evenodd" clip-rule="evenodd" d="M749.8,1770.8c-6.7-10.2,7.2-13.8,4.6-23.2c-10.8,0.5-53.6,11.6-46.1-9.5
	c5.7-16,53.9-9.7,67.1-9.2c8.8,0.3,27.3-2,34.7,3.7c13,10-4.1,13.1-10.8,13.2C772.8,1746,763.5,1746.8,749.8,1770.8
	C742.6,1759.9,750.8,1769.2,749.8,1770.8z"/>
<path fill-rule="evenodd" clip-rule="evenodd" d="M2818.6,239.7c5.2,12.7-43.8,24.2-54,28.5c-11,4.6-49.8,29.1-56,17.6
	c-15.2-27.9,25.9-26.1,41.9-29.3C2772.7,252.1,2795.9,240.8,2818.6,239.7C2820.4,244.1,2817,239.7,2818.6,239.7z"/>
<path fill-rule="evenodd" clip-rule="evenodd" d="M2470.7,143.4c11.6-0.9,64.5,50.4,58,56.7C2506.5,221.7,2479.6,158.9,2470.7,143.4
	C2474.4,143.1,2474.8,150.6,2470.7,143.4z"/>
<path fill-rule="evenodd" clip-rule="evenodd" d="M397.5,398.7c14.3-5.3,4.1,78.3,3.6,90.4c-14.9,2.3-16-12.7-13.2-25.2
	C392.9,441.1,395.5,421.8,397.5,398.7C402.7,396.7,397.3,400.8,397.5,398.7z"/>
<path fill-rule="evenodd" clip-rule="evenodd" d="M1754.5,255.6c12.5-8.2,38-3.3,52.3-3.5c12.8-0.1,30.7-4.3,43.2-1
	c-0.3,10.5-46.2-3.5-49.6,12.2c-6,27.6,4,59-2.4,86.1c-12.4-6.3-4.3-60.6-5.2-73.5c-1.1-15.3-1.2-18.1-16.7-18.1
	C1771.9,257.9,1755.1,260.2,1754.5,255.6C1758,253.3,1754.6,256.4,1754.5,255.6z"/>
<path fill-rule="evenodd" clip-rule="evenodd" d="M2286.5,121.8c-3-12.2-3.8-115.1,6.5-116.1C2296.5,5.4,2300.8,121.9,2286.5,121.8
	C2285.7,118.5,2287.5,121.8,2286.5,121.8z"/>
<path fill-rule="evenodd" clip-rule="evenodd" d="M2179.7,617.1c-21.9,5.1-48.4-0.2-70.9-0.2c-17.7,0-39.6,9-56.8,3.6
	c4.8-6.7,11.5-1.7,16.6-6.7c2.9-13-1-26.2-1.3-39.2c9.6-0.8,6.3,17,6.4,22.4c0.5,18.2,3.3,17.1,20.5,15.6
	c14.2-1.2,28.5-0.8,42.7-0.3C2148.4,612.6,2171.1,607.8,2179.7,617.1C2176.9,617.8,2176.1,613.2,2179.7,617.1z"/>
<path fill-rule="evenodd" clip-rule="evenodd" d="M2596.5,468c8.2-2.3,8.1-18.3,13.6-18.1c9.9,0.5,6.7,33.7,8.6,40.7
	c1,3.7,3.3,31.8-6.8,25C2603.1,509.7,2599.5,478.2,2596.5,468C2604.1,465.9,2601.1,483.6,2596.5,468z"/>
<path fill-rule="evenodd" clip-rule="evenodd" d="M114.6,177.8c1.6,21.2-5.8,78.6-27.3,89.4c-2.5-14,8.9-38.8,12.9-53.1
	C104.1,200.4,96.1,178.6,114.6,177.8C115.3,188,104.3,178.3,114.6,177.8z"/>
<path fill-rule="evenodd" clip-rule="evenodd" d="M2710,158.3c-2.1,11.2-13.1,16.5-17.5,26.3c-6.9,15.3-7.9,33.1-27,24.2
	c-11.7-5.4,12.5-22.9,16.6-27.7C2687.6,174.6,2699.2,151.1,2710,158.3C2707.9,169.9,2704.1,154.4,2710,158.3z"/>
<path fill-rule="evenodd" clip-rule="evenodd" d="M47.9,271.8c-7.8-10.4-0.9-15.9,5.6-25.1c8.8-12.3,10-34.8,13.6-49.4
	C96.4,194.9,54.1,261.4,47.9,271.8C45.7,268.9,54.1,261.5,47.9,271.8z"/>
<path fill-rule="evenodd" clip-rule="evenodd" d="M2778.7,374.9c-10.3,8.4-20.4,1.3-30.7-2.7c-8.1-3.1-16.5-5.3-25.1-5.7
	c-8.8-0.3-1.2-15.5-0.2-19.9C2741.3,351,2763,363.9,2778.7,374.9C2769.6,382.3,2762.8,363.8,2778.7,374.9z"/>
<path fill-rule="evenodd" clip-rule="evenodd" d="M2407.6,397.8c4.1-10.8,29.8-33.2,42.2-31.5
	C2471.8,379.6,2418.6,403.9,2407.6,397.8C2411.1,388.5,2412.4,400.5,2407.6,397.8z"/>
<path fill-rule="evenodd" clip-rule="evenodd" d="M107.2,823.6c-9.3-4.4-12.8-27.4-5-34c1.8,7.4,3.7,14.9,5.5,22.3
	c7-3.6,27.1-18.3,35.6-13.6C149.5,801.7,111.4,820.8,107.2,823.6C100.4,820.4,113,819.7,107.2,823.6z"/>
<path fill-rule="evenodd" clip-rule="evenodd" d="M367.9,734.4c-35.8,2-71.1,6.4-104.2,20.7C261.3,732.9,368.1,730.3,367.9,734.4
	C360,734.8,367.9,733.4,367.9,734.4z"/>
<path fill-rule="evenodd" clip-rule="evenodd" d="M29.5,846c6.7-4.4,13.4-8.7,20.1-13.1c-0.4-0.7-0.8-1.4-1.2-2
	c-0.3,7.7,3.4,9.5,11.4,5.5c6.8-1.9,21.1-14,25-2.5C72.8,838.9,39,856.6,29.5,846C36.5,841.4,34.6,851.7,29.5,846z"/>
<path fill-rule="evenodd" clip-rule="evenodd" d="M1217.4,2053.1c9.1-6.3,54-15,64.1-9.9C1275.7,2050.8,1219.8,2060.7,1217.4,2053.1
	C1218.8,2052.1,1217.6,2053.8,1217.4,2053.1z"/>
<path fill-rule="evenodd" clip-rule="evenodd" d="M1263.1,2065.5c0.6,8.2-43.2,10.7-51.3,12.5
	C1209.7,2069.7,1257.4,2062.4,1263.1,2065.5C1263.3,2069.9,1262,2064.9,1263.1,2065.5z"/>
<path fill-rule="evenodd" clip-rule="evenodd" d="M1098.8,1973.1c9-2.3,17.8-1.8,26.8-4.1c-1,0.3,24.5-7.3,14.5,3.4
	C1135.1,1977.6,1100,1978.6,1098.8,1973.1C1102,1972.3,1098.9,1973.8,1098.8,1973.1z"/>
<path fill-rule="evenodd" clip-rule="evenodd" d="M283.7,765.1c10.4-14.5,38.8-12.9,54-11.7C320.3,756.7,301.1,764.6,283.7,765.1
	C290.3,755.8,293.1,764.8,283.7,765.1z"/>
<path fill-rule="evenodd" clip-rule="evenodd" d="M1749.4,257.8c-8.2,4.2-48.5,8-53.5,0.3C1711.8,257,1734.9,250.7,1749.4,257.8
	C1747,259,1746.7,256.4,1749.4,257.8z"/>
<path fill-rule="evenodd" clip-rule="evenodd" d="M1087.9,1994.1c5.3-5,27.9-14.6,33.5-6.7
	C1123.6,1990.6,1090.3,1999.3,1087.9,1994.1C1089.3,1992.8,1088.2,1994.7,1087.9,1994.1z"/>
<path fill-rule="evenodd" clip-rule="evenodd" d="M62.2,819c-1.9-6.7-3.1-8-9.7-10.3c5.1-3.1,16.4-13.5,20.8-8.6
	C78.5,806,65.9,816.2,62.2,819C60,811.4,68,814.5,62.2,819z"/>
<path fill-rule="evenodd" clip-rule="evenodd" d="M678.4,1810.9C748.1,1801.7,678.1,1822.4,678.4,1810.9
	C688.3,1809.6,678.3,1812,678.4,1810.9z"/>
<path fill-rule="evenodd" clip-rule="evenodd" d="M1213,2056.6c-11.1,2.8-24,2.7-32.2,11.9C1174.3,2053.8,1205,2050.7,1213,2056.6
	C1200.6,2059.8,1210.3,2054.6,1213,2056.6z"/>
<path fill-rule="evenodd" clip-rule="evenodd" d="M2180.8,1296.6c-10.2,4.7-21.6,2.7-32.4,4
	C2152.7,1296.5,2181.3,1286.3,2180.8,1296.6C2170.5,1301.4,2180.8,1295.6,2180.8,1296.6z"/>
<path fill-rule="evenodd" clip-rule="evenodd" d="M717.9,1834.6c-15.5,4.9-31.8,1.4-47.6,3.6
	C675.1,1834.8,717.8,1830.9,717.9,1834.6C702.5,1839.5,717.9,1833.8,717.9,1834.6z"/>
<path fill-rule="evenodd" clip-rule="evenodd" d="M1532.2,1765.3c3.6-9.9,12-17.1,16.9-26.3
	C1552.9,1749.8,1541.5,1760.1,1532.2,1765.3C1535.7,1755.8,1540.7,1760.5,1532.2,1765.3z"/>
<path fill-rule="evenodd" clip-rule="evenodd" d="M769.4,1829.3c-5.2,0.8-33.2,8.4-34.7,2.7C745.2,1828.3,758.4,1825.8,769.4,1829.3
	C756.5,1831.3,758.5,1825.8,769.4,1829.3z"/>
<path fill-rule="evenodd" clip-rule="evenodd" d="M598.6,1822.5c6.3-9.6,19.3-8.1,29.3-7.6C626.5,1819.7,603.8,1820.6,598.6,1822.5
	C603.4,1815.2,603.9,1820.6,598.6,1822.5z"/>
<path fill-rule="evenodd" clip-rule="evenodd" d="M1087.7,1975c-10.6,2.5-20.7,4.8-31.1,7.3
	C1060.6,1974.4,1070.1,1972.3,1087.7,1975z"/>
<path fill-rule="evenodd" clip-rule="evenodd" d="M2185.4,1083.7c-6.3,0.8-12.7,1.6-19,2.5
	C2170.6,1077.3,2180.1,1077.9,2185.4,1083.7C2177.9,1084.7,2183.1,1081.2,2185.4,1083.7z"/>
<path fill-rule="evenodd" clip-rule="evenodd" d="M48.1,812.5c-4.6,5.6-6.4,10.1-13.6,10.5C35.3,815.7,40.2,812.4,48.1,812.5
	C45,816.3,43.1,812.4,48.1,812.5z"/>
<path fill-rule="evenodd" clip-rule="evenodd" d="M661,1813.5c-6.4,4.9-13.5,2.6-20.4,2.2C647,1811.9,653.9,1811.9,661,1813.5z"/>
<path fill-rule="evenodd" clip-rule="evenodd" d="M621.7,1841.9c6.1-0.8,12.1-1.5,18.2-2.3C636.7,1843.2,622.3,1848.9,621.7,1841.9
	C627.8,1841.1,621.8,1842.9,621.7,1841.9z"/>
<path fill-rule="evenodd" clip-rule="evenodd" d="M2185.1,981.5c-3.3,3.9-7,6.4-13.8,6.3C2175.6,982.1,2179.5,980,2185.1,981.5z"/>
<path fill-rule="evenodd" clip-rule="evenodd" d="M787.6,1826.7c-3.3,4.5-6.7,4.2-10.3-0.8C781.7,1824.9,786.1,1821.6,787.6,1826.7
	C785.2,1830.7,787.3,1825.7,787.6,1826.7z"/>
<path fill-rule="evenodd" clip-rule="evenodd" d="M646.9,1838.2c6,0,11,0,16,0C654,1841,653.9,1841,646.9,1838.2z"/>
<path fill-rule="evenodd" clip-rule="evenodd" d="M2176.9,1644.8c-7.1,4.8-10.9,4.9-11.4,0.2C2169.7,1643.8,2176,1639,2176.9,1644.8
	C2173.2,1645.4,2176.7,1643.8,2176.9,1644.8z"/>
<path fill-rule="evenodd" clip-rule="evenodd" d="M1329.9,672c-1.2-2.7-2.3-5.3-3.5-8C1331.3,661.8,1334.7,669.6,1329.9,672
	C1328.8,669.4,1330.7,671.7,1329.9,672z"/>
<path fill-rule="evenodd" clip-rule="evenodd" d="M411.7,100.6c1.8,3.3,1.3,6.2-1.4,8.7C413.9,105,414.4,102.1,411.7,100.6z"/>
<path opacity="0.66" fill-rule="evenodd" clip-rule="evenodd" fill="#FFFFFF" d="M1742.1,1499.1c12.3,29.2-10.5,43.7-34.5,57.3
	c-35.5,20-60.5,18.1-99.7,13.2c-27.8-3.5-64.3-25.7-73-53.5c-3.9-12.3,5.1-31.4-1.1-40.9c-6.6-10.1-23.9,15.5-28.9,19.2
	c-55.8,42.1-136.3,37.1-186.3-13c-48.8-48.9-15.3-135.3,39.9-162.8c30-14.9,65-22,96-6.3c9.6,4.9,24.2,21.8,33.4,24
	c12.6,2.9-6.2-22.6-7.2-26.8c-7.1-30.9,19.1-57.9,37.6-79.1c23.1-26.3,58.5-46,92.4-53.6c6.2-1.4,26.9-8.4,30,1
	c1.9,5.7,2.8,33.2,11,33.5c8.9,0.3,10.5-26.5,12.4-33.4c7.9,1,45,10.6,34.2,22.7c-4.6,5.2-3.3,16.6,4,9.5
	c10.7-10.5,19.9-22.6,30.4-33.4c26.3-26.9,56.1-33.2,87.2-50.2c1.4,5.6,4.8,41.1,9.3,41.2c11,0.2,12.5-22,14.4-29.4
	c6.4-24.9,90.2,11.6,106.6,21.8c72.3,44.6,118.1,117.8,114.8,204.1c-2.7,68.6-34.8,173.4-114.3,189.1c-39.9,7.9-77.8,5.6-116.6-7.1
	c-18.4-6-34.2-16.8-50.3-27.2C1777.2,1514.9,1749.4,1487.2,1742.1,1499.1C1743.8,1503.1,1745.8,1493,1742.1,1499.1z M1915.8,1182.9
	c-33.7,4.6,14.2,12.7,23.9,16.7c12.2,5.2,23.9,9.2,34.5,17.6c9.2,7.3,17.1,23,28.2,25.9c2.8-15.7-23.1-34.3-34.8-41.6
	C1951.3,1191.3,1934.4,1186.6,1915.8,1182.9C1912.9,1183.3,1922.2,1184.2,1915.8,1182.9z M1506.2,1295.6
	c6.4-0.6,18.3-29.1,24.6-35.2c6.7-6.4,29-15.1,32.1-23.6c6-16.5-29.8,13-32.5,15.4C1522,1259.6,1495.6,1282.8,1506.2,1295.6
	C1511,1295.1,1502.3,1290.8,1506.2,1295.6z M1956,1233.5c5.7-5.4-33.9-34.7-43.1-16.1C1928.1,1221.7,1941.7,1226.8,1956,1233.5
	C1956.7,1232.9,1949,1230.2,1956,1233.5z M1555.6,1262c-13.3-8.5-30.7,17.7-28.8,29.4C1536.3,1282.2,1548.2,1273.2,1555.6,1262
	C1549.7,1258.3,1554.4,1263.7,1555.6,1262z"/>
<path opacity="0.66" fill-rule="evenodd" clip-rule="evenodd" fill="#FFFFFF" d="M1501.2,727.3c5.3-10.4,11.8-20.2,21.6-26.9
	c-20.9-2.3-21.9,27.8-38.4,25.7c-19-2.4,7.1-43.8,11.2-51.1c-24.5,5.1-15.2,49.5-34,49c-23.9-0.7-54.2,9.1-58.7-19.6
	c-3.4-21.3,2-44.9,16.7-61.2c15.7-17.4,41.8-17.2,58-33.3c-3.8-1-7.5-2.1-11.3-3.1c37.8-60.9,109.6-110.6,184-78.9
	c15,6.4,26.1,16.7,29.3,33.1c0.4,2.3-12,24.8-1.5,18.2c28.5-17.7,57.8-31.2,90.6-39.4c37.8-9.5,76.4-3.2,108.9,18.6
	c15.8,10.6,74.7,52.2,49.1,75.4c1.8-1.6-21.8,18.3-7.2,13.8c14.5-4.4,35.2,7,45.5,16.4c29.7,27,41.9,62.9,43.3,101.9
	c1.4,40.2-10.6,78.3-30.1,113.2c-6.9,12.4-19.3,16.9-31.4,8.7c-3.1-2.1-18.7-23.9-20.9-18c-3.1,8.2,9.9,31.7,11.1,41.7
	c2.1,18.3,3.3,37.3,1.4,55.6c-4.2,41.4-28.4,64.6-65.7,80.5c-15.9,6.8-33.1,16.4-50.9,15.2c-16.6-1.1-14.3-19.5-24.3-21.9
	c-19.5,25.1-36.3,48.5-68.9,59.1c-35.6,11.6-75.2,10.8-107.5-10.1c-12-7.8-69.5-80-73.8-78c1.7,9.1,19.4,33.4,15.9,40.3
	c-10.6,20.9-42.4,19.8-61.4,15c-41.5-10.5-69.8-46.2-83-85.6c-4.2-12.5-8.5-18.8,6-21.6c11.8-2.3,23.2-5.4,34.6-9.2
	c24.1-7.9,41.7-21.4,62-36c37.2-26.8,62.8-62.1,61.1-109.8c-0.5-14.6-8.7-29.3,6.3-39.4c22.8-15.3,46-10.9,66.2,5.4
	c11.9,9.6,30.1,27.4,46.4,13.1c19-16.7,20.6-43.3,7.7-63.9c-18.1-28.8-63.9-63.1-97-33.3c-16.4,14.8-25.1,48.9-45.6,58.3
	c-10.1,4.6-23.3-5-32.4-8.3C1523.7,733.2,1510.4,732.9,1501.2,727.3C1506.6,716.7,1503.5,728.7,1501.2,727.3z M1796,582.5
	c28.5-5.1,55.8,3.8,78.2,21.7C1882.8,572.1,1792,567.6,1796,582.5C1825.5,577.2,1794.5,577,1796,582.5z M1859.1,611.9
	c-2.7-13.3-33-22.8-41.5-13.7C1831.4,602.8,1845.2,607.3,1859.1,611.9C1857.8,605.8,1845.4,607.4,1859.1,611.9z"/>
<path opacity="0.66" fill-rule="evenodd" clip-rule="evenodd" fill="#FFFFFF" d="M1405.5,849c-1.2-48.1,22.3-80.9,65.7-98.6
	c43.3-17.7,93.9,8.5,100.7,55.6c6.8,47.2-27.2,89.2-71.6,101.1C1461.4,917.5,1397.9,903.1,1405.5,849
	C1404.7,814.8,1404.3,857.8,1405.5,849z M1455.2,871.9c33.8,2.8,60.7-62,20.4-63.7C1441.6,806.7,1414.5,872.7,1455.2,871.9
	C1476.3,873.7,1447.5,872.1,1455.2,871.9z"/>
<path opacity="0.66" fill-rule="evenodd" clip-rule="evenodd" fill="#FFFFFF" d="M1407,792.7c-7.3,18.5-13.3,36.2-12,56.5
	c1.7,26.7,15.1,38-10.5,56.8c-34,24.9-91.6,22.4-115-15.1C1222,814.8,1346.6,715.9,1407,792.7C1404.2,799.8,1405.1,790.2,1407,792.7
	z M1359.7,850.2c-10.4-34.6-48.4-28.1-55.9,6c-3.2,14.6-3.2,40.9,20.4,37.3C1342.8,890.7,1357.3,867.2,1359.7,850.2
	C1358.5,846.3,1358,862.1,1359.7,850.2z"/>
<path opacity="0.66" fill-rule="evenodd" clip-rule="evenodd" fill="#FFFFFF" d="M873,1566.4c9.2,7.3,55.8,6,46.7,22.9
	c-14.5,27-38.7,32.2-66.2,39.9c-31.1,8.6-63.8-0.8-89.8-18.8c-11.9-8.2-22-19.1-28.6-32c-5.9-11.7-25.6-12.6-14.5,2.7
	c5.8,8,18.9,18.2,17,29.5c-2.2,12.9-20,16.4-30.7,15.3c-28.6-2.9-61.7-6.5-82-29.8c-9.7-11.1,4.1-12.5,1.4-20.8
	c-1.6-5-25.2,4.3-29.8,4.6c-24.1,1.5-54.8-10.4-70.6-28.9c-16.3-19.1-28.5-40.1-31.5-65.5c-1.7-13.8,1.7-30.2,10.1-41.5
	c3.3-4.3,7.2-8,11.7-11.1c10.2-7.3,11.7-1,21.4,4.3c7.1,3.9,20.1-0.9,11.3-5.3c-13.6-6.7-25.8-17.5-36.7-27.9
	c-21-20.1-34.6-45.8-39.4-74.4c-5-29.4-10-60.9-2-90.1c8-29,25.6-56.4,44.9-79.3c18.8-22.3,42.5-45.1,69.6-56.7
	c12.3-5.3,27.4-6.2,36.6,5.6c7,8.9-6,20,4.9,30c15.8-57.1,56.8-90.7,115.8-90.9c29.6-0.1,59.3,5.9,84.4,22.2
	c9.9,6.5,21.7,13,27.7,23.6c7.7,13.6,16.2,39.6,28.9,48.4c4.1-15.6-30.6-54.2-12.6-60.1c30.4-10,65.6-2.9,93.9,12.3
	c28.7,15.3,44.6,41.1,53.6,71.6c3.4,11.4,5.8,25.9-1.4,36.4c-7.3,10.8-0.9,13.2-15.6,9.2c-4-1.1-18.2-5.6-19.9,0.1
	c22.9,13.2,40.8,21.8,55.5,45.2c14.5,23.1,14.3,52.9,8.4,78.4c-6.2,26.8-20.3,48.9-39.3,68.4c-4.6,4.7-57.4,40.4-30.7,42.7
	c7.2,0.6,18.4-12.5,23.3-16.3c12-9.4,22.7,2.7,27.7,13.1c11.4,23.8-1,52.7-13.4,73.4c-14,23.4-36.4,38.3-63.3,44.3
	C926.3,1566.2,893.7,1553.5,873,1566.4C875.8,1568.5,879.2,1562.6,873,1566.4z M530.9,1206.5c13.7-9.3,17.8-26.4,25.3-40.2
	c6.9-12.6,24.4-22,26.9-35.7C559.9,1127.3,523.4,1185.1,530.9,1206.5C533.1,1205,527.5,1196.7,530.9,1206.5z M581.7,1157.2
	c-8.8,0-27.3,23.1-21.9,32C566.4,1200,581.2,1163.6,581.7,1157.2C579,1157.2,581.4,1160.7,581.7,1157.2z"/>
<path opacity="0.66" fill-rule="evenodd" clip-rule="evenodd" fill="#FFFFFF" d="M1253.5,908.3c-0.1,21.6,4.4,41.2-2.6,62.3
	c-3.8,11.3-17.3,43.1-34.3,39.1c-21.5-5-13.2-42.9-6.7-54.7C1220.7,934.9,1236.2,922.5,1253.5,908.3
	C1253.4,928.5,1248.1,912.8,1253.5,908.3z M1220.7,991.1c3.7-17.6,6.4-35.6,13.6-52.2C1222.7,929.6,1214.6,981.7,1220.7,991.1
	C1224.7,971.9,1218.6,987.8,1220.7,991.1z M1236.3,981.6c0-6.8,6.8-26.3,4.7-31.4C1232.2,954.1,1227,985.4,1236.3,981.6
	C1236.3,975.8,1232.2,983.3,1236.3,981.6z"/>
<path opacity="0.66" fill-rule="evenodd" clip-rule="evenodd" fill="#FFFFFF" d="M1219.5,1039.6c-8.6-2.2-17.3-4.4-25.9-6.7
	C1198.1,1012.9,1232.1,1016.8,1219.5,1039.6C1210.3,1037.3,1222.5,1034.2,1219.5,1039.6z"/>
<path opacity="0.66" fill-rule="evenodd" clip-rule="evenodd" fill="#FFFFFF" d="M240.2,405.5c9.4,11.8,12.8,22.6,28.8,26.9
	c21.8,5.9,34.1-8,47-22.9c10.1,5.3,12,20.3,16.7,29.5c7.1,13.7,17.3,24.4,25.9,36.9c16.3,23.6,19.3,55.5,20.6,83.3
	c0.6,13.8,4,64.9-19.5,64.4c-29.6-0.6-59,4.1-88.1,8.6c-12.3,1.9-61.3,15.7-67.8,3.6c-13-24.2-23-42.6-26.2-70.6
	C170.4,501.7,207.6,456.4,240.2,405.5C247,414,235.7,412.4,240.2,405.5z M351,504.6c-1.8-5-18.5,0.4-25.1-0.8
	c-14.7-2.6-4.8,22.7-20.5,21.5c-38.7-2.9,11.1-35.4-21.8-41.9c-10.1-2-23.1,1-18.7,14.4c4.2,13,11.5,20.9-4.3,30.2
	c-14.5,8.6-18.2-5.9-24.3-14.7c-3.5-4.9-25.5-4-31.4-4.5c2.8,14.5,17.4,5.4,25,14c9.4,10.5-22.8,12.1-28.1,14.2
	c11.9,7.3,21.5-1.2,34.3,0.1c7.7,0.8,11.7,7.7,20.2,6.6c8.8-1.2,13.4-8.4,18.7-14.6c7.4-8.8,21.6,10.3,32.6,9
	c7.7-0.9,10-7.8,16.7-9.7c7.7-2.2,15.1,2.4,22.6-2.7c-7-6.3-15.1-2.1-20.1-10.4C334.6,511.7,345.2,512.1,351,504.6
	C350.6,503.6,345.3,512,351,504.6z M217.6,630.1c9.5-0.5,8.1-17.3,16.8-14.7c14.9,4.4,23.2-5.3,37.2,2.8c4.8-7.2-0.5-13.7-7.4-16.9
	c-7.8-3.6-15.6,4-20.8,8.7C226.2,602.6,220,613.6,217.6,630.1C224.4,629.8,218.1,626.3,217.6,630.1z M298,474.2
	c10.7-16.1,16.1-15.6,26.4,0.2c3.3-9.9-4.1-29.4-17.5-25.7C296.5,451.5,276.2,474.2,298,474.2C300.6,470.4,296.2,474.2,298,474.2z
	 M236.1,477.3c2.7-4.3,6.5-12.8,12.5-12.8c5.3-0.1,25.3,12.1,24,0.6c-0.8-6.5-15.4-14.3-21.6-13.6
	C241.5,452.4,224.9,468.8,236.1,477.3C237.2,475.5,230.3,472.9,236.1,477.3z M361.3,609.2c-0.6-12.5-9.2-21.2-21.3-13.6
	c-6.1,3.9-20.6,5.1-22,14c-1.1,6.9,17.2,0.6,22.2,0.5C346.2,595.2,351.1,603.7,361.3,609.2C360.5,593.7,358.5,607.7,361.3,609.2z"/>
<path opacity="0.66" fill-rule="evenodd" clip-rule="evenodd" fill="#FFFFFF" d="M171.5,598.7c10,5.6,20.4,33.6,27.1,43.6
	c-6,2.4-12.2,3.8-18.6,4.2c-9.8,1.2-18.8,9.2-20.5-2.7c-25.6,5-17.1,35.6-3.2,48.7c23.4,22.1,58.6,40.3,75.7,67.7
	c16.5,26.5,11.2,61.5-3.9,87.1c-7,11.8-16.4,22.7-30.3,26.2c-13.3,3.4-33.9,3.8-32.6-14.1c2.4-32.3,35-51.3,15.4-86.9
	c-14.7-26.5-52.8-40.4-75.5-59.6c-26.4-22.4-28.2-40.5-5.4-67.9C119.7,620.7,142,608.2,171.5,598.7C180,603.5,167.6,600,171.5,598.7
	z M215,836.9c-6.4-6.1-19.5,14.3-24.1,18.9C203.3,858.4,209.8,846,215,836.9C211.5,833.5,205.4,853.7,215,836.9z M190.3,839.3
	c8.5,6.9,20-6.5,14-14.5C199.6,829.7,194.9,834.5,190.3,839.3C195,843.2,195,834.5,190.3,839.3z"/>
<path opacity="0.66" fill-rule="evenodd" clip-rule="evenodd" fill="#FFFFFF" d="M1186.6,1837c-2.2,16-4.4,32-6.6,48
	c2,9.2-0.9,12.2-8.8,8.9c-7.5-0.1-13,11.3-16.6,16.1c-3.2-9.8-5.3-40-23.2-31c-6.3,3.2-11.7,5.6-16.1-2.3
	c-9.7-1.5-12.6,9.2-20.4,12.1c-4.1-14.9-10.8-31.1-10.8-46.7c18.8,3.2,35.7,2.6,54.7,1.2C1144.6,1842.9,1185.7,1836.5,1186.6,1837
	C1183.9,1856.5,1187.4,1837.6,1186.6,1837z"/>
<path opacity="0.66" fill-rule="evenodd" clip-rule="evenodd" fill="#FFFFFF" d="M1293.1,1941.3c-9.9-10.6-9.8-44.2-31.9-37.4
	c-7.7,2.4-8.9,12.1-16.1,14.2c-10.9,3.1-16.8,13.5-23.3,21.9c-11.4-20.3-8.9-26.9-33.5-12.8c-5.3-9.8-2-36.2,0.4-46.7
	c21,23.3,48.8,13.8,77.2,17.1c32.4,3.9,62.1-9,92.2-16.3c2.2,9.6,2.5,19.5,1.1,29.2c-14.1-3.3-26.5,0.3-40.2-2.4
	C1306.4,1905.4,1296.9,1933,1293.1,1941.3C1288.4,1936.2,1295.8,1935.5,1293.1,1941.3z"/>
<path opacity="0.66" fill-rule="evenodd" clip-rule="evenodd" fill="#FFFFFF" d="M1350.9,1866.9c2.1,20.5-128.7,28.3-145.5,16.6
	c-22.5-15.7,54.6-24.3,59.7-24.6C1292.8,1857.1,1324.8,1857,1350.9,1866.9C1351.5,1873.4,1346.9,1865.4,1350.9,1866.9z"/>
<path opacity="0.66" fill-rule="evenodd" clip-rule="evenodd" fill="#FFFFFF" d="M1208.2,1802.9c-5,6.9-10,13.8-15,20.6
	c-8.2,11.3-21,8.1-34.4,9.2c-19.9,1.7-48.1,8.5-66.7,0.1c6.5-14.5,42.7-18.1,56.4-22.2C1163.4,1806.2,1193.1,1800.7,1208.2,1802.9
	C1201.4,1812.3,1205.2,1802.5,1208.2,1802.9z"/>
<path opacity="0.66" fill-rule="evenodd" clip-rule="evenodd" fill="#FFFFFF" d="M1254.2,1824.8c5.4,16.9,12.1,23.2-8.6,26.5
	c-13.1,2.1-29.8,7.8-43,6.3c-9.1-1-3.1-18.3-2.4-23.4C1218.7,1834.4,1237.1,1832.2,1254.2,1824.8
	C1256.9,1833.3,1236.3,1832.5,1254.2,1824.8z"/>
<path opacity="0.66" fill-rule="evenodd" clip-rule="evenodd" fill="#FFFFFF" d="M1203.3,1828.1c6.7-10.8,24.9-37,40.4-23.4
	C1261.2,1820.1,1212.7,1825.3,1203.3,1828.1C1210.9,1815.8,1211.2,1825.8,1203.3,1828.1z"/>
<path opacity="0.66" fill-rule="evenodd" clip-rule="evenodd" fill="#FFFFFF" d="M314.4,1544.6c-20.2-7.6-8.7-32.8-34.6-32.8
	c0-9.7,1.5-19.3,4.9-28.4c12.8,2.2,25.8,3.4,38.8,3.3c25.4-0.1,50.7-4.9,74.5-13.8c4,11.6,3.9,25.5,1.9,37.5c-5.1-2-22.3,0.6-23.8-1
	c-8-8.7-6.6-12.5-20.1-7.8c-8.6,2.9-14.9,10.2-24.3,13.8C320,1519.9,318,1534.3,314.4,1544.6
	C305.8,1541.3,316.4,1538.8,314.4,1544.6z"/>
<path opacity="0.66" fill-rule="evenodd" clip-rule="evenodd" fill="#FFFFFF" d="M294.4,1469.9c14.6-8.4,32.6-10.2,48.9-12.8
	c5.9-1,66.4-7.1,46.7,7.4C374.2,1476.2,306.9,1487.8,294.4,1469.9C307.5,1462.4,296.1,1472.2,294.4,1469.9z"/>
<path opacity="0.66" fill-rule="evenodd" clip-rule="evenodd" fill="#FFFFFF" d="M2487.3,321.3c-0.9-41.9,50.8-109.2,97.5-98.8
	c26.3,5.9,47.1,7.9,68.5,26.2c19,16.2,31.9,38.1,31.5,64c-0.9,52.3-38.7,88.1-87.2,96.6c-24.7,4.4-55.9-3.5-76.3-17.9
	C2496.8,374.1,2491.1,349.4,2487.3,321.3C2486.9,302,2488.2,327.9,2487.3,321.3z"/>
<path fill-rule="evenodd" clip-rule="evenodd" d="M1915.8,1182.9c18.6,3.7,35.5,8.4,51.8,18.6c11.7,7.3,37.5,25.9,34.8,41.6
	c-9.7-2.5-15-14-22.2-20.7c-9.7-9-21.2-16-33.8-20.1c-13.2-4.3-23.4-9.1-37.7-9.8C1893.3,1191.6,1910.7,1183.6,1915.8,1182.9
	C1922.2,1184.2,1912.9,1183.3,1915.8,1182.9z"/>
<path fill-rule="evenodd" clip-rule="evenodd" d="M1506.2,1295.6c-10.7-12.8,15.8-36,24.2-43.3c2.8-2.4,38.5-31.8,32.5-15.4
	c-3.1,8.4-25.3,17.2-32.1,23.6C1524.5,1266.5,1512.7,1295,1506.2,1295.6C1502.3,1290.8,1511,1295.1,1506.2,1295.6z"/>
<path fill-rule="evenodd" clip-rule="evenodd" d="M1956,1233.5c-14.3-6.7-27.8-11.8-43.1-16.1
	C1922.1,1198.8,1961.7,1228.1,1956,1233.5C1949,1230.2,1956.7,1232.9,1956,1233.5z"/>
<path fill-rule="evenodd" clip-rule="evenodd" d="M1555.6,1262c-7.3,11.2-19.3,20.1-28.8,29.4
	C1524.9,1279.7,1542.2,1253.5,1555.6,1262C1554.4,1263.7,1549.7,1258.3,1555.6,1262z"/>
<path fill-rule="evenodd" clip-rule="evenodd" d="M1796,582.5c-3.9-14.9,86.8-10.4,78.2,21.7C1851.8,586.3,1824.5,577.4,1796,582.5
	C1794.5,577,1825.5,577.2,1796,582.5z"/>
<path fill-rule="evenodd" clip-rule="evenodd" d="M1859.1,611.9c-13.8-4.6-27.7-9.2-41.5-13.7C1826,589.2,1856.4,598.6,1859.1,611.9
	C1845.4,607.4,1857.8,605.8,1859.1,611.9z"/>
<path fill-rule="evenodd" clip-rule="evenodd" d="M1455.2,871.9c-40.7,0.8-13.6-65.2,20.4-63.7
	C1515.9,810,1488.9,874.7,1455.2,871.9C1447.5,872.1,1476.3,873.7,1455.2,871.9z M1456.5,843.5
	C1425.1,864.6,1479.6,860.5,1456.5,843.5C1453.4,845.6,1458.8,845.3,1456.5,843.5z"/>
<path fill-rule="evenodd" clip-rule="evenodd" d="M1359.7,850.2c-2.5,17.4-13.8,32-28.6,40.8c-18.1,10.9-37.2-13.2-28.9-30.2
	c7.1-14.6,9.4-27.7,27-33.6C1348.1,821,1355,834.5,1359.7,850.2C1358,862.1,1358.5,846.3,1359.7,850.2z M1318.7,878.5
	c8.6-9.1,8.9-13.5,1.7-19.4C1310,865.5,1309.3,871.5,1318.7,878.5z"/>
<path fill-rule="evenodd" clip-rule="evenodd" d="M530.9,1206.5c-7.5-21.3,29-79.1,52.2-75.9c-2.5,13.8-20,23.1-26.9,35.7
	C548.7,1180.1,544.6,1197.2,530.9,1206.5C527.5,1196.7,533.1,1205,530.9,1206.5z"/>
<path fill-rule="evenodd" clip-rule="evenodd" d="M581.7,1157.2c-0.6,6.4-15.3,42.8-21.9,32C554.5,1180.3,573,1157.2,581.7,1157.2
	C581.4,1160.7,579,1157.2,581.7,1157.2z"/>
<path fill-rule="evenodd" clip-rule="evenodd" d="M1220.7,991.1c-6.1-9.4,2.1-61.5,13.6-52.2
	C1227.1,955.5,1224.3,973.5,1220.7,991.1C1218.6,987.8,1224.7,971.9,1220.7,991.1z"/>
<path fill-rule="evenodd" clip-rule="evenodd" d="M1236.3,981.6c-9.2,3.8-4-27.6,4.7-31.4C1243.1,955.4,1236.3,974.8,1236.3,981.6
	C1232.2,983.3,1236.3,975.8,1236.3,981.6z"/>
<path fill-rule="evenodd" clip-rule="evenodd" d="M400.5,329.7c-11.5-4.9-11.5-24.2-19.2-33.4c-10.7-12.8-26.5-20.3-40.6-28.6
	c-27.1-16-54.2-50.2-24.7-79.4c7.5,4,0.8,27.5,2.9,35.6c4.2,16.4,12.7,27,26.6,35.7C371.3,275.9,402.5,294,400.5,329.7
	C393.9,326.9,400.7,326.4,400.5,329.7z"/>
<path fill-rule="evenodd" clip-rule="evenodd" d="M436.5,323c-42.6,0.1-41.2-136.3-19.2-133.1c11.7,1.7,0.9,19.6-0.8,22.9
	c-6.2,11.6-5.1,25.1-4.6,37.7C413.2,277.9,425.8,298.8,436.5,323C428.7,323,434.4,318.3,436.5,323z"/>
<path fill-rule="evenodd" clip-rule="evenodd" d="M351,504.6c-5.8,7.5-16.4,7.1-24.3,10.6c5,8.4,13.1,4.2,20.1,10.4
	c-5.5,2.8-11.2,3.5-17.2,2.3c-7.9-0.3-9.4,4.7-15.8,8.1c-16.5,8.8-22-12.2-34.4-10.6c-14.3,1.8-16.7,29.4-36.7,14.4
	c-12-9-27.8,5.2-41-2.9c4.9-2,31.4-3.5,30.1-10.6c-2.5-13.6-24-2.2-27-17.6c9.2,0.8,19.3,1,28.4,2.6c9.8,1.7,5.8,20.1,20.7,18.8
	c35.8-3.1-5.7-48.2,21.9-47.7c43.9,0.8-4.8,32,22.6,41.3c20.2,6.9,12.1-11.5,21.9-19.6C323.6,501.4,350.7,503.8,351,504.6
	C345.3,512,350.6,503.6,351,504.6z M279.6,503.8C296.1,492.8,266.5,483.6,279.6,503.8C284.3,500.7,277.9,501.2,279.6,503.8z"/>
<path fill-rule="evenodd" clip-rule="evenodd" d="M217.6,630.1c1.5-10.4,6.2-27.7,20.1-22.5c11,4.1,11.4-7.3,22.3-7.3
	c8.8,0,17,9.9,11.7,17.9c-14-8.1-22.3,1.6-37.2-2.8C225.7,612.8,227,629.7,217.6,630.1C218.1,626.3,224.4,629.8,217.6,630.1z"/>
<path fill-rule="evenodd" clip-rule="evenodd" d="M298,474.2c-18.9,0-6-14.2,1.8-21.3c14.3-13.1,29.4,7,24.7,21.4
	C314.1,458.6,308.7,458.1,298,474.2C296.2,474.2,300.6,470.4,298,474.2z"/>
<path fill-rule="evenodd" clip-rule="evenodd" d="M236.1,477.3c-9.9-7.5,1.8-19.5,9.1-23.8c7.7-4.5,26.4,2,27.5,11.6
	c1.2,10.7-15.2,1.5-19.7,0.1C244,462.5,240.2,470.8,236.1,477.3C230.3,472.9,237.2,475.5,236.1,477.3z"/>
<path fill-rule="evenodd" clip-rule="evenodd" d="M361.3,609.2c-4.5-2.5-15.8-14.7-19.4-4.2c-1.2,3.5-23.5,10.1-23.9,7.5
	C315.9,599.8,359.8,579.1,361.3,609.2C358.5,607.7,360.5,593.7,361.3,609.2z"/>
<path fill-rule="evenodd" clip-rule="evenodd" d="M485.3,652.4c-10.3,1.9-56,8.8-62.2,0.6C437.5,641.2,469.5,649.7,485.3,652.4
	C482.2,652.9,449.6,646.3,485.3,652.4z"/>
<path fill-rule="evenodd" clip-rule="evenodd" d="M452,666c12.2-4.8,24.5-5.4,37.1-1.3C476.8,667.3,464.5,669.2,452,666z"/>
<path fill-rule="evenodd" clip-rule="evenodd" d="M215,836.9c-5.2,9.1-11.7,21.5-24.1,18.9C195.5,851.1,208.6,830.8,215,836.9
	C205.4,853.7,211.5,833.5,215,836.9z"/>
<path fill-rule="evenodd" clip-rule="evenodd" d="M190.3,839.3c4.7-4.8,9.4-9.6,14-14.5C210.2,832.8,198.8,846.3,190.3,839.3
	C195,834.5,195,843.2,190.3,839.3z"/>
<path fill-rule="evenodd" clip-rule="evenodd" d="M1319.7,1993.2c1-8,1.5-54.3,13.6-50.4C1334.1,1955.4,1333.7,1988.9,1319.7,1993.2
	C1321.8,1976.5,1327.1,1990.9,1319.7,1993.2z"/>
<path fill-rule="evenodd" clip-rule="evenodd" d="M1314.6,1958c-4.1,11-3.4,23.5-10.2,33.5C1299.2,1982.9,1301.8,1958.7,1314.6,1958
	C1310.3,1969.7,1306.7,1958.5,1314.6,1958z"/>
<path fill-rule="evenodd" clip-rule="evenodd" d="M1184.7,1740.3c-2.9,10.2-10.3,22.2-15.3,25.5
	C1169.1,1758.6,1176,1746.6,1184.7,1740.3z"/>
<path fill-rule="evenodd" clip-rule="evenodd" d="M1161.9,1735.9c0.8,8.4-2.7,12.9-9.8,12.9C1153.5,1743,1156.7,1739,1161.9,1735.9z
	"/>
<path fill-rule="evenodd" clip-rule="evenodd" d="M1118.2,1897.6c3,9.9,1.7,28.7-3.1,37.9
	C1111.6,1930.1,1106.5,1896.9,1118.2,1897.6C1120.2,1904.4,1113.5,1897.3,1118.2,1897.6z"/>
<path fill-rule="evenodd" clip-rule="evenodd" d="M1124.1,1934.8c0.2-7-5.1-12.5,1.1-17.8
	C1131.7,1922.9,1131.8,1928.6,1124.1,1934.8z"/>
<path fill-rule="evenodd" clip-rule="evenodd" d="M363.5,1539.4c2.7,1.9,5.4,3.9,8.1,5.8c4.5-11.6,13.1-8.4,11.4-5.6
	c-5.4,9-10.6,17.5-15.6,26.8C361.5,1561.8,357.7,1544.3,363.5,1539.4C366.1,1541.2,362.7,1540.1,363.5,1539.4z"/>
<path opacity="0.66" fill-rule="evenodd" clip-rule="evenodd" fill="#FFFFFF" d="M1456.5,843.5
	C1479.6,860.5,1425.1,864.6,1456.5,843.5C1458.8,845.3,1453.4,845.6,1456.5,843.5z"/>
<path opacity="0.66" fill-rule="evenodd" clip-rule="evenodd" fill="#FFFFFF" d="M1318.7,878.5c-9.3-6.9-8.6-13,1.7-19.4
	C1327.6,864.9,1327.3,869.3,1318.7,878.5z"/>
<path opacity="0.66" fill-rule="evenodd" clip-rule="evenodd" fill="#FFFFFF" d="M279.6,503.8C266.5,483.6,296.1,492.8,279.6,503.8
	C277.9,501.2,284.3,500.7,279.6,503.8z"/>
</svg>
