<?xml version="1.0" encoding="utf-8"?>
<!-- Generator: Adobe Illustrator 16.0.0, SVG Export Plug-In . SVG Version: 6.00 Build 0)  -->
<!DOCTYPE svg PUBLIC "-//W3C//DTD SVG 1.1//EN" "http://www.w3.org/Graphics/SVG/1.1/DTD/svg11.dtd">
<svg version="1.1" id="Layer_1" xmlns="http://www.w3.org/2000/svg" xmlns:xlink="http://www.w3.org/1999/xlink" x="0px" y="0px"
	 width="2381.1px" height="2834.6px" viewBox="0 0 2381.1 2834.6" enable-background="new 0 0 2381.1 2834.6" xml:space="preserve">
<path fill-rule="evenodd" clip-rule="evenodd" fill="#ED9300" d="M868.4,1651.9c-4.7-10.3-43.6,47.8-50.3,63.3
	c-17.8-17.1-86.1-54.7-89.3-81.1c-2.7-22.6,20.8-44.3,30.4-63.4c-12.1-10.8-30.6,20.2-28.9,30.7c6.1,38-50.5-11.4-52.4-13.2
	c-9.2-9.2-55-68.9-53.9-84.8c1.2-16.5,23.5-43.8,18.2-37.8c-11.7,13-16.3,13.9-20.7,21.2c-14.4,23.9-36.9-42.8-42-50
	c-38.3-54.1,15.9-113.5,47.2-146.6c-4.3-19.4-68.6,88.3-69.3,88.1c-13.3-5.1-46-107-37.1-111.2c5.9-2.8,20.6-65,24.8-74.9
	c6.8-16,46.2-98.7,44.9-98.9c-24-4.5-70.3,140.5-82.7,136.4c-15.7-5.2-5.7-46.4-12-55.9c-16.9-25.6,6.3-49.5,3.8-65.1
	c-5.7-35.2,29.7-71,27.2-103.6c-1.7-22.7,19.4-85.8,28.2-105.4c17.2-38,33.4-89.5,43.9-129.9c47.9,32.7,80.7,50.9,119.8,93.1
	c51,54.9,14.7,10.7,3.7-14.5c-9.9-22.5-121.7-126.4-67.5-141.5c28.5-8,72.2-72,93.7-93.4c25-24.9,53.5-47.2,79.3-71.8
	c38.4-36.7,82.7-89.1,128.8-115.5c26.8-15.3,57.1-25.8,82.7-43.3c18,13.4,43.2,59.4,47.5,79.7c4.9,23.6,12.4-9,13.6,16.4
	c1.2,25.7,18.4,8,7,0.5c-13.9-9.1-53.2-88.8-42.5-109.8c10.7-21,104,2.5,123.2,2.4c33.3,0,124.1,22.8,155.5,34
	c32.2,11.5,93.2,16.9,122.5,24.7c36.8,9.8,40.7,31.6,59.6,65.5c-44.2,21.7-154.9-43.5-188.2-26.8c6.2,14.7,59.1,10.3,75.3,16
	c37,13,72.5,18.7,108,36.7c30.7,15.6,40.8,39.9,57.3,72.7c-10.1,12-53.2-0.2-70-2.9c-15.9-2.6-22.2-18.9-34.4-2.6
	c6.1,8.6-1.6,11.1,11.5,8.6c47.4-9,159.1,54.7,148.3,111.1c-11.9-6.4-24.5-8.4-37.7-6c0,26.9,48.2,14.7,60.2,39.4
	c13.9,28.3,44.9,53.4-0.8,53.4c-2.4,16.6,19.9,17.8,32.7,17.5c15.4-0.4,30.4,39.2,37.6,50.8c28.7,45.7-13.3,8.4-29.3,32.1
	c11.6,22.5,58.6,5.4,72.2,37.7c7.7,18.3,40.3,48.7,40.3,66.9c-18.5-9.6-57.4-13.7-75.3-3.3c14,14.9,47.8-0.1,69.3,5.3
	c25.7,6.5,71.3,64.4,71.3,92c-7-4-36.7,8.3-43.3,13.3c-22.6,17-69.3-16.7-90.7-1.3c2.5,7.1,103.3,18.5,128.6,22.2
	c45,6.6,69.2,58.7,88.7,97.1c-27.8,7.1-91.3,16.7-122,18.7c-41.5,2.6-85.5-4.5-122,14c4.2,16.3,135.1-5,160-7.3
	c68.2-6.3,121.5-0.6,154,71.3c-66.2,14.9-141.5,32.4-206,52c-56,17,39.6-1.3,56-3.3c50.1-6.2,103.2-6,154-3.3
	c-14.9,31.7-70.8,104.6-98.7,126.2c-51.7,39.9-102.1,89.4-157.4,126.5c-60.6,40.6-116.3,86-184.1,128.4
	c-56.8,35.5-140.2,57-203.1,76.2c-50.9,15.6-121.6,14.7-174.7,14.8c-80.5,0.1-167.6-0.6-242-35.5c-17-8-3.5-26.5-5.3-39.3
	c-3.7-25.9-11.8,0.8-13,3.4c-8.6,18.6-40.5,2.4-53-1.4c-29.9-9.3-66.5-27.6-61.9-57.4c4.7-30.4-0.6-4.4,12.9-31.7
	C848.1,1672.9,859.6,1669.7,868.4,1651.9z"/>
<path fill-rule="evenodd" clip-rule="evenodd" fill="#851E25" d="M1983.9,1475.8c0,22.9-60,59.7-73.3,79.1
	c-28.7,41.5-77.9,87.4-119.9,114c-54.5,34.5-101,79.9-156.6,112.5c-61.5,36.1-120.4,68.3-188.5,88.1c-58.4,17-117.5,24.3-183.3,28.7
	c-110.7,7.3-160,2.6-223.4-17c-167-51.7-261-139.7-367.2-246.3c-18.3-18.3-79.2-98.9-94.3-126.5c-24.4-44.7-68.9-122.3-78.5-140.6
	c-14.5-27.5-40.3-84.6-42.2-113.3c-2.4-35.5-14.1-72.3-16.1-107.6c-5.4-94.9-53.3-80.2-11.7-278.5c2.5-12,4.1-25.9,4.1-38.1
	c0.1-24.3,6.8-45.9,12-70.7C455,712,473,647.3,485.6,600.1c21.3-80.1,45.2-127.5,82.7-192.7C622,314,672.9,236.5,765.1,176.6
	c93.8-60.9,194.3-117.9,303.8-141.8c92.1-20.1,189.9-38.6,284.9-16.9c38.7,8.8,88.5,15.1,128.2,16.9c71.1,3.2,137.6,46.5,202.9,68.7
	c126.8,43.2,238.2,136.7,339.1,224.1c170.3,147.5,261.7,333.3,249.1,568.1c-5.3,98.6-13,183-68.2,275.3
	c-30,50.2-42,110.6-86.3,151.3c-45,41.3-137.7,176.6-128.4,148.7C1990.5,1469.4,1987.4,1473,1983.9,1475.8z M1203.1,1850.3
	c83.1,0,161.1-3.9,238.2-35.8c50.9-21,95.4-35.8,148.2-61.7c67-32.9,119.1-88.7,181.6-129.4c53.3-34.7,100-79.3,150.1-117.5
	c30.3-23.1,81.8-86.2,102.6-123.7c11.1-20,34.2-46.5,49-65.3c12.7-16.2,36.5-52.5,53.3-63.4c8.7-23.3,45.5-44.2,47.5-71.2
	c1.6-20.9,27.8-70,34-91.7c26.2-92.8,24.6-176.3,24.5-258.1c-0.2-122.3-44-216.8-108-320.4c-21-34.1-47.5-66.6-74.8-95
	c-39.4-40.9-86-91.6-133.2-122.6c-108.5-71-199.8-140.7-323.9-179.6c-209.7-65.6-462.5-69.3-665.4,16.5
	C835.9,169.7,736.4,234,674.7,311.5c-36.1,45.4-73,107.8-100,157.8c-16.9,31.3-33.9,84.8-45.4,118c-8.6,24.7-27.3,83.7-35,108.7
	c-9.3,30.4-13.5,71.8-16.8,100.1c-6.4,55.8,3.7,109.8-5.3,166c-7.9,49.1,4.7,93.8,5.2,142.3c2.1,195.5,120.4,413.9,242.4,530.5
	c142.7,136.2,264.5,191.8,463.2,219C1196.2,1855.8,1217.9,1836.5,1203.1,1850.3z"/>
<path opacity="0.25" fill-rule="evenodd" clip-rule="evenodd" fill="#FFFFFF" d="M701,289.7c15.1,3.4,76.6-64.6,87.7-73
	c26.5-20.2,100.4-60,132.6-76c28.7-14.3,95.9-35.8,128-45.5c47.8-14.5,95.9-18.7,144.1-23.3c207.7-19.9,372,12.9,568,130.9
	c108.6,65.4,220.2,165.3,305,259c63.3,69.9,147.8,200.2,148.1,299.1c0.2,55.4,11.7,104.3,11.7,160.4c0,35.9-1.4,92.8-10.4,128.4
	c-4.9,19.4-26.6,103.5-40.9,118c-12.3,12.5-22.2,38-27.9,54.1c-10.5,29.9-61.5,69-79.7,95.1c-133-141.3-253.3-305-347.4-478.5
	c-59.5-109.7-124.6-230.1-181.2-347.1c-7.5-15.6-26.8-54.2-37.6-63c-5.2-4.2-49.3-6.3-60.4-7.2c-47.4-3.8-100.4-31.2-148-33.3
	c-83.5-3.5-157.5-40.7-240.2-38.5c-11.6,0.3-24.6-16.9-33.8,0c-6.7,12.4-22.7,13.3-33,22.5c-15.4,13.8-43,43.2-59.4,51.5
	C873.7,450,838.7,509.8,792.4,543C739,581.4,682.7,639,641.1,690c-11.8,14.5-4.6,2.9-43,57.1c-14.2,20-27.4,39.6-33,63.8
	c-21.1,90-55.9,177.5-78,267.4c-32.4-49.8-9-163.8-3.2-220.2c3.4-33-4-68.7,5.8-103.1c4.7-16.6,12.9-63.6,14.9-78.9
	c3.6-27.7,9.1-46.3,22.7-80.8c12.9-32.6,32.8-77.7,47.9-110.3C606.5,417.1,654.2,349.5,701,289.7C707.4,291.2,697,294.8,701,289.7z"
	/>
<path fill-rule="evenodd" clip-rule="evenodd" d="M1324.3,0c2.3,12.5,125,16.5,139.4,17.3c64.7,3.4,139.1,36.3,196.5,63.8
	c27,12.9,55.8,24.3,84.2,33.8c30,10,40.8,25.8,66.4,42.4c56.2,36.4,114.3,85.4,172.9,116.3c32.1,16.9,73.8,66.2,93.1,95.9
	c32.7,50.7,91.1,83.5,113.1,142.8c19,51,59.2,83.6,68.1,148.3c6.4,46.6,12.5,106.4,34.1,145.6c14.5,26.2-7.1,83.8,1.1,114.7
	c7.2,27,5.2,67.1,5.2,96c0,59.4,7.1,120.2,7.9,178.6c0.3,25.2-34.4,77.5-51.4,98.9c-34.3,43.4-63.7,96.6-103.4,135.4
	c-32.7,32-52.4,93.5-86,131.6c-30.5,34.6-25.4,33.2-7,69.6c13.8,27.4,27.5,52,47.1,75.3c38.5,45.6,81.4,112.1,108.1,165.8
	c16.3,32.6,43.6,66.8,67.9,94.2c12.2,13.8,47.3,46,48,67c0.6,18.6-10.4,101.6,7.4,112.6c-2.7,13.9,6.7,37.6,8.1,50.2
	c2.4,21.2,9.2,41.2,19.6,60.5c9.9,18.2,37.3,143.5-12.9,106.2c-54.1-40.3-109.9-77.7-171.6-105.5c-43.9-19.8-95.6-38.2-124.4-73.9
	c-29.2-36.3-66.1-72.3-91.8-109.3c-30.9-44.5-150.1-248.4-202.6-215.9c-53.4,33-109.4,72.6-166.1,98.8
	c-45.9,21.2-99.7,46.3-151.9,45.8c-5.2,0-55.4,10.1-57.8,11.9c-9.5,7.3-60.8,4.1-75.5,4c-50.1-0.1-107.6,20-156.4,1
	c-15.9-6.2-40.6,10.9-61.3-0.6c-10.2-5.7-44.4-4.4-55.2-4.5c-41.2-0.4-94-9.4-133.7-23.4c-34.3-12.1-194.6-114-194.2-31.4
	c0.1,19.7-29.4,70.8-39.4,89c-15.4,28-30.1,52.6-38.8,83.1c-21.4,74.9-58.2,146.2-69.7,224c-10.3,69.5-38.2,163.1-73.3,225.1
	c-22.1,39.2-39.1,96.4-73.4,127.5c-40.2,36.4-75.6,121-138.3,124.2c-54.8,2.8-98,8.2-151.7-24.9C78.3,2779,12.4,2707.4,10.1,2649.3
	c-0.2-5.4-6.7-22.5-10.1-59.6c0-14.3,7.1-55.6,9.2-71.4c3.2-23.2,17.9-63.3,25.5-80.4c10.4-23.5,40.6-48.4,46-72.4
	c35.1-8.2,70.7-83.1,102.2-105.8c56.3-40.5,109.1-86.2,165.6-126.3c46.9-33.3,129.3-100.5,152.7-155.7c2.8-6.7,25.4-28.9,30.3-34.6
	c10.1-11.5,11-29.3,21.1-40.8c9-10.2,33.6-55.2,33.6-67.7c0-8.3,8.8-9.5,8.1-17.4c-1.4-15.7-7-7.2-12.8-23.7
	c-8.6-24.7-31.3-48.6-42.2-73.2c-22.7-50.8-50.2-106.5-79.2-155.5c-21.5-36.4-41.6-75.8-60.8-113.1c-8.6-16.8-16.6-57.3-28.3-69.8
	c-9.9-10.5,6.7-46.2-5.7-56.9c-12.6-10.9-10-125.2-6.5-132.1c8.6-16.5,9.2-83.8,24-94.1c17-11.7,16.2-118.5,16.6-141.2
	c0.6-36.8,30.1-78.1,23.4-114.8c-6.8-37.5,20.3-93,27.7-127.7c8.7-40.8,13-87,33.2-124.5c11.7-21.7,7.9-52.1,24.3-71.9
	c2-17.1,29.3-47.2,27.4-60.8c-3.6-25.1,53.4-95.7,68.5-118.5c54.1-82.1,109.8-148.7,195.8-201C957.3,42.7,1147.2,0,1324.3,0
	C1324.9,3.2,1319.8,0,1324.3,0z M1984.7,1471c38.2-30.3,65-82.9,99.2-117.6c37-37.5,71.2-94.1,95.7-140.5
	c35.9-68,84.1-167.2,85.7-244.7c1-49.3,7.9-96.6,7.8-146.2c-0.1-31.8-18.2-76.7-25.4-106c-14.6-58.9-23.4-106.2-35.9-135
	c-26.1-60.1-54.8-110.1-99.6-157.3c-45.3-47.7-97.4-108.7-155.2-141.9c-57.8-33.2-119-75.2-172.3-114.4
	c-51.4-37.8-122.8-66.7-185.3-97.1c-49.3-23.9-96.3-33.1-150.5-38c-60.9-5.5-126.1-17.1-187.8-17.1c-29.5,0-119.9-2.2-143.5,20.2
	c-16.2,15.5-65.7,9.6-86.3,15.9c-60.7,18.5-114.8,39.4-170.5,69.5C769,170.4,680.6,231.8,629.9,316.8c-14.5,24.4-32.5,49.6-45,74.7
	c-8.7,17.5-26.7,63.6-42.3,75.8c-7.2,5.6-38.2,69.5-35.7,79.9c2.1,8.7-7.1,38.8-12.2,46.7c-19.9,30.9-14,66.7-30,97
	c-5.3,10.1-0.1,47.1-8.5,54.2c-11.6,9.8-21.1,60-20.2,75.8c1.7,29.5-4.1,77.7-12.2,105.8c-5.2,18.2-9.1,139.6,6.8,153
	c0.1,0.1,23.3,109.9,21.8,114.1c-5.3,14.4,11.8,93.7,23.6,104.6c7.9,32.8,40.8,95.3,56.3,121.9c22,38,48.3,97.2,78.9,128
	c97.2,98.1,180.2,225.9,313.7,282c63.2,26.6,123.2,64.5,193.7,64.8c72,0.3,143.1-10.9,214.6-12.1c69.5-1.2,151.7-23.3,212-56.3
	c34-18.6,67-36,101.4-54.4c34.4-18.4,62.7-45.7,92.8-70.7c54.9-45.4,102.8-76.7,145-119.6c16-16.3,33.3-46.6,50.6-55.2
	C1945.2,1521.8,1984.7,1481.7,1984.7,1471C1988.2,1468.2,1984.7,1472.6,1984.7,1471z"/>
<path fill-rule="evenodd" clip-rule="evenodd" fill="#851E25" d="M246.4,2824.5c-45.1-8.2-76.9-13.7-118.4-33.9
	c-13.2-6.4-58.1-40.9-57.6-57.1c0-0.6-25.3-37.1-27.9-40c-8.4-9.1-12.5-44.5-18.7-49.8c-27.5-23.6,5-100.5-3.6-127.1
	c-10.5-32.1,39.9-107.7,59.8-129.2c81.6-88.5,166.7-180.5,271.5-244.3c32.9-20,102-76.5,120.7-110.7c28.4-51.9,77.1-89.2,102-144.1
	c15.5-34.1,40.7-122.2,86.7-124.6c32.1-1.7,52.4-12.7,81.4,10.4c5.3,4.2,36.8,54.4,26.7,63.4c-8.8,7.9-31.1,50.4-34.7,62.5
	c-5.2,17.6-35.3,56.4-47.2,71.2c-28.8,36-40.5,98.9-58.9,141.2c-81.9,187.3-87.9,437.5-229.5,594.5
	C382.4,2724.7,266.1,2855.5,246.4,2824.5C242.1,2823.7,246.7,2824.9,246.4,2824.5z"/>
<path opacity="0.75" fill-rule="evenodd" clip-rule="evenodd" fill="#851E25" d="M857.8,1824.6c-2.9-3.7-5.9-7.4-8.8-11.2
	c-14.9,30.9-7.3,70.2-23.4,101.3c-29.1-19-27.8-13.9-26.6-41.5c0.9-23,35.1-68.8,14.3-79.2c-4,13.7-17.1,84.7-30.4,92.1
	c-19.2-12.6,0.4-30.5,0.3-57c0-16.2-6.1-85.2-18.9-57.7c-7.6-8.4-14.8-16.4-25.5-21c-20.8-9.1,5.2-12.6-10.6-27.6
	c-14,15-45.4,35.1-65.1,17.4c8-16.5,38.5-44.4,25.5-58.2c-13.2,21-22.9,39.5-32.4,61.8c-3,7.1-37.6,15.4-39.3,0.3
	c-3.1-26.8-13.3-11.9,4.6-39.9c9.2-14.4,43.2-44.3,27.4-56.2c-10.3,16.3-39.5,40.9-43.4,59.6c-4.9,23.6-36.1-23.3-39.4-26.9
	c7.6-10.4,54.4-63.4,47.3-69.6c-10.8-9.4-44.1,57.4-52.7,63.8c-17.6-22.5-38.3-37.4-17.5-64.4c15-19.4,47.2-31.9,33.8-56
	c-4.6,6.8-70,86.5-62,41.7c-0.1,0.8-10.5-19.7-10.7-19.9c-8.6-14,15-20.9,14.9-32.6c-0.1-4.4,22.9-23,26-26.1c7-6.7,8-25.2-2.7-15.1
	c-16.7,15.7-26,42.2-44.7,55.7c-7.4-12.7-22.7-33.9-15.5-48.9c9.2-19.2,33.1-45.8,32.4-67.5c-19.7,0-30.9,50.9-43.9,66.3
	c-12.4-23.6-28.8-36.4-19-62c5-13,36.7-51.2,23.1-63c-11.4,22.1-21.2,45.2-35.2,65.9c-5.2-17.2-14.8-46.6-25.6-61.2
	c12.6-23.5,30.9-45,39.3-70.5c-9.9-3.4-33.1,46.3-42.3,53.5c-3.6-25.2-22.9-30.1-8.6-54.4c7.3-12.4,47.4-70.9,33.2-81.8
	c-9.5,18.2-45.2,67.1-44,79.9c-5.3-55,6.7-81,43-125.3c-16-8.2-38.8,43.1-49.8,60.6c-21.2-48.8,32.5-79,32.5-122.1
	c-14.4,6.9-17.8,30.7-27.7,43.4c-16.6-21.9,17.2-126.7,21.1-153.8c8.1-0.5,37.1,239.1,48.2,264.9c42.4,98.7,85.6,190.5,143.1,283.1
	c62.1,100,169,175.9,264.1,242.2c59.2,41.3,125.4,68.6,192.8,92.6c56.5,20.1,136.9,4.7,201.6,4.6c234-0.5,437.5-132.9,604.6-286.3
	c80.1-73.5,140-162.7,215.4-240.6c76.3-78.9,117.6-189.5,163.4-286c16.9-35.6,19.4-74.9,33.3-110c17.4,20.8,11.4,94.5,11.4,120.1
	c0,22.8,16.9,97.6-7.4,111.7c-6.8-9.1-4.9-51.2-6.2-67.1c-1.5-18-0.2-63.2-9-77.9c-4.3,20.5-17.8,28.8-10.4,50.2
	c7.4,21.4,9.6,51.1,9.6,74.2c0,9.1,9.5,88.5-12.6,83.3c-16.6-3.8-18-107.3-21.6-120.2c-11,33.3-3.1,62.1-0.9,95.4
	c0.6,9.7,16.2,77.3-13.3,71.5c-16.7-3.3-11.6-84.8-16-97.3c-25.5,39.3,12.4,90.9-5.9,129.5c-8.5,18-19.8-76.9-21.7-77.8
	c-14,19.3,6.3,55.2-1.7,68.5c-6.1,10.1,6.4,24.1,3.5,32c-4.5,12.2-17.3,26.6-26.1,36.1c-9.4-26.4-9.8-58.4-9.8-86.2
	c-21.5,5.6-6.4,28.7-6.3,41.4c0.1,38,2.5,62.3-18,94.2c-15.7-7.1-11.2-76-11.2-88.8c-21.2,9.4-11.2,47.7-9.6,64.2
	c3.7,39,5.5,55.8-19.4,88.1c-8.9-30.1-8.1-73.5-9.8-104.7c-14.4,8.4-8.6,82.8-5.2,96.9c6,24.4,7.7,16.8-9.2,41.7
	c-5.1,7.5-16.3,32.2-28.1,25.9c12.6-16.1-3.8-84.6-3.8-109.9c-13.4,1.8-20.8,113.1,4.7,120.1c-1.5,10.6-31.5,34.7-37.6,42.2
	c-16-6.7-14.3-91.5-14.3-107.4c-22.5,0-6.2,48.7-5.8,61.6c0.8,23.4,11,56.3,0.8,70c-26.9,36.3-30.1-76.4-30.1-96.4
	c-24.8,4,26.3,154.7-24.5,147c-9.8-1.5-10.6-91.7-10.6-103.9c-21.8,9.5-6.5,37.2-5.6,55.2c1,20.2-0.2,41.1-0.2,61.4
	c0,16.9-11.1,6.8-12.9,21.7c-2.7,22.1-16.1-23.3-16.1-26.2c-0.1-25.6-4.8-51.1-8.2-76.4c-13.3,5,12.8,175.1-35.4,146.9
	c-14.8-8.7-14.2-92-15.1-109.6c-16.5,15.6-2.2,42.1-1.9,62.4c0.6,48.3,9.4,61.7-33.8,90.1c-24.2-13.2-10.9-93.3-10.9-112
	c-39.6,15.4,19.5,104.1-16.8,128.1c-42.3,28-33.8-58.5-33.8-89.2c-18.9,8.8-6.5,79.6-5.7,99.9c0.6,15.3-37.4,37.2-37.1,11.5
	c0.3-25.2-3.9-53.6-3.9-80.2c-19.2,4.7-1.3,99-25.4,117.3c-36.6,27.7-33-56.8-33-82.1c-12.8,5.8-12.3,102.5-0.1,105.4
	c-28.8,20-30.5,13.4-31.1-21c-0.4-21.8-3.9-45.4-3.9-68.6c-31.6,13.8,16.7,99.7-12.7,111.8c-54.8,22.6-34-49.1-34-84.7
	c-33.8,0,24.5,131.5-44.8,107.6c2.6-18.7,10.5-95.5-7.4-96.4c-1.1,19.7,9.8,65.6-3,82.4c8.2,25.6-22.3,33.4-46,29.8
	c11.1-14-0.4-23.2-0.6-36c-0.2-19.2,11.7-59.2-10.9-60.8c2.6,22.9,17.2,100.4-9.8,105.2c-51.7,9.3-27.4-58.6-29.1-92.5
	c-43.4,18.1,27.9,96.4-46.1,97c-30.6,0.3-47.9,10.1-47.8-23.8c0.1-24.4-2.7-41.9,0.9-66c-40,0.1,10.6,90.8-25,93.7
	c-33.9,2.8-14.8-72.1-14.8-93.2c-21.4,0-13.7,76.1-13.7,95c-44,14.6-34.9-72.6-23.4-95.9c-46,21,26.3,97.2-48.4,93.8
	c-6.9-0.3,0.2-80.1,2-89.3c-34.1,0,12.2,84.2-35.9,84.2c-38.2,0-15-62.6-12.8-83.9c-30.1,0,4,104.1-46.7,74.7
	c-37-21.5,2.2-76.5-25.7-90.9c0,15.3,5.3,78.2-16,78.3c-50.4,0.1,3.8-91-30.8-93.5c0,22.8,7.8,128.1-45.5,73.8
	c-12.4-12.6,5.5-103.8-9-96.9c0,21.2-3.6,41.2-3.9,62.8c-0.4,31.9-41,27-40.9,7.3c0.1-22.1,2-41.9,3.9-63.1
	c1-11.2,21.2-41.4-5.8-34.7c0,20.3-2.9,39.1-3.9,59c-0.6,11.5-3.9,18.4-3.9,32c-8.1,3.6-41-3.1-40.5-13.8
	C838.8,1902.9,843.3,1833.7,857.8,1824.6C854.3,1820.2,852.9,1827.7,857.8,1824.6z M1311,1911.2c0,8.8-10.8,74.8,2.1,79.3
	c14.6,5.2,7.6-70.6,7.6-79.3C1317.5,1911.2,1314.3,1911.2,1311,1911.2C1311,1928.9,1314.8,1911.2,1311,1911.2z"/>
<path fill-rule="evenodd" clip-rule="evenodd" fill="#ED9300" d="M1956.7,1693.4c-2.4,20.8,40.1,65.8,51.6,84
	c20.8,32.9,40.6,74.1,66.5,102.9c43.3,48.3,72.2,110.6,113,161c-38.7,18.3-52.9,38.1-68.3,76.6c-17.7-13.2-30-44.3-46.1-61.2
	c-14.5-15.3-29.5-37.9-40.5-56c-21.6-35.6-41-70.3-62.9-104.7c-22.2-35-41.7-96.1-70.3-123
	C1881.9,1756.2,1949.4,1699.9,1956.7,1693.4C1955.5,1703.8,1943,1705.6,1956.7,1693.4z"/>
<path fill-rule="evenodd" clip-rule="evenodd" fill="#ED9300" d="M2137.9,1776.2c-17.4,3.7-49.6,2.6-63.2,14.9
	c30.8,20.1,59.1-18.7,85.2,22.9c-10.4,9.5-47.8-1.5-53.1,11.1c2.4,9,42.4,8.7,47.3,4.3c16.3-14.5,27.5,14.7,32.1,26.2
	c7.9,19.6-13.6,7.6-21,15c-6.4,1.8-13,2.6-19.8,2.5c-36.9,10-3.6,5-13.9,12c9.6-6.5,62.7-12.4,71.8-4.5
	c47.2,41.4-34.6,30.7-48.8,40.6c13.2,7.6,99.7-10.8,90.5,26c-3.5,13.9-56.4-5.8-62.3,14.2c10.9,8.1,63.5,2.2,80.1,2.2
	c20.9,36.2-51,9.3-56.8,23.8c24.9,21.5,64.5-8.3,87.2,23.9c-17.4,1.8-57.1,0.2-69.8,10.1c7.2,19.6,63.5-7.5,76.8,8.4
	c-82.1,47-92.6-1.6-145.6-55.6c-27.3-27.7-62-79.5-78.1-115.8c-22.3-50.1-63.3-98.9-94.6-143.6c-22-31.4-10.3-31.2,5.1-55.6
	c11.3-18,27.3-37.9,42.6-52.2c24.6,40.4-1.3,13.5-1.3,43.4c7.1,0,43.7-4.4,34.2,15.4c-3.7,7.7-31.1,5.9-39.1,11.1
	c23,15.9,51.4-18.8,62.4,21.4c-19,2.9-61.7-3.9-77.8,11.4c7,10.8,25.9-0.3,36-0.3c39.4-0.2,44.7-3.7,66.9,28.1
	c-15.4,1.6-67,2-67,18.1C2086.2,1761.2,2102.6,1737.4,2137.9,1776.2C2128.5,1778.2,2132.5,1770.3,2137.9,1776.2z"/>
<path fill-rule="evenodd" clip-rule="evenodd" fill="#CBA33C" d="M2108.3,2200.6c24.6-24.7,54.5-29.6,88.2-15.3
	c23.8-8.1-39.2-44.2-43-48c-33.8-33.4,1-65.5,37.7-78.8c45.1-16.4,44.8,114.1,74.8,112.1c18.1-41.9-47.6-81.6,7-109.4
	c34.2-17.3,46.3-29,46.7,17.8c0.2,25.1,4.2,48.2,10.4,72.4c10.8,41.8,23.6,105.2-35.1,118.7c-14.5,3.4-50,14.5-60.6,3.8
	C2203.2,2241.9,2144.9,2229.5,2108.3,2200.6C2114.8,2194.1,2113.9,2205.1,2108.3,2200.6z"/>
<path fill-rule="evenodd" clip-rule="evenodd" fill="#ED9300" d="M2069,2083.3c-13.1-1.2-19.8,34.1-27.9,42
	c-17.4-8.6-2.5-47,1.4-58.8c-12.4,4.6-15.4,20.5-20.7,31.9c-19.4-18.5-18.7-45.4-2.7-68.1c-14-18.5-18.1,29.5-25.2,32.6
	c-26.4,11.6-10.4-72.3-6.1-79.3c-16.1-9.3-19.8,34.4-24.5,43.5c-7.5-14-23.5-29.2-15-47.6c2.9-6.3,17.9-32.4,11.1-36.8
	c-13,13.2-21.9,58-34.8,23.2c-5.9-15.9,15.2-46,15.8-62.3c-18.2,9.2-13.8,36.3-28.5,45.2c-20-26.4-8.6-56.8,5.7-82.8
	c-20.8-11.3-22.3,41.8-28.5,52.2c-30.3-27.3-10-58,5.7-88.8c-18.9,0-25.9,35.6-32.6,49.5c-36.6-22.3,4.9-40.9,0.2-65.8
	c-12.1,7.8-21.1,18.2-27.2,31.3c-32.1-31.2,8.7-48.4,36.5-71.2c11.6-9.5,41.9,51.7,43,53.5c31.2,50.8,57.4,120.2,100.1,162
	c15,14.6,18.8,43.3,36.1,59.2c18.8,17.3,36.3,44,50.7,65.5c22.9,34.1-10.4,37.5-8.6,72.6c0.2,3.6-13.6-0.8-12.7-8.2
	c1.1-8.7,10.7-32.2,7.2-40.5c-10.2,4.4-16.6,12.1-19.2,23C2040.4,2137.9,2069,2109.1,2069,2083.3
	C2067.1,2083.2,2069,2087.5,2069,2083.3z"/>
<path fill-rule="evenodd" clip-rule="evenodd" d="M75.2,2609.3c9-8.2-0.5-70.3,1.1-89.1c2.2-26.5,23.5-58.6,34.9-81.9
	c10.6-21.7,91.4-157.6,130.2-124.2c-8.7,14.7-24.8,15.1-36.2,26.1c-12.2,11.8-17.6,25.6-31,38.6c-24.9,24.3-36,61.5-52.2,91.4
	c-15.3,28.1,4.5,60.5,3.4,88.7C124.6,2575.1,93.6,2632.3,75.2,2609.3C79.6,2605.3,82.8,2618.8,75.2,2609.3z"/>
<path fill-rule="evenodd" clip-rule="evenodd" d="M1311,1911.2c3.2,0,6.5,0,9.7,0c0,8.8,7,84.5-7.6,79.3
	C1300.2,1986,1311,1920,1311,1911.2C1314.8,1911.2,1311,1928.9,1311,1911.2z"/>
<path fill-rule="evenodd" clip-rule="evenodd" d="M1183.1,1854c-44,0-92.2-3.6-133.8-18c-23.6-8.2-49.3-10.3-73.3-18.8
	c-33.6-11.9-61.3-39.1-95.8-51.9c-114.7-42.7-192.8-153.3-264.4-246.2c-15.3-19.8-27.9-44.6-37.4-67.5c-7.8-18.9-33.2-36.4-42-67.4
	c-10.1-35.6-49.4-122.7-51.3-158.4c-4.1-79.6-38.2-177.6-17.6-258.4c11.9-46.5,4.8-101.7,6-149c0.7-29.3-4.5-72.9,11-110.3
	c11.1-26.8,28.1-85.2,38.4-112.8c14.8-39.7,19.9-91.6,45.9-124.9c35.3-45.2,52.3-114.6,95-154.1c27.6-25.6,50.9-51.5,79.9-76.5
	c103.7-89.5,238.8-144.5,373.5-165.7c218.7-34.4,440.1,2.7,635.7,108.4c104,56.2,206.2,139.4,288.7,221.8
	c30.8,30.8,57.3,64,79,100.2c35.9,60,73,123.8,95.9,186.7c10.4,28.6,15.8,90.7,15.7,120.3c0,54.6,1.2,112.1-0.2,165.3
	c-2.3,85.5-41.2,207.9-98.7,271.9c-72,80.2-123.8,179.3-205,252.6c-102.8,93-207.8,172.8-324.5,247.9
	C1485.1,1825.6,1322.3,1854,1183.1,1854C1172.7,1854,1196.4,1854,1183.1,1854z M887.7,1621.6c-9.8,19.8-39,58.3-34.9,83.3
	c-31.7,19.7,28.4,45.7,37.2,51.2c39.5,24.7,55.1,26.2,74.9-12.6c14.3-28,1.5,49.1,1.7,49.9c4.2,17.3,79.7,30.8,97.8,35.1
	c41.2,9.8,84.8,11.8,127,11.8c63.8,0,125.2-17.6,188.2-19.6c26.5-0.8,60.3-17,85.9-25.1c36.4-11.5,73.2-18.8,106.7-38.3
	c62.8-36.5,103.1-65.1,195.9-138.1c51.4-40.5,205.8-139.2,256-245.8c-47.7-2.5-98.5,7.2-144.8,3.7c-19.8-1.5-80.8,26-80.8-0.6
	c69.7-22.6,145.7-37.8,217.5-53.9c-7.2-16-19.9-26.5-27-42.2c-10.4-23-27.6-7.7-40.5-17.9c-10.8-8.5-73.2-5.9-86.9-1.2
	c-21.9,7.4-165.8,11.3-169.2-2c29.9-15.2,98.3-20.1,133.7-21.5c39-1.6,85.8-7.6,123.9-17.2c-19.5-38.4-36.6-84.9-81.6-91.5
	c-25.3-3.7-150.2-14.5-152.6-21.7c8.4-18.3,78.4-5.5,95.8-6.2c16.5-0.6,40.9-17.1,56.3-8.3c0-27.6-49-79.7-74.7-86.2
	c-21.5-5.5-59.1,3.8-73.1-11.1c17.9-10.3,62.9-9.7,81.4-0.1c0-18.2-25.6-43.3-33.3-61.5c-13.6-32.3-60.6-15.2-72.2-37.7
	c15.9-23.7,58,13.6,29.3-32.1c-8.7-13.9-16.8-27.8-24.4-42.2c-9.5-18.1-49.6-0.8-45.9-26.2c45.7,0,14.6-25.1,0.8-53.4
	c-12.1-24.6-60.2-12.5-60.2-39.4c13.3-2.4,25.8-0.4,37.7,6c10.8-56.4-100.9-120.1-148.3-111.1c-26,4.9-36.8-25.7,6.3-14.8
	c11.5,2.9,72.6,16,80.5,6.7c-29.8-59.1-77.2-76.8-142.5-93.3c-14.6-3.7-105-16.8-110.8-30.5c30.1-39.8,162.7,52,206.9,30.3
	c-11.8-21.2-44-66.1-72.7-58.6c-17.3,4.5-101.9-15.8-113-24.3c-34.8-26.4-99.6-8.8-134.7-30.7c-13-8.1-132.5-28.4-140.3-13
	c-6,11.8,20.1,44.7,19.3,59.4c19.4,21.7,33,69.6,43.1,96.9c28.6,77.2-27.3-43.3-37.4-50.1c-9.9-6.7-28.7-54.2-35.5-68.6
	c-18-38.3-43,5.3-70.4,15.6c-53.7,20.1-90,80.2-141.6,104c-51,55.6-102.9,111.3-156.3,164.8c-18.2,18.3-57.3,22.6-42.5,49.6
	c18.3,33.6,44.9,61.5,68.5,91.2c13.4,16.9,18.4,28,29.7,45.8c9.3,14.7,9.3,37.3-7,13.6c-36.4-52.8-83.8-86.4-136-122
	c-10.4,40.4-26.6,91.9-43.9,129.9c-8.9,19.6-30,82.7-28.2,105.4c2.5,32.6-32.9,68.4-27.2,103.6c2.5,15.6-20.6,39.5-3.8,65.1
	c6.3,9.5-3.7,50.7,12,55.9c12.4,4.1,58.7-140.9,82.7-136.4c1.3,0.2-38.1,82.9-44.9,98.9c-4.2,9.9-18.8,72.1-24.8,74.9
	c-9,4.3,23.7,106.1,37.1,111.2c0.7,0.3,65-107.5,69.3-88.1c-22.9,24.2-68.3,99-50.9,134.1c2.5,4.9,32.4,68.4,39.5,62.7
	c15.1-12,23.1-62.2,43.4-65.3c15.6-2.4-27.7,75.4-27.5,85.2c0.6,27.6,25.2,35.3,33.6,59.1c15.7,15.6,37.9,59.4,55.8,34.7
	c6.7-9.3,22.6-43.9,38.4-29.8c-9.7,19.1-33.2,40.8-30.4,63.4c3.2,26.4,71.5,64,89.3,81.1C824.8,1699.7,883,1611.2,887.7,1621.6
	C878.9,1639.4,885.2,1616.1,887.7,1621.6z M701,289.7c-21.2,27.1-48.1,60.3-64.7,90.6c-12,21.9-22.5,44.7-39.3,64
	c0.6,1.6-12.7,26.9-13.7,29.2c-20.6,45.1-73,152.2-72.6,198c0.1,11.6-14.3,57.9-16.8,67.4c-4.1,16-10.9,91.6-9.3,111.1
	c1.8,21.7-4.9,76.7-5.2,99.6c-0.5,37.6-14.7,94,7.7,128.6c11-45,27.2-88.4,37-133.8c7.5-34.5,34.3-79.3,35-114.2
	c1.3-58.6,32.9-101.5,71.5-134.7c50.5-43.5,89.3-99.1,139.6-144.1c25.2-22.5,253.6-233,269.3-217.7c24.6,24.1,96.4,11.5,128.7,24.8
	c33,13.6,93.6,0.1,121.5,19.7c31.5,22.2,110.4,23.5,147.1,30c13.1,2.3,45.3,15.9,55.8,9.9c15.8-8.9,27.9,39.5,34.3,50.4
	c31.5,53.8,73.4,121.4,93.5,179.3c21.5,61.8,70.2,115.6,97.9,174c21.1,44.4,54.5,116.7,89.4,151.5c30.5,30.4,44.2,84.3,76.9,111.4
	c32.2,26.6,50.3,71.6,78.2,101.9c37.3,40.6,66.1,89.4,104.6,130.2c22.1-31.7,96.8-103.1,92.5-143.1c-2.5-23.1,32.4-91.7,43.3-113.1
	c41.2-81,7.5-196.5,7.6-282.2c0-34.1-8.3-77.3-24.2-107.8c-32-61.3-56.1-146.2-108.4-195.1c-94.9-88.8-178.4-184.8-292-251.4
	c-22.4-13.1-43.4-28.6-65.9-41.4c-21.2-12.1-65.4-19.5-82-35.6c-23.4-22.7-99.8-43.8-130.6-45.6c-51.4-3-111.1-12.8-161.2-24.5
	c-29.7-6.9-98.4-5.3-142.6-2.3c-12.1,0.8-1.3,2.8-50.8,4.4c-25.8,0.8-64.8,13.2-90.8,18.6c-43.3,9-90,24.4-130.6,41.4
	c-47.7,20-84.3,39.8-126,66.3C792.9,213.4,717.4,293.4,701,289.7C697,294.8,707.4,291.2,701,289.7z"/>
<path fill-rule="evenodd" clip-rule="evenodd" d="M1661.9,958.2c-1.7,2-15.8,101.7-13.5,104.2c25.3,27.1-32.4,114.8-50.8,133.7
	c-40,41.2-110.5,77.2-169,83.1c-52.2,5.3-54.1,43.5-57.2,88.2c-6.2,90.9-68.5,232.8-161.7,264.7c-131.1,45-257.6-10.5-349.4-107
	c-30.4-31.9-67.4-69.2-82.2-111.5c-22.3-63.5-16.2-133.4-16.2-199.7c0-41.6,32.4-102.3,55.1-136c31.3-46.6,49.5-94.4,102-122.7
	c17.2-9.3,158.3-42.9,158.4-46.7c1.8-66.1,50.1-110.4,79.7-164.5c51.6-94.4,196.4-115.3,289.5-91.1
	c90.2,23.4,139.2,92.1,180.6,170.1C1637.4,842.3,1650.2,952.9,1661.9,958.2C1659.3,961.1,1655.5,955.3,1661.9,958.2z"/>
<path fill-rule="evenodd" clip-rule="evenodd" d="M1451.2,1619.2c0-35.5,128.3-83.4,158.4-101.4c17.6-10.6,56.4-39.1,76.3-41.2
	c35.8-3.8,34.7,6.4,55.9,28.7c21.6,22.8,20.5,57,14.8,84.7c-4.1,20.2-102.4,9.7-116.4,9.7C1576,1599.8,1514.2,1619.2,1451.2,1619.2
	C1451.2,1615.4,1463.1,1619.2,1451.2,1619.2z"/>
<path fill-rule="evenodd" clip-rule="evenodd" fill="#FFFFFF" d="M1352.3,1360.3c-9.3,32-13.4,66.3-21.9,99.3
	c-4.4,16.8-31.8,96.2-47.8,97.5c-15,1.2-49.3,43.7-64.8,52.8c-20.9,12.3-45.4,16.9-68.7,22c-47.7,10.5-104.5-6.7-148.1-25.5
	c-155.4-67-239.6-218.7-221.6-380.6c19.4-174.2,164.5-323.9,343.6-283.4c99.7,22.6,142.6,141.6,189.5,215.5
	C1346.2,1210.8,1339.2,1300.3,1352.3,1360.3C1351.6,1362.7,1351.5,1356.6,1352.3,1360.3z"/>
<path fill-rule="evenodd" clip-rule="evenodd" fill="#FFFFFF" d="M1402,1257.4c-26.3,0-59.4,4.1-61.7-29.1
	c-2.4-34.5-22.3-65.2-29.8-98.4c-18.4-81.4-104.2-157.9-172-197.6c-48.1-28.1-54.4-7.6-39.6-63.6c13.1-49.5,50-92.3,82-130.8
	c40-48.1,106.4-76.8,169.1-77c166.9-0.7,281.8,125.4,292,288.9C1651.1,1096.9,1569.8,1257.4,1402,1257.4
	C1394.9,1257.4,1412.4,1257.4,1402,1257.4z"/>
<path fill-rule="evenodd" clip-rule="evenodd" d="M1072.9,1286.8c-73.4-24.7-20.5-148.3,37.9-110.2c11.8,7.7,40.4,57.8,20.1,69
	c10.3-5.7-19.2,28.3-13.6,21.7C1104.8,1281.8,1088.8,1278.4,1072.9,1286.8C1060.7,1282.6,1075.1,1285.6,1072.9,1286.8z"/>
<path fill-rule="evenodd" clip-rule="evenodd" d="M1338.3,996.2c1.3-73.4,91.3-65.7,80.1-2.2
	C1409.5,1044.6,1338.2,1054.3,1338.3,996.2C1338.3,995.8,1338.3,1000.7,1338.3,996.2z"/>
</svg>
