<?xml version="1.0" encoding="utf-8"?>
<!-- Generator: Adobe Illustrator 16.0.0, SVG Export Plug-In . SVG Version: 6.00 Build 0)  -->
<!DOCTYPE svg PUBLIC "-//W3C//DTD SVG 1.1//EN" "http://www.w3.org/Graphics/SVG/1.1/DTD/svg11.dtd">
<svg version="1.1" id="Layer_1" xmlns="http://www.w3.org/2000/svg" xmlns:xlink="http://www.w3.org/1999/xlink" x="0px" y="0px"
	 width="358.2px" height="281.2px" viewBox="0 0 358.2 281.2" enable-background="new 0 0 358.2 281.2" xml:space="preserve">
<g>
	<path fill-rule="evenodd" clip-rule="evenodd" fill="#8C2318" d="M87.6,89.9c3.9,4.2,6.5,9.1,8.2,14.8c2.7,8.9,11.2,6.6,19.8,6.2
		c10-0.5,19.4-2.8,29-5.4c8.2-2.2,16.7-6.8,25.2-6.2c-2.9,6-4,11.2-3.3,18c0.9,8.1,7.8,13.7,10.7,21.2c6.7,17.7,6.6,36.4,3.4,54.9
		c4.7,0,11.9,0,16.6,0c-2.8-5-1.7-6.7,5.1-0.2c1.2,1.2,1.4,0.9,1.1,3c-0.3,2.4-8.6,6.7-10.6,7.8c2.4,2.3,12.3,9.6,11.4,12.6
		c-5.2,2.2-10.5,3.2-16.1,4.5c2.9,5,6.6,10.1,8.7,15.6c-7.7,2.4-20,1.1-27.9-0.2c0.1-2.4,5-0.8,6.5-2.5c-4-2.4-10-11.9-14.8-6.9
		c-5.3,5.5-12.1,9.2-19.8,9.7c2.2,3.1,5.7,3.2,8.7,5c-2.6,2.3-5.5,3.5-8.6,5.1c3.6,4.2,6.4,5.3,10.5,8.8c-1.2,4.4-11.2,6.4-14.8,8.3
		c3.9,3.3,13,8.6,17.2,11.4c6.5,4.4,12.6,2.3,20.7,2.4c15.9,0,30.9-2.5,46.7-0.3c19.5,2.6,28.5,1.5,42.1,0.3
		c10.9-1,31.3-6.6,39.6-14.7c19.1-18.8,11.6-50,8.1-74.5c-2.1-15-5.5-30.5-4.5-45.8c0.2-2.4,4.3-20.1,0.6-19
		c-6.5,2-11.4,5.7-17.9,2.5c3.8-6.8,6.8-14.5,13.6-18.9c-3.3-5.3-39.4,3.5-39.3,2.5c0.4-6.6,5.7-8.5,9.2-13.2
		c2.4-3.2,17.5-11.2,17.7-12.2c-9.3-4-20.9-8.8-31.2-5.9c-10.3,2.9-20.3,9-29.3,14.6c11.2,14.9,21,28.2,26.2,48.9
		c0.8,3,0.7,15.8-2,3.2c-2.1-10-4.5-17.8-9.5-26.9c-9.9-18.3-26.5-32.2-38.5-49.1c-12.1-17-21.9-33.6-29.7-52.7
		c-4.5,0.5-5.3,22.5-13.7,24.9c0.8-3.8,5.6-8.1,2.6-12.2c-3.4-4.6-6.7-9.2-10.4-13.5c-2.8,10.7-7.6,21.3-13.1,31
		c-4.4,7.7-5.5,7.7-0.2,15c2.7,3.7,1.9,7.7-1.1,10.8c-3,3-5.8,2.8-9.4,0.3c-5.4-3.8-6.3-7.8-12.5-2.8
		C109.3,77.6,97.8,82.7,87.6,89.9 M157.6,55c0.6,1.8,11.1,3.3,13.4,7.7c3.2,6.1,1.7,15.4-5.7,17.5c-6.1,1.7-12.6-2.8-15.9-8.2
		C143.1,61.7,148.8,58.2,157.6,55C157.6,55.2,154.6,56.1,157.6,55z M118.7,82.8c4.4-0.1,6.1,5.2,1.3,5.6
		C115.4,88.8,114.5,83.9,118.7,82.8C121.3,82.7,117.6,83.1,118.7,82.8z M118.9,94.2c4.7,0,3.4,4.8,0.3,5.9
		C116.3,101.1,114.1,93.7,118.9,94.2C120.9,94.2,117,94,118.9,94.2z M132.4,93.6c-3.5,0.1-3.9-5.5-0.2-5.7
		C136.4,87.8,136.7,93.5,132.4,93.6C130.8,93.7,134.4,93.6,132.4,93.6z"/>
	<path fill-rule="evenodd" clip-rule="evenodd" d="M180.9,3c-7,4.3,1.9-2.5-3.9-3c-1.2,4.9-1.4,3.4-5.7,2.6
		c6.6,6.3,1.4,17.5-2.4,24.7c-3.4-3.6-5.8-8.1-8.9-12c-4.9-6.3-0.4-6.4-0.7-12.8c-5.3,4-3.6,2.3-4.1-2.3c-3.6-0.3,1.4,4.8-3.7,3.4
		c-0.6,2.5,1.4,4.1,0.7,7c-0.9,4.1-2.3,8.2-3.7,12.1c-3.2,8.7-7.4,17.1-11.3,25.5c-3.2,7.1-14.7,2.7-17,10c-1.1,3.4,0.1,6.3-3.5,8.6
		c-6.1,3.9-12.2,7.7-18.4,11.6C87.9,85,66.3,89.4,70.4,105.8c5.2,20.8,26.7,10.3,41,13.9c4.3,1.1,18.8,0.2,20.3,5
		c-6,5.6-13,8-20.7,11c-8.2,3.2-16.8,3.2-25.2,5.3c-9.9,2.4-17.6-4.9-27.2-0.5c-7.1,3.2-14.7,6.1-19.8,12.2c-2.7,3.2-4.9,7-5.3,11.3
		c-0.3,3.4,3,7.5,2,10.5c-0.9,2.8-3.7,4.6-4.8,7.6c-0.9,2.6-0.6,7.3-2.8,9.2c-2.6,2.2-7.2,2.3-10.3,3.6c-5,2.1-5.6,5.5-7.9,9.8
		c-4.8,9-18.7,26.2-1.3,33.2c6.6,2.6,8.2,9.3,13.4,13.5c6.3,5.1,17.3,4.4,24.6,2.4c5.7-1.5,14.1,6.6,18.9,8.9
		c7.1,3.4,14.6,10.5,22.1,12c7.3,1.5,20.4,2.1,26.6-3c4.3-3.5,19.9,4.2,24.9,5.2c19.8,3.7,39.1,3.2,59.3,3.6
		c21.6,0.5,43.1,1.8,64.6-1c15.6-2,36.6-3.5,47.1-16.6c11.1-13.8,8.6-41.7,6.7-58.3c-2.2-20.1-12.5-47.1-5.8-66.8
		c3.1-9,7.2-14.6,15.7-19c5.4-2.8,11.1-4.9,17.3-3.8c4.4,0.8,9.9,5.7,14.2,2.7c-12-16.8-29.2-32.2-47.5-41.7
		c-19.8-10.3-40.1-6.2-59.8,2.1c-8,3.4-16.1,12.5-25.5,8.7c-8.3-3.4-17-19.2-22.3-26.3c-6-8.1-11.2-17.5-15.6-26.6
		c-2.7-5.6-4.3-11.5-5.9-17.5C181.3,15.4,179.3,1.9,180.9,3C180.1,3.4,181.1,3.1,180.9,3z M87.6,89.9c8.9-6.3,18.7-10.9,27.6-17.3
		c7.4-5.3,6-6.8,12.8-0.6c3.2,2.9,7,4.7,11.2,2.5c3.9-2,6.3-6.7,5.3-11c-1.6-7-8.1-5.9-3.4-13.1c7-10.6,11-22.8,14.1-35
		c2.8,3.3,5.3,6.6,7.9,10.1c5.3,7.1,1.4,8.4-0.1,15.7c8.5-2.4,9.2-24.4,13.7-24.9c7.2,17.6,15,34,26,49.8c11.9,17.2,28.7,30.5,40,48
		c4.9,7.7,7.4,16.1,9.3,24.9c1.1,5.1,6.2,23.4,5.8,8c-0.6-21.5-14.1-37.1-26.4-53.4c9-5.6,17.7-12.5,28.1-15.4
		c10.3-2.9,21.9,2,31.2,5.9c-0.1,0.4-15.1,8.2-17.1,9.6c-4.8,3.3-9.7,10.8-11.7,16.1c-1.9,5.2,11.8-0.9,13.3-1.3
		c4.2-1.1,23-5.5,25.6-1.2c-6.9,4.5-9.3,12.4-13.1,19.2c5.6,2.7,8.9,1,14.5-0.7c9.4-2.9,4.6,4.4,3.8,11.2
		c-1.7,15.4,1.9,30.7,4.4,45.9c3.8,23.2,9.9,60.5-7.6,79.2c-16.2,17.2-54.4,16.3-76.3,15.4c-15.8-0.6-31.5-1.3-47.4-1.3
		c-5.6,0-19.2,2.4-23.6-1.2c-4.7-3.9-10.2-6.9-14.8-10.9c3.7-1.9,9-3.6,12.2-6.2c4.7-3.8-9.4-8.3-11.8-11.2c3-1.6,6-2.8,8.6-5.1
		c-3-1.8-6.5-1.9-8.7-5c6.4-0.4,12.2-2.9,17.1-7c8.5-7.3,9.6-0.5,17.6,4.3c-1.5,1.8-6.4,0.1-6.5,2.5c7.9,1.4,20.2,2.6,27.9,0.2
		c-2.1-5.4-5.8-10.5-8.7-15.6c5.5-1.2,10.8-2.3,16.1-4.5c0.9-3-9.1-10.3-11.4-12.6c3.9-2.1,7.9-4.2,11.9-6.3
		c3.8-1.9-4.5-7.6-5.8-8.8c-6.7-6.5-5.7-1.1-2.9,3.9c-4.7,0-9.4,0-14.1,0c3.2-18.5,2-36.6-4.7-54.3c-2.8-7.5-9.8-13.1-10.7-21.2
		c-0.8-6.8,2-13.2,4.9-19.2c-16.1-1.1-34.3,10.5-50.8,11.9c-4.9,0.4-21.7,3.1-23.3-3.6C95.7,99.2,92.4,95.2,87.6,89.9
		C98.7,82.1,89.7,92.1,87.6,89.9z M94.2,114.5c1.6-4.8,17.3-0.8,21.6-1c8.3-0.4,20.6-5.8,28.2-1.7c18.2,10,27.3,19.8,33,39.9
		c2.4,8.3,3.2,16.4,3.1,25c-0.1,4.4-3.4,12.6-2.7,16.1c-11.1,0.8-8.2-1.7-15.2-9c-6.1-6.4-12.8-1.4-16.2-8.8
		c-2.1-4.5-10.4-4-10.8-7.9c-0.6-5.6-2.4-9.3-4.2-14.6c-2.1-6.4-8.7,1.9-9.6,3.7c-4.3,9.3-1.6,19.3-2.3,29.9
		c-0.5,7.2-4.9,17.2-2.2,24.2c2.7,7,11.9,2.7,16.8,6.5c7.5,5.9,8.2,6.7,17.7,4c14.6-4.3,2.5,8.6-3.6,10.8c-5.7,2.1-19.4,6-25.1,2.6
		c-6.9-4.1-6.4-13.1-16.2-14.3c-5.4-0.7-16.1,0.6-15.8,8.1c0.2,6.3-11.2,2.8-14.5,8.3c-6,10.1,11.3,31.1-8.8,23.1
		c-17.2-6.9-28.1-22-33.2-39.3c-2.7-9.2-1.9-19.1,1.3-28c3-8.6,4.8-10.6,11.1-15c2.7-1.9,3.1-4.8,7-4.1c3.8,0.7,8,1,10.9-2.2
		c2.6-2.9,4.2-7.1,7-9.6c3.5-3.1,7.7-4,9.5-9c0.9-2.6-0.8-6.2,2.9-6.9c3.7-0.7,7.5-1.5,11.2-2.2c8.7-1.6,17.2-3.5,25.5-6.4
		c6.9-2.5,12.7-10.2,18.8-12.2c-1,0.3,17.8,4.2,10,0.4C132.1,116.4,113.1,115.7,94.2,114.5C95.1,111.8,95.5,114.6,94.2,114.5z
		 M148.5,273.8c-0.9,2.6-15.3-2.4-17.6-3.1c-4.9-1.4-9.8-2.9-14.7-4.2c-4.4-1.2-3.3,2-6.8,3.8c-6.9,3.5-15.4,4.1-22.3,0.3
		c-9.4-5-3.8-10-1.8-17.9c-6.6,1.5-9.4-8-5.3-12.7c3.3-3.8,21.2-4.5,21.4-5.9c0.2-1-7.5-1.1-7-6.5c0.6-6.1,11.7-4.6,15.2-3.4
		c6.2,2.2,8.1,14.6,12,15.6c0.4,0.1,7.7-1.6,7.8-1.6c4.7,0.4,9.2,2.1,13.4,4.2c-12.6,8.4-6.7,8.5,5.3,13.4
		c-5.8,2.9-12.3,4.2-17.7,7.9C136.4,267,142.5,270.4,148.5,273.8C148.4,274.1,142.6,270.5,148.5,273.8z M273.8,75.5
		c0.3-2.5,15.9-2.4,18.7-2.1c7.3,1,13.9,4.4,20.1,8.2c13.6,8.2,26.9,18.1,36.2,31.3c-19.2-3.2-34.9,11.5-53.8,11
		c0.4-7.7,8.3-12.7,14.5-15.6c-3.8-11.1-32-2.6-39.5-1.1c6.2-13.1,15.8-14.9,27.8-20.9C290.7,80.8,282.2,78.1,273.8,75.5
		C273.9,75.2,282.1,78,273.8,75.5z M198.9,196.8c0.2,2.5-10,6-12.3,7.2c5.7,5.2,14.8,10.3,4.2,13.8c-10,3.3-3.9,7.9-0.8,15.2
		c-5.2,4.5-31-23.1-36.2-19.5c-3.2,2.3-8.9,8.8-13.3,6.1c-7.1-4.4-6.7-9.7-3.7-16.7c-6.1-0.3-7.3-5.6-4.3-10.7
		c3.6-6.2,10.8-0.7,16-1.8c-1-2.4-2.6-4.2-4.9-5.5c7.1-7,23.7,0.3,18.8,10.1C173.7,198.2,188.2,191.9,198.9,196.8
		C198.9,197.2,198.1,196.4,198.9,196.8z M9.5,212.1c2,3.4,3.3,7.1,7.7,7.3c-1.3-6-6.3-10.7-2.6-17c3.2-5.5,11.6-7.8,11.9,0.6
		c0.5,15.7,9.1,32.7,17,45.8c-7.7,2.4-14.7,4.2-21-2.3c-5.5-5.7-2.4-11.1-6.1-16.8c-2,0.6-4.2,9.6-8.7,2.8
		C2.4,224.4,3.9,218.9,9.5,212.1C10.6,213.9,6.6,215.7,9.5,212.1z M37.9,164.3c1.4-10.3,19.2-23.8,29.8-21.1c3.8,1,9.5,4.1,8.3,8.8
		c-2.7,11-8.8,1.4-12.6-0.1c-0.5,5.6,4.5,11.1-0.9,15.8c-5.8,5.1-12.5-0.3-18.3-1.7c-0.4,2,3.4,6.4,0,6.7
		C40.2,173.1,37.7,167.5,37.9,164.3C38,163.4,37.7,167.7,37.9,164.3z M140.8,65.8c0.1,13.2-15.2,2.1-17.2-4.4
		C121.8,55.2,140.8,55.3,140.8,65.8C140.9,71.1,140.8,60,140.8,65.8z M126.8,193.2c2.7-0.2-2.3,20.6-5,15.1
		c-2.5-5.1-0.1-26.9,2.6-31.8C127.6,180.6,126.5,188.1,126.8,193.2C126.7,193.2,126.5,188.3,126.8,193.2z M129.6,160.4
		c0.4,2,3.5,9.5-0.4,9.5c-8.3,0.1-7-1.9-7-9.5C124.7,160.4,127.2,160.4,129.6,160.4C130.1,163,127,160.4,129.6,160.4z M157,112.8
		c-2.9-3.1-2.4-13.2,4.1-9.8c1.2,0.6,2.8,5.3,2.9,6.5C164.4,112.3,158.6,112.4,157,112.8C156.7,112.5,159.4,112.2,157,112.8z
		 M153.9,111.1c-5.5,1.3-8.4,0.3-8.9-3.2C151.1,104.5,153.6,105.5,153.9,111.1z M124.4,157.9c0-3.6,2.1-5.3,4.5-2.2
		C127.4,156.5,125.9,157.2,124.4,157.9C124.4,154.9,126.2,157.1,124.4,157.9z"/>
	<path fill-rule="evenodd" clip-rule="evenodd" fill="#F4DEC2" d="M94.2,114.5c17.9,1.1,36,1.8,52.6,9.1c7,3.1,3.1,5-2.4,2.5
		c-8-3.5-12.4,5.6-20,8.9c-5.7,2.5-43.6,8.8-43,13.5c1.1,8.6-8.5,9-11.6,14.7c-1.8,3.4-4.8,8.3-8.7,9.7c-3.8,1.3-9.4-2-12.1,1.5
		c-2.4,3.1-5.1,1.8-7.3,4.2c-2.2,2.4-3.5,6.4-4.7,9.4c-3.7,9-5.3,18.2-3.7,27.9c2.9,18,14.6,33.4,30.6,41.8c3.8,2,13.1,7.6,14.6,0.9
		c1.3-5.8-5.3-12.5-3.3-19.7c2-7.5,8-5.5,13.6-7.2c2.9-0.9,1.5-5,2.6-7.1c2-3.7,7.9-4.6,11.7-4.8c9.3-0.5,13.9,5.6,18.2,12.9
		c3.1,5.2,17.5,1.5,22.1,0.3c1.1-0.3,19.5-8.2,15.8-10.7c-7.1-4.9-17.8,6.4-23.3-3c-4-6.8-12.2-2.2-17.4-6.9
		c-5.8-5.3,0.4-14.7,0.5-20.8c0.1-8-5.1-45.5,11.2-40c1.9,0.6,5,11,5,12.7c0,7.5,5.5,3.7,9.5,8.4c1.4,1.7,1.5,5.2,3.2,6.4
		c1.6,1.1,6.1-0.4,7.7-0.1c9.9,2.3,7.9,14.6,18.3,13.9c10.1-0.6,6.5-28.8,4.6-36.4c-5.1-20.4-12.6-33.4-31.7-43.4
		c-8.8-4.5-16.1-1.2-25.5-0.2C116.3,113.5,95.7,109.9,94.2,114.5C95.5,114.6,95.1,111.8,94.2,114.5z"/>
	<path fill-rule="evenodd" clip-rule="evenodd" fill="#FFFFFF" d="M148.5,273.8c-6.1-3.4-12.1-6.8-18.2-10.2
		c5.4-3.6,11.9-4.9,17.7-7.9c-11.9-5-17.8-5-5.3-13.4c-4-2-15.2-7.2-19.3-3.4c-2.8,2.6-8.2-11.5-11.5-13.6c-4.2-2.6-11.8-3.5-16-0.5
		c-8.3,5.9,5.4,8.5,5.3,9.2c-0.3,2.1-15.6,1.5-18.5,3.3c-6,3.9-6.6,17.4,2.4,15.3c-1.1,4.4-7.2,12.1-1.8,15.7c8,5.3,17.3,6.3,26,1.9
		c1.2-1.7,2.7-3.1,4.5-4.2c3.7-0.2,8.6,2.2,12.1,3.3C128.8,270.1,147.6,276.6,148.5,273.8C142.6,270.5,148.4,274.1,148.5,273.8z"/>
	<path fill-rule="evenodd" clip-rule="evenodd" fill="#FFFFFF" d="M273.8,75.5c8.4,2.6,16.9,5.4,23.9,10.9
		c-11.9,5.9-21.6,7.8-27.8,20.9c7.5-1.6,35.7-10,39.5,1.1c-6.2,2.9-14.1,7.9-14.5,15.6c18.9,0.6,34.6-14.2,53.8-11
		c-8.4-11.9-20.1-21.2-32.3-29c-6.3-4-12.9-8-20.2-9.8C292.9,73.3,274.2,72.2,273.8,75.5C282.1,78,273.9,75.2,273.8,75.5z"/>
	<path fill-rule="evenodd" clip-rule="evenodd" fill="#FFFFFF" d="M198.9,196.8c-10.7-4.9-25.2,1.4-36.5-1.8
		c4.8-9.8-11.8-17.1-18.8-10.1c2.3,1.3,3.9,3.1,4.9,5.5c-5.2,1.1-12.3-4.5-16,1.8c-3,5.1-1.7,10.4,4.3,10.7
		c-5.3,12.5,3.4,21.8,14.8,12.4c5.2-4.3,9.4,2.1,14.6,5c3.1,1.8,21.8,14.5,23.8,12.7c-3.1-7.3-9.2-12,0.8-15.2
		c10.6-3.5,1.5-8.6-4.2-13.8C188.9,202.8,199.1,199.3,198.9,196.8C198.1,196.4,198.9,197.2,198.9,196.8z"/>
	<path fill-rule="evenodd" clip-rule="evenodd" fill="#FFFFFF" d="M9.5,212.1c-5.6,6.8-7.2,12.3-1.8,20.3c4.6,6.8,6.7-2.1,8.7-2.8
		c3.7,5.7,0.6,11.2,6.1,16.8c6.3,6.5,13.3,4.7,21,2.3c-7.9-13.1-16.5-30.1-17-45.8c-0.2-4.8-5-8.3-9.2-4c-7.3,7.5-1.8,12.3-0.1,20.4
		C12.9,219.3,11.5,215.5,9.5,212.1C6.6,215.7,10.6,213.9,9.5,212.1z"/>
	<path fill-rule="evenodd" clip-rule="evenodd" fill="#FFFFFF" d="M37.9,164.3c-0.2,3.2,2.3,8.8,6.3,8.5c3.3-0.3-0.5-4.7,0-6.7
		c5.8,1.4,12.5,6.8,18.3,1.7c5.4-4.7,0.4-10.2,0.9-15.8c4.2,1.7,5.7,9.7,11.1,3c4.1-5,0-8.2-4.1-10.6
		C59.6,138.2,39.4,153.4,37.9,164.3C37.7,167.7,38,163.4,37.9,164.3z"/>
	<path fill-rule="evenodd" clip-rule="evenodd" fill="#FFFFFF" d="M140.8,65.8c0-6.8-13.7-14-17.2-6.4
		C120.4,66.6,140.9,79.9,140.8,65.8C140.8,60,140.9,71.1,140.8,65.8z M133.9,61.4C145.1,63.6,124.8,71.8,133.9,61.4
		C135.9,61.8,133,62.4,133.9,61.4z"/>
	<path fill-rule="evenodd" clip-rule="evenodd" fill="#F2C45A" d="M126.8,193.2c-0.3-5,0.8-12.5-2.4-16.6
		c-2.7,4.8-5.2,26.6-2.6,31.8C124.5,213.8,129.5,193,126.8,193.2C126.5,188.3,126.7,193.2,126.8,193.2z"/>
	<path fill-rule="evenodd" clip-rule="evenodd" fill="#F2C45A" d="M129.6,160.4c-2.5,0-4.9,0-7.4,0c0,2.1-1.6,9.7,2.3,9.5
		C132.9,169.5,131.2,168.3,129.6,160.4C127,160.4,130.1,163,129.6,160.4z"/>
	<path fill-rule="evenodd" clip-rule="evenodd" fill="#FFFFFF" d="M157,112.8c7.2-1.8,7.8-1.7,4.9-8.6
		C160.6,100.8,150.5,105.9,157,112.8C159.4,112.2,156.7,112.5,157,112.8z"/>
	<path fill-rule="evenodd" clip-rule="evenodd" fill="#FFFFFF" d="M153.9,111.1c-0.4-5.7-2.9-6.6-8.9-3.2
		C145.5,111.4,148.5,112.5,153.9,111.1z"/>
	<path fill-rule="evenodd" clip-rule="evenodd" fill="#F2C45A" d="M124.4,157.9c1.5-0.7,3-1.4,4.5-2.2
		C126.5,152.6,124.4,154.4,124.4,157.9C126.2,157.1,124.4,154.9,124.4,157.9z"/>
	<path fill-rule="evenodd" clip-rule="evenodd" d="M157.6,55c-8,2.9-14,5.2-10.8,15.1c2.3,7.1,11.3,12.1,18.6,10.1
		c6.3-1.8,8.3-8.9,6.8-14.7c-0.8-2.9-2.5-5.5-4.9-7.2C165.5,57.2,157.9,55.9,157.6,55C154.6,56.1,157.6,55.2,157.6,55z M156.5,60.7
		c11.4-0.9,19.6,15.4,5.8,16.7C152,78.4,143.1,62.2,156.5,60.7C161.2,60.4,154.4,61,156.5,60.7z"/>
	<path fill-rule="evenodd" clip-rule="evenodd" d="M118.7,82.8c-4.2,1.1-3.3,6,1.3,5.6C124.8,88,123.2,82.7,118.7,82.8
		C117.6,83.1,121.3,82.7,118.7,82.8z"/>
	<path fill-rule="evenodd" clip-rule="evenodd" d="M118.9,94.2c-4.9-0.5-2.6,6.9,0.3,5.9C122.4,99,123.6,94.2,118.9,94.2
		C117,94,120.9,94.2,118.9,94.2z"/>
	<path fill-rule="evenodd" clip-rule="evenodd" d="M132.4,93.6c4.3-0.1,4-5.9-0.2-5.7C128.5,88.1,128.9,93.7,132.4,93.6
		C134.4,93.6,130.8,93.7,132.4,93.6z"/>
	<path fill-rule="evenodd" clip-rule="evenodd" d="M133.9,61.4C124.8,71.8,145.1,63.6,133.9,61.4C133,62.4,135.9,61.8,133.9,61.4z"
		/>
	<path fill-rule="evenodd" clip-rule="evenodd" fill="#FFFFFF" d="M156.5,60.7c-13.3,1.5-4.4,17.7,5.8,16.7
		C176.1,76.1,167.9,59.8,156.5,60.7C154.4,61,161.2,60.4,156.5,60.7z M159.4,71.5c-4.4-0.1-3.6-5.7,0.6-5.8
		C165.1,65.7,163.9,71.6,159.4,71.5C157.5,71.5,161.4,71.5,159.4,71.5z"/>
	<path fill-rule="evenodd" clip-rule="evenodd" d="M159.4,71.5c4.5,0.1,5.7-5.9,0.6-5.8C155.8,65.8,155,71.5,159.4,71.5
		C161.4,71.5,157.5,71.5,159.4,71.5z"/>
</g>
</svg>
