<?xml version="1.0" encoding="utf-8"?>
<!-- Generator: Adobe Illustrator 16.0.0, SVG Export Plug-In . SVG Version: 6.00 Build 0)  -->
<!DOCTYPE svg PUBLIC "-//W3C//DTD SVG 1.1//EN" "http://www.w3.org/Graphics/SVG/1.1/DTD/svg11.dtd">
<svg version="1.1" id="Layer_1" xmlns="http://www.w3.org/2000/svg" xmlns:xlink="http://www.w3.org/1999/xlink" x="0px" y="0px"
	 width="566.9px" height="566.9px" viewBox="0 0 566.9 566.9" enable-background="new 0 0 566.9 566.9" xml:space="preserve">
<path fill-rule="evenodd" clip-rule="evenodd" d="M544.1,210.4c-15.7,7.7-106.2-31.4-106.7-24.7c-2.9,39.1,42.8,93.6,10.3,135.1
	c-38.7,49.4-90.1,90.4-156.5,90.1c-53.1-0.3-151.3-34-150.3-101.3c0.7-41.5,64.2-150.9-18.8-129.6c-25,6.4-35.5,35.5-64.6,36.5
	c-26.4,0.9-20-47.8-12.8-59.6c24.1-39.3,71.5-34.6,103.7-6.9c41.3,35.6,19,25.7,65.8,12.9c33.6-9.1,63.8-14.8,100-16
	c33.8-1.1,89.6,29.8,118.8,17.1c32-13.8,45.8-48.3,88.3-28.3c19.2,9,34.6,58.5,26.4,72.2C547.1,209.3,546.3,209.7,544.1,210.4z"/>
<path fill-rule="evenodd" clip-rule="evenodd" fill="#FFFFFF" d="M331.2,189c124.6-76.9,153.2,147.4,52.9,159.3
	c-98.9,11.7-30.6-106.7-56.5-157.7L331.2,189z"/>
<path fill-rule="evenodd" clip-rule="evenodd" d="M403.1,311.1c-3.9,20.3-21.5,30.8-37.3,15.9c-30.5-28.8,4.9-70.8,31.5-37.9
	C398.9,291,405.3,296.2,403.1,311.1z"/>
<path fill-rule="evenodd" clip-rule="evenodd" fill="#FFFFFF" d="M155.7,304c14.5-42.6,10.9-84.7,51.6-115.2
	c39.6-29.7,105.9-37.2,114.9,28.4c4.1,30.2,3.3,104.8-32.1,121.5c-54,25.4-138.1-1.8-135.8-30.4C154.6,305.7,155.2,305.8,155.7,304z
	"/>
<path fill-rule="evenodd" clip-rule="evenodd" d="M235.1,295.8c3.3-30.9,43.5-21.4,48.2,8.6c4.8,30.4-37,38.3-47.8,6.9
	C234,307,233.9,302.6,235.1,295.8z"/>
</svg>
