<?xml version="1.0" encoding="utf-8"?>
<!-- Generator: Adobe Illustrator 16.0.0, SVG Export Plug-In . SVG Version: 6.00 Build 0)  -->
<!DOCTYPE svg PUBLIC "-//W3C//DTD SVG 1.1//EN" "http://www.w3.org/Graphics/SVG/1.1/DTD/svg11.dtd">
<svg version="1.1" id="Layer_1" xmlns="http://www.w3.org/2000/svg" xmlns:xlink="http://www.w3.org/1999/xlink" x="0px" y="0px"
	 width="566.9px" height="566.9px" viewBox="0 0 566.9 566.9" enable-background="new 0 0 566.9 566.9" xml:space="preserve">
<path fill-rule="evenodd" clip-rule="evenodd" d="M152.1,322.5c-3.8-0.9-35.4,2-35.3-5.4c54.9-4.1,54.3-33.2,54.4-84.4
	c0-13.2-5.5-173.6,1.1-174.7c6.9-1.2,79.6,95.9,102.3,108.2c50,27.2,62.3-70.1,75.7-86.7c23.1,19.5,25.4,77.8,49.1,105.4
	c10.7,12.5,35.7,39.9,38.8,55.9c9.2,47.4-3.7,53.3-30.3,89.4c-32.5,44,38.7,56.1,62.7,86.9c-19.4-12.8-34.8-25.8-51.7-29.9
	c-15.4-5.6-64.2-20.6-39,5.9c31.6,33.3,63.5,43.4,79.3,91.3c-5.4-13.7-34.3-45-43.2-53.3c-8.7-8-29.4-16.5-37.2-26.2
	c-8.4-10.4-52.3,47.8-59.6,49.5c-70.6,16-106.8-10.2-158.9-48.7c-13.2-9.7-30-28.7-23.5-44.8c4.3-10.7-47.9-4.2-54.7-8.7
	c32.9-20,55.9,13.3,73-29.7L152.1,322.5z"/>
<path fill-rule="evenodd" clip-rule="evenodd" fill="#FFFFFF" d="M318.9,280.2c3.5-23.7,17.2-30.8,9.2-57.7
	c-3.8-12.9-24.2-28-25-38.6c21.5-10.3,39.1-11.9,61.4-2.1c28.2,12.5,29.2,41.4,35,65.7c10.8,44.9-59,37.9-80.4,37.9
	C319.4,283.3,318.2,283.9,318.9,280.2z"/>
<path fill-rule="evenodd" clip-rule="evenodd" d="M388.1,222.7c3.2,23.7-23.1,8.1-28.5-1.6c-15.7-28.1,21.9-35.7,27.1-4.6
	C387.2,219.8,387.5,217.4,388.1,222.7z"/>
<path fill-rule="evenodd" clip-rule="evenodd" fill="#FFFFFF" d="M261.6,290.6c-43-6.1-85.6-70.7-26.6-95
	c80.3-33.1,116,88.1,36.3,95.6C267.8,290.7,271.9,292,261.6,290.6z"/>
<path fill-rule="evenodd" clip-rule="evenodd" d="M300.2,230.8c0,23.1-22,13.3-28.9-0.6C260.6,208.6,300.2,205.9,300.2,230.8z"/>
</svg>
