<?xml version="1.0" encoding="utf-8"?>
<!-- Generator: Adobe Illustrator 16.0.0, SVG Export Plug-In . SVG Version: 6.00 Build 0)  -->
<!DOCTYPE svg PUBLIC "-//W3C//DTD SVG 1.1//EN" "http://www.w3.org/Graphics/SVG/1.1/DTD/svg11.dtd">
<svg version="1.1" id="Layer_1" xmlns="http://www.w3.org/2000/svg" xmlns:xlink="http://www.w3.org/1999/xlink" x="0px" y="0px"
	 width="566.9px" height="566.9px" viewBox="0 0 566.9 566.9" enable-background="new 0 0 566.9 566.9" xml:space="preserve">
<path fill-rule="evenodd" clip-rule="evenodd" d="M256.9,86c3.4,13.8-18.6,19-22,30c-2.9,9.7,12.1,31.9,17.6,41.4
	c7.5,13.1,49,27.5,64.6,22.4c18-5.9,46.2-25.1,52.3-44.1c2.1-6.5,5.5-14.7,9.2-20.9c6.6-11.1-13.7-17.1-9.5-31.6
	c36.8,16.1,7.3-11.6,19.6-35c9.7,7.5,7.3,31.1,8.1,42.5c8.7-3.2,17.4-6.3,26.2-9.3c-5.5,11.8-22.3,24.2-19.1,38.2
	c5.4,23.6,7,64.8,6.3,88.5c-1.6,58-4.5,117.5-2.1,175.1c2,48.8-36.2,98.7-87.1,109.4c-51,10.8-67.7,54.8-116.2-3.7
	c-39.6-47.9-82.2-82-49.1-148.2c23-46.1,22.2-100.7,41.6-147.5c4.7-11.3,26.7-69.9,10.7-78c-6.5-3.3-25.3-24.8-6.4-16.7
	c20.4,8.6,11.8-31.8,11.8-40c16.6,0,8.4,15.9,11.2,28.2c3.1,13.6,21.7,6.3,27,4.3C256.3,89.3,255.8,86,256.9,86z"/>
<path fill-rule="evenodd" clip-rule="evenodd" fill="#FFFFFF" d="M405.1,305.7c-8.1,25.1-9.9,39.4-38.4,45.8
	c-7.1,1.6-64,5.8-63.9-10.1c0.1-11.5,18.6-31.5,20.6-45.6c3.8-26.8-12.2-38.7,13.1-52.3c45.8-24.5,74.7,43.2,68.6,58.7
	C404.8,303,405.9,302.8,405.1,305.7z"/>
<path fill-rule="evenodd" clip-rule="evenodd" d="M365.4,326c-0.1,15.4-27.1,18.7-27,1.4C338.6,307.6,365.6,306.3,365.4,326
	C365.4,333.3,365.5,318.1,365.4,326z"/>
<path fill-rule="evenodd" clip-rule="evenodd" fill="#FFFFFF" d="M315.4,286.4c-1.9,34.1-21.2,53-50.4,65.8
	c-41.9,18.4-61.9-31.2-76.7-53.8C150,240.1,318.4,173.1,315.4,286.4C315.1,292.5,315.8,273.9,315.4,286.4z"/>
<path fill-rule="evenodd" clip-rule="evenodd" d="M269.8,327.2c-15.5,0-16.3-26.1-1.3-26C284.1,301.2,287.6,327.2,269.8,327.2
	C262.7,327.1,276.4,327.2,269.8,327.2z"/>
</svg>
