<?xml version="1.0" encoding="utf-8"?>
<!-- Generator: Adobe Illustrator 16.0.0, SVG Export Plug-In . SVG Version: 6.00 Build 0)  -->
<!DOCTYPE svg PUBLIC "-//W3C//DTD SVG 1.1//EN" "http://www.w3.org/Graphics/SVG/1.1/DTD/svg11.dtd">
<svg version="1.1" id="Layer_1" xmlns="http://www.w3.org/2000/svg" xmlns:xlink="http://www.w3.org/1999/xlink" x="0px" y="0px"
	 width="800.5px" height="205.3px" viewBox="0 0 800.5 205.3" enable-background="new 0 0 800.5 205.3" xml:space="preserve">
<path fill-rule="evenodd" clip-rule="evenodd" d="M0,177.9c1.3-7.9,16.2-22.2,23.3-25.9c5.7-3,12.8,27.7,18,22.4
	c10.6-10.9,15.2-26.8,23-39.6c6.4-10.6,7.2-23.5,11.7-5c3,12.2,7.6,24.1,11.7,36c1.1,3.2,6.3,14.7,11.4,11.8
	c5.2-2.9,9.4-12.2,12.6-17c4.4-6.8,14.3-31.8,24-32c11.9-0.2,19.3,22.7,26.8,29.1c4.9-7.3,10.6-14.2,15.1-21.7
	c2.7-4.5,10.1-19.2,14.8-9.7c8.4,16.9,7.4,37.4,12.3,55.4c9.1-7.9,15-14.1,21.2-24.6c8-13.6,11.5,8,18.2,9.1
	c3.3-25.3,2.3-51.6-6.9-75.6c-2.2-5.7-4.6-11.3-6.8-17c5.6-3.9,11.3-7.8,16.7-12c9.2-7.2,16.3-17.4,26.3-23.5
	c7.5-4.7,53.4-27.3,59.1-13.5c4.4,10.7,8.5,21.4,12.6,32.2c2.6,7,3.8,11.8,10.7,14.9c3.2,1.5,17,4.7,17.7,8.3
	c-7.6-1.9-14.6-5.3-22-7.9c3.1,11.6,8.1,22.9,12.2,34.2c2.7,7.5,28.1-8,29.6-2.5c0.6,2.3-14.1,4.8-15.8,5.2
	c-9.1,2.3-13.1,0.8-10.2,10.4c2.6,8.7,1.6,25.5,11.5,26.3c0.4-4.6-3.4-22.5,2-24.5c2.9-1.1,9.8,1.1,13,1.2c6.9,0.2,5.2,1.2,4.4,8.6
	c-0.2,2-4.1,26.3-10,16.5c-3.4-5.6,1.7-10.6,7-10.9c1-10.1-5.7-6.4-14.1-7.5c-0.1,6.9,2.2,17.9-0.1,24.5c-0.9,2.7-3.9,4-6.2,5.1
	c0.8,5.1,1.5,10.2,2.3,15.3c7.7-3.1,15.6-7.4,23.7-9.3c0.9,3.6-19.9,9.9-23.7,11.3c0.6,4.7,1.2,9.4,1.7,14.1c0.9,8-4.4,7.1-10.7,8.7
	c-23.7,5.9-44.9,6.7-69.3,3.9c-10.6-1.2-25.9-1.2-35.7-5.5c-5-2.2-9.5-5.7-14.3-8.4c-2.4-1.4-4.8-2.7-7.2-4.1
	c0.6-3.8,2.4-8.5,1.1-12.4c-3.3-10-11.1-22-17.7-8.8c-4.2,8.4-11.8,20.2-18.5,26.6c-11.5-12.9-7.1-38.1-13.9-53.4
	c-4.6-10.5-7.6-7.1-13.2,0.6c-5.6,7.8-10.3,16.1-15.8,23.9c-10.8-7.1-12.7-22.9-26-27.2c-11.1-3.6-20.3,22.7-24.6,29.6
	c-3,5-6.4,10.2-10.1,14.7c-5.8,6.8-9.1,3.5-13.4-3.3c-8.8-14.1-13.4-32.1-18.6-47.8c-5.3,9.8-10.8,19.6-16,29.5
	c-1.9,3.7-12.6,26.8-18.1,19.6c-3.2-4.2-5.4-8.5-7.9-13.1c-3-5.6-3.3-10.9-9.8-5.1C16.9,159.9,1.4,178.7,0,177.9
	C0.1,177.3,0.1,178,0,177.9z M262.5,188.8c2.1-4.9-12.9-11.4-17.2-13.9C241.4,185.5,260.5,182.5,262.5,188.8c-2,3-15.2-6-18.4-7.8
	c-0.1,5.8,13.6,10.1,18,12.5C262.2,192,262.4,190.4,262.5,188.8C262.9,188,262.4,190.3,262.5,188.8z M362.1,108.4
	c-4.3-11.9-8.7-23.7-13-35.6c-1.6-4.5-7.5-5.3-11.4-6.9c-6.2-2.6-6-3.5-9.6,2.4c0.9,2,3.3,0,3.9,2.6c-8.1-1.8-4.3,2.7-9.4,6.8
	c-0.9-0.8,3.1-7,3.6-7.9c-8.1-3.8-11.8-4.8-14.9,4.7c2,0.5,4,1.1,6,1.9c-2.2,0.2-4.5,0.1-6.7-0.3c-0.1,2.1-1.2,3.1-3.2,2.9
	c0.5-1.4,1.1-2.7,1.9-3.9c-2.7-0.8-5.3-1.7-8-2.5c-0.3,1.7-1.3,2.5-3,2.6c1.7-5-1.3-4-5.6-5.1c-4.4-1.1-8.7-2.9-13.2-4.4
	c0.5,1.2,0.2,2.2-0.8,2.9c-1.3-0.9-1.3-2-0.2-3.2c-1.8-0.6-3.5-1.2-5.3-1.8c0.9-1.2,2.1-1.3,3.6-0.4c4.3,2.5,6-4.5,7.7-7.7
	c-6.8-2.5-7.6-4.5-11.1,1.8c-0.1-2,0.4-3.7,1.5-5.4c-1.1-0.4-1.9-1-2.5-2c5.2,1.6,5-1.2,7.7-5.3c1.4,0.9-3.1,6.2-3.6,7
	c2.9,1.1,5.7,2.1,8.6,3.2c2.3-3.9,4.6-7.8,6.9-11.7c-0.8-0.2-5.8-0.5-6-2.5c2.2-0.5,4,2.1,6,1.6c1.2-0.3,1.1-2.7,2.7-2
	c-2.3,5.3,13.9,7.8,11-3.6c4.2,0,8.3,2.4,12.5,3.7c0.6-0.9,3.4-8.1,5.2-6.6c-1.4,2.3-2.8,4.7-4.2,7c2.6,0.3,13.4,1.6,14.2,4.5
	c-6.2-1-14.6,7.3-8.2,11.2c10.9,6.7,3.7-1,11.7-5.1c0.2,2.8-3.1,6.9-4.4,9.4c4.8,2.2,9.6,4.4,14.4,6.6c-2.5-5.9-11.9-39.4-17.5-40.1
	c-17.5-2.1-32.7,4.1-48.1,11.5c-7.3,3.5-17.9,5.4-15.9,15.1c1.7,8.2,3.3,16.4,4.4,24.7c2.3,17.3,5.7,38.4,2.3,55.6
	c-3.2,15.9-2.6,32.5-6,48.4c-0.8,3.9-1.5,7.8-2.1,11.7c3.6,2,7.5,2.2,11.5,2.8c8.4,1.2,16.7,2.6,25.1,3.6c16,1.9,32.9,2.4,48.8,0.1
	c7.3-1.1,14.6-3.5,21.5-6.2c6.7-2.7,7.6-10.9,3.6-17.4c-5.1,1.9-20.3,12.2-25.2,9.5c-4.8-2.7,23.1-11.3,25.2-12
	c-0.6-3.8-0.3-12.8-2.8-15.8c-3.1-3.8-7.3-4.4-3.2-10.3c4.7-6.7-3.4-28-5.4-35.8c-4.3,1.5-9.9,5.7-12.8,0.2
	C348.6,109.5,360,109.3,362.1,108.4C360.1,102.8,359.8,109.4,362.1,108.4z M309.2,38.4c-1.8,2.5-3.5,5.1-5.3,7.6
	c1.7,0.5,3.5,1.1,5.2,1.6c-1.3,0.1-5.4-1.8-6.4,0.2c-1.7,3.4-4.1,6.5-5.9,9.8c5.9,2.3,7.9,5.8,11.8-0.2c3.4-5.3,6.5-10.8,9.4-16.3
	C315.1,40.2,312.2,39.3,309.2,38.4C307.4,41.1,312.2,39.3,309.2,38.4z M307.1,61.8c7.7,3.1,7.8,3.2,11.9-4.1c-1.1-0.5-5.8-4.7-2-5.6
	c2.3-0.6,4,2.9,5.7-0.2c1.5-2.7,3-5.5,4.5-8.2c-5.9-1.8-6.8-4.2-10.3,1.7C313.5,50.9,310.3,56.4,307.1,61.8
	C309.4,62.8,311.2,54.9,307.1,61.8z M234.2,73.7c1.3,5.9,27.7,10.7,33.2,12.8c0-7.4-1.9-7-8.7-9.6c-2.9-1.2-19.9-8.6-21.3-4.8
	c6.6,3.9,25.7,5.1,29.4,11.8C259.5,86.8,243.1,73.7,234.2,73.7C234.6,75.5,235.1,73.7,234.2,73.7z M286.1,54.8
	c10.6,3,11,0.9,16.2-8.6c-3.2-0.4-6-2.2-9.2-2.4C290.8,47.4,288.5,51.1,286.1,54.8C288.7,55.5,288.5,51,286.1,54.8z M269.1,126.1
	c-7.5-4.9-15.5-9.1-23.9-12.4c1.6,7.2,23.6,8.1,22.7,14.7c-7.4-2.8-14.5-7.3-21.7-10.7c0,6.1,17.6,11.8,22.5,13.3
	C269.1,129.4,269.2,127.8,269.1,126.1C261.5,121.1,269.1,127.1,269.1,126.1z M268.3,93c-10.2-4.6-20.7-8.3-31.6-11
	c2.7,6.7,25,13.3,31.6,13.8C268.3,94.9,268.3,94,268.3,93C258,88.4,268.3,93.8,268.3,93z M305.3,62.1c-2.9-1.5-5.9-2.7-9-3.5
	c-1.4,1.6-5.6,7.3-4.7,9.8c1.4,1.2,3,1.8,4.9,1.8C302.8,71.8,302.6,67.1,305.3,62.1C303.8,61.4,303.7,65.1,305.3,62.1z M289.5,67.9
	c1.8-3.2,3.5-6.4,5.3-9.7c-9.8-2.2-9.2-2.6-14.4,6.2C283.2,66.3,286.4,66.9,289.5,67.9C291.4,64.5,286.6,67,289.5,67.9z M235.7,77.3
	c0.4,6,27,12.2,32.4,13.6C266.9,83.3,241.9,79.3,235.7,77.3C235.8,79.7,240.6,78.9,235.7,77.3z M238.1,86.2
	c2.1,8.4,23.3,12.2,30.5,15.5C268.1,94.2,244.7,89,238.1,86.2C238.5,88.1,248.4,90.5,238.1,86.2z M316,65.4
	c5.7,1.7,9.5,5.3,12.9-0.1c2.8-4.5-2-4.5-5.5-5.9C318.1,57.2,318.3,61.2,316,65.4C319.4,66.4,317.4,62.9,316,65.4z M248.5,132.5
	c-2.2,6.3,15.5,11.9,20.1,13.4C269.5,138.7,253.9,135.2,248.5,132.5C247.6,135.1,255.4,135.9,248.5,132.5z M306.3,62.6
	c-1.5,3-3,5.9-4.6,8.9c8.8,2.8,8.3,2.4,12.7-5.7C311.8,64.5,309.1,63.5,306.3,62.6C304.7,65.8,309.2,63.1,306.3,62.6z M248.6,142.4
	c-0.9,5.1,14.9,12.5,19.2,14C269.2,149.3,254.3,144.2,248.6,142.4C248.2,144.8,251.9,143.4,248.6,142.4z M266.1,171.3
	c-6.6-3.1-12.3-8.1-19.4-10.2c-0.6,5.4,13.8,11.9,19,13.3C265.9,173.3,266,172.3,266.1,171.3C259.4,168.1,266,172.4,266.1,171.3z
	 M240.8,95.3c-2,2,27.2,16.3,28.1,13.9C260.3,103.2,250.9,98.4,240.8,95.3C240.7,95.5,250.9,98.4,240.8,95.3z M247.3,122.1
	c-1.9,5.2,17.6,13.6,21.4,13.8C268.7,129.8,252.8,125.1,247.3,122.1C246.5,124.4,249.4,123.2,247.3,122.1z M243.9,106.7
	c8.2,4.3,16.4,8.5,24.6,12.8c2.2-5-21.2-15.5-25-15C243.6,105.2,243.7,106,243.9,106.7C252.1,111,243.7,105.8,243.9,106.7z
	 M247.3,156.1c-0.7,4.5,16.8,15,19.2,11.6C268.5,165,249.7,157.2,247.3,156.1C246.9,158.8,249.5,157.1,247.3,156.1z M243.9,108.3
	c2.7,7.5,18.2,12.3,24.9,15.6C269.8,117.6,248.2,110.3,243.9,108.3C244.6,110.2,248.4,110.4,243.9,108.3z M246.4,165.5
	c-2,5.1,14.6,12.8,18.4,14.3C265.6,174.3,251.9,167.7,246.4,165.5C245.5,167.7,253.2,168.2,246.4,165.5z M264.5,182
	c-5.9-4.3-11.8-8.7-18.5-11.5c-1.3,5.1,13.1,11.5,18,13.7C264.1,183.5,264.3,182.7,264.5,182C258.5,177.6,264.3,182.6,264.5,182z
	 M269.1,114.7c1-5.4-22.7-12.9-26.6-14.6C241.4,105,264.6,112.7,269.1,114.7C269.5,112.3,265.4,113.1,269.1,114.7z M240.2,91.2
	c-0.9,3.5,23.2,12.2,26.5,14.6c2.5,1.9,1-2.6-3-4.5C255.9,97.8,248,94.5,240.2,91.2C239.8,92.8,245,93.3,240.2,91.2z M247.7,128.1
	c-0.9,4.7,17.5,11.2,21.1,12.7C268.7,136.8,252.4,127.1,247.7,128.1C247.4,129.3,247.9,128,247.7,128.1z M247.9,152
	c-1,5.1,15.8,10.9,19.6,11.7C265.4,158,253.5,153.7,247.9,152C247.5,154,248.7,152.2,247.9,152z M240.5,69.3
	c7.8,4,17.9,6.9,26.5,9.1C267.7,74.1,243,67.1,240.5,69.3C241.6,69.8,241.1,68.8,240.5,69.3z M268.3,150.1
	c-0.4-5.5-15.4-10.1-19.6-12C246.1,140.9,265.3,150.1,268.3,150.1C268.3,149.6,267.8,150.1,268.3,150.1z M267.8,157.7
	c-4.6,1.7-14.9-9.3-19.6-10.8C247.8,153.9,267.8,160.1,267.8,157.7C266.2,158.3,267.8,158.3,267.8,157.7z M266.9,74.3
	c-0.6-4.1-22.2-9.5-23.1-7.4C249.3,70.4,260.4,73.9,266.9,74.3C266.6,72.4,266.1,74.3,266.9,74.3z M264.4,61.6
	c-3.7-0.6-9-2.4-12.6-1.4c3.4,1.4,10,1.5,12.6,4.2c-4.9,0.9-9.8-2.9-14.8-1.8c5.2,2.2,10.8,3.2,16.3,4.6
	C265.3,65.3,264.9,63.5,264.4,61.6C260.6,61,264.9,63.6,264.4,61.6z M265.9,68.2c-3.6-0.6-17.4-6.4-19.9-3.2
	c6,1.7,13.7,5.4,19.9,5.4C265.9,69.6,265.9,68.9,265.9,68.2C264.8,68,265.9,68.8,265.9,68.2z M380.4,124.7c1.9,3.1,16.8,5,16,0.2
	C391.1,124.8,385.7,124.6,380.4,124.7C380.9,125.5,386.2,124.6,380.4,124.7z M263.3,54.3c-0.4,0-5.9-1-5.6,1.4
	c1.8,0.1,3.4,0.7,4.9,1.6c-3,0.6-6.8-1.8-8.9,1.3c3.6,0.6,7.1,1.2,10.7,1.9C264.1,58.4,263.7,56.3,263.3,54.3
	C261.9,54.3,263.7,56.3,263.3,54.3z M262.5,50.2c-0.8,0.8-1.6,1.6-2.4,2.5C263.1,53.7,263.9,52.8,262.5,50.2
	C261.6,51.1,262.8,51.3,262.5,50.2z"/>
<path fill-rule="evenodd" clip-rule="evenodd" d="M625.8,186.7c8.8-10.4,14.1-23.6,22.6-34.4c4.3-5.5,7.9-11.4,11.7-17.3
	c4.2-6.4,4.7-10.2,9.4-3c6.5,10.1,13.7,21.1,23.1,28.6c4.5,3.6,8.2-5.2,11.6-8.4c4-3.7,11.9,12.1,13.6,14.7
	c4.7,7,9.6,13.8,14.9,20.3c6,7.5,11.1,1.6,15.1-4c9.6-13.6,18.2-28.5,26.1-43c4.4-8.1,5.6-6.2,9.5-0.2c4.2,6.5,10,12.6,15.9,17.3
	c1.4,0.8,1.6,1.6,0.6,2.6c-2.9,0.7-5.4-3.5-7.3-5.2c-5.4-4.8-10.1-11.4-14.6-17.1c-10.7,17.2-19,39.8-32.7,54.8
	c-3.9,4.3-6.6,7.9-10.7,2.8c-3.4-4.2-7.1-8.4-9.8-13.1c-5.3-9.3-11.2-18.6-17.7-27c-3.1,3.2-6.1,6.2-9,9.6c-4.7,5.7-5,2.8-10.4-2.5
	c-9.3-9.1-12.6-22.6-22.2-31.4c-4.9,4.5-8,12.2-11.9,17.7c-5.9,8.3-11.4,16.8-16.8,25.4c-2.3,3.6-8.1,16.8-12.3,17.8
	c-5.1,1.2-13.3-13.3-15.8-16.9c-4.9-6.9-10-11.7-16.7-16.8c-8,4.5-11,12.8-16.9,19.3c-1.4,1.5-9.7,17.2-13.5,11.1
	c-2.2-3.5-6.6-24.5-9.1-25.1c-2.3-0.5-11.1,10.8-12.7,12.4c-5.5,5.4-9.5,4-5.4,12.6c1.4,3-8,10.8-9.7,13.6
	c-1.8,3.1-12.7,1.2-15.9,1.6c-27.7,3-56.8,1.4-84.4-1.1c-7.1-0.6-14.1-1.3-20.6-4.4c-2.8-1.3,1.6-13.4,2.4-15.6
	c4.3-12.3,7.7-24.4,10.3-37.2c2.9-14.2,9.2-34.5,4.6-48.8c-2.9-8.9,3-13.5,2.7-21.5c-0.3-7.2,2.9-15.5,2.7-23.1
	c-0.2-8.6-1.3-17-2.3-25.5c-1-8.8,0.2-10.3,8-12.3c15.5-4,31.7-5.9,47.6-7.2c5.1-0.4,14.4-2.8,19.3-0.9c4,1.6,8.6,11.3,11.4,14.7
	c3,3.7,21.2,21.2,20.6,25.6c-4,29.2-4.1,58.6-3.5,88.1c0.3,12.7,0.2,25.6,2.9,38c3,13.7,18.8-9.6,23.2-15c5.1,4,5.3,20.3,8.2,26.6
	c3.8,8.6,16.4-14.7,18.9-18.6c2.6-4.2,5.1-8.4,9-11.4c4.6,2.4,8.5,6.4,12.4,9.9C610.2,171.1,617,180.3,625.8,186.7
	C629.3,182.5,624.8,185.9,625.8,186.7z M520.7,66.6c-1.1,5.3-16.8,6.6-15.6,12.7c4.5-1.5,22.5-9.2,21.7-14.6
	C525.5,65.3,521.9,67.5,520.7,66.6c3.9-2.3,7.3-2.9,6.5-7.8c-4.2,2.7-22.8,10.7-22,16.6C510.3,72.4,515.5,69.5,520.7,66.6
	C520.4,68,517.7,68.3,520.7,66.6z M425.5,104.7c-3.8,21.6-5.2,44.2-11.3,65.3c-1,3.6-9.1,27.8-4.9,28.5c10.1,1.6,19.9,3.1,30.3,3.1
	c22.3,0.1,44.1,1.3,66.4,0.3c3.4-0.2,11.7-0.3,14.4-2.7c-1-5.2-3.2-10-4-15.2c-1.7-10.9-3.7-21.9-5.9-32.7
	c-4.5-22.3-5.4-46.4-7.4-69.2c-2-22.7-2.8-45.5-5.2-68.2c-1.1-10.4-22.9-4.3-31-3.4c-10.7,1.2-21.4,2.3-32,4.6
	c-6.9,1.4-9.4,1.1-8.5,8.5c0.6,5.4,0,11.3,1.5,16.6c2.6,9.4,1.3,20.7,1,30.3c3.7-2.7,8.4-3.8,13-3.8c4.8-0.1,7.1,5,10.6,1.3
	c6.6-7.1,14.6-10.1,22.8-2.7c14.9,13.6,6.2,52.1-17.6,48.1c-12.4-2.1-14.7-19.3-12.5-29.1c0.8-3.7,6.5-11.8,2.2-14.4
	c-3.7-2.3-11.4-2.5-15,0.2c-8.6,6.5-13.1,16.6-8.8,27c1.8,4.3,5.9,8.1,10.6,8.9c2.8,0.5,10.5-4.7,11.6-3.9
	C442.2,111.6,431.9,107.3,425.5,104.7C425.3,105.8,428,105.7,425.5,104.7z M461.3,111.5c22-1.6,28.1-46.8,4.3-49
	C443.6,60.6,436.7,111.5,461.3,111.5C465,111.3,455.9,111.5,461.3,111.5z M504.5,71.4c7.9-4.8,22-9.5,23.6-19.1
	C521.8,56.4,504.5,63.2,504.5,71.4C506.9,70,504.5,70.1,504.5,71.4z M528.5,48.4c-5.2,2.1-26.4,9.9-24.2,17.2
	C508.2,63.5,529.4,52.9,528.5,48.4C526.9,49.1,528.9,50.3,528.5,48.4z M527.2,43.9c-3.2-3.5-25.5,6.3-23.9,12
	C511.3,51.9,519.3,47.9,527.2,43.9C526.6,43.2,519.1,48,527.2,43.9z M526.5,68.8c-3.1,1.2-22.7,10.8-20.9,15.2
	C505.7,84.2,526.9,74.1,526.5,68.8C525.7,69.1,526.7,70.9,526.5,68.8z M525.8,74c-3.4,1.6-21.3,11-19.8,14.9
	C509.7,88.4,527.1,78.4,525.8,74C524.7,74.5,526.5,76.2,525.8,74z M503.4,59.9c5.7-2.9,11.4-5.8,17.1-8.8c1.8-0.9,13.3-8.3,5.2-5
	C521.1,48,503.5,54.5,503.4,59.9C512,55.5,503.4,58.3,503.4,59.9z M506.7,92.9c3.8-2.2,20.2-8.5,18.5-13.6
	C520.2,80.5,507.7,87.5,506.7,92.9C507.3,92.5,507.1,90.4,506.7,92.9z M525.1,91.1c-3.3,1.9-18.6,8-17,12.8
	C511.6,102,527,96.1,525.1,91.1C521.7,93.1,525.9,93.2,525.1,91.1z M524.2,40.9c-3-4.1-20,6.6-21.9,10.1
	C510,48.4,517,44.5,524.2,40.9C523,39.2,517.1,44.5,524.2,40.9z M502.2,44.3c5.7-2.8,11.5-5.6,17.2-8.4
	C517.2,31.8,501,39.4,502.2,44.3C507.9,41.5,501.8,42.5,502.2,44.3z M521.6,38.6c-0.7-4.4-20.3,5.9-18.9,8.7
	C509,44.4,515.3,41.5,521.6,38.6C521.4,37,515.4,41.5,521.6,38.6z M515,30.9c-2.8,1.1-14.7,4.4-12.7,8.7c5-2.3,9.9-4.5,14.9-6.8
	C516.5,32.2,515.8,31.6,515,30.9C513.7,31.4,515.8,31.6,515,30.9z M524.1,107.9c-3.2,0.8-15.3,6.8-14.4,10.8
	C513.9,117.2,524.1,112.4,524.1,107.9C523.5,108,524.1,108.9,524.1,107.9z M525.7,84.1c-4.3,1.5-18,7.1-18.4,12.4
	C510.9,94.3,525.7,88.3,525.7,84.1C524.3,84.6,525.7,84.7,525.7,84.1z M508,105.8c0.1,0.6,0.2,1.1,0.3,1.7c3.9-1.6,17.1-7,16.6-11.2
	C520.5,98.6,512.7,105.1,508,105.8C508.1,106.3,510.4,105.4,508,105.8z M508.8,111c4.3-2,15.7-6.4,16.1-11.5
	C522.2,101.1,507,107.7,508.8,111C514.4,108.4,508.1,109.7,508.8,111z M525.5,87.5c-3.3,1.8-18.9,7.7-17.8,12.2
	C510.6,98,526.6,91.3,525.5,87.5C523,88.9,525.9,89,525.5,87.5z M524.1,103.7c-2.2,1.2-17,7.8-15,11.2
	C511.4,113.6,525.8,106.9,524.1,103.7C523.6,104,524.7,104.9,524.1,103.7z M514.5,30.1c-2.6-3.4-13.6,1.2-12.7,5.9
	C506,34,510.3,32.1,514.5,30.1C513.8,29.2,510.1,32.1,514.5,30.1z M523.5,112.2c-3.3,1.6-14.5,6.9-13.4,11
	C512.3,121.8,526.2,115.5,523.5,112.2C522.7,112.6,524.4,113.3,523.5,112.2z M515.7,167.2c3.4-2.4,10.3-5.1,9.8-9.6
	C522.1,158.8,514.6,163.2,515.7,167.2C519.2,164.7,515.3,165.8,515.7,167.2z M513.3,148.5c3.6-2.1,10.2-5.2,11.1-9.5
	C522.3,138.8,511.1,145.4,513.3,148.5C517.1,146.4,512.1,146.9,513.3,148.5z M511.8,26.7c-2.7-3.6-12.3,1.1-10.1,5.3
	C505.1,30.3,508.5,28.5,511.8,26.7C511.3,25.9,508.5,28.5,511.8,26.7z M510.6,130.2c1.1,0.6,15.6-7.4,12.7-10
	C519.5,122.7,512,125.7,510.6,130.2C510.8,130.3,510.8,129.5,510.6,130.2z M510.3,126.3c2.7,0.4,14.4-7.1,13.2-9.9
	C518.8,119.2,513.5,121.6,510.3,126.3C511.6,126.4,513.6,121.5,510.3,126.3z M523.6,124.4c-2.6,1.1-13.7,6.1-12.5,9.8
	C512.4,133.5,525.9,126.7,523.6,124.4C519.1,126.3,524.5,125.3,523.6,124.4z M523.9,127.6c-1.7,0.9-13.3,7-12,10.1
	C514.2,137.1,525.5,130.6,523.9,127.6C523.5,127.8,524.4,128.6,523.9,127.6z M514.9,163.2c1.5-0.3,11-6.3,10.6-8.1
	C525,152.7,514.6,160.1,514.9,163.2C515.4,163,514.8,162.4,514.9,163.2z M524.6,146.5c-2.2,0.9-12.4,6.2-10.4,9.5
	C516.7,154.2,525.5,150.2,524.6,146.5C524.2,146.6,524.9,147.7,524.6,146.5z M524.1,131.1c-4.2,3-9.6,4.7-12,9.6
	C514.3,141.1,525,133.9,524.1,131.1C519.8,134.2,524.4,132.2,524.1,131.1z M530,182.2c-3,1.3-9.1,4.4-8.5,8.6
	C523.6,190.7,531.2,185.4,530,182.2C526.8,183.6,530.4,183.4,530,182.2z M526.4,165.4c-2.3,1.2-10.5,4.9-9.4,8.6
	C519.5,172.7,528,169.1,526.4,165.4C523.4,167,527,166.8,526.4,165.4z M531.7,188.8c-2.9,1-10.6,5.2-8.9,9.1
	C525.2,195.9,532.5,192,531.7,188.8C528.2,190,531.8,189.2,531.7,188.8z M512.9,144.3c2.8-1.9,12.2-5.5,11.1-9.6
	C521.2,136.6,511.8,140.8,512.9,144.3C516.6,141.8,512.7,143.7,512.9,144.3z M527.6,172.1c-2.7,1.7-11.6,5.7-8.6,9.8
	C521.8,178.5,525.3,175.9,527.6,172.1C526.9,172.5,525.3,175.9,527.6,172.1z M526.2,161.9c-3.9,1.4-9.7,4.8-10.1,9.1
	C519.5,168.6,525.4,166.1,526.2,161.9C521.9,163.4,526,162.9,526.2,161.9z M528.7,178.3c-2.5,1.6-8.4,5.6-8,9.2
	C524.2,184.7,529.5,183.1,528.7,178.3C528.2,178.6,528.8,178.9,528.7,178.3z M527.4,169.9c-1.3-1.7-10.9,4.3-10,7.8
	C520.8,175.1,524.6,173.1,527.4,169.9C527.3,169.7,524.7,173.1,527.4,169.9z M524.3,142.8c-3.6,1.2-9,5.3-10.8,8.7
	C515.7,151.5,525.6,145.4,524.3,142.8C524,142.9,524.7,143.6,524.3,142.8z M509.5,23.5c-3-2.7-9.6,1.2-8.7,4.7
	C503.7,26.7,506.6,25.1,509.5,23.5C507.5,21.8,506.5,25.2,509.5,23.5z M514.5,158.8c2.8-0.7,10.4-5.7,10.4-8.6
	C521,152.4,517,154.8,514.5,158.8C515.2,158.6,517.1,154.6,514.5,158.8z M507.6,21c-1.8-3-8.5-0.1-7,3
	C502.8,22.7,505.1,21.7,507.6,21C506.6,19.4,506.2,21.4,507.6,21z M521.6,182.2c0.6,0,8-5.4,6.5-6.9
	C525.5,176.4,522.2,179.3,521.6,182.2C521.7,182.2,522.1,179.9,521.6,182.2z M531.1,186.7c-3.4,0.8-8,4.7-8.8,6.8
	C525.3,191.2,528.2,189,531.1,186.7z M500.6,20.5c1.8-0.8,3.5-1.5,5.3-2.3C503.7,15.6,499.9,16.9,500.6,20.5
	C502.4,19.7,500.5,19.9,500.6,20.5z M502.5,13.2c-0.7-0.7-1.4-1.5-2-2.2C500.1,14.9,499.7,15,502.5,13.2
	C501.9,12.5,501.8,13.7,502.5,13.2z M500.5,15.5c0.8,1.4,1.3,1.3,3.2-0.4C502.4,13.8,501.5,15,500.5,15.5z"/>
<path fill-rule="evenodd" clip-rule="evenodd" d="M351.3,33.9c1.5-1.7,15.5,1.1,16.8,2.1c2.1,1.7,3.3,13.7-0.5,14.3
	c-1.5-1.7,0.1-8.2-0.5-10.6c-1-4.2-7.1-1.6-9.8-1c-0.9,7.6,11.7,15.1,11.7,23.2c0,6.6-11.4,10.1-11.4,1.7c-0.1-8.2,8.2-3.3,3.5-11.9
	C357.8,45.7,354.6,39.8,351.3,33.9C352.5,32.5,355.4,41.3,351.3,33.9z"/>
<path fill-rule="evenodd" clip-rule="evenodd" d="M399.9,69.3c2.1-8.6,4.6-17.1,8-25.2c11.6,8.6,9.7,19.2,0.1,28.7
	c-2.8-2.8,3.7-9.2,5-11.8c2.2-4.3-1.5-9.6-4.4-12.7c-2.6,7.1-3.6,25.3-10.2,30C390.1,84.3,387.7,62.3,399.9,69.3
	C402,60.7,399.1,68.9,399.9,69.3z"/>
<path fill-rule="evenodd" clip-rule="evenodd" d="M390.9,35.4c-12-5.1-23-12.3-34.2-18.9c-5.6-3.3-11.6-6.2-17-9.8
	c-0.7-0.5-6.7-6.3-0.9-6.6c6.1-0.3,18.7,13.3,23.7,16.7C367.3,20.1,390.6,30.6,390.9,35.4C389.7,34.9,390.7,33.1,390.9,35.4z"/>
<path fill-rule="evenodd" clip-rule="evenodd" d="M277.9,97.4c2.6,0.8,3.8,3.1,4.9,5.4c3.8-6,3.3-9-1.7-14.7
	c3.4-1.8,5.8,5.1,7.3,7.5c8-6.9-6.2-12.8-3.7-16.7c0.9-1.4,8.8,10.4,9.5,11.5c2.7,4,11.4,2.3,15.8,4.2c4.1-4.9,7.8-7.8,14.4-8.2
	c7.2-0.5,8.8-10.7,14.6-14.9c1.3,1.6-6.5,11.5-7.5,14c-0.8,2.1,2.6,2.8,3.7,3.3c2.7-2.5,4.6-5.8,7.7-7.8c1,7.1-8.1,5.3-1.9,13.4
	c0.1-0.1,6.4-6.9,7.4-5.8c1.9,2-5.4,6.8-5.4,9.7c0,6.3,0.6,11.9-2.4,17.9c-5.6,11.3-19.6,15.5-28.7,5.5c-1.6-1.7-21.4,16.5-29.4,1.6
	c-2.6-4.9-3.4-11.3-1.3-16.6C282.6,103,275.8,99.6,277.9,97.4C280,98.1,277.1,98.3,277.9,97.4z M312.5,118.3
	c4.6,18.5,38.7-2.2,27.3-22.2c-4.6-8.1-16.6-10.1-24.1-5C308.8,95.8,318,109.2,312.5,118.3C313.5,122.4,316.8,111.2,312.5,118.3z
	 M294.7,127c7.9,0.5,14.7-5.6,17.6-12.5c4.8-11.6-0.7-16.7-10.5-19.5C281.5,89.1,273.4,127.5,294.7,127
	C297.1,127.2,290.3,127.1,294.7,127z"/>
<path fill-rule="evenodd" clip-rule="evenodd" d="M342.1,169.6c-0.7,1.8-1.5,3.5-2.5,5.2c3,1.7,5.3,0,7.1,2.7
	c-2.8,1.4-5.4-1.7-7.9-0.7c-3.5,1.3-2.3,6.4-5.8,7.7c0.9-3.3,3.4-5.4,4.8-8.4c-3.7-1.4-7.4-2.7-11.2-4.1c-0.7,2.7-2.8,7.9-4.8,8.7
	c0.6-3.3,2.7-5.8,3.8-8.9c-4.1-1.4-8.2-2.8-12.3-4.2c-2.1,3.8-4.2,7.5-6.3,11.3c5.5,5.3,18,6.9,25.1,8.6c0,2.3-23.5-6.5-25.8-6.7
	c-2.3-0.2-7.3-3.1-9.8-3.9c-9.4-2.9-3.1,6.8-8.6,7.3c-3.8,0.4,3.5-8.3,3.9-8.9c-7.2-2.6-9.3-5.6-13,1.8c-3.9-3,5.4-3.6-1.5-7.6
	c1.4-0.6,2.8-0.6,4.3,0c1.9-3.9,3.8-7.8,5.8-11.7c-2.6-0.9-5.3-1.8-7.9-2.8c2.1-1.5,6.8,1.5,8.2,2.1c2.5-4.8,5-9.6,7.4-14.4
	c-9.5-2.8-7-0.7-12.6,4.7c1-2.5,2.1-5,3.4-7.4c-2.1-0.7-4-1.9-5.6-3.5c3.5,1.5,5.2,4,6.9-0.1c0.8,0.9,1,2,0.8,3.2
	c2.5,1.2,5,2,7.8,2.3c0.8-1.5,2.8-8.2,5.3-7.1c-3.2,7.9-8.9,14.9-12.4,22.8c5.8,2.2,9.4,6.1,12.9,0.1c0.1,1.4-0.2,2.7-1,4
	c4.7,1.9,10.5,6.7,13.5,1.8c0.3,1,0.3,2-0.1,3c2.6,1.3,5.4,2.3,8.2,3c6.8,2,5-1.1,8.5-6c-1.1,2.6-2.3,5.1-3.4,7.7
	C333.3,172.8,339.6,178.3,342.1,169.6z M312.1,166.9c-13-5-12.5-4-18.9,7.9c4.3,1.3,8.7,2.7,13,4C308.2,175,310.8,171.2,312.1,166.9
	C309.2,165.8,310.7,171.4,312.1,166.9z M299,162.2c-3.6-1.4-7.1-2.7-10.7-4.1c-1.9,4-3.8,8-5.8,12.1c3.2,1.7,6.5,3.1,10,4.1
	C294.7,170.3,296.8,166.3,299,162.2C295.2,160.8,296.8,166.4,299,162.2z"/>
<path fill-rule="evenodd" clip-rule="evenodd" d="M305.6,145.9c1.3-1.6,17.9,0.1,20.4,0.5c0.6,4.7-7.6,10.9-12,10
	C309.5,155.4,307.2,149.7,305.6,145.9C307,144.2,305.8,146.5,305.6,145.9z"/>
<path fill-rule="evenodd" clip-rule="evenodd" d="M330.8,163.5c1.2-4.4-3.4-2.7-2.6-4.8c6.4,2.3,7.4-4.9,10-9.7
	c-1.7-0.6-3.3-1.2-5-1.8c-0.2,0.8,8.9-1.3,7.5-1.9c-2,4.4,3,4.5,6.7,5.6c7,2,8.2-6.5,11.3-11.9c3.8,5.9-13,11.2-2.8,14.6
	c-0.3,1.6-1.6,1.6-4-0.2c-0.9,2.3-2.2,4.2-4,5.8c1.1-2,2-4,2.7-6.1c-3.9-1.2-7.8-2.4-11.8-3.6c-2,3.7-3.9,7.4-5.9,11.1
	c7.6,1.7,10.3,5.8,15-1.4c-0.7,1.7-1.4,3.4-2.1,5.1c2.5,1.3,5.1,2.1,7.9,2.3c7,1.1,3.8-1.3,8.2-5.6c0.7,0.4-3.6,10.9-5.7,11.2
	c2.2-6-12-9.6-14.2-2.3c2.8-7.1,0.3-5.3-5.7-7.3C333.4,161.4,332.2,159.8,330.8,163.5z"/>
<path fill-rule="evenodd" clip-rule="evenodd" d="M300.1,192.3c4.5,3-0.1,6.3-3.9,6c0.7-3.8,2-13.7,7.1-13.9
	c6.4-0.3,5.9,8.8,4.5,12.6c-1.1,2.8-2.3,2.5-4.8,2.4c0-4.9,0.7-4.4,3.2-7.9C309,187.5,300.5,185,300.1,192.3
	C300.6,192.7,300.2,190.6,300.1,192.3z"/>
<path fill-rule="evenodd" clip-rule="evenodd" d="M317.6,199.8c-8.3,0.6-6-12.9,1.9-11.3C326.8,189.9,324.1,199.8,317.6,199.8
	C315.2,200,318,199.8,317.6,199.8z M317.9,198.1c3-1.4,3.2-5.2,0.7-7C314.1,187.8,311.5,198.2,317.9,198.1
	C318,198,315.9,198.1,317.9,198.1z"/>
<path fill-rule="evenodd" clip-rule="evenodd" d="M345.9,136c-2.3-2.9-7.9-3.1-11.4-4.1c2.5-1.8,6.5,0.7,8.9,1.4
	c5.5,1.7,3.3-4.8,7-4.6c-1,1.9-1.9,3.9-2.9,5.8c3,0.8,6,1.7,9,2.5C354.7,138.8,348.2,135.8,345.9,136z"/>
<path fill-rule="evenodd" clip-rule="evenodd" d="M290.4,78.7c1.2-0.5,16.1,3.5,16.5,4.7C304.8,83,290.4,80.6,290.4,78.7
	C290.7,78.6,290.4,78.9,290.4,78.7z"/>
<path fill-rule="evenodd" clip-rule="evenodd" d="M327.1,136.3c0.2-2,1-3.7,2-5.3C329.1,133,328.5,134.8,327.1,136.3z"/>
<path fill-rule="evenodd" clip-rule="evenodd" d="M344.4,137.9c0,2-2,4.4-3.1,6C342.2,141.4,342.8,139.9,344.4,137.9z"/>
<path fill-rule="evenodd" clip-rule="evenodd" d="M282.5,147.3c0.3,1.7-0.1,2.3-1,1.7C282.7,148.3,283.1,147.8,282.5,147.3z"/>
<path fill-rule="evenodd" clip-rule="evenodd" d="M345.9,136c-1.5,0.7-2,1.4-1.4,1.9C346.1,137.2,346.5,136.5,345.9,136z"/>
<path fill-rule="evenodd" clip-rule="evenodd" d="M463.8,46.2c-6.4-2.7-5.1,0.3-7.4,5.8c0.7,0.4,5.9,2.4,5.5,3.3
	c-4.1-1.5-4.1-2-7.2-0.2c0.4-4.5-5.6-6-9.2-8.1c-5.2,6.7-4.2,9.1,3,12c-2.2,1.1-5.8-1.1-7.5-2c0.7,1.1,0.6,2.1-0.3,2.8
	c-2.2-1.7,0.4-3-2.1-4.9c-2.4-1.8-4.5-3.1-6-5.7c2.9,0.2,5.5,4.5,8,5.8c0.4-1,4.1-7,3.6-8.6c-0.7-2-6.3-2.2-5.7-4.8
	c1.9-0.6,5.9,3.6,6.3,4c2.7-5.8,6-7.3-0.1-11.3c-1.6-1.1-12.3-7.1-11.8-8.7c2.5,0.3,5.2,3.2,7.3,4.6c1.3-2.9,2.6-5.9,4-8.8
	c0.8,1.7-0.4,3.1-1.2,4.7c-3.3,6.3,0.8,6.7,6,10.2c4.2-9.2,4.5-8.9-3.8-14.6c2.3-0.5,6.5,3.4,7.8,4.4c1.6-2.3,3.1-4.7,4.4-7.2
	c1,2.1-2.6,6.5-3.3,7.9c3.4,1.9,6.8,3.8,10.3,5.7c6.7-10.1,1.3-7.9-4.1-15.3c2.2,0.1,7.1,4.9,8.5,5.9c1.4-2.6,2.9-5,4.7-7.3
	c0.6,1.2-1.8,4.4-2.2,5.2c-2.4,5.2,5,7,9,9.5c5.6-8,3.1-8.8-3.8-14.1c0.8-1,7.2,4.6,8.6,5.1c0.5-1.3,1.8-6.5,3.1-7.2
	c2.5-1.3-0.6,4.3-0.6,4.2c-4.6,8.9,4.8,2.2,4.1,8.1c-2.2-1.1-4.4-2.2-6.5-3.4c-2.9,5.8-6.2,6.6,0.5,10.3c9.6,5.2,1.2,0.2,7.3-1.5
	c1.4,5.2-4.2,2.4,1.7,7.2c-1.3,1.3-2.9-3.1-4.3-0.4c-3.6,6.9-4.5,7,2.4,10.6c-0.8,1.7-5.6-1.6-6.6-2.1c-1.9,2.9-3.5,6.1-4.2,9.5
	c-2.2-0.8,1.3-6,1.8-7c2.5-5.4-3.2-6.3-7.6-9.2c-9.2,15.8,12.7,20.4,22.9,27.1c-1.8,1.9-3.7,1.4-5.7-1.3c-0.4,0.8-2.4,5.9-3.5,5.4
	c3.3-8,0.7-7.3-6.4-12.1C477.1,55.4,468.7,51.6,463.8,46.2c2.3,1.2,4.7,2.5,7.1,3.8c3.4-8.8,5.2-9.3-2.5-14.7
	c2.5,1.2,4.9,2.5,7.2,3.9c1.5-2.6,2.9-5.3,4.1-8c-3.5-2.2-6.9-4.4-10.4-6.6c-2.7,5.3-5.9,6.7-0.9,10.9
	C461.4,32.3,458.6,42,463.8,46.2C462.5,45.7,462.6,45.3,463.8,46.2z M454.2,40.3c1.7,0.8,3.4,1.6,5,2.5c1.6-3.3,3.1-6.6,4.7-9.8
	c-3.4-1.8-6.7-3.6-10.1-5.4C450.6,34.5,448.3,35.5,454.2,40.3c-1.6-0.8-3.3-1.7-4.9-2.6c-4.1,9.5-2.3,9.2,6.3,13.9
	C458.3,44.8,459.5,45,454.2,40.3C455.8,41.2,454.8,40.9,454.2,40.3z M480.8,31.7c-6,8.8-3,9,4.9,13.9
	C490.4,36.1,490,36.9,480.8,31.7C479,34.3,483.9,33.4,480.8,31.7z"/>
<path fill-rule="evenodd" clip-rule="evenodd" d="M486.8,110.2c2,7.6,7.4,19-0.4,24.9c-3.8,2.9-28.2,3.6-24.8-3.7
	c0.7-1.5,4.7-0.2,5.9-0.5c3.3-0.7,6.7-3.8,9.1-6C478.9,122.9,485.1,110,486.8,110.2C487.9,114.1,485.4,110,486.8,110.2z"/>
<path fill-rule="evenodd" clip-rule="evenodd" d="M429.7,133.7c2.4-8.3,3.3-8.4-4.3-13.5c2.2-0.6,6.1,3,7.4,4
	c0.9-2.2,1.9-4.3,2.8-6.5c0.8,1.7-1.5,5.9-1.9,7.1c3.8,2.2,7.5,4.3,11.3,6.5c1.4-3.2,2.8-6.4,4.2-9.6c-4.1-1.9-7.9-4.3-11.5-7.1
	c2.4-2.8,8.8,7.8,13,5.3c1.1,2.3-1.8,5.1-2.8,7.5c-2.5,6.1,1.8,6.6,7.5,7.9c-3.2,1-7.1-1.7-9.9-3c-4.4,9.6-4.1,8.9,5,14.1
	c-3.3-1.1-6.3-2.7-9.4-4.3c-4.5,10.6-5.3,10.1,5,15.7c-3.4-1.2-6.6-2.8-9.9-4.4c-1.4,3.2-2.8,6.4-4.2,9.7c3.2,2.2,6.6,3.9,10.1,5.4
	c5.8,2.3,11.5-5.7,7.2-9.1c3.9,1.2,3.7-3,5-6.2c2-4.8,0.4-4-3.5-6.4c5.4,2,5.1,2.2,7.4-3.2c1.2,0.5-0.9,5-1.2,5.9
	c4.1,1.9,8.3,3.9,12.4,5.8c6,2.8,5.7,0.4,7.6-5.3c-0.9-0.6-5.5-3-4.9-4.1c1.7,1,3.5,1.9,5.3,2.8c0.5-1.7,1.3-3.3,2.4-4.7
	c2.2,5.3-5,3.8,2.6,7.8c6.7,3.5,5.9,3.8,10.6-0.4c5.1,3.4-6.8,3,1.6,5.8c3,1,6.1,1.5,9.1,2.5c-4,0.9-9-1.7-12.7-2.9
	c-2.2,4.3-3.5,9.1-6.5,13.1c1.9-4.5,3.8-8.9,5.8-13.4c-4-2-8-3.9-12.1-5.9c-3.7,7.8-2.6,4.9,2.7,9.7c-2.2-0.2-4.3-0.8-6.3-1.6
	c-2,2.9-3.2,6.2-4.4,9.5c3.5,1.1,7,2.2,10.6,3.3c-2.6,1-5.5-0.9-7.9-1.8c-5.4-2-3.8,3.2-6.5,6.7c0-4.7,3.3-5.6,0.7-9.2
	c4.3,0.3,4.9-5.7,6.4-9.1c-5.6-2.7-11.2-5.3-16.8-8c-2,4.6-7.4,11.2,0,12.8c-7.1-2.1-6,0.7-8.8,6.7c-0.7,1.6-1.7,4.2-2.5,6.4
	c-0.8-1.7-0.5-3.3,0.8-5c-3.2-1.5-6.4-3-9.6-4.5c-8.1-3.8-7.5,3.2-8.7,10c-2.7,0.2,1.6-9.8,2-10.6c2.5-5.8-6.6-3.3-5.7-7.6
	c2.3,1.6,4.7,3.1,7.1,4.5c1.4-3.2,2.8-6.3,4.3-9.5c-3.6-2.6-7.8-4-11.6-6.2c1.3-2.2,10.2,4.6,12,5.2c1.6-3.7,7.3-10.9,1.3-12.9
	c5.7,2.3,6-2.3,7.3-7.5c-3.7-2.1-7.5-4.2-11.2-6.3C432.2,128.4,431.1,131.1,429.7,133.7z"/>
<path fill-rule="evenodd" clip-rule="evenodd" d="M438.6,189.3c0.2-11.7,27.1-13.7,23.7,0.5C460.5,196.9,437,199.7,438.6,189.3
	C438.6,185.6,438.3,191,438.6,189.3z M449.9,188.8c0.2-4-6.5-6.8-8.7-3C436.9,193.1,449.7,196.8,449.9,188.8
	C449.9,187,449.8,190.7,449.9,188.8z"/>
<path fill-rule="evenodd" clip-rule="evenodd" d="M425.3,89.1c1.7-5.7,8-5.8,8.4,0.9C434.1,96.7,425.8,95.2,425.3,89.1
	C425.4,88.5,425.4,90.2,425.3,89.1z"/>
<path fill-rule="evenodd" clip-rule="evenodd" d="M437.2,139.3c-2.8-0.4-10.2-4.5-10.9-7.6c3.1,2.3,4.2,3,3.3,2
	C431.9,135.8,434.5,137.8,437.2,139.3z"/>
<path fill-rule="evenodd" clip-rule="evenodd" d="M467,167.2c-2.9-0.6-5.7-1.7-8.1-3.3C462.3,164.9,464,165.3,467,167.2z"/>
<path fill-rule="evenodd" clip-rule="evenodd" d="M494.5,38.9c1.3,0.7,2.7,1.3,4,2C497.3,41.9,494,39.5,494.5,38.9
	C495.8,39.6,494.5,39,494.5,38.9z"/>
<path fill-rule="evenodd" clip-rule="evenodd" d="M448,171.1c1.3,0.2,2.5,0.4,3.8,0.7C449.7,172.2,449.8,171.5,448,171.1z"/>
<path fill-rule="evenodd" clip-rule="evenodd" d="M459,163.9c-1.2-1.4-2-1.7-2.4-0.9C457.6,164.3,458.4,164.6,459,163.9z"/>
<path fill-rule="evenodd" clip-rule="evenodd" d="M459.7,88.9c0,5.7-9.1,6.5-8.7,0.5C451.2,83.3,459.5,82.5,459.7,88.9
	C459.7,90.6,459.6,87.2,459.7,88.9z"/>
<path fill-rule="evenodd" clip-rule="evenodd" d="M322.7,107.5c0.2-6.3,8.2-6.8,7.4-0.6C329.5,111.9,323.7,112.4,322.7,107.5
	C322.8,104.8,322.7,107.8,322.7,107.5z"/>
<path fill-rule="evenodd" clip-rule="evenodd" d="M301.8,110c0.1,4.9-7.6,6-7.6,0.8C294.3,106,301.7,104.3,301.8,110
	C301.9,112.2,301.8,107.8,301.8,110z"/>
<path fill-rule="evenodd" clip-rule="evenodd" d="M443.6,188.8c-0.9-1-2-3.4,0.8-3.1C445.7,186.7,445.4,187.7,443.6,188.8
	C443,188,444.3,187.9,443.6,188.8z"/>
</svg>
