<?xml version="1.0" encoding="utf-8"?>
<!-- Generator: Adobe Illustrator 16.0.0, SVG Export Plug-In . SVG Version: 6.00 Build 0)  -->
<!DOCTYPE svg PUBLIC "-//W3C//DTD SVG 1.1//EN" "http://www.w3.org/Graphics/SVG/1.1/DTD/svg11.dtd">
<svg version="1.1" id="Layer_1" xmlns="http://www.w3.org/2000/svg" xmlns:xlink="http://www.w3.org/1999/xlink" x="0px" y="0px"
	 width="1417.3px" height="460.1px" viewBox="-302.6 0 1417.3 460.1" enable-background="new -302.6 0 1417.3 460.1"
	 xml:space="preserve">
<path d="M-49.5,0c4.3,0.8,8.5,1.6,12.8,2.3c-0.5,9.5-25.7,4.2-32.3,4c-14.3-0.4-29-1-43.2,0.8c9,34,18.4,67.6,26.3,102
	c4.1,17.8,8.5,35.4,11.5,53.4c1.7,10.3,3.3,20.6,4.9,30.9c0.9,6,4.5,15,2.1,20.7c-5.8-0.4-10-39.3-11.2-45.6
	c-3.2-16.4-6.6-32.8-10.4-49.1c-7.5-33-14.1-65.5-24.2-97.9c-1.1,4.9-5.7,4-9.2,5.5c9.7,25.3,18.5,53.8,22.6,80.7
	c1.8,11.7,3.6,23.2,5.8,34.8c1.7,9.1,0.5,22.7,11.3,25c-13.6,20.2-18.6-36-19.5-43.3c-3.2-25.4-10.1-51.7-18.1-76
	c-0.8-2.4-2.2-12-5.3-12.9c-1.4-0.4-8.5-0.1-8.9,1.7c-2.3,9.8,6.5,28.5,8.8,38.3c3,13,5.4,26.1,7.1,39.3c1.6,12.3,0.2,25,11.4,32
	c-8.4,7.1-12-0.8-13.5-8.4c-2.6-12.6-0.9-25.2-4.4-37.6c-3.5-12.7-5.8-25.5-8.3-38.4c-1.2-6.1-3.1-11.9-4-18
	c-1-6.2-6.3-5.1-11.2-5.5c1.4,19.3,0.6,38.7,0.9,58.1c0.1,10.4-6.6,15.2,4.5,19c12.1,4.1,0.7,6.1-5.4,5.1c-11-1.8-6.8-6.8-5.4-15.8
	c1.4-9.7,0.4-19.5,1.4-29.3c1.1-11,0.6-21.6,0-32.6c-0.8-14.3,0.5-10.2,12.5-7.6c-0.2-1.9-0.5-3.8-0.7-5.7c4.5,0.2,9,0.5,13.4,0.7
	c-2.4-13.1,3.1-10.1,14.1-9c-1.4-4.1-6-11.8-3.3-15.9C-112.8,0-100.4,1-94,1.5C-79.4,2.7-64,0-49.5,0C-47.1,0.5-49.8,0-49.5,0z"/>
<path d="M-190,50.4c0.8-3.2,4.7-27,7.8-23.7c3.6,3.9-2.8,24.5-6.1,28.3C-189.6,53.6-190.2,52.1-190,50.4
	C-189,46.4-190,50.9-190,50.4z"/>
<path d="M440.7,124.3c9-2.9,18-5.9,26.9-9.1c8.5-3,14.5-7,19.2,2.7c3.6,7.4,5.2,10.2,13.4,10.1c12.3,0,24.2-0.7,36.3-2.9
	c19.8-3.6,40.2-5.3,58.8-13.7c6.1-2.8,14.4-10.7,21-11.3c9.9-0.9,4.4,20.5,3.9,24.6c-4.7,42.2-7.2,84.6-11.8,126.8
	c-4.6,41.7-8.2,82.5-9,124.4c-0.1,6.8,5.8,36.5-4.9,37.3c-20.6,1.5-39.9,5.3-59.9,10.2c-18.8,4.6-37.4,10.3-55.9,16.1
	c-9.6,3-19.1,6-28.5,9.4c-9.3,3.3-18.4,10-28.4,11.3c-8.3,1.1-3.9-19.7-3.6-23.9c0.5-7-5.1-14.4-8.5-20.3
	c-21.6,7.3-43.6,12.3-66,16.4c-20.5,3.7-41.3,6.5-62.1,7.7c-8,0.4-15.8,2.2-23.7,2.9c-10.6,1-23.6,5-34.1,3.8
	c-9.9-1.2-4.2-7.6-2.9-14.2c1.5-7.3,1.3-14.8,1.9-22.1c-10.8,0.8-22.1,0.7-32.6,3.2c-6.1,1.5-12.2,3.4-18.5,2.5
	c-4.2-0.6,1-12.9,1.4-14.3c7.6-23.7,12.2-47.9,17.8-72.1c5.7-24.3,5.1-49.4,7.2-74.2c2.3-26.5,1.9-52.9,2.1-79.5
	c0.1-11.5,0.7-22.9,1.5-34.3c0.5-6.1,0.9-12.3,1.7-18.4c0.4-3.2-1.2-13.2,0.1-15.4c4-6.7,20.8-5.1,27.2-4.9
	c13,0.4,26.4-1.3,39.3-2.5c24.9-2.2,49.2-6,73.4-12.1c13.4-3.4,26.4-7.7,39.7-11.2c11-2.9,5.4,18.7,5,23.9c11-3,25.3-11.4,36.6-9.6
	C432.4,92.8,437.6,117.6,440.7,124.3C446.5,122.4,439.5,121.7,440.7,124.3z M409.6,126.3c3.7,41.9,7.7,83.7,11.3,125.6
	c3.6,42.4,2.5,84.6,3.4,127.1c0.4,20,0.7,39.7-0.3,59.8c-0.5,9.5-2.5,17.6,9.1,12.6c10.3-4.5,20.9-8.5,31.5-12.2
	c38.3-13,77.6-25.6,117.7-31.3c6.3-0.9,10.4,1.2,10.4-6.1c0-4.4,0.7-8.9,0.6-13.3c-0.1-10.4-0.5-20.8-0.5-31.2
	c0.1-21,1.4-43.2,4.5-63.9c2.6-17.9,4.7-35.9,6-53.8c1.3-17.5,5-34.9,5.6-52.2c0.7-19.5,3.1-38.6,4.3-58c0.3-5.4,4.8-15.6,2.3-20
	c-2.4-4.2-15.4,6.5-18.7,7.9c-38.2,16.7-83,19.1-124.1,19.6C452.2,137.1,429,132.3,409.6,126.3C410.3,134.1,412.5,127.2,409.6,126.3
	z M230.8,438.9c29.6-2.9,59.1-5.5,88.5-9.6c30.3-4.2,59.4-12.8,88.8-19.6c-9.2-18.4-17.9-37-27.2-55.3
	c-9.2-18.1-18.6-39.9-32.2-55.3c-6.2-7-10.3-13.9-15-22c-5.8-10.2-13.6-17.3-21-26.2c-13.7-16.4-27.6-32.4-43.2-47
	c-4.9-4.6-7.9-7.6-7.9-14.6c0-7.7,19.6-9.5,24.7-10.9c21.1-6,42-12.8,63.1-18.7c18-5,36.4-11.6,53.9-18.2c0-7.8-2.6-17.1,7.3-19.8
	c7-1.9,19.4,2.9,26.8,3.7c-3-6-8.3-23.9-14.3-27c-3.9-2-17.3,4.1-21.9,5.6c-19.5,6.2-40.8,11.2-60.9,14.9
	c-24,4.4-48.5,7.7-72.7,10.2c-5.7,0.6-27.2-1.3-30.9,2.4c-2.8,2.8,1,23.3,1,28.1c-0.1,23.7,4.4,47.2,4.5,71
	c0,11.4,0.7,23.3-0.5,34.7c-1.2,11.1,1,22,0.3,33C238.8,345.3,234,392,230.8,438.9C237.7,438.2,231.2,433.1,230.8,438.9z
	 M404.3,146.9c-20.3,9.2-41.5,17-63.2,22c-11.1,2.5-21.6,6.7-32.6,9.7c-5.8,1.5-11.4,3.3-17,5.3c-4.6,1.6-11.5-0.5-15.2,1.4
	c-6.8,3.5,31.2,47,35.3,52.2c14.5,18.2,26.8,37.2,40.6,55.8c15,20.2,26.1,42.6,38,64.7c5.9,11.1,11.3,22.4,16.9,33.7
	c2.7,5.3,4.8,10.9,6.9,16.5c1.2,3.3,4.6,15.1,4.7,4.1c0.4-50.8-0.7-101.4-5.4-152.1c-4.3,5.9-6.4,13.2-11.4,18.6
	c-5.6,6-18.2,2.5-23.4-2.3c-14.6-13.8-23-27-15.7-47.5c3.2-9.1,8.8-12.6,17.8-14.4c7.9-1.6,6.7-8,9.9-14.4
	c3.9-8,11.4-13.1,18.3-18.3C407.2,170.2,405.7,158.6,404.3,146.9C399.8,149,405.8,159.3,404.3,146.9z M383.1,84.8
	c-15.9,2.6-32.1,8.7-48.2,12.1c-20.8,4.4-41.4,8.5-62.6,10c-9.2,0.6-18.4,1.2-27.6,1.5c-6.1,0.2-24.6-2.8-28.3,2.9
	c-4.3,6.7-3.4,13.2-4.6,20.7c-1.9,12.2-2.6,24-3.1,36.4c-0.8,21.3-1.1,42.6-1.8,63.9c-0.7,20.7,0.9,42.9-3.3,63.2
	c-1.9,9.2-2.2,18.5-4.2,27.6c-2.1,9.8-5.4,18.8-6.3,28.9c-0.7,7.6-4.5,14.7-6.5,22.2c-3.1,11.8-6.7,23.4-10.2,35.1
	c10.3-1.2,20.6-2.3,30.8-3.5c5.2-0.6,10.4-1.2,15.6-1.8c0.6-5.5,1.2-11,2-16.5c3.9-24.3,5.2-48.7,7.9-73.2c2.3-21,1-40.6,1.4-61.6
	c0.3-19.8,0.1-40.4-1.1-60.3c-0.6-10.3-1.2-20.5-1.2-30.8c0-9.1-4.2-19.8-3-28.5c1.2-9.1,4.8-7.8,13.4-7.9
	c11.1-0.1,22.2-2.4,33.3-3.4c21.8-2.1,44.1-5.7,65.4-10.8c9.8-2.3,19.7-2.7,29.3-5.7c4.3-1.3,8.6-2.5,12.9-3.7
	C383.1,96.1,383.1,90.4,383.1,84.8C381,85.1,383.1,90.2,383.1,84.8z M389.6,219.4c-12.2,1.2-18.7,2.7-22.3,15.5
	c-4.3,15.4,2.9,27.1,15.5,36.5c12.9,9.6,22.2-6,25.4-17C410.2,247.4,400.4,215.7,389.6,219.4C385.5,219.8,393.1,218.2,389.6,219.4z
	 M408.5,188.3c-6.2,6-14.3,12.4-14.9,21.8c-0.3,4.5,6.7,7.2,9.1,10.6c3.7,5.3,7,10.9,10.5,16.4C411.6,220.8,410,204.5,408.5,188.3
	C406.6,190.1,410.1,205.2,408.5,188.3z M458.9,126.2c9.3,3.4,19.2,3.5,28.8,1.8c-1.7-2.2-6.4-11.1-9.8-10.1
	C471.3,120,465.1,123.4,458.9,126.2C468.7,129.8,463.6,124.1,458.9,126.2z"/>
<path d="M81.1,352.9c2.8-0.1,8.9-2,10.2,1c-2.1,1.6-17.4,12.2-19.4,8.1c-3.1-6.6,3-23.5,4-30.4c3.7-27.2,5.8-54.3,4.1-81.8
	c-0.6-9-2.5-21.1-1-29.9c1.9-11.3-4.1-25.6-6.7-36.5c-5.3-22.1-11.6-42.8-19.5-64.1c-3.6-9.8-6-19.9-9.4-29.7
	c-1.6-4.6-11.9-20.1-7.2-23.4c9.7-7,21.5-3.2,32.3-5.8c6.1-1.5,12-0.2,18.2-1.2c6-0.9,11.7-3.5,17.7-4.4
	c24.4-3.3,48.5-8.3,72.5-14.1c11.7-2.8,24.2-4.6,36.3-5c11.5-0.4,24.2-1.1,17.8,15.3c-4.7-3.4-1.7-8.8-8.4-8
	c-8.2,1-16.3,2.3-24.4,3.7c-17.7,3-34.8,6.3-52.6,8.3C113.3,58.7,81.3,65.5,49,68.9c5.2,20,8.1,39.2,14,58.8
	c7.5,24.9,17.7,50,20.6,76.2C88.7,252.1,89.1,304.8,81.1,352.9C84.3,352.7,81.5,350.6,81.1,352.9z"/>
<path d="M138.3,388.5c5.6-1.6,36.4-16.4,29-2.5c-3.3,6.2-12.4,3.8-17.9,5.5c-3.8,1.2-13.7,8-16.3,1.8c-2.6-6.2-0.7-15-0.1-21.4
	c0.8-8.1,0.2-16.2,1-24.4c1.7-18.3,1.7-36.8,1-55.1c-1.4-34.4,0.3-71-8.4-104.4c-6.4-24.5-1.1-66.9-23.2-83.5
	c5.3-7.1,25.6-4.1,33.5-4.4c13.6-0.6,27.6-2.4,40.8-5.3c23.6-5.1,47.6-7.9,71.1-12.8c19.9-4.2,48.8-10.1,64.7-21.4
	c3.5-2.5,3.7,24.2,3.6,27.5c-0.1,2.6-4,7.1-4.2,2.5c-0.4-7,0-14.3-1.1-21.2C273,83.4,232,90.9,191.5,98.3
	c-20.9,3.8-41.8,6.8-62.9,8.6c-9.4,0.8-4.6,10.4-3.9,17.6c0.5,4.4,7,28.1,5.1,30.6c-4.5,6,1.3,19.3,2.5,25.7
	c2.1,11.3,4.4,22.7,5.5,34.2c1.9,19.9,1.3,39.7,3,59.6C143.6,312.4,140.2,350.6,138.3,388.5C141.9,387.5,138.6,382.9,138.3,388.5z"
	/>
<path d="M174.5,37c0-8.6-19.9-2.3-25.4-1.6c-15.5,2.1-30.8,5.2-46.2,7.3c-30.4,4.1-61.3,9.2-91.3,15.2
	c10.5,21.3,17.4,45.2,22.1,68.6c4.5,22.3,10.8,44.2,12.6,66.9c2,26.4,3.7,52.7,4.2,79.2c0.2,12.6-2.9,25.9-4.5,38.4
	c-1.4,10.7-5.2,25.7-2.9,36.2c6-1.7,14.8-7.5,17.2-0.6c-8.7,0.8-14.9,8.7-24.1,8.1c11.1-83.3,13-171-14.8-251.7
	c-3.3-9.7-8.5-19-13.5-27.9c-2.2-3.9-15-17-9.9-20.6c6.6-4.7,25.7-4.3,33.9-5.1c11.4-1.1,21.3-2.7,32.5-5.2
	c24.1-5.4,48.8-6.6,73-11.4c11.1-2.2,22.5-2.8,33.5-5.7C179.4,24.7,180.7,32.4,174.5,37C174.5,29.4,176.1,35.8,174.5,37z"/>
<path d="M53.5,20.8c-1.1,7.5-11.4,6.3-16.8,6.9c-10.8,1.1-21.4,3.1-32.1,4.7c-21.7,3.1-45.9,8.9-67.7,8.9
	c3.8,5.7,8.5,17.5,13.6,21.8c6.8,5.7,12.5,13,17.3,20.3c13.9,21.4,18.2,44.3,21.6,69.2c3.5,25.6,1.5,50,0.3,75.7
	c-0.5,11.8-2.5,23.3-4,35c-1.3,10.3-0.2,23.1-5,32.2c7.8,4.3,17.8,4,22.9,12.4c-5.6,4.2-15.2-4.6-22.4-5c-1.3-0.1-12.6-3.8-9.2-6.4
	c6.3-20.9,10.8-43.1,12.4-64.9c2.8-39.5,5.5-82.8-8.8-120.7C-30.5,94.6-40.5,78.7-53.5,67c-7.9-7.1-37.3-26.3-14-30.4
	c20.2-3.5,40.5-6,60.8-8.6C12.9,25.6,33.6,20.8,53.5,20.8C52.8,26,51.6,20.8,53.5,20.8z"/>
<path d="M26.4,324.5c2.1,5.4-10.9,7.6-14.1,8.4c-10.3,2.8-12.9,0.7-10.2-9.8c2.2-8.6,3.6-17.2,5.2-25.9c2-11,0.9-21.8,2.5-32.7
	c6.4-42.8,8.4-86.6,0.8-129.5C7.3,116.6-0.3,98.8-11.1,83.5c-4.5-6.4-11.2-12-16.7-17.7c-2.6-2.8-18.3-8.8-17.8-12
	c1.1-7.1,48.4-11.1,56.2-12.3c11.3-1.8,22.1-4.7,33.6-5.3c8.2-0.4,20.6-5.1,27.9-1.8c-6.4,8.9-34.9,7.5-45.6,9.2
	c-17.5,2.8-35,6.3-52.4,9.6c2,2.3,6.6,5.7,7.9,8.1c1.4,2.5-2.3,4.2,0.1,6.5c9.4,9.1,16.9,19,22.3,31c12.2,27.2,14.9,54.8,16.2,84.3
	c0.6,13.6,0,27.4-0.7,41c-0.6,11.2-7.2,27.8-4.1,38.5c1.5,5.1-0.5,13.6-0.8,18.9c-0.5,8.8-0.9,17.7-1.4,26.5
	c-0.2,5.1-2.6,11.4-1.7,16.4C12.3,327.3,24.2,324.7,26.4,324.5C27.6,327.7,22.6,324.9,26.4,324.5z"/>
<path d="M20.4,13.4c-17.8,3.9-38.5,2.7-56.9,4c-18.4,1.3-37.3,1.7-55.8,2.5C-76.8,62-70,106.3-62.1,150.3
	c4.3,23.7,8.7,46.9,11.7,70.8c1.4,11.5,2.3,23,2.9,34.5c0.4,7,9.4,9,9.4,16.6c-5.4-3.4-15.4-7.2-18.3-13.2c-3-6-2.1-15.4-2.4-21.9
	c-0.8-17.3-0.9-34.1-3.1-51.4c-4.5-34.6-11.8-68.5-17.8-102.7c-2.9-16.3-6.9-31.4-12.3-47c-1.9-5.7-6.2-12.5-6.5-18.5
	c-0.3-5.4,11.5-3.2,14.3-3.4C-73.1,13.5,19.8,5.3,20.4,13.4C17.8,14,20.4,12.8,20.4,13.4z"/>
<path d="M109.3,373.3c19.7-5.6,5.9,8.3-1.1,8.3c-6.9,0-4.2-6.5-3.8-11.2c0.5-5.8-0.6-15.3,1.7-20.6c5.1-12.1,5.3-27.5,5.6-40.5
	c0.3-14.4,3-28.8,1.7-43.2c-2.6-29-6.6-57.6-12.7-86.1c-3.3-15.4-6.6-30.8-10.7-46c-3.8-14.1-11.7-27.8-13.9-42.1
	c13.1-1.7,23.3,54.9,26.3,65.6c5.8,21.2,8.3,43.2,12.2,64.8C123.7,272.8,113.9,323.1,109.3,373.3C112.4,372.4,109.6,370,109.3,373.3
	z"/>
<path d="M283.8,66.9c-5.2,7.7-8.4-9.9-10.8-11c-5-2.2-23.1,3.9-28.3,5.3c-18,5.1-34.1,8.6-52.7,10.8c-21.5,2.6-42.6,7.6-64.1,10.2
	c-9.8,1.1-19.4,3.7-29.1,5.7c-2.5,0.5-31.1,3.8-22.6-2.3c5.2-3.7,18.1-3.2,24.4-4.3c11.3-1.8,22.6-3.5,33.9-5.6
	c22-3.9,43.9-7.2,66-10.8c7.7-1.2,16.8-5.6,24.4-5.8c9.4-0.2,18.1-6.3,27.5-5.8c7.6,0.4,17.2-4.5,24.7-6.1
	C279.5,46.9,281.8,62.9,283.8,66.9C282,69.6,283.3,66,283.8,66.9z"/>
<path d="M141.9,144.6c11.9-1.7,23.8-1.9,35.8-2.6c5.8-0.3,11.7-0.3,17.4-1.5c1.9,3.2,1.6,7.4-2.4,8.8c-4.1,1.4-9.4,0-13.6-0.1
	c-6.1-0.2-11.7,1.2-17.5,2.5C150.4,154.2,145.7,155.3,141.9,144.6C145.1,144.2,142.8,147,141.9,144.6z"/>
<path d="M-165.9,92.9c7.1,8.2-1.1,5.8-7.4,4.1c5.8-9.4,4.2-21.3,5.7-32c1-7.6-1.2-23.8,3-30.1c4.6-6.9,3,19.4,2.7,21.9
	C-163.5,68.9-165.3,80.7-165.9,92.9C-164.3,94.8-165.7,89.3-165.9,92.9z"/>
<path d="M-170.6,32c-1.6,9.6-3.3,19.2-4.9,28.7c-0.2,1-2,9.2-1.3,9.9c4.2,3.8,4.3,5.3-1.6,5.6c-8.6,0.4-1.4-13.2-0.7-18.5
	C-178.4,52.3-179.3,30.4-170.6,32C-172.9,44.9-175.4,31.1-170.6,32z"/>
<path d="M154.7,224.4c3.2-5.8,29.6-9.8,33.6-5.1c2.4,2.8-14.4,4.6-16.2,4.9C168,224.8,158.1,228.5,154.7,224.4
	C156.4,221.3,156.9,227.1,154.7,224.4z"/>
<path d="M152.2,191.9c0-7.9,27.9-9.6,34.1-6.7C182.3,190.5,158.5,192.7,152.2,191.9C152.2,191,157.4,192.6,152.2,191.9z"/>
<path d="M-25.5,143.3c-5.5,6-22.4,8-29.8,4.3C-47.7,140.8-35.2,143.3-25.5,143.3C-26.9,144.8-32,143.3-25.5,143.3z"/>
<path d="M183.8,240.1c-5.1,1-10.1,1.9-15.2,2.9c-1.1,0.2-17.5,2.7-10-2.9C162.1,237.6,183.6,233.7,183.8,240.1
	C175.3,241.8,183.8,239.7,183.8,240.1z"/>
<path d="M-33.5,129.8c-6.7,3.2-16.8,4.8-23.3,0.8C-53.2,128.1-34.2,124.3-33.5,129.8C-34.8,130.4-33.5,129.3-33.5,129.8z"/>
<path d="M178.5,201.6c-8.1,4-17.2,3.4-25.8,5.3C148.9,200.5,175.3,201,178.5,201.6C170.4,205.6,170.2,200,178.5,201.6z"/>
<path d="M-27.2,158.3c-0.5,6.4-21.2,7.2-21.8,5.3C-50.9,157.3-31,158.5-27.2,158.3C-27.5,161.9-33.7,158.7-27.2,158.3z"/>
<path d="M-36.7,111.1c-4.4,0.4-13.7,4.8-15.8-1.2C-48.2,108.9-39.8,106.2-36.7,111.1C-41.8,111.6-38.7,107.9-36.7,111.1z"/>
<path d="M518.8,272.1c-14.9,22.1-43.6,21.5-49.1-6.8c-2.4-12.5,2.4-25.3,10.1-35.1c9.5-12.2,18.6-13.6,31.8-7.3
	c7.7,3.7,5.6-4.5,12.3-6.7c7.1-2.3,10.6-3.9,18.1-2c13.8,3.4,17.1,12.5,18.1,25.9c0.8,11.3-1.9,31.2-12.8,37.9
	C538.1,283.5,526.6,277.1,518.8,272.1C513.7,279.6,520,272.9,518.8,272.1z M493,282.8c13.3-5,21.7-11.6,25.7-26
	c3.9-13.9-1.9-28.9-17.2-31.8C471.8,219.1,462.9,283,493,282.8C494.8,282.1,486.6,282.8,493,282.8z M536.1,219.6
	c-6.1-1-10.7,3.6-14.9,7.2c-3.7,3.1,3.2,11.7,3.8,15.9c1.3,8.6-3.2,15.2-3.2,23.1c0,5.3,11.5,7.4,15.4,8
	C558.4,277,563.7,219.6,536.1,219.6C530,218.6,545.5,219.6,536.1,219.6z"/>
<path d="M444.6,192.4c-0.8-1.7-1.6-3.4-2.3-5.1c11.9-4.7,28.7-2.7,41.6-3.7c7.7-0.6,15.3-0.8,23-0.7c5.8,0.1,10.1,5.1,5,9.7
	c-4.1,3.6-9,0.4-13.8,0.5c-7.1,0.1-14.6,0.8-21.6,1.9c-7.6,1.2-15.2,2.7-22.8,3.8C446.3,199.8,444.6,199.8,444.6,192.4
	C443.6,190.2,444.6,194,444.6,192.4z"/>
<path d="M444,370c-3.9-6.6,6.8-5.8,11-6.4c8.2-1.2,16.3-2.7,24.5-3.9c17.1-2.5,35.1-3.8,52.2-0.9c0.9,6.6-9.1,3-12.7,2.6
	c-6.8-0.7-15.6,0.1-22.4,0.9C479.1,364.1,461.6,367.3,444,370C442,366.5,444.8,369.9,444,370z"/>
<path d="M526.1,338.7c-1.2,10.5-26.1,5.6-33.7,5.8c-13.9,0.3-29.9,2.8-43.4,6.2c-2.3,0.7-3.6,0-4.2-2.2c-0.6-4.8,5.5-4.1,8.3-4.4
	c8.4-0.9,16.9-2.2,25.4-2.7C494.5,340.6,510.2,340.4,526.1,338.7C525.6,343.1,520.3,339.3,526.1,338.7z"/>
<path d="M447.9,330.1c3.6-9.5,23.9-5,31.7-6.1c5.9-0.8,11.9-1,17.9-1.4c4-0.2,16.6-3.3,19.9-0.8c2.3,1.6-0.1,5.2-1.8,6.4
	c-0.9,0.6-15.5-0.5-17.9-0.4C481.5,328.1,463.9,332.1,447.9,330.1C449.4,326,449.3,330.2,447.9,330.1z"/>
<path d="M517.6,306c-5.2,7.7-27.4,3.9-36.6,5c-5.8,0.7-33.6,4.5-37.2-0.6c-3.3-4.7,28.5-3.4,33-3.6C489.3,306.2,505.6,302,517.6,306
	C516.3,307.9,515.9,305.5,517.6,306z"/>
<path d="M507.5,397.4c-6.7-6,5-7.9,9.4-9.4c12.1-4.1,4.3,2,10.6,4.4c9.9,3.8-0.4,7,2.6,12.1c2.2,3.8-4,4-5.9,2.2
	c-3.8-3.8,1.3-6,2.4-9.4C518.1,392.3,517.5,392.6,507.5,397.4C503.8,394.1,510.7,395.9,507.5,397.4z"/>
<path d="M572.2,181.8c3-0.4,21,1.2,10.3,2.5c-6.1,0.7-18.8,4-24.1,0.2C559.7,183.2,572.1,180.7,572.2,181.8
	C575.5,181.4,572.2,181.8,572.2,181.8z"/>
<path d="M450.9,382.8c3.6-2.3,24.6-6.4,25.2-0.4c-8.6,1.2-17.1,2.4-25.7,3.5C450.5,384.9,450.7,383.9,450.9,382.8
	C459.5,377.4,450.9,383,450.9,382.8z"/>
<path d="M445.9,393.6c5.5-6,18.6-6.6,25.4-3.1C463.8,393.6,453.7,396.5,445.9,393.6C450.5,388.6,447.7,394.3,445.9,393.6z"/>
<path d="M344.9,321.3c-16.7-2.8-33.4-3.3-50.3-1.8c-9,0.8-17.9,2.1-26.9,3.1c-0.1,0-16.6-0.2-10.8-3.6c4.2-2.5,16.3-1.5,21.3-1.9
	c7.8-0.7,15.6-1.3,23.4-1.9c8.5-0.7,17-0.2,25.5,0.3C329.6,315.5,351.6,315.2,344.9,321.3C339.7,320.5,347.3,319.2,344.9,321.3z"/>
<path d="M342.5,301.8c-2.4,4.3-12.3,1.4-16.3,1.4c-8.6,0.1-17.3,0.2-25.9,0.5c-9.8,0.4-30.1,8.3-37.4,0.7c9.1-6.1,28.7-3.4,39.6-4
	C315.8,299.7,329.8,297.6,342.5,301.8C340.1,306.3,340,301,342.5,301.8z"/>
<path d="M350.9,370.2c-0.8-7-19.5-0.8-23.6-1c1.4-4,4.2-5,7.9-7.1c6.4-3.6,4.5,1.4,10.4,0.9c4.9-0.4,23.4,1.2,25.2,6.1
	C368.2,372.6,355.1,370.2,350.9,370.2C350.6,367,355.1,370.2,350.9,370.2z"/>
<path d="M313.1,286.6c-11.6,0-22.9,0.3-34.4,1.3c-6.4,0.6-22.2-2-7.8-4c11.3-1.6,22.9-1.4,34.3-1.6c2.3,0,8-0.9,9.5,1.4
	C315.7,285.2,314.2,289.1,313.1,286.6C306.9,286.6,313.3,287,313.1,286.6z"/>
<path d="M293.4,375.6c-4.5,0.3-17.3,4-16.6-3.9c-16.6,5.6,0.9-10.7,5.6-1.7c2.5,4.8,10.6,0.6,14.6,3c2.3,1.3,1.6,4,4.4,5.4
	c2.4,1.1,5.1,1.8,7.6,2.4C303.8,384.9,295.6,382.1,293.4,375.6C289.1,376,295.7,382.6,293.4,375.6z"/>
<path d="M289.3,336.1c-3.8,3.5-24.5,4.6-28.5,1.4C264.4,333.2,289.4,332.8,289.3,336.1C288.8,336.6,289.3,335.6,289.3,336.1z"/>
<path d="M413.2,304.7c-8.2,2.9-22.9,14.3-30.6,10.9C385.4,311.8,411.7,297.9,413.2,304.7C405.4,307.5,412.7,302.4,413.2,304.7z"/>
<path d="M392.5,333.4c-3.5-8,12.5-14.3,18.2-12.4C403.8,323.9,397.9,328.5,392.5,333.4C390.3,328.6,398.2,328.2,392.5,333.4z"/>
<path d="M401.5,342.2c3.7-0.8,6.7-2.1,10.3-1.2c-2.2,5-8.7,8-14,7.3C398.4,345.9,399.7,343.8,401.5,342.2
	C403,341.8,400.8,343,401.5,342.2z"/>
<path d="M394.5,240.6c8.1,4.7,11.8,11.1,2.6,17.6C390.4,262.9,385.3,244.7,394.5,240.6C395.5,241.1,389.9,242.7,394.5,240.6z"/>
<path d="M502.9,259.9c-8.6-0.1-4.9-14.2,1.6-14.3C513.9,245.4,510.8,259.9,502.9,259.9C500.3,259.8,506.4,259.9,502.9,259.9z"/>
<path d="M531.3,253.1c1.8-4.8,12.5-18.4,13-4.8C544.6,257.8,536,261.3,531.3,253.1C532.5,250.1,532.4,254.9,531.3,253.1z"/>
</svg>
