<?xml version="1.0" encoding="utf-8"?>
<!DOCTYPE svg PUBLIC "-//W3C//DTD SVG 1.1//EN" "http://www.w3.org/Graphics/SVG/1.1/DTD/svg11.dtd">
<svg version="1.1" id="keep-distance-please-report" xmlns="http://www.w3.org/2000/svg" xmlns:xlink="http://www.w3.org/1999/xlink" x="0px" y="0px"
	 width="1000px" height="1000px" viewBox="0 0 1000 1000" style="enable-background:new 0 0 1000 1000;" xml:space="preserve">
<style type="text/css">
<![CDATA[
	path {fill:black}
	rect {fill:white}
]]>
</style>
<rect width="1000" height="1000"/>
<g>
	<path d="M438.3,246.9c0.2,2.3,1.2,6.3,0.6,6.6c-2.5,1.1-5.8,1.9-8.2,1.1c-3.1-1.1-3.1-4.4-2-7.4
		c2.7-7.2,12.7-12.5,20.8-11.1c10.8,1.8,18.3,8.2,24,17c3.4,5.2,1.4,9.8-4.3,12.5c-7.3,3.5-14.6,7.2-21.6,11.4
		c-1.8,1.1-2.8,4-3.4,6.2c-0.6,2.4,0.7,3.4,3.5,3.8c3.5,0.5,7.1,1.6,10.2,3.2c4,2.2,7.8,3.9,12.5,2.1c1.7-0.7,3.8-0.4,5.6-0.5
		c1.3,4.7,0.1,6.8-4.2,7.5c-5.3,0.9-10.3,1.2-15.4-1.9c-5.4-3.3-18.3-2.8-21.8,5.6c-0.4,0.9-2.1,2-2.9,1.8c-1-0.2-2.2-1.6-2.4-2.6
		c-3.4-15.2-1.1-27.6,16.4-34.5c4-1.5,7.8-3.3,11.7-5.1c1.1-0.5,2.2-1.5,2.7-2.6c2.3-4.3-1.7-13.9-6.9-16.8
		C447.8,240.4,440.3,242,438.3,246.9z"/>
	<path d="M656.1,280.2c-4.5,0.5-8.7,1-12.8,1.6c-2.7,0.4-4-0.8-3.4-3.5c0.5-2.4,1.5-4.8,2-6.3c5.2,0.1,9.7,0.4,14.1,0.2
		c1.3-0.1,3-1.6,3.5-2.9c1-2.5,2.3-2.7,4.6-2c5.5,1.5,11.2,2.7,16.8,4.3c2.4,0.7,4.7,1.7,7,2.8c0.6,0.3,1.2,1.4,1.1,2.1
		c-0.1,0.5-1.2,1.1-1.9,1.3c-5,1-10.1,1.6-15,3c-3.7,1-7.1,2.8-10.7,4.2c-1.4,0.5-2.8,0.9-4.2,1.3c-0.3-1.3-0.5-2.5-0.8-3.8
		C656.2,281.8,656.2,281.4,656.1,280.2z"/>
	<path d="M521.7,284c-0.1-2.1-0.1-4.2-0.4-6.2c-0.5-3.5-1.3-6.9-5.9-6.8c-4.2,0.1-8,4-7.9,8.1c0.1,3.4,0.5,6.7,1,10
		c0.7,4.3-0.9,6.6-5.1,7.6c-4.4,1-5.5-0.1-5.3-4.6c0.2-6.3,0-12.7-0.6-19c-0.4-4.3,2.2-6.4,5.1-8.4c0.5-0.4,1.9-0.4,2.2,0
		c2.8,3.9,6,1.6,9.1,0.8c3.5-0.9,6.5-1.4,10.3,0.5c2.5,1.3,6.8-0.1,10-1.2c9.1-3.1,12.3-1.8,14,7.9c1.2,6.7,0.8,13.6,0.9,20.4
		c0,0.8-1.6,2.2-2.4,2.3c-0.9,0-2.4-1.1-2.7-2.1c-0.5-2.1-0.5-4.4-0.6-6.6c-0.2-3.4,0-6.8-0.6-10c-0.4-2.3-2.4-6.4-2.8-6.3
		c-4.3,1.1-8.4,2.8-12.5,4.6c-0.4,0.2-0.3,1.7-0.2,2.6c0.3,2.7,1.2,5.5,0.7,8.1c-0.4,2.2-2.2,5.6-3.9,5.9c-3.6,0.8-2.5-2.9-2.8-5
		c-0.1-0.9,0-1.8,0-2.7C521.5,284,521.6,284,521.7,284z"/>
	<path d="M283.5,287.1c6.4-2.5,11.2-4.3,15.9-6.3c2.9-1.3,5.7-3,8.5-4.6c2-1.1,4.1-1.6,4.1,1.6c0,3.7,2.2,3.5,4.7,3.3
		c3.9-0.4,7.7-0.9,11.6-1.3c3-0.3,4.5,1.7,4.1,4.3c-0.2,1.1-2.4,2.4-3.9,2.7c-4.3,0.9-8.7,1-13,1.9c-2.5,0.5-3.5,2.1-1.3,4.5
		c0.6,0.6,0.5,1.8,0.8,2.7c-1,0.2-2,0.7-2.8,0.5c-2.7-0.7-5.4-1.8-8.1-2.6c-4.7-1.4-9.4-2.7-14.1-4.2
		C288,289,286.3,288.2,283.5,287.1z"/>
	<path d="M585.2,284.3c-4,0.4-4.5-2.4-4.8-5.4c-0.4-3.6,2.3-2.8,4.3-3c5.1-0.4,10.3-0.8,15.4-1.3
		c2.2-0.2,4.7-0.2,4.9,2.6c0.2,2.8-0.5,5.6-4,5.9C595.7,283.7,590.5,284,585.2,284.3z"/>
	<path d="M378,284c-3.7,0.8-7.5,2-11.3,2.3c-1.8,0.2-3.7-1.3-5.5-2c0.9-2,1.5-5.6,2.8-5.9c6.8-1.4,13.7-2.2,20.7-2.6
		c1-0.1,2.8,3,3,4.7c0.1,1.2-1.6,3.3-3,3.8c-2,0.7-4.4,0.2-6.6,0.2C378.1,284.5,378,284.2,378,284z"/>
</g>
<g>
	<path d="M725.2,98.2c0,5.6,0,9.9,0,14.3c0.1,7.2,0.6,14.5,0.1,21.7c-0.1,2-2.9,4.2-5,5.4c-1.4,0.9-4,1-5.6,0.4
		c-1.7-0.6-4-2.4-4.1-3.8c-0.3-8.9,0.1-17.9,0.1-26.9c0-5.6-0.1-11.2-0.6-16.7c-0.4-4.4,1.9-7.2,5.5-7.9c3.6-0.6,8.5-0.9,11.1,1
		c5.1,3.8,9.1,9.2,13.4,14.1c4.6,5.3,9,10.9,13.6,16.3c0.8,1,1.9,1.7,3.4,3.1c0.5-1.8,1.1-3,1.2-4.2c0.5-9,0.9-18,1.2-27
		c0.1-5,5.1-9.8,9.9-8.7c1.2,0.3,2.7,2.5,2.7,3.8c0.1,15.3,0.1,30.6-0.1,45.9c0,2.9-1.3,3.9-4.7,4.3c-7.5,0.7-11.4-3.9-15.3-8.7
		C744.4,115.2,736.8,105.9,725.2,98.2z"/>
	<path d="M136.4,67.3c-1.1,2.8-1.2,4.1-2,5c-5.2,5.9-10.8,11.6-15.9,17.7c-4.9,5.9-6,12.7-3.8,20.3
		c5,16.8,16,30.3,24.6,45.1c2,3.4,2.1,7.8,3,11.7c-2.6-2.6-5.6-4.9-7.8-7.8c-9.1-12.5-17.9-25.2-26.9-37.8c-3.1-4.4-6.2-3.9-9.7,0
		c-7.3,8.1-8.8,17-4.4,26.9c0.5,1.2,0.6,4,0.1,4.1c-4.2,1.6-8.5,3.7-12.9,3.8c-4.3,0.1-8.5-1.6-8.8-7.7c-0.9-21.7-2.2-43.3-3.5-65
		c-0.2-3.8-1.4-7.5-2-11.3c-0.8-4.6,0.7-7.2,5.9-7.5c13.3-0.8,13.1-1,13.4,12.6c0.2,10.3,0.9,20.7,1.5,31c0.1,1,1.1,2.8,1.4,2.7
		c1.6-0.2,3.5-0.6,4.5-1.7c9.3-10.2,18.3-20.6,27.5-30.8c2.8-3.1,5.8-6.1,9-8.8C131,68.8,133.1,68.5,136.4,67.3z"/>
	<path d="M849.8,140.8c-4-0.4-6.7-1.1-9.5-1c-6.9,0.2-13.9,0.9-20.8,1c-14.1,0.3-21.2-6.4-21.6-20.5
		c-0.2-5.7,0.6-11.5,1-17.3c0.7-9.5,8.2-13.2,15.3-16.1c8.1-3.4,16.9-5.1,25.4-7.8c4.8-1.5,7.2,2.3,10.5,4.2c0.4,0.2,0.5,2,0.2,2.3
		c-0.9,0.8-2.3,1.8-3.3,1.6c-12.2-2.2-21.4,4.5-30.3,10.9c-3,2.2-4.4,7.6-5.1,11.7c-0.9,5.8-2.7,12.4,2.8,17.1
		c2.2,1.9,5.7,3.7,8.4,3.4c5.6-0.6,11.2-2.4,16.6-4.2c5.7-2,7.9-1.3,10.1,4.6C852.3,138.4,852.3,138.4,849.8,140.8z"/>
	<path d="M916.8,129.1c-13.2,1.9-25.6,3.7-38,5.4c-5.5,0.7-8.5-1.6-8.8-7.3c-0.7-12.7-1.3-25.4-1.6-38.1
		c-0.1-3.5,1.1-5.5,5.8-5.6c9.1-0.2,18.1-2.1,27.2-3c1.8-0.2,4,0.4,5.6,1.4c0.7,0.4,1,3.3,0.3,3.8c-1.3,1.3-3.3,2.2-5.1,2.5
		c-5.8,0.8-11.7,1-17.4,2c-2.7,0.4-5.4,1.6-4.5,5.7c0.7,3.7,2.4,5.5,6.3,5.1c4.2-0.4,8.4-0.9,12.7-1.1c2.9-0.1,6.8,0.9,5.6,4.3
		c-1,2.8-4.5,5.3-7.5,6.6c-2.6,1.1-6.1,0.1-9.1,0.6c-5.4,0.9-7.7,4.9-5.4,9.9c0.6,1.2,3,2.4,4.5,2.3c5.6-0.4,11.1-1.8,16.7-2
		c3.8-0.1,7.7,0.7,11.3,1.9C916.3,124.1,916.3,127.4,916.8,129.1z"/>
	<path d="M513.6,137.3c1.7-1.4,3.2-3.2,5.1-4c4.8-2,9.9-3.1,14.5-5.4c2.9-1.4,7-4.1,7.3-6.6c0.3-3.1-2-7.3-4.5-9.7
		c-3.7-3.5-8.4-5.9-12.8-8.6c-7.8-4.6-8.9-12.6-1.5-18c6-4.4,12.6-8.8,19.6-10.9c4.7-1.4,10.8,1,16,2.4c1.3,0.3,2.3,3.8,2.2,5.7
		c-0.1,0.9-3.2,2.6-4.8,2.4c-7.9-1-14,2.7-19.7,7.1c-1.3,1-2.7,3.5-2.2,4.5c1.1,2.4,2.9,5.5,5.1,6.3c4.9,1.8,10.4,2.1,15.5,3.4
		c2.5,0.6,5.2,1.5,7.2,3.1c4.4,3.5,4,8.4-0.5,11.9c-11.2,8.9-24.9,12.7-37.9,17.8c-2.3,0.9-5.1,0.1-7.7,0.1
		C514.2,138.4,513.9,137.8,513.6,137.3z"/>
	<path d="M408.4,131.6c0.5-19.9,1-39.9,1.8-59.8c0.1-1.4,3.5-4,4.7-3.7c7.1,1.8,14.5,3.5,20.9,6.8
		c8.5,4.3,16.4,9.9,24.2,15.3c4.7,3.2,5,7.7,0.8,11.8c-10.8,10.5-21.8,20.6-32.8,30.9c-3.1,2.9-6,5.9-9,8.9
		c-4.9,4.9-6.1,4.9-9.1-1.1c-1.4-2.8-1.9-6-2.8-9C407.6,131.7,408,131.7,408.4,131.6z M420.6,129.7c11.2-8.3,19.6-16.2,24.4-26.9
		c1.7-3.8,1.6-9.1,0.5-13.2c-2.2-7.9-10.6-8.5-16.6-11.8c-4.1-2.3-6.2-0.8-6.5,4c-0.5,8.6-1.4,17.2-1.8,25.8
		C420.3,114.4,420.6,121.3,420.6,129.7z"/>
	<path d="M610.2,130.7c-1.6,1.6-2.9,4-4.9,4.6c-3.8,1.2-7.8,1.8-11.8,2.1c-6.6,0.4-9.6-3-8.7-9.6
		c1.1-8,2.3-16.1,3.5-24.1c0.5-3.3,0.2-5.4-4.2-5c-3.3,0.3-6.8-0.1-10.1-0.8c-1.3-0.3-2.3-2.2-3.5-3.3c1.2-0.8,2.3-2.1,3.6-2.3
		c3.7-0.5,7.5-0.1,11-0.9c1.8-0.4,4.1-2.5,4.4-4.2c1.5-7.2,2.5-14.6,3.6-21.9c0.1-0.9,0.3-1.8,0.6-2.6c1.1-3.8,3.6-6.2,7.5-5.1
		c4.1,1.2,2.4,4.7,1.9,7.5c-1.1,7.1-2.2,14.3-3.4,21.4c-0.6,3.6,1.5,3.8,4.3,3.6c4.6-0.4,9.1-0.8,13.7-0.8c3.2,0,7.1,4.8,5.8,7.6
		c-0.6,1.3-3.8,2.2-5.8,2.2c-4.2,0-8.5-0.6-12.8-1c-3.2-0.3-5.6,0.4-5.7,4.3c-0.1,5.8-0.6,11.6-0.3,17.3
		C599.6,128,600.8,128.9,610.2,130.7z"/>
	<path d="M262.3,124.4c0-15.9-0.1-31.7,0-47.6c0.1-6.1,5-8.6,9.6-8.9c15.6-1.2,31.8-5.4,46.6,2.9
		c3.7,2.1,6.4,8.4,6.9,13.1c1.6,16.4-10.3,27.8-28.9,29c-4.8,0.3-9.6,0.1-14.2,1.3c-2,0.5-4.6,3.7-4.6,5.7
		c-0.2,7.2,0.6,14.5,0.9,21.7c0.3,5.8-3.2,8.9-10.3,9.1c-5.8,0.2-6.8-3.9-6.9-8.5c-0.1-5.9,0-11.9,0-17.8
		C261.6,124.4,262,124.4,262.3,124.4z M315.4,86.6c-0.1-11.5-4.7-16.1-16.5-15.9c-5.3,0.1-10.6,1.5-15.9,1.8
		c-4.4,0.2-6.4,2.1-6.4,6.3c-0.1,6.8,0.4,13.7-0.1,20.5c-0.5,8,1.3,9.9,9.4,8.6c2.4-0.4,5-0.3,7.4-0.5
		C310.1,106.1,315.6,100.9,315.4,86.6z"/>
	<path d="M674.7,134.3c-0.7-4.9-1.4-8.6-1.6-12.4c-0.3-4.7-2.8-6-7.1-5.6c-4.4,0.4-8.8,0.6-13.3,0.7
		c-8.9,0.1-8.6,1.9-9.8,9.3c-0.6,3.7-2,4.5-5.1,4.1c-3.6-0.5-3.4-3.3-2.4-5.4c5.5-11.6,11.2-23.1,16.9-34.6c0.8-1.7,1.7-3.5,3-4.9
		c2-2.1,4.1-5.1,6.5-5.4c4.4-0.5,8.2,0.9,10.2,6.3c3.2,8.7,8,16.7,11.7,25.2c1.7,3.9,2.5,8.2,3.5,12.3c0.2,0.9-0.1,2.4-0.7,2.8
		C683,129.3,679.3,131.4,674.7,134.3z M650.3,110.6c5.3-0.4,9.2-0.5,13-1c6.6-0.8,7.2-1.9,4.4-7.8c-1-2.1-1.8-4.4-2.9-6.5
		c-1.2-2.3-3-3.2-4.7-0.6C657,99.6,654.2,104.4,650.3,110.6z"/>
	<path d="M204.8,129.6c-3.2,1.1-6.3,2.8-9.6,3.3c-13,2-26,3.4-39,5.3c-7.8,1.2-12.3-1.9-12.4-9.8
		c-0.2-13.9-0.3-27.9,0.4-41.8c0.1-2.3,4-6,6.6-6.4c10.4-1.7,20.9-2.4,31.4-3.5c1.3-0.1,3-0.5,3.9,0.1c1.5,1,2.5,2.7,3.7,4.1
		c-1.6,1-3.1,2.7-4.8,2.9c-8,0.9-16.2,0.7-24.1,2.3c-7.9,1.6-4.8,8.9-4.4,13.8c0.1,1.6,5.1,3.3,8.1,4c2,0.5,4.6-1.4,6.5-0.9
		c1.5,0.4,3.1,2.8,3.4,4.5c0.1,1-2,2.9-3.5,3.5c-1.2,0.5-3.1-0.6-4.4-0.1c-3,1.1-7.7,2.1-8.4,4.2c-1,3.3,0.2,7.6,1.5,11.2
		c0.4,1.1,3.9,1.7,5.9,1.6c11.1-0.3,22.2-1,33.4-1.4c1.8-0.1,3.7,0.6,5.5,0.9C204.6,128.2,204.7,128.9,204.8,129.6z"/>
	<path d="M235.6,105.4c-1.6,0.3-2.8,0.6-4,0.8c-10.6,1.9-13.3,7.6-7.5,16.8c0.8,1.3,4,1.9,5.9,1.6
		c7.2-1.1,14.4-2.7,21.5-4.1c0.6,0.7,1.1,1.4,1.7,2.1c-1.7,2-3.1,5.2-5.2,5.8c-9.3,2.7-18.8,4.6-28.2,7c-4.1,1-6,0.2-6.2-4.4
		c-0.5-11.7-1.3-23.3-2.1-35c-0.2-3.2-1.2-6.3-1.7-9.5c-0.7-3.8,0.9-5.7,4.7-6.3c8-1.3,15.9-3,23.9-4c2-0.2,4.2,1.5,6.3,2.3
		c-1.6,1.8-2.8,4.5-4.7,5.1c-4.6,1.3-9.5,1.7-14.3,2.1c-5.9,0.6-7.5,3.6-6.6,9.2c0.9,5.6,4.1,6.1,8.6,4.9
		C232,98.6,235.8,98.3,235.6,105.4z"/>
	<path d="M478.7,124.7c1.4-5.8,2.7-10.6,3.9-15.5c1.1-4.7,1.9-9.6,3.3-14.2c0.4-1.4,2.5-2.4,3.7-3.6
		c1.1,1.4,2.8,2.7,3.1,4.3c0.4,2.6-0.3,5.3-0.4,7.9c-0.1,6.3,0.1,12.6-0.2,18.9c-0.1,2.7-0.4,6.5-2.1,7.7c-1.7,1.3-5.6,0.8-8-0.2
		C480.3,129.3,479.6,126.4,478.7,124.7z"/>
	<path d="M495.2,68.3c-0.6,7-4.8,7.5-8.5,7.2c-1.7-0.1-4.4-2.8-4.4-4.4c0.1-4.4,3.7-6.4,7.6-6.3
		C491.9,64.9,493.9,67.4,495.2,68.3z"/>
</g>
<g>
	<path d="M728,633.3c-6.9,0.5-13.8,1.1-20.7,1.2c-1.1,0-3.2-2.1-3.3-3.4c-0.5-6.5-0.4-13.1-0.6-19.6
		c-0.1-3.8-0.1-7.7-0.6-11.5c-0.5-4.5,1.4-7.9,5.3-9.2c7.2-2.4,14.7-4.4,22.2-5.7c5.1-0.9,9.2,2.9,9.5,8.2c0.2,3.4-0.3,7.2-1.5,10.4
		c-1,2.6-0.9,4.3,1.2,6c1.2,1,2.4,2.2,3.8,2.7c4.6,1.8,5.8,5.4,4.8,9.7c-1,4.4-2.5,9.1-7.8,10.3c-4,0.9-8.2,1-12.3,1.5
		C728,633.8,728,633.6,728,633.3z M725.1,629c0,0.2,0.1,0.4,0.1,0.6c4.8-1,9.9-1.5,14.3-3.3c3.8-1.6,3.8-6.4,0.1-8.1
		c-8.3-3.9-17.1-6.5-26.2-2.5c-2.7,1.2-4.9,3.1-4.3,6.6c0.6,3.4,2.3,5.8,6.2,6C718.6,628.4,721.8,628.8,725.1,629z M708.7,602.2
		c0,7,1.9,8.7,8.4,7.7c0.7-0.1,1.4-0.2,2.1-0.3c5.6-1.5,11.2-3,14-8.7c0.9-1.9,1.3-4.9,0.5-6.7c-0.8-1.7-3.7-3.6-5.5-3.4
		c-4.9,0.6-9.8,1.8-14.4,3.4C710,595.5,708,598.5,708.7,602.2z"/>
	<path d="M793.7,530.5c0-5.3-0.3-11.1,0.2-16.9c0.2-1.6,2.6-3.7,4.4-4.4c5.7-2.1,11.6-3.6,17.5-5.4
		c6.2-1.9,11.5-0.7,15.8,4.4c4.4,5.2,3.9,10.6-1.4,14.9c-2.1,1.7-4.3,3.2-6.6,4.7c-2.8,1.8-4,3.8-1.2,6.5c3,2.8,6,5.7,9.2,8.2
		c1.8,1.4,4.4,2.4,2.5,5.2c-1.8,2.7-4.3,2.5-6.6,0.6c-5.4-4.4-10.6-9.1-16.2-13.2c-1.6-1.2-4.9-2.2-5.9-1.4
		c-1.7,1.3-2.4,4.1-3.1,6.4c-0.3,1.1,0.5,2.5,0.7,3.7c0.6,3.2-0.7,4.9-3.9,5.4c-3.2,0.4-4-1.6-4.2-4.1
		C794.3,540.4,794,535.7,793.7,530.5z M802,521.7c0.1,7.4,0.1,7.4,7.4,5.7c2.9-0.7,5.9-1.2,8.6-2.3c2.8-1.1,5.8-2.4,7.8-4.6
		c1.4-1.5,2.3-5.1,1.5-6.8c-0.9-1.9-4-4-6.2-4c-4.2,0-8.5,1-12.5,2.3C802.8,513.9,801.9,515.5,802,521.7z"/>
	<path d="M850.6,618.9c7.4-0.9,15.2,0.6,22-3.9c1.5-1,4.7-2.2,5.3,0.8c0.5,2.4-0.1,5.8-3.6,6.4
		c-7.3,1.2-14.6,2.3-22,3.2c-4.2,0.5-8.5,0.4-12.8,0.5c-4.7,0.1-6.4-1.1-6.4-5.8c0-10.8,0.2-21.6,0.8-32.4c0.1-1.6,2.7-3.8,4.5-4.3
		c7.4-2.1,14.9-3.7,22.4-5.3c1.3-0.3,4.1,0.4,4.1,0.9c0.2,2.2,0.1,4.6-0.7,6.6c-0.3,0.8-2.9,1.6-4.1,1.2c-6.3-2.1-11.8,0.5-17.2,3
		c-1.7,0.8-3.2,2.9-3.9,4.7c-1.8,4.8,0,6.7,5.1,5.7c4.5-0.9,8.9-2.2,13.3-3c1.3-0.2,3.6,0.2,4,1c0.5,1,0,3.2-0.9,4.1
		c-1.2,1.3-3,2.2-4.7,2.7c-4.1,1.2-8.3,2.1-12.4,3.1c-3.5,0.8-3.9,3.3-3.6,6.3c0.2,2.9,1.8,4.4,4.7,4.4
		C846.6,618.9,848.6,618.9,850.6,618.9z"/>
	<path d="M400.1,560.9c-1.7,0-3.4,0-5.1,0c-6.9,0-7.8-0.8-8.1-7.5c-0.6-12.8-1-25.6-1.5-38.4c-0.1-3.3,1.5-4.4,4.9-4.9
		c9.8-1.6,19.4-3.9,29.1-5.8c1.3-0.3,2.7-0.1,4,0.1c0.3,0.1,0.7,1.6,0.5,1.8c-1,0.9-2.1,1.8-3.3,2.3c-8.5,2.9-17,5.5-25.4,8.4
		c-1.2,0.4-2.7,1.9-2.7,2.9c0,4.1,0.2,8.2,1,12.3c0.2,0.9,2.8,2,4.2,1.8c6.2-0.6,12.4-1.8,18.6-2.5c1.4-0.1,2.9,1.1,4.4,1.7
		c-1,1.1-1.9,2.9-3.1,3.2c-4.4,1.1-8.9,1.6-13.4,2.4c-1.8,0.3-3.6,0.7-5.4,1.3c-6.2,2.3-6.4,2.8-5.1,9c0.9,4.5,4.2,7,9,6.6
		c7.7-0.6,15.3-1.5,22.9-2c0.9-0.1,1.9,1.1,2.9,1.7c-0.8,0.9-1.6,2.6-2.5,2.7c-8.6,1.2-17.2,2.1-25.8,3
		C400.1,561.2,400.1,561.1,400.1,560.9z"/>
	<path d="M599.2,514.9c-1.2,5.7-2.4,12.2-9.6,15.5c-4.9,2.2-4.9,3.5-1.7,8.1c2.9,4.1,5.5,8.3,11.2,9.3
		c0.9,0.1,2.2,1.8,2.1,2.6c-0.1,0.9-1.5,2.2-2.5,2.4c-1.4,0.2-3.3,0-4.3-0.8c-5.2-4.6-10.4-9.3-15.1-14.3
		c-4.3-4.6-12.3-4.9-15.9,0.3c-0.8,1.1-0.6,2.9-0.7,4.4c-0.1,1.5,0.4,3.5-0.4,4.5c-0.8,1.1-2.8,1.9-4.2,1.8
		c-0.8-0.1-2.1-2.2-2.1-3.4c0.1-11.1,0.3-22.1,0.8-33.2c0.1-1.8,1.9-4.4,3.5-5c9.7-3.1,19.5-5.3,29.8-2.8
		C595.7,505.6,599.3,508.9,599.2,514.9z M562.5,520.4c-0.1,8.2,0.5,8.8,8.6,8.9c1.1,0,2.3-0.1,3.4,0.1c8.3,1.7,13.7-2.8,18-8.8
		c3.6-5,1.3-10.8-4.8-11.5c-5.3-0.6-10.8-0.6-16,0.3C563.3,510.8,562.6,512.2,562.5,520.4z"/>
	<path d="M92.7,569.7c-0.9-7-1.8-13.7-2.5-20.5c-0.6-6.4-0.8-12.8-1.4-19.2c-0.2-2.2-1-4.4-1.9-6.4
		c-1.9-4.4,0.3-8.3,5.1-8.9c1.5-0.2,3-0.9,4.4-1.3c5.2-1.5,10.3-3.9,15.5-4.1c3.9-0.2,8.4,1.8,11.7,4.1c3.9,2.7,8.1,6,8.6,11.5
		c0.2,1.7,0.2,3.9-0.7,5.1c-5.5,7.5-13.1,11.3-22.4,11.7c-2.7,0.1-5.4,0.8-7.9,1.7c-1.2,0.4-2.7,1.8-2.8,2.9
		c-0.2,4.2,0.1,8.5,0.3,12.7c0.1,1.1,0.7,2.2,0.7,3.3C99.9,569.9,100.2,568.8,92.7,569.7z M107.5,539.2c0.2,0,1,0,1.6-0.3
		c5-2.6,10.1-5.1,14.9-8.1c1.2-0.7,2-2.9,2-4.4c0.3-5.4-5.8-11.6-11.1-12.8c-8.1-1.7-13.7,1.8-18.3,7.7c-1.3,1.6-2.1,4.1-2,6.2
		C95.1,536.4,98.1,539,107.5,539.2z"/>
	<path d="M259.2,560.7c0.6-2.9,0.9-5.6,1.7-8.1c3.1-9,6.5-18,9.5-27c1-2.9,0.9-6.2,2-9.1c0.8-2.2,2.3-4.9,4.1-5.5
		c1.3-0.4,4.4,1.8,5.4,3.6c6.1,11,11.8,22.3,17.7,33.4c0.7,1.2,1.9,2.2,2.6,3.4c0.8,1.4,1.8,3.1,1.6,4.5c-0.1,0.8-2.6,2-3.7,1.8
		c-1.6-0.3-3.4-1.5-4.2-2.8c-1.5-2.4-1.9-5.5-3.6-7.6c-1.3-1.6-3.9-3.1-5.9-3.1c-4.1,0-8.2,0.9-12.2,1.5c-3.7,0.6-5.2,3.1-5.4,6.6
		c0,0.7-0.1,1.4-0.2,2.1C267.9,561,267.1,561.6,259.2,560.7z M278.9,540.3c2.2-1,5.5-1.5,6.2-3.2c0.7-1.5-1.5-4.3-2.4-6.5
		c-0.2-0.4-0.5-0.7-0.7-1.1c-1.8-2.7-3.7-2.2-5.5-0.1c-0.9,1.1-1.6,2.4-2,3.7c-0.5,1.6-1.5,3.8-0.8,5
		C274.3,539.4,276.7,539.6,278.9,540.3z"/>
	<path d="M258.5,632.8c1.2-5.3,2.7-10.6,3.7-15.9c0.7-3.9,0.9-7.9,1.3-11.9c0.2-2.1,0.8-4.5,3.4-3.8
		c1.5,0.4,3.4,2.4,3.5,3.9c0.4,2.9,0.2,6.1-0.6,8.9c-2.1,7.8-4.4,15.6-7.1,23.2c-1.8,5-5.5,5.4-9,1.3c-4.8-5.6-9.4-11.4-14.1-17
		c-0.5-0.6-0.8-1.3-1.3-1.7c-1.2-0.8-2.6-1.4-3.9-2.1c-0.5,1.3-1.4,2.6-1.3,3.8c0.3,7.1,0.9,14.2,1.4,21.9c-1,0.6-2.6,1.5-5,3
		c-0.6-2.8-1.3-4.9-1.4-7c-0.3-10.4-0.6-20.8-0.6-31.3c0-1.5,1.5-3.9,2.6-4.1c1.6-0.3,4.1,0.6,5.1,1.8c4,5.1,7.5,10.8,11.5,15.9
		c3,3.9,6.6,7.4,9.9,11C257.2,632.8,257.9,632.8,258.5,632.8z"/>
	<path d="M235.2,509.1c-1.7,0.2-2.8,0.5-3.9,0.4c-6.6-1.2-12,2.8-18,4.4c-1.6,0.4-3.5,3.4-3.4,5.2
		c0.2,2.9,1.7,5.9,3,8.6c0.2,0.5,2.4,0.2,3.6,0c3.3-0.7,6.6-1.8,9.9-2.5c1.2-0.3,2.7-0.3,3.7,0.2c0.9,0.4,1.4,1.8,2,2.7
		c-0.9,0.6-1.6,1.5-2.6,1.7c-4.3,1.1-8.8,1.6-12.8,3.3c-1.8,0.8-3.4,3.7-3.8,5.9c-0.4,2.7,0.4,5.6,0.9,8.4c0.6,2.8,2.5,3.4,5.2,2.6
		c4.6-1.4,9.3-2.7,14-3.9c1.6-0.4,3.5-0.6,5,0c1,0.3,2,2.2,1.9,3.2c-0.1,1-1.5,2.4-2.5,2.7c-7.3,2.1-14.7,3.8-22,5.9
		c-3.6,1-6.2,0.1-6.8-3.9c-0.9-5.3-1.2-10.7-1.6-16.1c-0.7-7.8-1.2-15.6-1.9-23.4c-0.3-3.9,1.3-5.5,5.4-5.9
		c4.4-0.5,8.8-2.1,13.2-3.2c2.6-0.6,5.2-1.4,7.9-1.7C235,503.5,235.1,506,235.2,509.1z"/>
	<path d="M678.4,525.6c0-4.8,0-9.7,0-14.5c0-2.8,1-4.2,4.3-4.5c3.4-0.3,6.8-1.9,10.1-3c3.2-1,6.4-2.5,9.7-3.2
		c6.7-1.4,11.8,2.3,12.2,9.1c0.9,13.1-5.2,22.8-19.7,22.4c-0.6,0-1.1,0-1.7,0c-8.2-0.2-9.3,0.9-8.5,9.3c0.2,1.8,1,3.8,0.6,5.5
		c-0.3,1.6-1.7,3-2.7,4.4c-1-1.1-2.8-2.2-2.9-3.4c-1-7.3-1.6-14.7-2.3-22C677.8,525.7,678.1,525.7,678.4,525.6z M693.9,527.6
		c1.3-0.1,2.2,0,3-0.1c9.2-1.3,12.4-5.9,12.9-15.1c0.2-3.8-2.7-6.5-6.2-5.9c-4.3,0.7-8.7,1.8-12.7,3.5c-5,2.1-7.3,8-5.8,13.4
		C686.5,528.3,690.9,526.8,693.9,527.6z"/>
	<path d="M486.1,591.6c6.4,1,12.5,11,9.9,16.6c-2.5,5.5-6.9,8.1-12.3,9.7c-4.5,1.3-9,2.7-13.4,4.3
		c-3.6,1.3-3.7,4.4-3,7.5c0.4,1.8,1.3,3.5,1.9,5.2c1,3-0.7,5-3.2,5.4c-0.9,0.2-3-2.1-3.4-3.5c-1-3.5-1.3-7.3-1.9-10.9
		c-1.1-6.3-2.4-12.6-3.5-18.9c-0.6-3.2,3-8.3,7.6-9.8C471.7,595,478.9,593.5,486.1,591.6z M483.3,597.8c-3.9,0.7-6.7,1-9.5,1.6
		c-7.2,1.6-9.7,4.9-9.7,12.2c0,2.6,1.2,4,3.6,3.8c7.6-0.6,15.1-1.6,21.1-6.9c2.6-2.3,2.9-5.6,0.3-7.9
		C487.4,599.2,484.8,598.6,483.3,597.8z"/>
	<path d="M661.9,543c-4.6,0.9-8.4,1.6-12.2,2.4c-5.6,1.1-11.2,2-16.7,3.4c-5,1.3-6.5,0.9-7.3-4
		c-1.5-9.6-2.7-19.2-4-28.8c-0.5-3.4,0.6-6,4.2-6.9c8-2.1,15.9-4.2,24-5.9c1.3-0.3,3,2.1,4.6,3.2c-1.5,1-2.8,2.7-4.5,3
		c-5.7,1.1-11.5,1.4-17.1,2.8c-5.1,1.2-7.6,8-4.7,12.4c0.7,1,2.7,1.9,3.9,1.6c4-0.9,7.9-2.5,11.9-3.3c1.4-0.3,3.1,0.7,4.6,1.1
		c-0.9,1.5-1.5,3.8-2.8,4.3c-3.8,1.4-7.9,2-11.8,3.1c-2.3,0.6-4.5,1.6-3.3,4.8c1.2,3.1,2.2,6.5,6.6,5.8c5.6-0.9,11.2-1.9,16.9-2.8
		C658.2,538.5,658.9,538.8,661.9,543z"/>
	<path d="M343.5,512.3c-5.6-0.4-12.5,5.1-12.8,10.7c-0.1,1.4,1.7,3.8,3.2,4.3c4.6,1.8,9.5,3,14.2,4.5
		c7.3,2.3,12.3,7.4,15.6,14.1c0.7,1.5,0.1,4.4-1,6c-4.3,6.6-10.7,12.1-19.9,10.1c-4.7-1-9.5-1.4-14.3-1.9c-2.2-0.2-3.7-0.9-3.3-3.4
		c0.4-2.4,1.9-3.3,4.4-2.7c4.5,1.2,9,2.4,13.6,3.3c2.2,0.4,4.9,0.6,6.7-0.4c2.8-1.6,6.3-4,7-6.6c1-4.3-1.7-8.4-5.8-10.5
		c-3.9-2-8.1-3.4-12.2-4.9c-3.6-1.3-7.2-2.4-10.8-3.8c-4.9-2-6-6.8-3-11.1c4.3-6.2,9.7-11,16.8-13.9c3.4-1.4,5.4,0.5,7,2.4
		c1.5,1.9,0.5,3.9-2.2,4.2C345.8,512.8,344.6,512.5,343.5,512.3z"/>
	<path d="M524.6,632.4c-5.5,0.7-11.7-6.9-11-15.9c0.3-3.8,2.2-7.5,3.7-11.2c0.4-1.1,1.6-2.3,2.7-2.6
		c8.9-2.6,17.7-6.9,27.4-4.3c9.9,2.6,14.4,10.3,8.1,19.6C549,627.4,539.5,631.1,524.6,632.4z M552,612.3c0-5.3-2.6-8-7.2-8.7
		c-8.6-1.3-16,1-22.4,6.9c-3,2.8-4.1,7-2.5,10.9c1.5,3.7,4.7,5.6,8.4,5.5c9-0.1,16.4-4.2,22-11.1C551.4,614.6,551.7,612.8,552,612.3
		z"/>
	<path d="M767.3,527.4c0.1,8.6-2.8,12.7-10.8,15.9c-2.5,1-4.9,2.2-7.5,3.2c-12.1,4.5-21.2-2.6-19.3-15.4
		c0.7-4.7,2.4-9.5,4.8-13.6c4.3-7.5,19.5-12.3,28-5c2.9,2.4,3.3,7.8,4.7,11.9C767.6,525.4,767.3,526.5,767.3,527.4z M735.1,531.7
		c0.7,4.2,0.9,8.4,5,10.2c4,1.8,8.1,0.5,11.7-1.9c1.2-0.8,2.3-1.6,3.6-2.3c5.3-2.8,8.1-8.7,6.9-14.6c-0.9-4.6-4.8-8.5-9.4-8.6
		c-8.3-0.2-9.9,0.4-12.3,5.9c-0.8,1.8-2.1,3.4-3,5.2C736.6,527.5,735.9,529.6,735.1,531.7z"/>
	<path d="M874.8,547.6c-3.4-3.2-3.8-7.6-4.5-11.7c-0.9-4.9-1.4-9.9-1.8-14.9c-0.3-2.6-1.5-3.9-4.1-3.8
		c-2.3,0-4.6-0.1-6.9,0.1c-3.1,0.2-4.3-1.5-4.8-4.3c-0.5-3.3,2-3.3,4.1-3.7c9.7-1.6,19.4-3.6,29.1-4.4c2.7-0.2,6.2,2.4,8.5,4.6
		c1.7,1.7-1.5,5.9-4.7,6c-3.6,0.2-7.1,0.1-10.7,0.2c-2.8,0.1-4.8,1.2-4.6,4.3c0.5,6.7-0.1,13.6,2.9,20.1
		C878.5,542.7,878.4,545.7,874.8,547.6z"/>
	<path d="M296.7,641.3c-7-0.1-11.6-3.3-12.9-9.2c-2.1-9.5,0.2-16.5,6.4-19.9c6.7-3.7,13.4-6.6,21.4-3.9
		c5.9,2,10.3,7,9.1,13.1c-0.8,4.1-2.7,8.7-5.5,11.6C310.3,637.8,304.4,642,296.7,641.3z M289.6,628.2c-0.2,5.5,4.8,9.9,10.1,8.6
		c7.1-1.7,12.2-5.8,15.3-12.4c2.2-4.7,0.6-8.6-3.9-10.5C300.6,609.6,289.7,616,289.6,628.2z"/>
	<path d="M586.4,629.9c1.8,0,3.8,0.4,5.5-0.1c1.8-0.5,3.4-1.8,5.2-2.7c-1-1.7-1.6-4.2-3.1-5c-3.6-2-7.5-3.5-11.4-4.7
		c-4.2-1.2-7.3-3.5-8.3-7.7c-1-4.4,1.5-7.3,5-9.6c4.3-2.9,8.2-7,14.1-5.8c1.4,0.3,2.6,1.5,3.9,2.3c-1.3,1.1-2.6,3-3.9,3.1
		c-3.9,0.1-6.9,1.5-9.4,4.2c-3.3,3.5-2.5,6,2,7.7c4.6,1.7,9.2,3.6,13.5,6c3.2,1.8,4.6,7.5,3.6,11.1c-0.9,3.1-5.9,7.1-9.3,7.2
		c-4.6,0-9.1,0.1-13.6-0.5c-1.6-0.2-2.9-2.1-4.4-3.2c1.5-0.8,3-1.9,4.7-2.2c1.9-0.4,4-0.1,6-0.1C586.4,630,586.4,630,586.4,629.9z"
		/>
	<path d="M634.2,599.5c-2.1,1-4.5,1.7-6.2,3.2c-4.8,3.8-4.2,7.2,1.5,9.2c7.1,2.6,13.2,6,15.7,13.9
		c1.1,3.4,0.7,6.1-1.9,8.5c-3.9,3.8-8.3,6.5-14.1,6.1c-2.4-0.2-4.8,0.7-7.2,0.5c-1.5-0.1-4.1-1.1-4.3-2.1c-0.6-2.7,1.7-3.5,4.1-3.6
		c3.6-0.3,7.2-0.1,10.6-0.9c2.4-0.5,5.4-1.9,6.4-3.8c1.5-2.9,0.3-6.2-3-8c-4.8-2.6-9.8-4.9-14.5-7.7c-5.9-3.4-5.9-11.3,0.1-14.5
		c4-2.1,8.4-3.3,12.8-4.4c1.1-0.3,2.8,1.5,4.2,2.3c-1.1,0.9-2.3,1.7-3.4,2.6C634.7,600.4,634.5,600,634.2,599.5z"/>
	<path d="M129,634c-1-6.6-2.1-13.2-3.1-19.8c-0.9-6.5,1-8.4,7.4-9c4.3-0.4,8.6-1.9,12.9-2.9c1.1-0.3,2.3-0.9,3.3-0.7
		c1.3,0.3,2.4,1.2,3.6,1.8c-0.9,1.1-1.6,2.7-2.7,3.1c-4.4,1.5-8.9,2.8-13.5,3.8c-3.4,0.8-4.3,3-4.2,5.9c0.1,1.7,0.4,3.4,0.6,5.1
		c0.4,2.9,2,3.8,4.8,3.5c3.8-0.4,7.7-0.7,11.5-0.8c1.3,0,2.6,0.9,3.9,1.4c-1.1,0.8-2.2,2.2-3.4,2.4c-3.7,0.8-7.6,1.1-11.3,1.8
		c-4.6,0.9-5.6,2.5-4.5,7.1c0.6,2.5,1.5,4.9,1.8,7.4c0.3,2.5-0.8,4.6-3.8,4.6c-2.9,0-3.2-2-3.2-4.4c-0.1-3.4-0.5-6.8-0.7-10.2
		C128.6,634.1,128.8,634.1,129,634z"/>
	<path d="M177.9,556c-3.7,0.9-7.4,1.9-11.2,2.6c-3.9,0.7-7.8,1.2-11.7,1.7c-3,0.4-3.1-2-3.3-3.9
		c-1.1-8.8-2.1-17.6-3.1-26.3c-0.4-3.3-1.2-6.5-1.2-9.7c0-1.8,1.1-4.7,2.3-5.1c3-0.9,3.2,2.1,3.5,4.1c1.5,9.1,2.8,18.3,4.4,27.4
		c1.3,7.4,3,8.3,10.3,6.2c3.1-0.9,6.2-2,9.4-2.8c1.2-0.3,2.7-0.6,3.8-0.2c1.2,0.5,3.1,1.8,3,2.7c-0.1,1.3-1.4,2.8-2.5,3.7
		c-0.8,0.6-2.2,0.4-3.3,0.6C178.1,556.7,178,556.4,177.9,556z"/>
	<path d="M361.2,625.3c0.4,3.9,0.7,7.9,1.1,11.8c0.3,2.9-0.9,4.9-3.8,5.2c-3.5,0.3-2.7-2.6-2.7-4.6
		c-0.1-5.5,0.2-11.1-0.1-16.6c-0.3-6.2-2.4-7.8-8.6-7.4c-1.3,0.1-2.7,0.3-3.8-0.2c-1.2-0.6-2-1.9-3-3c1.1-0.8,2.2-2.3,3.3-2.4
		c11.3-0.8,22.7-1.4,34.1-1.9c1.6-0.1,3.2,0.6,4.7,1c-0.2,1-0.2,2.7-0.8,3c-1.5,0.8-3.7,1.7-4.9,1.2c-5.1-2.3-9,1.7-13.5,2.3
		c-0.7,0.1-1.5,2.3-1.6,3.5c-0.2,2.7-0.1,5.4-0.1,8.1C361.5,625.3,361.3,625.3,361.2,625.3z"/>
	<path d="M776.9,589.4c0.7,2.4,1.9,4.9,2,7.4c0.3,5,0.1,10,0.2,15c0.1,9.8,3.2,12.6,12.9,11.2c2.6-0.4,5-1.9,7.6-2.7
		c1.4-0.4,2.9-0.2,4.4-0.3c0.1,1.5,0.5,3,0.1,4.3c-0.9,3.1-2.4,4.4-6.5,3.9c-5.4-0.7-11,0.7-16.6,1c-5.9,0.3-6.9-0.3-7.2-6.3
		c-0.5-9.8-0.5-19.7-0.5-29.5c0-1.3,1.1-2.6,1.7-3.9C775.5,589.4,776.2,589.4,776.9,589.4z"/>
	<path d="M97.6,617c0-3.1-0.2-6.3,0.1-9.4c0.1-1.2,1.1-2.3,1.7-3.5c1.1,0.9,2.4,1.7,3.2,2.8c0.5,0.7,0.6,1.9,0.7,2.8
		c0.8,11.3,1.4,22.6,2.2,33.9c0.2,2.5-0.4,4.6-3.1,4.5c-1,0-2.8-2-2.9-3.2c-0.9-9.3-1.5-18.7-2.2-28C97.5,617,97.5,617,97.6,617z"/>
	<path d="M682.4,628.5c-1.4,0.6-2.8,1.1-4.2,1.7c-2.4,1-3.6-0.1-3.8-2.3c-0.9-8.8-1.7-17.5-2.4-26.3
		c-0.1-1.4-0.1-3,0.5-4.2c0.6-1.1,2.2-1.8,3.3-2.7c0.8,1.2,2.2,2.3,2.3,3.6c0.7,7.2,0.9,14.4,1.6,21.6
		C680.1,622.7,681.4,625.3,682.4,628.5z"/>
</g>
<g>
	<path d="M648.1,846.2c-2.8,0.1-5,0.1-7.1,0.3c-9.5,1.1-19.1,2-28.5,3.6c-10.6,1.9-21.1,4.2-31.4,6.9
		c-4.3,1.1-8.5,3.3-12.2,5.8c-1.9,1.3-3.2,4.1-3.7,6.5c-0.3,1.4,1,3.8,2.3,4.6c0.9,0.6,3.5-0.3,4.6-1.3c2.7-2.6,5.1-5.7,7.5-8.7
		c1.6-2.1,3-1.3,4.1,0.2c1.8,2.4,3.4,5,5,7.6c1.5,2.5,3.2,2.2,4.9,0.4c2.3-2.5,4.2-5.3,6.7-7.6c1.7-1.6,4-3,6.2-3.5
		c0.9-0.2,2.5,2.4,3.5,4c1.4,2.3,2.5,4.8,3.8,7.2c0.9,1.8,2.3,2.1,3.9,1c3.4-2.3,6.8-4.5,10-7c5.1-4.1,10.4-3.7,15.4,0.6
		c3.9,3.3,8.4,5.9,12.8,8.6c2.2,1.4,3.6,4.2,2.1,6.3c-4.7,6.7-9.6,13.4-14.6,19.9c-1.9,2.5-5.4,1.8-7.5-1.1
		c-1.3-1.8-2.4-3.8-3.8-5.6c-0.9-1.2-2.1-2.3-3-3.3c-4.9,2-8,5.1-10.3,9.4c-2.5,4.8-5.2,5.1-9.6,2c-1.9-1.4-3.9-2.6-6.4-4.1
		c-1,1.7-2.2,3.4-3.2,5.3c-2.7,5.2-6.5,6-10.9,2.1c-1.3-1.1-2.4-2.4-3.7-3.5c-2.3-2-4.2-1.8-5.9,0.8c-1.2,1.8-2.1,3.7-3.2,5.6
		c-2,3.2-4.4,3.7-7.3,1.4c-1.1-0.8-2-1.9-2.8-2.9c-3.1-3.8-4.6-3.8-7.5,0.1c-0.5,0.6-0.8,1.3-1.5,2.6c5.3,1.1,10.1,2.7,15.1,3
		c9.7,0.5,19.4,0.4,29.1,0.3c13.2-0.1,26.4-0.3,39.6-0.8c13.6-0.5,27.1-1.4,40.6-1.9c6.9-0.2,13.8,0.2,20.6,0.2
		c6,0,11.9-0.1,17.7-2.1c3.7-1.2,7.6-1.7,11.5-2.1c2.2-0.2,2.6-1.3,2.9-3c0.3-2.4,0.3-4.8,0.9-7.1c0.3-1.1,1.7-2,2.6-3
		c0.8,0.9,2.3,1.8,2.4,2.8c0.3,3.8,0.4,7.7,0.2,11.5c-0.4,6.1-2.1,12.1,0.2,18.1c0.7,1.9-0.3,2.7-2.2,2.8c-1,0-2,0.3-3,0.2
		c-6.2-0.4-9.4,4.7-13.6,7.7c-0.5,0.3-0.6,1.8-0.3,2.4c0.2,0.5,1.5,0.7,2.2,0.6c3.6-0.6,7.1-1.4,10.6-2.2c2.2-0.5,3.5,0.6,4.2,2.5
		c0.6,1.9,1,3.9,1.4,5.9c0.2,1-0.1,2.2,0.4,3c1,1.5,2.4,2.8,3.6,4.1c0.8-1.4,1.8-2.7,2.3-4.2c1-2.8,1.4-5.7,2.5-8.4
		c1.3-3.2,3.3-3.3,6.2-1.3c2.1,1.4,4.5,2.5,6.9,3.5c0.8,0.3,2-0.1,3-0.2c0.1-0.3,0.2-0.6,0.3-0.8c-2.4-2.2-4.8-4.4-7.1-6.6
		c-1.4-1.4-3.1-2.8-4.1-4.5c-1.1-1.8-2.1-2.9-4.3-3.3c-3.1-0.6-3.7-3.3-3-5.9c0.9-3.6,2.2-7.1,3.7-10.5c2.2-5,4.8-9.9,7.2-14.9
		c1-2.1,2.6-3.6,4.7-1.9c1.9,1.5,1,3.7-0.3,5.5c-0.9,1.3-2.1,2.4-2.9,3.7c-1.1,2-0.3,3.1,1.9,3c1.3,0,2.7-0.3,4-0.6
		c5.1-1.4,10.1-3.2,15.3-4.3c6.6-1.5,13.3-2.6,20-3.6c10.3-1.5,20.6-2.6,30.9-4c9-1.2,17.9-2.6,26.9-3.5c3.5-0.4,7.2,0.1,10.7,0.6
		c1,0.1,2.7,1.6,2.6,2.3c-0.1,1.2-1.2,3-2.2,3.3c-2.3,0.8-4.8,0.8-7.2,1.1c-5.6,0.6-11.2,1.1-16.7,1.7c-3.9,0.4-7.8,0.9-11.8,1.4
		c-7.5,0.9-15,1.5-22.5,2.7c-10.2,1.6-20.4,3.5-30.6,5.5c-7.4,1.5-14.7,3.5-22,5.1c-4.3,0.9-4,4.4-4.4,7.4c-0.3,2.6,1,4.2,3.6,5
		c1,0.3,1.9,1.2,2.5,2.1c3.2,4.8,7.4,8.5,12.4,11.3c1,0.6,2.4,1.1,2.7,2c0.6,1.7,0.9,3.7,0.7,5.4c-0.1,0.5-2.3,1.1-3.5,1
		c-5.6-0.2-11.2-0.7-16.7-0.9c-0.8,0-2.1,0.8-2.5,1.6c-0.9,2-1.6,4.2-2.1,6.4c-0.9,4.6-6.2,6.8-10,4c-4-2.9-6.9-6.4-7.6-11.5
		c-0.6-4.2-1.8-4.8-5.8-3.2c-4.3,1.8-8.5,2.1-12.9,0.5c-2.7-1-3.8-3.2-1.9-5.2c5.4-5.7,11.1-11.2,16.7-16.8c1-1.1,1.7-2.5,2.5-3.8
		c-1.4-0.9-2.9-2.5-4.3-2.5c-7.4,0.1-14.9,0.7-22.3,1.1c-5.1,0.2-10.1,0.2-15.2,0.5c-3.6,0.2-7.2,0.6-10.7,1.4
		c-8.7,2-17.3,0.5-25.9-0.8c-3.2-0.5-6.5-0.6-9.7-0.6c-7.6,0.1-15.1,0.7-22.7,0.7c-6.8,0.1-13.5-0.5-20.3-0.4
		c-9.8,0-19.6,0.4-29.4,0.4c-2.2,0-4.4-0.9-6.6-1.1c-3.1-0.2-6.3-0.2-9.4,0c-5,0.4-7-2.1-4.9-6.7c1.7-3.9,3.5-7.7,5.5-11.5
		c2-3.8,3.7-4.3,7.3-2.1c2.1,1.3,4.1,2.8,6,4.3c2.2,1.7,3.8,1.6,5.3-0.8c1.3-2.2,2.5-4.6,4.2-6.6c1-1.2,2.8-2.5,4.3-2.5
		c1.4,0,2.8,1.7,4.1,2.7c0.1,0.1,0.1,0.2,0.1,0.3c1.9,1.8,3.7,4.5,5.9,4.9c1.4,0.2,3.6-2.8,5.2-4.7c1-1.3,1.3-3.1,2.3-4.5
		c2.1-3.2,4.7-3.1,6.8,0.1c1,1.5,1.9,3.1,3,4.5c2.1,2.7,3.6,2.8,6.1,0.4c3.6-3.5,7.1-7,10.8-10.3c3.1-2.7,5.1-2.2,7.3,1.4
		c1.1,1.8,2.4,3.5,3.6,5.3c1.2,1.7,2.6,1.7,3.9,0.3c3.2-3.3,6.4-6.7,9.4-10.2c1.4-1.7,1-3.3-0.9-4.6c-2.8-1.9-5.5-3.9-8.2-6
		c-3.2-2.5-6.8-1.9-10-0.9c-2.6,0.8-4.8,2.9-7.3,4.1c-3.9,1.9-8,3.7-12.1,5.1c-0.7,0.3-2.5-0.9-3-1.9c-1.2-2-1.9-4.3-2.9-6.5
		c-1-2.3-2.5-2.5-4.3-0.9c-0.8,0.7-1.6,1.6-2.2,2.6c-2.4,4.1-6.2,6.1-10.7,7c-0.9,0.2-2.3-0.8-3.1-1.6c-1-1.1-1.5-2.8-2.5-3.9
		c-2-2.1-5-1.7-6.8,0.5c-0.8,1-1.4,2.1-2.3,2.9c-4.6,4.2-7.3,5.2-11.4-0.4c-2.1-2.9-4.2-5.8-6-8.9c-1.4-2.5,0.3-6.7,3.4-8.7
		c1.6-1,3.4-1.7,5.1-2.6c2.5-1.3,5.2-2.3,7.4-4c4.7-3.6,10.1-5,15.7-6c14.3-2.6,28.7-4.9,43.1-7.4c7.9-1.3,13.9-5.5,19.4-11.3
		c6.2-6.4,13.6-11.8,20.8-17.3c1.2-0.9,3.8-1,5.3-0.4c3.4,1.5,6.6,3.3,9.5,5.6c5.7,4.3,11.6,7.9,18.9,9.4c4.9,1,9.6,3.3,14.5,4.7
		c2.1,0.6,4.4,0.9,6.6,0.7c5.5-0.6,10.9-1.5,16.3-2.5c1.3-0.2,2.6-0.8,3.7-1.5c3.8-2.4,7.6-5,11.3-7.4c3.1-2.1,6.2-1.7,9.2,0.4
		c5.7,3.9,11.4,7.7,17.1,11.5c5,3.3,14.4,2.7,19-1c4.4-3.5,8.8-7.1,13.6-10c4.8-3,11.6-4.2,15.8,3.1c3.4,5.9,7.1,11.6,12.8,15.6
		c2.9,2,5.9,3.7,8.8,5.7c0.8,0.6,1.2,1.8,1.8,2.8c-1,0.1-2.1,0.5-3,0.2c-8.9-2.1-15.2-7.7-20.2-15.2c-1.6-2.4-3.1-5.2-5.3-6.9
		c-1.7-1.2-5-1.8-6.8-1c-4.7,2.1-8.9,5.2-13.4,7.8c-5.7,3.4-11.4,7-17.3,9.9c-4.6,2.3-8.3,0.8-11.7-3.2c-3.8-4.5-7.6-9-12.1-12.8
		c-1.6-1.3-5.2-1.2-7.5-0.5c-2.9,1-5.3,3.3-7.9,5c-3.1,2-6.3,4-9.5,5.8c-3.4,1.9-6.9,3.6-10.4,5.4c-2.2,1.1-3.6,0.3-5.4-1.3
		c-2.2-2-4.8-3.6-7.4-5.1c-3.5-1.9-7.1-3.4-10.7-5c-0.6-0.3-1.2-0.8-1.8-0.8c-8.2,0.1-14.1-5.4-21-8.5c-0.4-0.2-0.8-0.5-1.1-0.8
		c-5.7-4.7-9-5-14.3-0.1c-6.4,6-12.4,12.5-18.4,19C649.4,842.5,648.8,844.9,648.1,846.2z"/>
	<path d="M690.9,861.1c-6,0-7.4-2.4-6.5-6.5c1.2-5.2,5.2-6.8,9.3-8.2c1.4-0.5,3.8,0.5,4.9,1.7c1.9,1.9,2,6.8,0.2,8.1
		C696,858.4,692.7,860,690.9,861.1z"/>
	<path d="M673.2,832.6c3.2,0,3.6,2.8,4.2,5.1c0.6,2.3-1.5,5.6-3.9,6.5c-1.2,0.4-2.4,0.7-3.5,1.1c-4,1.4-7,0.2-8-3.1
		c-1.2-4,0.8-7.9,4.5-8.8C668.7,832.9,670.9,832.8,673.2,832.6z"/>
</g>
<g>
	<path d="M115.4,313.6c0-5-0.4-10.1,0.1-15.1c0.6-6.2,1.8-12.3,3-18.4c0.8-4.1,1.9-8.1,3.4-12
		c2.5-6.5,5.1-13.1,8.1-19.4c2.5-5.2,3-10.4,1.3-15.8c-1.4-4.3-1-8.8-0.5-13.1c0.1-1.2,0.9-2.5,1.6-3.5c2.4-3,5-5.9,7.6-8.9
		c0.5-0.6,1.2-1.1,1.9-1.4c7.2-3.6,14.7-6,23-6c8.1,0,16,1.8,23.9,3.1c0.4,0.1,0.8,0,1.1,0.2c5.6,3.6,12.6,5.2,16.2,11.5
		c1,1.8,2.3,3.4,3.2,5.2c2,4.2,2,8.4,0.8,12.9c-0.6,2.4-0.7,4.9-0.8,7.3c-0.1,2.3,0.8,4.4,1.5,6.6c1.6,5.2,4.8,9.4,6.7,14.3
		c0.4,1,1.2,1.9,1.9,2.8c0.2,0.3,0.7,0.6,0.7,0.9c0.8,6.1,4.9,10.8,6.6,16.5c1.6,5,2.4,10.1,2.8,15.3c0.3,4.3,1,8.5,1.2,12.8
		c0.3,5.3-2.1,9.8-5.2,14c-1.1,1.5-2.5,2.4-4.4,2.9c-3.5,1-6.8,2.3-10.1,3.8c-0.9,0.4-2.1,2.3-1.8,3c1.5,4.5,0.7,9.7,3.5,13.8
		c2.4,3.5,4.4,7.3,6.2,11.1c0.6,1.2,1.8,2.2,2.8,3.2c2.3,2.3,2.2,3.2-0.5,4.5c-6.2,3-12,6.7-16.9,11.6c-0.3,0.3-0.6,0.5-0.9,0.7
		c-2,1.4-3.7,1.3-4.7-0.4c-1-1.7-0.5-4,1.2-5.1c2.4-1.5,4.8-3,7.3-4.5c0.4-0.3,0.9-0.5,1.3-0.9c3.9-2.9,4.1-3.6,2.1-8.1
		c-1.8-4-3.8-8-5.5-12c-1.6-3.7-3-7.5-4.3-11.2c-1.2-3.3-2.1-3.7-5.5-3c-5,1-9.9,1.8-14.9,2.5c-4.6,0.6-5.7,1.5-5.4,6.2
		c0.2,3.8,0.7,7.5,0.9,11.3c0.2,2.4,0.1,4.9,0.3,7.4c0.1,1.5,0.4,3.1,1,4.4c1.7,3.7,1,5.8-3.1,6.8c-5,1.3-10.1,2.3-15.2,3.5
		c-0.5,0.1-1.1,0.3-1.5,0.1c-1-0.3-2.5-0.7-2.8-1.4c-0.3-0.8,0.3-2.4,1-3c1.9-1.4,3.8-3.2,6.6-2.6c0.2,0.1,0.5,0,0.8,0
		c5.9-0.6,6.8-1.8,6-7.6c-0.7-5.4-1-10.9-1.9-16.2c-1.1-6.2-1.7-6.3-8.1-5.9c-8.3,0.5-16.6,0.9-24.8,1.4c-1.3,0.1-2.6,0.4-3.8,0.5
		c-1.3,0.1-2.6,0.3-3.8,0.1c-4.2-0.7-7.3-2.4-7.9-7.5c-0.5-5-2.2-9.8-3.3-14.7c-0.3-1.5-0.4-3.1-0.6-4.6
		C115,313.6,115.2,313.6,115.4,313.6z M136.2,253c-1,1.3-1.9,2.2-2.6,3.2c-3.8,5.7-6.3,11.7-7.5,18.5c-1.7,9.6-4.1,19-3.8,28.9
		c0.2,5,0.1,10.1,0.5,15.1c0.2,2.4,1,4.8,1.4,7.3c0.9,4.8,1.7,5.6,6.6,5.7c4.3,0.1,8.6,0,12.8,0c3.2,0,6.5-0.3,9.7,0.1
		c2.6,0.3,5.1,0.1,7.7-0.2c4.8-0.6,9.6-0.9,14.3-1.5c6.3-0.7,12.7-1.2,18.5-4c0.9-0.5,2.3-0.1,3.4-0.1c1.8-0.1,3.7,0.2,5.4-0.3
		c4.1-1.2,8-2.8,12.1-4.2c1.9-0.6,4-1.1,6-1.5c1.7-0.3,3-1,3.3-2.8c0.4-2.6,1.1-5.1,1.2-7.7c0.3-14-3.2-27.2-8.7-40
		c-2.2-5.1-6.6-9-7.8-14.7c-0.2-0.8-1-1.5-1.6-2.2c-2.2-2.8-3.1-2.9-5.5-0.2c-1.6,1.8-3.1,3.4-5.6,3.9c-0.6,0.1-1.1,0.7-1.6,1
		c-2.1,1-4.1,2.1-6.2,3c-2.3,0.9-4.9,1.1-6.9,2.4c-2.7,1.8-5.7,2.4-8.7,3.1c-2.8,0.6-5.6,1.2-8.4,1.7c-6.2,1.1-11.7-1.1-17.1-3.6
		c-0.2-0.1-0.4-0.3-0.6-0.5c-2.6-2.5-5.7-4.5-7.4-7.9C138.4,254.8,137.4,254.1,136.2,253z M206.9,227.6c-0.7-2.6-0.9-5.4-2.1-7.8
		c-2.4-4.8-5.7-9-10.9-11.1c-3-1.2-5.8-3-8.9-3.8c-5.1-1.3-10.2-3.4-15.5-0.7c-0.4,0.2-1,0.2-1.5,0.2c-3.2,0.3-6.5,0.5-9.7,0.9
		c-1.6,0.2-3.4,0.6-4.8,1.5c-6.7,4-11.6,9.6-14.4,16.9c-1.3,3.4-2.2,7-1,10.7c1.8,5.9,3.7,11.9,5.5,17.8c1.1,3.6,3.7,6.2,6.9,7.5
		c5.5,2.2,11.2,2.9,17.2,2.3c5.3-0.6,9.9-3,14.7-5c3.3-1.4,6.5-3.2,9.7-4.9c5.3-2.7,8-7.7,10.7-12.5
		C204.8,235.8,207.2,232.2,206.9,227.6z"/>
	<path d="M141.5,303.6c0-6.8,0-13.7,0-20.5c0-3.5,0.1-3.6,3.4-4.6c1.2-0.4,2.4-0.8,3.7-1.3c2.5-0.8,3.5,0,3,2.5
		c-0.5,2.7-1.3,5.3-1.6,8c-0.6,5.5-1,11.1-1.4,16.6c-0.1,1.3,0,2.6-0.2,3.9c-0.3,1.6-1.1,2.9-3.1,2.9c-2,0-3.5-1.3-3.7-3.2
		C141.4,306.5,141.5,305.1,141.5,303.6C141.5,303.6,141.5,303.6,141.5,303.6z"/>
	<path d="M165.7,303.8c0.4-2.8,0.9-5.6,1.1-8.4c0.2-3,0.3-5.9,0.3-8.9c0.1-2.9,0.2-5.7,3-7.6c0.6-0.4,0.8-1.3,1.2-2
		c1.2-1.9,2.2-2.2,3.8-1.3c1.5,0.9,2.1,2.4,1.3,3.9c-2.6,5.2-2.6,11-3.7,16.5c-0.7,3.7-0.6,7.5-1.1,11.2c-0.1,1-0.8,2.2-1.6,2.9
		c-0.7,0.6-2,1-2.7,0.7c-0.7-0.3-1.3-1.5-1.4-2.4c-0.2-1.5,0.1-3.1,0.1-4.7C166,303.8,165.9,303.8,165.7,303.8z"/>
	<path d="M170.4,224c0.1-0.7,0-1.6,0.2-2.5c0.1-0.6,0.3-1.3,0.7-1.7c1.4-1.5,6.8-1.6,8.3-0.1c2,1.9,1.8,4.8-0.7,7.1
		c-0.9,0.8-2.1,1.5-3.3,1.8C171.7,229.4,170.3,228.2,170.4,224z"/>
	<path d="M185.2,233.2c0.1-3.1,5.5-7.7,8.6-7.1c0.7,0.1,1.7,0.9,2,1.5c1,2-1.1,7-3.1,7.9c-0.8,0.4-1.7,0.7-2.5,1.1
		C187.2,238,185.1,236.5,185.2,233.2z"/>
</g>
<g>
	<path d="M219.3,912.3c-5.1,0.4-10,0.3-14.6,1.3c-5.6,1.2-11.2,2.1-17,2.6c-5.2,0.4-6.3,1.2-6.9,6.3
		c-0.5,3.6-0.2,7.3,0.1,11c0.4,4.7,1.9,9,4.8,12.8c0.8,1,1.2,2.3,1.5,3.5c0.6,2-0.2,3.3-2.3,4c-5.4,1.7-10.7,3.6-16,5.4
		c-0.9,0.3-2,0.6-2.8,0.3c-1.4-0.5-2.6-1.6-3.8-2.4c0.9-1,1.6-2.3,2.8-3c1.6-0.9,3.6-1.4,5.4-2c1.5-0.5,3.1-0.8,4.6-1.4
		c3.4-1.4,4.6-3.3,3.6-6.8c-2-7.5-4.3-14.9-6.3-22.3c-0.7-2.5-2.3-3.3-4.7-3.2c-7.9,0.2-15.8,0.5-23.7,0.6c-6.1,0.1-11.3-2.3-16-5.9
		c-2.5-1.9-4.1-4.6-4.5-7.8c-0.6-4.9-0.9-9.9,0.8-14.8c1.4-3.8,1.9-7.8,3.1-11.7c5.2-15.8,11.6-31,19.8-45.6c2.7-4.8,5.2-9.6,8-14.3
		c1.4-2.3,2.1-4.7,1.9-7.3c0-0.5,0-1,0-1.5c-1.4-9.6,1.3-18.6,5.1-27.2c1.7-3.8,4.2-7.2,6.7-10.5c5.5-7.1,12-13.1,20.5-16.3
		c2.8-1.1,6-1.1,9-1.6c2.5-0.4,5.1-0.5,7.7-1.1c6.9-1.5,13.1-0.3,18.7,4c1,0.8,2.2,1.4,3.4,1.8c6.1,2.3,10.7,6.6,12.9,12.4
		c3.8,10,4.4,20.5,0,30.5c-1.6,3.7-3.4,7.2-4.2,11.2c-0.4,2-1,4.1-2.1,5.9c-4,6.5-3.5,13.2-1.8,20.1c1.7,7,3.7,14,5.4,21
		c1.2,4.8,1.6,9.8,1.7,14.8c0.1,4,0.1,8,0.2,11.9c0.1,4-1.1,7.8-3,11.1c-1.5,2.7-3.9,5.1-6.2,7.2c-2,1.7-2.3,3.6-2.3,6
		c0.2,9.5,2.9,18.4,7,26.9c0.5,1.1,1.4,2.2,2.1,3.2c2.5,3.2,2.4,3.6-1.4,5.6c-0.9,0.4-1.7,1.1-2.6,1.3c-3.4,0.8-6.2,2.7-8.6,5.2
		c-1.8,1.8-3.7,1.8-5.7,0.9c-1.6-0.7-3.4-1.5-3.3-3.7c0.1-2,1.8-2.4,3.4-2.9c2.6-0.9,5.2-1.9,7.6-3.1c3.3-1.7,4-3.5,2-6.6
		c-3.3-5.1-4.2-11.1-6.3-16.6C221.8,918.7,220.7,915.7,219.3,912.3z M234.8,878.8c-0.4-3.3-0.6-6.7-1.1-10
		c-0.7-4.3-1.7-8.5-2.4-12.8c-0.7-4.4-0.9-8.9-3.2-13c-1.1-1.9-1.2-4.3-1.8-6.5c-0.4-1.7-0.7-3.5-1.4-5.1c-1-2.5-2.5-3.2-4.4-1.5
		c-4,3.5-9.1,4.4-13.8,5.3c-9.4,1.9-18.9,0.8-28.2-1.9c-5.4-1.6-10.6-3.8-14.9-7.7c-2.2-2-3.3-1.7-5.3,0.4c-0.8,0.8-1.4,1.7-2,2.7
		c-3.3,6.2-6.8,12.3-9.8,18.6c-3.8,8.1-5.3,17.2-11.2,24.3c-0.3,0.3-0.2,0.9-0.3,1.4c-1.3,7.1-2.7,14.2-4,21.3
		c-0.3,1.9-0.5,3.8-0.4,5.8c0.2,7,3.4,11.5,10.2,12.8c5,1,10.2,1,15.4,0.9c14.1-0.5,28.1-3,42.1-4.3c5.7-0.5,11.3-2.2,17.1-3
		c6-0.8,11-3.6,15.2-7.7c1.3-1.3,2.3-3.2,2.6-5C234,888.9,234.3,883.9,234.8,878.8z M199.3,831c8.7-0.5,16.5-2.1,21.6-10
		c0.4-0.7,1.1-1.2,1.7-1.7c5.7-4.3,9.7-9.7,12.9-16.4c4.7-10.1,3.1-19.7,0.8-29.7c-0.3-1.3-1.2-2.7-2.2-3.7
		c-6.1-6.8-12.9-12.4-22.9-11.9c-0.9,0-1.9-0.3-2.8-0.5c-4.6-1.1-8.9-0.3-13,2c-3.1,1.7-6.2,3.8-9.5,4.6
		c-6.8,1.5-10.6,6.3-14.7,11.1c-2,2.3-4.4,4.6-5.4,7.3c-3,8.3-5.9,16.7-4.1,25.8c1.8,9,7.2,17.8,17.3,20.4
		C185.8,830.1,192.7,829.7,199.3,831z"/>
	<path d="M152.7,883.9c-3.8,0.1-5.8-3.5-4.5-6.6c2.3-5.3,4.6-10.6,6.8-15.9c1.4-3.4,2.4-7,3.6-10.5c0.5-1.5,1-3.5,3-3.2
		c1.2,0.2,2.4,1.3,3.3,2.3c2.2,2.5,2.3,5.3,0.5,8c-4.9,7.3-7.4,15.6-10.7,23.6C154.1,882.6,153.1,883.4,152.7,883.9z"/>
	<path d="M190.4,854.8c-0.3,0.8-0.4,1.3-0.6,1.7c-4.8,9.3-8.5,19-11.9,28.8c-0.3,0.8-0.9,2-1.6,2.1
		c-0.9,0.3-2.4,0.1-3.1-0.5c-0.6-0.6-1-2-0.7-2.9c2.4-8.1,5-16.2,7.6-24.3c0.6-1.8,1.4-3.6,2.5-5.2c1.4-2.2,4.2-2.9,6.3-1.7
		C189.6,853.3,190,854.2,190.4,854.8z"/>
	<path d="M203.3,789.2c0-2.2,0.3-4.1,2.4-5c2.2-0.9,3.6,0.8,4.9,2.1c1.6,1.5,1.5,3.4,0.4,5.2c-0.2,0.3-0.3,0.6-0.6,0.8
		c-1.3,1-2.7,3-3.9,2.9c-2.3-0.2-2.9-2.6-3.2-4.7C203.3,790,203.3,789.6,203.3,789.2z"/>
	<path d="M220.9,802.7c-0.4-0.3-1.7-0.6-2.2-1.3c-1.4-2-0.4-4,0.5-5.8c0.9-1.8,2-3.3,4.3-3.2c1.8,0.1,3,1,3.5,2.7
		C227.9,798.1,224.7,802.6,220.9,802.7z"/>
</g>
<g>
	<path d="M828.7,333c-4.1,1-8.1,1.9-12.2,2.9c-1,0.2-2.1,0.6-3.2,0.7c-12.5,0.3-24.5,3.4-36.4,6.9
		c-9.7,2.8-17.8,8-23.7,16.4c-2.7,3.8-6.2,4.1-9.5,0.8c-3.3-3.4-6.6-6.8-9.6-10.4c-0.9-1-0.7-2.9-1-4.4c1.6-0.1,3.6-0.8,4.9-0.2
		c2,0.9,3.8,2.5,5.1,4.3c1.9,2.5,4,2.9,6.2,0.9c3.5-3.2,7.1-6.4,10.1-10c1.2-1.5,1.5-4.4,0.9-6.4c-2.6-10.3-1.2-20.3,0.4-30.5
		c1-6.1,1.5-12.3,1.9-18.5c0.1-0.9-1.6-2.7-2.7-2.8c-3.1-0.5-6.4-0.5-9.6-0.5c-3.5,0.1-7,0.7-10.5,0.6c-1.1,0-2.1-1.5-3.1-2.4
		c1-0.8,1.8-1.9,2.9-2.2c7.3-2.2,14.7-4.3,22.1-6.5c0.1,0,0.3,0,0.4-0.1c5.6-2.3,3.9-8.4,6.3-12.4c1.5-2.4-0.7-4.4-2.8-6
		c-7.9-6.5-9.4-15.5-4.4-26.9c4.5-10.1,11-18.6,20.5-24.5c0.7-0.4,1.4-1,2.1-1.2c6.8-1.8,13.5-4.1,20.3-4.9
		c3.9-0.5,8.3,1.2,12.1,2.7c4.8,1.9,9.2,4.5,13.7,7c1.4,0.8,3.1,1.9,3.5,3.3c2.6,9,6.9,17.7,5.2,27.6c-0.6,3.2-1.7,6.3-1.7,9.5
		c0,3.1,0.2,6.7,1.7,9.3c5.6,9.5,9.3,19.7,11.8,30.4c1.1,4.7,2.7,9.4,3.2,14.2c0.6,6.4,0.9,12.9,0.2,19.3c-0.2,2.4-3.2,4.8-5.4,6.7
		c-2.2,1.9-1.9,3.2,0.1,4.8c5.4,4.4,10.8,9,16.3,13.3c4,3.2,3.8,8.6-0.1,11.7c-3,2.3-5.4,5.4-8.1,8.1c-1.6,1.5-3.5,3.8-5.8,1.5
		c-2.4-2.4-1.1-5.1,0.5-7.4c1.7-2.5,3.9-4.7,5.4-7.4c0.5-0.9,0.3-3.2-0.5-3.9c-1.9-1.9-4.2-3.5-6.5-4.7
		C843,338.1,837,332.9,828.7,333z M830.9,253.7c-0.7,0.2-1,0.2-1.2,0.3c-0.6,0.5-1.2,1.1-1.7,1.7c-4.6,5.5-10.5,8.5-17.4,10.3
		c-8.7,2.3-17.1,4.1-25.6-0.4c-2-1.1-4.1-2.1-6.2-3.1c-3.2-1.5-5.5-0.6-6.2,2.8c-1.4,7-2.8,14.1-3.7,21.2c-0.7,5.5-0.5,11-0.9,16.6
		c-0.5,8.2-1.1,16.5-1.7,24.7c-0.2,3,1.4,4.9,4,5.2c6.2,0.7,12.6,2,18.5,0.9c15.9-2.8,31.7-6.7,47.5-10.3c8.8-2,13.1-8.5,11.7-17.5
		c-1.1-7.1-2.4-14.2-3.9-21.2C841.6,273.8,837.8,263.2,830.9,253.7z M799.5,261.1c9.4,0.4,16.2-4,21.8-11.1c4-5.1,6.4-10.8,8.7-16.8
		c4.6-12.1,3.2-18-6.9-26c-7.6-6-16.2-7.2-25.2-4.9c-5.2,1.3-9.9,4.1-15,6c-4.9,1.8-7.9,5.3-10.1,9.9c-1,2.1-2.3,4.3-3.9,6
		c-4.8,5.2-5.4,17.6-1.1,23.1C775.8,257.7,787.1,260.7,799.5,261.1z"/>
	<path d="M820.3,284.9c0,6-2.3,7.6-8.1,7.2c-4.2-0.3-8.5,0.5-12.8,0.9c-4.6,0.4-9.1,0.7-13.7,1.2
		c-2.3,0.3-4.1-0.5-4-2.7c0.1-1.5,1.4-3.8,2.6-4.1c9.8-2.9,19.7-5.5,29.6-8C817.9,278.3,820.3,280.7,820.3,284.9z"/>
	<path d="M800.8,230.6c-0.1,3.2-3.9,7.2-6.8,6.8c-3-0.4-4.5-2.4-4.6-5.3c-0.1-3.7,2.6-5.8,7.3-5.8
		C799.6,226.3,800.9,227.7,800.8,230.6z"/>
	<path d="M784.4,223.8c0,3.5-3,5.7-7.2,5.7c-2.4,0-3.8-1.2-3.8-3.7c-0.1-3.8,2.8-7,6.3-7
		C783.2,218.8,784,221.3,784.4,223.8z"/>
</g>
<g>
	<path d="M305.5,902.7c0.5-5.1,1-12.4,1.9-19.6c0.4-3.2-0.1-4.8-3.8-4.4c-2.6,0.3-5.4,0.4-8-0.2
		c-1.6-0.4-2.7-2.4-4.1-3.6c1.2-1.1,2.3-2.9,3.7-3.3c2.9-0.8,6-0.6,8.9-1.1c5.6-0.9,9-4.3,9.6-9.9c0.4-3.9-2.1-4.8-5.2-5.1
		c-7.5-0.7-14.9-1.4-22.4-2.1c-1-0.1-2.2,0.1-2.9-0.4c-1.3-1-2.4-2.4-3.5-3.6c1.3-0.8,2.5-2.3,3.8-2.3c8.7-0.2,17.3-0.6,26,0
		c7.1,0.5,12-1.3,14.5-8.3c0.8-2.1,3-3.8,3.5-6c0.7-2.7,1.2-6.1,0.2-8.4c-5.5-12.8-5-25.5,0.9-37.6c4.9-9.9,13-17,22.6-22.7
		c8-4.8,15.7-3.1,23.6-0.6c10,3.1,18.8,8.7,26.9,14.8c6.6,5,11.5,11.6,9.7,21c-0.7,3.6-0.3,7.4-1.2,10.9c-1.2,4.9-2.6,10-5,14.4
		c-5,9.3-7.4,19-5,29.3c3.5,14.7,7.6,29.2,11.4,43.8c0.5,2.1,1.4,4.2,1.5,6.3c0.1,6.8,3.6,11.1,9.4,14.1c8.9,4.5,17.5,9.7,26.4,14.1
		c8.8,4.2,8.5,8.3,1.8,15.6c-3.4,3.7-6.6,7.8-10.1,11.4c-1.5,1.5-3.3,2.9-5.3,3.7c-0.7,0.3-3.2-1.6-3.1-2.3c0.2-2.3,0.8-5,2.2-6.7
		c2.6-3.2,6-5.8,8.8-8.8c3.8-3.9,3.7-5.1-1.2-7.9c-7.3-4.3-14.8-8.3-22.4-12.3c-3.6-1.9-7.2-3.7-11.1-4.7c-2-0.6-4.5,0.6-6.8,0.8
		c-20.3,2.2-40.7,5.3-61.2,3.2c-5.6-0.6-11.1-2.3-16.4-4.2c-7.3-2.7-13.3-2.1-18.4,4.2c-6.4,7.9-13,15.5-19.4,23.4
		c-2.8,3.4-5.6,3.9-8.9,0.9c-4-3.8-8-7.6-11.7-11.7c-1-1.1-0.7-3.4-1-5.1c1.8,0.2,4-0.1,5.3,0.8c2.7,1.9,4.7,4.7,7.4,6.7
		c1.1,0.8,3.9,1.1,4.6,0.4c6.7-6.7,13.1-13.7,19.5-20.7C305.4,914.9,307.1,910.3,305.5,902.7z M331.2,869.1c0.9-0.1,3-0.8,4.9-0.3
		c2,0.5,4.7,1.6,5.5,3.2c1.2,2.5,2,6,1.1,8.3c-1.1,2.8-4.4,2.4-7.5,1.7c-5.5-1.2-11.1-2-16.7-2.4c-1.2-0.1-3.5,1.6-3.7,2.8
		c-0.8,4.9-1.7,10-1.2,14.9c0.7,6.9,2.7,14.2,10.3,16.2c9.3,2.4,18.9,4.1,28.5,4.6c10.6,0.5,21.3-0.3,31.9-1.4
		c6.5-0.7,13-2.8,19.3-4.7c1.3-0.4,3-3.2,2.8-4.5c-2.1-9.9-4.7-19.7-7-29.6c-2.3-9.4-5.3-18.7-6.5-28.2c-1.6-13.1-1.4-13.5-13.7-8.4
		c-6.5,2.7-13.1,4.5-19.9,2.2c-6.9-2.3-13.6-5.3-20.5-7.7c-1.5-0.5-4.6-0.5-5.1,0.3c-4.3,7.5-9.1,14.9-11.8,22.9
		C317.9,869.3,318.6,869.6,331.2,869.1z M330.7,806.2c-0.7,6.6,0.7,12.4,4.4,18.1c6,9.3,30.9,18.3,41.2,12.6
		c4.6-2.5,9.6-4.5,14.6-6.4c7-2.7,11.2-7.9,13-14.8c1.1-4.4,1-9.2,1.2-13.8c0.6-9.8-8.3-23.2-17.6-26.5c-7.7-2.7-15.5-5.1-23.1-7.9
		c-4.4-1.6-8.3-1-11.9,1.5c-5.2,3.6-10.6,6.5-13.9,12.8C334.5,789.6,329.6,796.8,330.7,806.2z"/>
	<path d="M367.5,801.3c-0.1-3.4,2.9-7.3,5.5-7.2c2.7,0,7.1,4.5,7,7.3c-0.1,3.3-1.5,5.8-5.1,6.3
		C371.4,808.1,367.6,804.7,367.5,801.3z"/>
	<path d="M350.7,802.2c-3.6-0.2-5.7-1.9-5.5-5.7c0.1-4.3,3-5.6,6.8-5.5c3.2,0.1,5.6,1.4,5.9,4.9
		C358.1,799,354.2,802.3,350.7,802.2z"/>
	<path d="M365.8,698.3c-2.7,8-5.2,15.8-7.8,23.6c-0.3,0.9-0.4,1.9-0.6,2.9c-0.2,1.1-0.1,2.4-0.7,3.1
		c-0.9,1-2.3,1.5-3.5,2.3c-0.6-1-1.7-2-1.6-3c0.3-8.4,0.5-16.9,1.2-25.3c0.4-5.5,6.2-9.8,11.6-9.1c0.8,0.1,1.8,1.4,1.9,2.2
		C366.5,696.1,365.9,697.4,365.8,698.3z"/>
	<path d="M382.2,707.6c0.2-1.4,0.5-2.7,0.7-4c0.2-2.4,1.6-3.6,3.8-3.9c2.2-0.3,4.4-0.7,6.6-0.7c0.6,0,1.8,0.8,1.9,1.3
		c0.1,1.8,0.2,3.7-0.4,5.3c-2.1,4.6-4.6,9-6.8,13.5c-0.8,1.6-1.1,3.4-1.5,5.1c-0.3,1-0.2,2.2-0.5,3.2c-0.9,2.7-2,3-5.8,1.9
		c-2.2-0.6-2.4-2.4-2-4.2C379.4,719.2,380.9,713.3,382.2,707.6z"/>
	<path d="M403.5,725.4c1.9-6.2,3.4-12.4,5.8-18.4c0.8-1.9,3.6-3.6,5.8-4c1.7-0.3,4,1.1,5.7,2.2c1.4,1,1,2.8,0.2,4.3
		c-3.9,6.5-7.7,13.1-11.7,19.5c-0.9,1.4-1.8,3.5-4.2,2.6c-2.1-0.8-2.8-2.6-2.1-5.4c0.1-0.3,0.2-0.6,0.2-1
		C403.3,725.4,403.4,725.4,403.5,725.4z"/>
	<path d="M361.1,744.8c-0.7,2.9-5.4,5.4-8.7,4.6c-2.1-0.5-3.7-3.4-3.2-5.7c0.6-2.8,5-5.4,8.1-4.7
		C360.2,739.6,361.7,741.9,361.1,744.8z"/>
	<path d="M385.9,744.3c-1,3.7-4.5,5.6-8.3,4.5c-2.7-0.8-4.2-3.4-3.4-6.2c1-3.3,4.5-4.8,8.8-3.6
		C385.1,739.6,386.5,742.1,385.9,744.3z"/>
	<path d="M396.6,751.8c-2.4-0.7-3.5-2.6-2.7-4.9c1.2-4,3.6-5.9,6.4-5.1c3.6,1,5,3.1,4,6.1
		C403.2,751.3,400.1,752.9,396.6,751.8z"/>
</g>
</svg>
